  0
SECTION
  2
HEADER
  9
$ANGBASE
  50
0.0
  9
$ANGDIR
  70
1
  9
$MEASUREMENT
  70
1
  0
ENDSEC
  0
SECTION
  2
TABLES
  0
TABLE
  2
LTYPE
  70
4
  0
LTYPE
  5
40F
  2
CONTINUOUS
  70
0
  3
Solid line
  72
65
  73
0
  40
0.0
  0
LTYPE
  5
410
  2
DASHDOT
 70
0
  3
Dash Dot ____ _ ____ _
 72
65
 73
4
 40
2.0
 49
1.25
 49
-0.25
 49
0.25
 49
-0.25
  0
LTYPE
  5
411
  2
DASHED
 70
0
  3
Dashed __ __ __ __ __
 72
65
 73
2
 40
0.75
 49
0.5
 49
-0.25
  0
LTYPE
  5
43B
  2
DOTTED
 70
0
  3
Dotted .  .  .  .
 72
65
 73
2
 40
0.2
 49
0.0
 49
-0.2
  0
ENDTAB
  0
TABLE
  2
STYLE
  70
4
  0
STYLE
  2
KICAD
  70
0
  40
0
  41
1
  42
1
  50
0
  71
0
  3
isocp.shx
  0
STYLE
  2
KICADB
  70
0
  40
0
  41
1
  42
1
  50
0
  71
0
  3
isocp.shx
  0
STYLE
  2
KICADI
  70
0
  40
0
  41
1
  42
1
  50
15
  71
0
  3
isocp.shx
  0
STYLE
  2
KICADBI
  70
0
  40
0
  41
1
  42
1
  50
15
  71
0
  3
isocp.shx
  0
ENDTAB
  0
TABLE
  2
LAYER
  70
1
  0
LAYER
  2
BLACK
  70
0
  62
7
  6
CONTINUOUS
  0
ENDTAB
  0
ENDSEC
  0
SECTION
  2
ENTITIES
0
ARC
8
BLACK
10
21.3637
20
-55.5975
40
2
50
90
51
180
0
LINE
8
BLACK
6
CONTINUOUS
10
19.3637
20
-127.797
11
19.3637
21
-55.5975
0
LINE
8
BLACK
6
CONTINUOUS
10
276.539
20
-55.5975
11
276.539
21
-127.797
0
ARC
8
BLACK
10
274.539
20
-127.797
40
1.99995
50
-90.0014
51
-0
0
ARC
8
BLACK
10
21.3637
20
-127.797
40
2
50
-180
51
-90
0
LINE
8
BLACK
6
CONTINUOUS
10
274.539
20
-53.5975
11
21.3638
21
-53.5975
0
LINE
8
BLACK
6
CONTINUOUS
10
21.3637
20
-129.797
11
274.539
21
-129.797
0
ARC
8
BLACK
10
274.539
20
-55.5975
40
2
50
-0
51
90.0014
0
LINE
8
BLACK
6
CONTINUOUS
10
128.706
20
-113.823
11
128.706
21
-126.723
0
LINE
8
BLACK
6
CONTINUOUS
10
128.206
20
-127.223
11
115.306
21
-127.223
0
LINE
8
BLACK
6
CONTINUOUS
10
115.306
20
-113.323
11
128.206
21
-113.323
0
LINE
8
BLACK
6
CONTINUOUS
10
114.806
20
-126.723
11
114.806
21
-113.823
0
ARC
8
BLACK
10
128.206
20
-126.723
40
0.500001
50
-89.9999
51
-0.000114591
0
ARC
8
BLACK
10
128.206
20
-113.823
40
0.500001
50
0.000114591
51
89.9999
0
ARC
8
BLACK
10
115.306
20
-126.723
40
0.5
50
-180
51
-90
0
ARC
8
BLACK
10
115.306
20
-113.823
40
0.5
50
90
51
180
0
LINE
8
BLACK
6
CONTINUOUS
10
145.763
20
-69.5725
11
145.763
21
-56.6725
0
LINE
8
BLACK
6
CONTINUOUS
10
146.263
20
-56.1725
11
159.163
21
-56.1725
0
LINE
8
BLACK
6
CONTINUOUS
10
159.163
20
-70.0725
11
146.263
21
-70.0725
0
LINE
8
BLACK
6
CONTINUOUS
10
159.663
20
-56.6725
11
159.663
21
-69.5725
0
ARC
8
BLACK
10
146.263
20
-56.6725
40
0.500001
50
90.0001
51
180
0
ARC
8
BLACK
10
146.263
20
-69.5725
40
0.500001
50
-180
51
-90.0001
0
ARC
8
BLACK
10
159.163
20
-56.6725
40
0.5
50
-0
51
90
0
ARC
8
BLACK
10
159.163
20
-69.5725
40
0.5
50
-90
51
-0
0
LINE
8
BLACK
6
CONTINUOUS
10
229.106
20
-126.723
11
229.106
21
-113.823
0
LINE
8
BLACK
6
CONTINUOUS
10
229.606
20
-113.323
11
242.506
21
-113.323
0
LINE
8
BLACK
6
CONTINUOUS
10
242.506
20
-127.223
11
229.606
21
-127.223
0
LINE
8
BLACK
6
CONTINUOUS
10
243.006
20
-113.823
11
243.006
21
-126.723
0
ARC
8
BLACK
10
229.606
20
-113.823
40
0.500001
50
90.0001
51
180
0
ARC
8
BLACK
10
229.606
20
-126.723
40
0.500001
50
-180
51
-90.0001
0
ARC
8
BLACK
10
242.506
20
-113.823
40
0.5
50
-0
51
90
0
ARC
8
BLACK
10
242.506
20
-126.723
40
0.5
50
-90
51
-0
0
CIRCLE
8
BLACK
10
21.745
20
-120.272
40
1.1
0
LINE
8
BLACK
6
CONTINUOUS
10
66.7946
20
-113.823
11
66.7946
21
-126.723
0
LINE
8
BLACK
6
CONTINUOUS
10
66.2946
20
-127.223
11
53.3946
21
-127.223
0
LINE
8
BLACK
6
CONTINUOUS
10
53.3946
20
-113.323
11
66.2946
21
-113.323
0
LINE
8
BLACK
6
CONTINUOUS
10
52.8946
20
-126.723
11
52.8946
21
-113.823
0
ARC
8
BLACK
10
66.2946
20
-126.723
40
0.500001
50
-89.9999
51
-0.000114591
0
ARC
8
BLACK
10
66.2946
20
-113.823
40
0.500001
50
0.000114591
51
89.9999
0
ARC
8
BLACK
10
53.3946
20
-126.723
40
0.5
50
-180
51
-90
0
ARC
8
BLACK
10
53.3946
20
-113.823
40
0.5
50
90
51
180
0
LINE
8
BLACK
6
CONTINUOUS
10
252.92
20
-88.6225
11
252.92
21
-75.7225
0
LINE
8
BLACK
6
CONTINUOUS
10
253.42
20
-75.2225
11
266.32
21
-75.2225
0
LINE
8
BLACK
6
CONTINUOUS
10
266.32
20
-89.1225
11
253.42
21
-89.1225
0
LINE
8
BLACK
6
CONTINUOUS
10
266.82
20
-75.7225
11
266.82
21
-88.6225
0
ARC
8
BLACK
10
253.42
20
-75.7225
40
0.500001
50
90.0001
51
180
0
ARC
8
BLACK
10
253.42
20
-88.6225
40
0.500001
50
-180
51
-90.0001
0
ARC
8
BLACK
10
266.32
20
-75.7225
40
0.5
50
-0
51
90
0
ARC
8
BLACK
10
266.32
20
-88.6225
40
0.5
50
-90
51
-0
0
LINE
8
BLACK
6
CONTINUOUS
10
121.951
20
-107.673
11
121.951
21
-94.7726
0
LINE
8
BLACK
6
CONTINUOUS
10
122.451
20
-94.2726
11
135.351
21
-94.2726
0
LINE
8
BLACK
6
CONTINUOUS
10
135.351
20
-108.173
11
122.451
21
-108.173
0
LINE
8
BLACK
6
CONTINUOUS
10
135.851
20
-94.7726
11
135.851
21
-107.673
0
ARC
8
BLACK
10
122.451
20
-94.7727
40
0.500001
50
90.0001
51
180
0
ARC
8
BLACK
10
122.451
20
-107.673
40
0.500001
50
-180
51
-90.0001
0
ARC
8
BLACK
10
135.351
20
-94.7726
40
0.5
50
-0
51
90
0
ARC
8
BLACK
10
135.351
20
-107.673
40
0.5
50
-90
51
-0
0
CIRCLE
8
BLACK
10
269.395
20
-82.1725
40
1.1
0
CIRCLE
8
BLACK
10
162.239
20
-63.1225
40
1.1
0
LINE
8
BLACK
6
CONTINUOUS
10
92.9884
20
-113.823
11
92.9884
21
-126.723
0
LINE
8
BLACK
6
CONTINUOUS
10
92.4884
20
-127.223
11
79.5884
21
-127.223
0
LINE
8
BLACK
6
CONTINUOUS
10
79.5884
20
-113.323
11
92.4884
21
-113.323
0
LINE
8
BLACK
6
CONTINUOUS
10
79.0884
20
-126.723
11
79.0884
21
-113.823
0
ARC
8
BLACK
10
92.4884
20
-126.723
40
0.500001
50
-89.9999
51
-0.000114591
0
ARC
8
BLACK
10
92.4884
20
-113.823
40
0.500001
50
0.000114591
51
89.9999
0
ARC
8
BLACK
10
79.5884
20
-126.723
40
0.5
50
-180
51
-90
0
ARC
8
BLACK
10
79.5884
20
-113.823
40
0.5
50
90
51
180
0
LINE
8
BLACK
6
CONTINUOUS
10
64.8009
20
-107.673
11
64.8009
21
-94.7726
0
LINE
8
BLACK
6
CONTINUOUS
10
65.3009
20
-94.2726
11
78.2009
21
-94.2726
0
LINE
8
BLACK
6
CONTINUOUS
10
78.2009
20
-108.173
11
65.3009
21
-108.173
0
LINE
8
BLACK
6
CONTINUOUS
10
78.7009
20
-94.7726
11
78.7009
21
-107.673
0
ARC
8
BLACK
10
65.3009
20
-94.7727
40
0.500001
50
90.0001
51
180
0
ARC
8
BLACK
10
65.3009
20
-107.673
40
0.500001
50
-180
51
-90.0001
0
ARC
8
BLACK
10
78.2009
20
-94.7726
40
0.5
50
-0
51
90
0
ARC
8
BLACK
10
78.2009
20
-107.673
40
0.5
50
-90
51
-0
0
LINE
8
BLACK
6
CONTINUOUS
10
257.681
20
-107.673
11
257.681
21
-94.7726
0
LINE
8
BLACK
6
CONTINUOUS
10
258.181
20
-94.2726
11
271.081
21
-94.2726
0
LINE
8
BLACK
6
CONTINUOUS
10
271.081
20
-108.173
11
258.181
21
-108.173
0
LINE
8
BLACK
6
CONTINUOUS
10
271.581
20
-94.7726
11
271.581
21
-107.673
0
ARC
8
BLACK
10
258.181
20
-94.7727
40
0.500001
50
90.0001
51
180
0
ARC
8
BLACK
10
258.181
20
-107.673
40
0.500001
50
-180
51
-90.0001
0
ARC
8
BLACK
10
271.081
20
-94.7726
40
0.5
50
-0
51
90
0
ARC
8
BLACK
10
271.081
20
-107.673
40
0.5
50
-90
51
-0
0
LINE
8
BLACK
6
CONTINUOUS
10
27.2452
20
-94.7726
11
30.5442
21
-94.7726
0
LINE
8
BLACK
6
CONTINUOUS
10
27.2452
20
-108.972
11
27.2452
21
-94.7726
0
LINE
8
BLACK
6
CONTINUOUS
10
30.5442
20
-94.7726
11
30.5442
21
-108.972
0
LINE
8
BLACK
6
CONTINUOUS
10
30.5442
20
-108.972
11
27.2452
21
-108.972
0
LINE
8
BLACK
6
CONTINUOUS
10
51.0439
20
-94.7726
11
54.3443
21
-94.7726
0
LINE
8
BLACK
6
CONTINUOUS
10
51.0439
20
-108.972
11
51.0439
21
-94.7726
0
LINE
8
BLACK
6
CONTINUOUS
10
54.3443
20
-94.7726
11
54.3443
21
-108.972
0
LINE
8
BLACK
6
CONTINUOUS
10
54.3443
20
-108.972
11
51.0439
21
-108.972
0
LINE
8
BLACK
6
CONTINUOUS
10
217.201
20
-107.673
11
217.201
21
-94.7726
0
LINE
8
BLACK
6
CONTINUOUS
10
217.701
20
-94.2726
11
230.601
21
-94.2726
0
LINE
8
BLACK
6
CONTINUOUS
10
230.601
20
-108.173
11
217.701
21
-108.173
0
LINE
8
BLACK
6
CONTINUOUS
10
231.101
20
-94.7726
11
231.101
21
-107.673
0
ARC
8
BLACK
10
217.701
20
-94.7727
40
0.500001
50
90.0001
51
180
0
ARC
8
BLACK
10
217.701
20
-107.673
40
0.500001
50
-180
51
-90.0001
0
ARC
8
BLACK
10
230.601
20
-94.7726
40
0.5
50
-0
51
90
0
ARC
8
BLACK
10
230.601
20
-107.673
40
0.5
50
-90
51
-0
0
LINE
8
BLACK
6
CONTINUOUS
10
150.526
20
-88.6225
11
150.526
21
-75.7225
0
LINE
8
BLACK
6
CONTINUOUS
10
151.026
20
-75.2225
11
163.926
21
-75.2225
0
LINE
8
BLACK
6
CONTINUOUS
10
163.926
20
-89.1225
11
151.026
21
-89.1225
0
LINE
8
BLACK
6
CONTINUOUS
10
164.426
20
-75.7225
11
164.426
21
-88.6225
0
ARC
8
BLACK
10
151.026
20
-75.7225
40
0.500001
50
90.0001
51
180
0
ARC
8
BLACK
10
151.026
20
-88.6225
40
0.500001
50
-180
51
-90.0001
0
ARC
8
BLACK
10
163.926
20
-75.7225
40
0.5
50
-0
51
90
0
ARC
8
BLACK
10
163.926
20
-88.6225
40
0.5
50
-90
51
-0
0
LINE
8
BLACK
6
CONTINUOUS
10
255.301
20
-126.723
11
255.301
21
-113.823
0
LINE
8
BLACK
6
CONTINUOUS
10
255.801
20
-113.323
11
268.701
21
-113.323
0
LINE
8
BLACK
6
CONTINUOUS
10
268.701
20
-127.223
11
255.801
21
-127.223
0
LINE
8
BLACK
6
CONTINUOUS
10
269.201
20
-113.823
11
269.201
21
-126.723
0
ARC
8
BLACK
10
255.801
20
-113.823
40
0.500001
50
90.0001
51
180
0
ARC
8
BLACK
10
255.801
20
-126.723
40
0.500001
50
-180
51
-90.0001
0
ARC
8
BLACK
10
268.701
20
-113.823
40
0.5
50
-0
51
90
0
ARC
8
BLACK
10
268.701
20
-126.723
40
0.5
50
-90
51
-0
0
LINE
8
BLACK
6
CONTINUOUS
10
33.8447
20
-107.673
11
33.8447
21
-94.7726
0
LINE
8
BLACK
6
CONTINUOUS
10
34.3447
20
-94.2726
11
47.2447
21
-94.2726
0
LINE
8
BLACK
6
CONTINUOUS
10
47.2447
20
-108.173
11
34.3447
21
-108.173
0
LINE
8
BLACK
6
CONTINUOUS
10
47.7447
20
-94.7726
11
47.7447
21
-107.673
0
ARC
8
BLACK
10
34.3447
20
-94.7727
40
0.500001
50
90.0001
51
180
0
ARC
8
BLACK
10
34.3447
20
-107.673
40
0.500001
50
-180
51
-90.0001
0
ARC
8
BLACK
10
47.2447
20
-94.7726
40
0.5
50
-0
51
90
0
ARC
8
BLACK
10
47.2447
20
-107.673
40
0.5
50
-90
51
-0
0
LINE
8
BLACK
6
CONTINUOUS
10
155.831
20
-113.823
11
159.13
21
-113.823
0
LINE
8
BLACK
6
CONTINUOUS
10
155.831
20
-128.022
11
155.831
21
-113.823
0
LINE
8
BLACK
6
CONTINUOUS
10
159.13
20
-113.823
11
159.13
21
-128.022
0
LINE
8
BLACK
6
CONTINUOUS
10
159.13
20
-128.022
11
155.831
21
-128.022
0
LINE
8
BLACK
6
CONTINUOUS
10
179.63
20
-113.823
11
182.93
21
-113.823
0
LINE
8
BLACK
6
CONTINUOUS
10
179.63
20
-128.022
11
179.63
21
-113.823
0
LINE
8
BLACK
6
CONTINUOUS
10
182.93
20
-113.823
11
182.93
21
-128.022
0
LINE
8
BLACK
6
CONTINUOUS
10
182.93
20
-128.022
11
179.63
21
-128.022
0
CIRCLE
8
BLACK
10
187.43
20
-120.272
40
1.1
0
CIRCLE
8
BLACK
10
90.8012
20
-82.1725
40
1.1
0
LINE
8
BLACK
6
CONTINUOUS
10
131.476
20
-88.6225
11
131.476
21
-75.7225
0
LINE
8
BLACK
6
CONTINUOUS
10
131.976
20
-75.2225
11
144.876
21
-75.2225
0
LINE
8
BLACK
6
CONTINUOUS
10
144.876
20
-89.1225
11
131.976
21
-89.1225
0
LINE
8
BLACK
6
CONTINUOUS
10
145.376
20
-75.7225
11
145.376
21
-88.6225
0
ARC
8
BLACK
10
131.976
20
-75.7225
40
0.500001
50
90.0001
51
180
0
ARC
8
BLACK
10
131.976
20
-88.6225
40
0.500001
50
-180
51
-90.0001
0
ARC
8
BLACK
10
144.876
20
-75.7225
40
0.5
50
-0
51
90
0
ARC
8
BLACK
10
144.876
20
-88.6225
40
0.5
50
-90
51
-0
0
LINE
8
BLACK
6
CONTINUOUS
10
226.726
20
-88.6225
11
226.726
21
-75.7225
0
LINE
8
BLACK
6
CONTINUOUS
10
227.226
20
-75.2225
11
240.126
21
-75.2225
0
LINE
8
BLACK
6
CONTINUOUS
10
240.126
20
-89.1225
11
227.226
21
-89.1225
0
LINE
8
BLACK
6
CONTINUOUS
10
240.626
20
-75.7225
11
240.626
21
-88.6225
0
ARC
8
BLACK
10
227.226
20
-75.7225
40
0.500001
50
90.0001
51
180
0
ARC
8
BLACK
10
227.226
20
-88.6225
40
0.500001
50
-180
51
-90.0001
0
ARC
8
BLACK
10
240.126
20
-75.7225
40
0.5
50
-0
51
90
0
ARC
8
BLACK
10
240.126
20
-88.6225
40
0.5
50
-90
51
-0
0
CIRCLE
8
BLACK
10
157.476
20
-101.222
40
1.1
0
LINE
8
BLACK
6
CONTINUOUS
10
126.713
20
-69.5725
11
126.713
21
-56.6725
0
LINE
8
BLACK
6
CONTINUOUS
10
127.213
20
-56.1725
11
140.113
21
-56.1725
0
LINE
8
BLACK
6
CONTINUOUS
10
140.113
20
-70.0725
11
127.213
21
-70.0725
0
LINE
8
BLACK
6
CONTINUOUS
10
140.613
20
-56.6725
11
140.613
21
-69.5725
0
ARC
8
BLACK
10
127.213
20
-56.6725
40
0.500001
50
90.0001
51
180
0
ARC
8
BLACK
10
127.213
20
-69.5725
40
0.500001
50
-180
51
-90.0001
0
ARC
8
BLACK
10
140.113
20
-56.6725
40
0.5
50
-0
51
90
0
ARC
8
BLACK
10
140.113
20
-69.5725
40
0.5
50
-90
51
-0
0
LINE
8
BLACK
6
CONTINUOUS
10
26.7012
20
-69.5725
11
26.7012
21
-56.6725
0
LINE
8
BLACK
6
CONTINUOUS
10
27.2012
20
-56.1725
11
40.1013
21
-56.1725
0
LINE
8
BLACK
6
CONTINUOUS
10
40.1013
20
-70.0725
11
27.2012
21
-70.0725
0
LINE
8
BLACK
6
CONTINUOUS
10
40.6013
20
-56.6725
11
40.6013
21
-69.5725
0
ARC
8
BLACK
10
27.2013
20
-56.6725
40
0.500001
50
90.0001
51
180
0
ARC
8
BLACK
10
27.2013
20
-69.5725
40
0.500001
50
-180
51
-90.0001
0
ARC
8
BLACK
10
40.1013
20
-56.6725
40
0.5
50
-0
51
90
0
ARC
8
BLACK
10
40.1013
20
-69.5725
40
0.5
50
-90
51
-0
0
LINE
8
BLACK
6
CONTINUOUS
10
83.8509
20
-107.673
11
83.8509
21
-94.7726
0
LINE
8
BLACK
6
CONTINUOUS
10
84.3509
20
-94.2726
11
97.2509
21
-94.2726
0
LINE
8
BLACK
6
CONTINUOUS
10
97.2509
20
-108.173
11
84.3509
21
-108.173
0
LINE
8
BLACK
6
CONTINUOUS
10
97.7509
20
-94.7726
11
97.7509
21
-107.673
0
ARC
8
BLACK
10
84.3509
20
-94.7727
40
0.500001
50
90.0001
51
180
0
ARC
8
BLACK
10
84.3509
20
-107.673
40
0.500001
50
-180
51
-90.0001
0
ARC
8
BLACK
10
97.2509
20
-94.7726
40
0.5
50
-0
51
90
0
ARC
8
BLACK
10
97.2509
20
-107.673
40
0.5
50
-90
51
-0
0
LINE
8
BLACK
6
CONTINUOUS
10
207.676
20
-88.6225
11
207.676
21
-75.7225
0
LINE
8
BLACK
6
CONTINUOUS
10
208.176
20
-75.2225
11
221.076
21
-75.2225
0
LINE
8
BLACK
6
CONTINUOUS
10
221.076
20
-89.1225
11
208.176
21
-89.1225
0
LINE
8
BLACK
6
CONTINUOUS
10
221.576
20
-75.7225
11
221.576
21
-88.6225
0
ARC
8
BLACK
10
208.176
20
-75.7225
40
0.500001
50
90.0001
51
180
0
ARC
8
BLACK
10
208.176
20
-88.6225
40
0.500001
50
-180
51
-90.0001
0
ARC
8
BLACK
10
221.076
20
-75.7225
40
0.5
50
-0
51
90
0
ARC
8
BLACK
10
221.076
20
-88.6225
40
0.5
50
-90
51
-0
0
LINE
8
BLACK
6
CONTINUOUS
10
179.101
20
-107.673
11
179.101
21
-94.7726
0
LINE
8
BLACK
6
CONTINUOUS
10
179.601
20
-94.2726
11
192.501
21
-94.2726
0
LINE
8
BLACK
6
CONTINUOUS
10
192.501
20
-108.173
11
179.601
21
-108.173
0
LINE
8
BLACK
6
CONTINUOUS
10
193.001
20
-94.7726
11
193.001
21
-107.673
0
ARC
8
BLACK
10
179.601
20
-94.7727
40
0.500001
50
90.0001
51
180
0
ARC
8
BLACK
10
179.601
20
-107.673
40
0.500001
50
-180
51
-90.0001
0
ARC
8
BLACK
10
192.501
20
-94.7726
40
0.5
50
-0
51
90
0
ARC
8
BLACK
10
192.501
20
-107.673
40
0.5
50
-90
51
-0
0
LINE
8
BLACK
6
CONTINUOUS
10
50.5134
20
-69.5725
11
50.5134
21
-56.6725
0
LINE
8
BLACK
6
CONTINUOUS
10
51.0134
20
-56.1725
11
63.9134
21
-56.1725
0
LINE
8
BLACK
6
CONTINUOUS
10
63.9134
20
-70.0725
11
51.0134
21
-70.0725
0
LINE
8
BLACK
6
CONTINUOUS
10
64.4134
20
-56.6725
11
64.4134
21
-69.5725
0
ARC
8
BLACK
10
51.0134
20
-56.6725
40
0.500001
50
90.0001
51
180
0
ARC
8
BLACK
10
51.0134
20
-69.5725
40
0.500001
50
-180
51
-90.0001
0
ARC
8
BLACK
10
63.9134
20
-56.6725
40
0.5
50
-0
51
90
0
ARC
8
BLACK
10
63.9134
20
-69.5725
40
0.5
50
-90
51
-0
0
CIRCLE
8
BLACK
10
224.151
20
-82.1725
40
1.1
0
LINE
8
BLACK
6
CONTINUOUS
10
164.813
20
-69.5725
11
164.813
21
-56.6725
0
LINE
8
BLACK
6
CONTINUOUS
10
165.313
20
-56.1725
11
178.213
21
-56.1725
0
LINE
8
BLACK
6
CONTINUOUS
10
178.213
20
-70.0725
11
165.313
21
-70.0725
0
LINE
8
BLACK
6
CONTINUOUS
10
178.713
20
-56.6725
11
178.713
21
-69.5725
0
ARC
8
BLACK
10
165.313
20
-56.6725
40
0.500001
50
90.0001
51
180
0
ARC
8
BLACK
10
165.313
20
-69.5725
40
0.500001
50
-180
51
-90.0001
0
ARC
8
BLACK
10
178.213
20
-56.6725
40
0.5
50
-0
51
90
0
ARC
8
BLACK
10
178.213
20
-69.5725
40
0.5
50
-90
51
-0
0
LINE
8
BLACK
6
CONTINUOUS
10
202.914
20
-126.723
11
202.914
21
-113.823
0
LINE
8
BLACK
6
CONTINUOUS
10
203.414
20
-113.323
11
216.314
21
-113.323
0
LINE
8
BLACK
6
CONTINUOUS
10
216.314
20
-127.223
11
203.414
21
-127.223
0
LINE
8
BLACK
6
CONTINUOUS
10
216.814
20
-113.823
11
216.814
21
-126.723
0
ARC
8
BLACK
10
203.414
20
-113.823
40
0.500001
50
90.0001
51
180
0
ARC
8
BLACK
10
203.414
20
-126.723
40
0.500001
50
-180
51
-90.0001
0
ARC
8
BLACK
10
216.314
20
-113.823
40
0.5
50
-0
51
90
0
ARC
8
BLACK
10
216.314
20
-126.723
40
0.5
50
-90
51
-0
0
CIRCLE
8
BLACK
10
226.532
20
-120.272
40
1.1
0
CIRCLE
8
BLACK
10
200.339
20
-63.1225
40
1.1
0
LINE
8
BLACK
6
CONTINUOUS
10
202.913
20
-69.5725
11
202.913
21
-56.6725
0
LINE
8
BLACK
6
CONTINUOUS
10
203.413
20
-56.1725
11
216.313
21
-56.1725
0
LINE
8
BLACK
6
CONTINUOUS
10
216.313
20
-70.0725
11
203.413
21
-70.0725
0
LINE
8
BLACK
6
CONTINUOUS
10
216.813
20
-56.6725
11
216.813
21
-69.5725
0
ARC
8
BLACK
10
203.413
20
-56.6725
40
0.500001
50
90.0001
51
180
0
ARC
8
BLACK
10
203.413
20
-69.5725
40
0.500001
50
-180
51
-90.0001
0
ARC
8
BLACK
10
216.313
20
-56.6725
40
0.5
50
-0
51
90
0
ARC
8
BLACK
10
216.313
20
-69.5725
40
0.5
50
-90
51
-0
0
CIRCLE
8
BLACK
10
233.676
20
-101.222
40
1.1
0
CIRCLE
8
BLACK
10
186.051
20
-82.1725
40
1.1
0
LINE
8
BLACK
6
CONTINUOUS
10
141.001
20
-107.673
11
141.001
21
-94.7726
0
LINE
8
BLACK
6
CONTINUOUS
10
141.501
20
-94.2726
11
154.401
21
-94.2726
0
LINE
8
BLACK
6
CONTINUOUS
10
154.401
20
-108.173
11
141.501
21
-108.173
0
LINE
8
BLACK
6
CONTINUOUS
10
154.901
20
-94.7726
11
154.901
21
-107.673
0
ARC
8
BLACK
10
141.501
20
-94.7727
40
0.500001
50
90.0001
51
180
0
ARC
8
BLACK
10
141.501
20
-107.673
40
0.500001
50
-180
51
-90.0001
0
ARC
8
BLACK
10
154.401
20
-94.7726
40
0.5
50
-0
51
90
0
ARC
8
BLACK
10
154.401
20
-107.673
40
0.5
50
-90
51
-0
0
LINE
8
BLACK
6
CONTINUOUS
10
183.863
20
-69.5725
11
183.863
21
-56.6725
0
LINE
8
BLACK
6
CONTINUOUS
10
184.363
20
-56.1725
11
197.263
21
-56.1725
0
LINE
8
BLACK
6
CONTINUOUS
10
197.263
20
-70.0725
11
184.363
21
-70.0725
0
LINE
8
BLACK
6
CONTINUOUS
10
197.763
20
-56.6725
11
197.763
21
-69.5725
0
ARC
8
BLACK
10
184.363
20
-56.6725
40
0.500001
50
90.0001
51
180
0
ARC
8
BLACK
10
184.363
20
-69.5725
40
0.500001
50
-180
51
-90.0001
0
ARC
8
BLACK
10
197.263
20
-56.6725
40
0.5
50
-0
51
90
0
ARC
8
BLACK
10
197.263
20
-69.5725
40
0.5
50
-90
51
-0
0
LINE
8
BLACK
6
CONTINUOUS
10
74.3259
20
-88.6225
11
74.3259
21
-75.7225
0
LINE
8
BLACK
6
CONTINUOUS
10
74.8259
20
-75.2225
11
87.7259
21
-75.2225
0
LINE
8
BLACK
6
CONTINUOUS
10
87.7259
20
-89.1225
11
74.8259
21
-89.1225
0
LINE
8
BLACK
6
CONTINUOUS
10
88.2259
20
-75.7225
11
88.2259
21
-88.6225
0
ARC
8
BLACK
10
74.8259
20
-75.7225
40
0.500001
50
90.0001
51
180
0
ARC
8
BLACK
10
74.8259
20
-88.6225
40
0.500001
50
-180
51
-90.0001
0
ARC
8
BLACK
10
87.7259
20
-75.7225
40
0.5
50
-0
51
90
0
ARC
8
BLACK
10
87.7259
20
-88.6225
40
0.5
50
-90
51
-0
0
LINE
8
BLACK
6
CONTINUOUS
10
198.151
20
-107.673
11
198.151
21
-94.7726
0
LINE
8
BLACK
6
CONTINUOUS
10
198.651
20
-94.2726
11
211.551
21
-94.2726
0
LINE
8
BLACK
6
CONTINUOUS
10
211.551
20
-108.173
11
198.651
21
-108.173
0
LINE
8
BLACK
6
CONTINUOUS
10
212.051
20
-94.7726
11
212.051
21
-107.673
0
ARC
8
BLACK
10
198.651
20
-94.7727
40
0.500001
50
90.0001
51
180
0
ARC
8
BLACK
10
198.651
20
-107.673
40
0.500001
50
-180
51
-90.0001
0
ARC
8
BLACK
10
211.551
20
-94.7726
40
0.5
50
-0
51
90
0
ARC
8
BLACK
10
211.551
20
-107.673
40
0.5
50
-90
51
-0
0
CIRCLE
8
BLACK
10
145.759
20
-120.272
40
1.1
0
CIRCLE
8
BLACK
10
21.67
20
-101.222
40
1.1
0
LINE
8
BLACK
6
CONTINUOUS
10
260.063
20
-69.5725
11
260.063
21
-56.6725
0
LINE
8
BLACK
6
CONTINUOUS
10
260.563
20
-56.1725
11
273.463
21
-56.1725
0
LINE
8
BLACK
6
CONTINUOUS
10
273.463
20
-70.0725
11
260.563
21
-70.0725
0
LINE
8
BLACK
6
CONTINUOUS
10
273.963
20
-56.6725
11
273.963
21
-69.5725
0
ARC
8
BLACK
10
260.563
20
-56.6725
40
0.500001
50
90.0001
51
180
0
ARC
8
BLACK
10
260.563
20
-69.5725
40
0.500001
50
-180
51
-90.0001
0
ARC
8
BLACK
10
273.463
20
-56.6725
40
0.5
50
-0
51
90
0
ARC
8
BLACK
10
273.463
20
-69.5725
40
0.5
50
-90
51
-0
0
LINE
8
BLACK
6
CONTINUOUS
10
236.251
20
-107.673
11
236.251
21
-94.7726
0
LINE
8
BLACK
6
CONTINUOUS
10
236.751
20
-94.2726
11
249.651
21
-94.2726
0
LINE
8
BLACK
6
CONTINUOUS
10
249.651
20
-108.173
11
236.751
21
-108.173
0
LINE
8
BLACK
6
CONTINUOUS
10
250.151
20
-94.7726
11
250.151
21
-107.673
0
ARC
8
BLACK
10
236.751
20
-94.7727
40
0.500001
50
90.0001
51
180
0
ARC
8
BLACK
10
236.751
20
-107.673
40
0.500001
50
-180
51
-90.0001
0
ARC
8
BLACK
10
249.651
20
-94.7726
40
0.5
50
-0
51
90
0
ARC
8
BLACK
10
249.651
20
-107.673
40
0.5
50
-90
51
-0
0
CIRCLE
8
BLACK
10
274.157
20
-120.272
40
1.1
0
LINE
8
BLACK
6
CONTINUOUS
10
221.963
20
-69.5725
11
221.963
21
-56.6725
0
LINE
8
BLACK
6
CONTINUOUS
10
222.463
20
-56.1725
11
235.363
21
-56.1725
0
LINE
8
BLACK
6
CONTINUOUS
10
235.363
20
-70.0725
11
222.463
21
-70.0725
0
LINE
8
BLACK
6
CONTINUOUS
10
235.863
20
-56.6725
11
235.863
21
-69.5725
0
ARC
8
BLACK
10
222.463
20
-56.6725
40
0.500001
50
90.0001
51
180
0
ARC
8
BLACK
10
222.463
20
-69.5725
40
0.500001
50
-180
51
-90.0001
0
ARC
8
BLACK
10
235.363
20
-56.6725
40
0.5
50
-0
51
90
0
ARC
8
BLACK
10
235.363
20
-69.5725
40
0.5
50
-90
51
-0
0
CIRCLE
8
BLACK
10
48.745
20
-82.1725
40
1.1
0
CIRCLE
8
BLACK
10
251.536
20
-120.272
40
1.1
0
CIRCLE
8
BLACK
10
45.5575
20
-63.1225
40
1.1
0
LINE
8
BLACK
6
CONTINUOUS
10
241.013
20
-69.5725
11
241.013
21
-56.6725
0
LINE
8
BLACK
6
CONTINUOUS
10
241.513
20
-56.1725
11
254.413
21
-56.1725
0
LINE
8
BLACK
6
CONTINUOUS
10
254.413
20
-70.0725
11
241.513
21
-70.0725
0
LINE
8
BLACK
6
CONTINUOUS
10
254.913
20
-56.6725
11
254.913
21
-69.5725
0
ARC
8
BLACK
10
241.513
20
-56.6725
40
0.500001
50
90.0001
51
180
0
ARC
8
BLACK
10
241.513
20
-69.5725
40
0.500001
50
-180
51
-90.0001
0
ARC
8
BLACK
10
254.413
20
-56.6725
40
0.5
50
-0
51
90
0
ARC
8
BLACK
10
254.413
20
-69.5725
40
0.5
50
-90
51
-0
0
LINE
8
BLACK
6
CONTINUOUS
10
88.6134
20
-69.5725
11
88.6134
21
-56.6725
0
LINE
8
BLACK
6
CONTINUOUS
10
89.1134
20
-56.1725
11
102.013
21
-56.1725
0
LINE
8
BLACK
6
CONTINUOUS
10
102.013
20
-70.0725
11
89.1134
21
-70.0725
0
LINE
8
BLACK
6
CONTINUOUS
10
102.513
20
-56.6725
11
102.513
21
-69.5725
0
ARC
8
BLACK
10
89.1134
20
-56.6725
40
0.500001
50
90.0001
51
180
0
ARC
8
BLACK
10
89.1134
20
-69.5725
40
0.500001
50
-180
51
-90.0001
0
ARC
8
BLACK
10
102.013
20
-56.6725
40
0.5
50
-0
51
90
0
ARC
8
BLACK
10
102.013
20
-69.5725
40
0.5
50
-90
51
-0
0
LINE
8
BLACK
6
CONTINUOUS
10
108.206
20
-113.823
11
111.505
21
-113.823
0
LINE
8
BLACK
6
CONTINUOUS
10
108.206
20
-128.022
11
108.206
21
-113.823
0
LINE
8
BLACK
6
CONTINUOUS
10
111.505
20
-113.823
11
111.505
21
-128.022
0
LINE
8
BLACK
6
CONTINUOUS
10
111.505
20
-128.022
11
108.206
21
-128.022
0
LINE
8
BLACK
6
CONTINUOUS
10
132.005
20
-113.823
11
135.305
21
-113.823
0
LINE
8
BLACK
6
CONTINUOUS
10
132.005
20
-128.022
11
132.005
21
-113.823
0
LINE
8
BLACK
6
CONTINUOUS
10
135.305
20
-113.823
11
135.305
21
-128.022
0
LINE
8
BLACK
6
CONTINUOUS
10
135.305
20
-128.022
11
132.005
21
-128.022
0
CIRCLE
8
BLACK
10
86.0387
20
-63.1225
40
1.1
0
LINE
8
BLACK
6
CONTINUOUS
10
102.901
20
-107.673
11
102.901
21
-94.7726
0
LINE
8
BLACK
6
CONTINUOUS
10
103.401
20
-94.2726
11
116.301
21
-94.2726
0
LINE
8
BLACK
6
CONTINUOUS
10
116.301
20
-108.173
11
103.401
21
-108.173
0
LINE
8
BLACK
6
CONTINUOUS
10
116.801
20
-94.7726
11
116.801
21
-107.673
0
ARC
8
BLACK
10
103.401
20
-94.7727
40
0.500001
50
90.0001
51
180
0
ARC
8
BLACK
10
103.401
20
-107.673
40
0.500001
50
-180
51
-90.0001
0
ARC
8
BLACK
10
116.301
20
-94.7726
40
0.5
50
-0
51
90
0
ARC
8
BLACK
10
116.301
20
-107.673
40
0.5
50
-90
51
-0
0
LINE
8
BLACK
6
CONTINUOUS
10
160.051
20
-107.673
11
160.051
21
-94.7726
0
LINE
8
BLACK
6
CONTINUOUS
10
160.551
20
-94.2726
11
173.451
21
-94.2726
0
LINE
8
BLACK
6
CONTINUOUS
10
173.451
20
-108.173
11
160.551
21
-108.173
0
LINE
8
BLACK
6
CONTINUOUS
10
173.951
20
-94.7726
11
173.951
21
-107.673
0
ARC
8
BLACK
10
160.551
20
-94.7727
40
0.500001
50
90.0001
51
180
0
ARC
8
BLACK
10
160.551
20
-107.673
40
0.500001
50
-180
51
-90.0001
0
ARC
8
BLACK
10
173.451
20
-94.7726
40
0.5
50
-0
51
90
0
ARC
8
BLACK
10
173.451
20
-107.673
40
0.5
50
-90
51
-0
0
LINE
8
BLACK
6
CONTINUOUS
10
24.32
20
-88.623
11
24.32
21
-75.723
0
LINE
8
BLACK
6
CONTINUOUS
10
24.82
20
-75.223
11
42.4825
21
-75.223
0
LINE
8
BLACK
6
CONTINUOUS
10
24.82
20
-89.123
11
42.4825
21
-89.123
0
LINE
8
BLACK
6
CONTINUOUS
10
42.9825
20
-75.723
11
42.9825
21
-88.623
0
ARC
8
BLACK
10
24.82
20
-75.723
40
0.500001
50
90.0001
51
180
0
ARC
8
BLACK
10
24.82
20
-88.623
40
0.500001
50
-180
51
-90.0001
0
ARC
8
BLACK
10
42.4826
20
-75.7229
40
0.4999
50
-0.0114614
51
90.0115
0
ARC
8
BLACK
10
42.4825
20
-88.623
40
0.5
50
-90
51
-0
0
LINE
8
BLACK
6
CONTINUOUS
10
188.626
20
-88.6225
11
188.626
21
-75.7225
0
LINE
8
BLACK
6
CONTINUOUS
10
189.126
20
-75.2225
11
202.026
21
-75.2225
0
LINE
8
BLACK
6
CONTINUOUS
10
202.026
20
-89.1225
11
189.126
21
-89.1225
0
LINE
8
BLACK
6
CONTINUOUS
10
202.526
20
-75.7225
11
202.526
21
-88.6225
0
ARC
8
BLACK
10
189.126
20
-75.7225
40
0.500001
50
90.0001
51
180
0
ARC
8
BLACK
10
189.126
20
-88.6225
40
0.500001
50
-180
51
-90.0001
0
ARC
8
BLACK
10
202.026
20
-75.7225
40
0.5
50
-0
51
90
0
ARC
8
BLACK
10
202.026
20
-88.6225
40
0.5
50
-90
51
-0
0
CIRCLE
8
BLACK
10
62.2263
20
-101.222
40
1.1
0
CIRCLE
8
BLACK
10
24.1262
20
-63.1225
40
1.1
0
CIRCLE
8
BLACK
10
69.37
20
-120.272
40
1.1
0
CIRCLE
8
BLACK
10
44.3669
20
-120.272
40
1.1
0
CIRCLE
8
BLACK
10
238.439
20
-63.1225
40
1.1
0
LINE
8
BLACK
6
CONTINUOUS
10
55.2759
20
-88.6225
11
55.2759
21
-75.7225
0
LINE
8
BLACK
6
CONTINUOUS
10
55.7759
20
-75.2225
11
68.6759
21
-75.2225
0
LINE
8
BLACK
6
CONTINUOUS
10
68.6759
20
-89.1225
11
55.7759
21
-89.1225
0
LINE
8
BLACK
6
CONTINUOUS
10
69.1759
20
-75.7225
11
69.1759
21
-88.6225
0
ARC
8
BLACK
10
55.7759
20
-75.7225
40
0.500001
50
90.0001
51
180
0
ARC
8
BLACK
10
55.7759
20
-88.6225
40
0.500001
50
-180
51
-90.0001
0
ARC
8
BLACK
10
68.6759
20
-75.7225
40
0.5
50
-0
51
90
0
ARC
8
BLACK
10
68.6759
20
-88.6225
40
0.5
50
-90
51
-0
0
LINE
8
BLACK
6
CONTINUOUS
10
107.663
20
-69.5725
11
107.663
21
-56.6725
0
LINE
8
BLACK
6
CONTINUOUS
10
108.163
20
-56.1725
11
121.063
21
-56.1725
0
LINE
8
BLACK
6
CONTINUOUS
10
121.063
20
-70.0725
11
108.163
21
-70.0725
0
LINE
8
BLACK
6
CONTINUOUS
10
121.563
20
-56.6725
11
121.563
21
-69.5725
0
ARC
8
BLACK
10
108.163
20
-56.6725
40
0.500001
50
90.0001
51
180
0
ARC
8
BLACK
10
108.163
20
-69.5725
40
0.500001
50
-180
51
-90.0001
0
ARC
8
BLACK
10
121.063
20
-56.6725
40
0.5
50
-0
51
90
0
ARC
8
BLACK
10
121.063
20
-69.5725
40
0.5
50
-90
51
-0
0
CIRCLE
8
BLACK
10
147.976
20
-82.1725
40
1.1
0
LINE
8
BLACK
6
CONTINUOUS
10
69.5634
20
-69.5725
11
69.5634
21
-56.6725
0
LINE
8
BLACK
6
CONTINUOUS
10
70.0634
20
-56.1725
11
82.9634
21
-56.1725
0
LINE
8
BLACK
6
CONTINUOUS
10
82.9634
20
-70.0725
11
70.0634
21
-70.0725
0
LINE
8
BLACK
6
CONTINUOUS
10
83.4634
20
-56.6725
11
83.4634
21
-69.5725
0
ARC
8
BLACK
10
70.0634
20
-56.6725
40
0.500001
50
90.0001
51
180
0
ARC
8
BLACK
10
70.0634
20
-69.5725
40
0.500001
50
-180
51
-90.0001
0
ARC
8
BLACK
10
82.9634
20
-56.6725
40
0.5
50
-0
51
90
0
ARC
8
BLACK
10
82.9634
20
-69.5725
40
0.5
50
-90
51
-0
0
CIRCLE
8
BLACK
10
119.376
20
-101.222
40
1.1
0
CIRCLE
8
BLACK
10
124.139
20
-63.1225
40
1.1
0
LINE
8
BLACK
6
CONTINUOUS
10
162.431
20
-126.723
11
162.431
21
-113.823
0
LINE
8
BLACK
6
CONTINUOUS
10
162.931
20
-113.323
11
175.831
21
-113.323
0
LINE
8
BLACK
6
CONTINUOUS
10
175.831
20
-127.223
11
162.931
21
-127.223
0
LINE
8
BLACK
6
CONTINUOUS
10
176.331
20
-113.823
11
176.331
21
-126.723
0
ARC
8
BLACK
10
162.931
20
-113.823
40
0.500001
50
90.0001
51
180
0
ARC
8
BLACK
10
162.931
20
-126.723
40
0.500001
50
-180
51
-90.0001
0
ARC
8
BLACK
10
175.831
20
-113.823
40
0.5
50
-0
51
90
0
ARC
8
BLACK
10
175.831
20
-126.723
40
0.5
50
-90
51
-0
0
LINE
8
BLACK
6
CONTINUOUS
10
40.6009
20
-113.823
11
40.6009
21
-126.723
0
LINE
8
BLACK
6
CONTINUOUS
10
40.1009
20
-127.223
11
27.2009
21
-127.223
0
LINE
8
BLACK
6
CONTINUOUS
10
27.2009
20
-113.323
11
40.1009
21
-113.323
0
LINE
8
BLACK
6
CONTINUOUS
10
26.7009
20
-126.723
11
26.7009
21
-113.823
0
ARC
8
BLACK
10
40.1009
20
-126.723
40
0.500001
50
-89.9999
51
-0.000114591
0
ARC
8
BLACK
10
40.1009
20
-113.823
40
0.500001
50
0.000114591
51
89.9999
0
ARC
8
BLACK
10
27.2009
20
-126.723
40
0.5
50
-180
51
-90
0
ARC
8
BLACK
10
27.2009
20
-113.823
40
0.5
50
90
51
180
0
LINE
8
BLACK
6
CONTINUOUS
10
169.576
20
-88.6225
11
169.576
21
-75.7225
0
LINE
8
BLACK
6
CONTINUOUS
10
170.076
20
-75.2225
11
182.976
21
-75.2225
0
LINE
8
BLACK
6
CONTINUOUS
10
182.976
20
-89.1225
11
170.076
21
-89.1225
0
LINE
8
BLACK
6
CONTINUOUS
10
183.476
20
-75.7225
11
183.476
21
-88.6225
0
ARC
8
BLACK
10
170.076
20
-75.7225
40
0.500001
50
90.0001
51
180
0
ARC
8
BLACK
10
170.076
20
-88.6225
40
0.500001
50
-180
51
-90.0001
0
ARC
8
BLACK
10
182.976
20
-75.7225
40
0.5
50
-0
51
90
0
ARC
8
BLACK
10
182.976
20
-88.6225
40
0.5
50
-90
51
-0
0
LINE
8
BLACK
6
CONTINUOUS
10
93.3759
20
-88.6225
11
93.3759
21
-75.7225
0
LINE
8
BLACK
6
CONTINUOUS
10
93.8759
20
-75.2225
11
106.776
21
-75.2225
0
LINE
8
BLACK
6
CONTINUOUS
10
106.776
20
-89.1225
11
93.8759
21
-89.1225
0
LINE
8
BLACK
6
CONTINUOUS
10
107.276
20
-75.7225
11
107.276
21
-88.6225
0
ARC
8
BLACK
10
93.8759
20
-75.7225
40
0.500001
50
90.0001
51
180
0
ARC
8
BLACK
10
93.8759
20
-88.6225
40
0.500001
50
-180
51
-90.0001
0
ARC
8
BLACK
10
106.776
20
-75.7225
40
0.5
50
-0
51
90
0
ARC
8
BLACK
10
106.776
20
-88.6225
40
0.5
50
-90
51
-0
0
CIRCLE
8
BLACK
10
274.157
20
-101.222
40
1.1
0
LINE
8
BLACK
6
CONTINUOUS
10
112.426
20
-88.6225
11
112.426
21
-75.7225
0
LINE
8
BLACK
6
CONTINUOUS
10
112.926
20
-75.2225
11
125.826
21
-75.2225
0
LINE
8
BLACK
6
CONTINUOUS
10
125.826
20
-89.1225
11
112.926
21
-89.1225
0
LINE
8
BLACK
6
CONTINUOUS
10
126.326
20
-75.7225
11
126.326
21
-88.6225
0
ARC
8
BLACK
10
112.926
20
-75.7225
40
0.500001
50
90.0001
51
180
0
ARC
8
BLACK
10
112.926
20
-88.6225
40
0.500001
50
-180
51
-90.0001
0
ARC
8
BLACK
10
125.826
20
-75.7225
40
0.5
50
-0
51
90
0
ARC
8
BLACK
10
125.826
20
-88.6225
40
0.5
50
-90
51
-0
  0
ENDSEC
  0
EOF
