  0
SECTION
  2
HEADER
  9
$ACADVER
  1
AC1009
  9
$FILLMODE
 70
 0
  9
$SPLFRAME
 70
 1
  9
$EXTMIN
 10
0
 20
0
 30
0.0
  9
$EXTMAX
 10
1058.33
 20
1058.33
 30
0.0
  0
ENDSEC
  0
SECTION
  2
TABLES
  0
TABLE
  2
LAYER
 70
1
  0
LAYER
  2
0
 70
     0
 62
     7
  6
CONTINUOUS
  0
ENDTAB
  0
ENDSEC
  0
SECTION
  2
ENTITIES
  0
LINE
  8
0
 62
     0
 10
0.0950846
 20
143.133
 30
0.0
 11
257.27
 21
143.133
 31
0.0
  0
LINE
  8
0
 62
     0
 10
257.27
 20
143.133
 30
0.0
 11
257.27
 21
0.257693
 31
0.0
  0
LINE
  8
0
 62
     0
 10
257.27
 20
0.257693
 30
0.0
 11
0.0950846
 21
0.257693
 31
0.0
  0
LINE
  8
0
 62
     0
 10
0.0950846
 20
0.257693
 30
0.0
 11
0.0950846
 21
143.133
 31
0.0
  0
LINE
  8
0
 62
     0
 10
228.837
 20
16.7831
 30
0.0
 11
228.837
 21
12.084
 31
0.0
  0
LINE
  8
0
 62
     0
 10
228.837
 20
12.084
 30
0.0
 11
227.313
 21
12.084
 31
0.0
  0
LINE
  8
0
 62
     0
 10
227.313
 20
12.084
 30
0.0
 11
227.313
 21
15.3128
 31
0.0
  0
LINE
  8
0
 62
     0
 10
227.313
 20
15.3128
 30
0.0
 11
225.588
 21
15.3128
 31
0.0
  0
LINE
  8
0
 62
     0
 10
225.588
 20
15.3128
 30
0.0
 11
225.588
 21
16.2333
 31
0.0
  0
LINE
  8
0
 62
     0
 10
225.588
 20
16.2333
 30
0.0
 11
222.287
 21
16.2333
 31
0.0
  0
LINE
  8
0
 62
     0
 10
222.287
 20
16.2333
 30
0.0
 11
222.287
 21
15.3128
 31
0.0
  0
LINE
  8
0
 62
     0
 10
222.287
 20
15.3128
 30
0.0
 11
220.562
 21
15.3128
 31
0.0
  0
LINE
  8
0
 62
     0
 10
220.562
 20
15.3128
 30
0.0
 11
220.562
 21
12.084
 31
0.0
  0
LINE
  8
0
 62
     0
 10
220.562
 20
12.084
 30
0.0
 11
219.738
 21
12.084
 31
0.0
  0
LINE
  8
0
 62
     0
 10
219.738
 20
12.084
 30
0.0
 11
219.738
 21
9.28384
 31
0.0
  0
LINE
  8
0
 62
     0
 10
219.738
 20
9.28384
 30
0.0
 11
220.562
 21
9.28384
 31
0.0
  0
LINE
  8
0
 62
     0
 10
220.562
 20
9.28384
 30
0.0
 11
220.562
 21
3.01377
 31
0.0
  0
LINE
  8
0
 62
     0
 10
220.562
 20
3.01377
 30
0.0
 11
222.287
 21
3.01377
 31
0.0
  0
LINE
  8
0
 62
     0
 10
222.287
 20
3.01377
 30
0.0
 11
222.287
 21
2.03261
 31
0.0
  0
LINE
  8
0
 62
     0
 10
222.287
 20
2.03261
 30
0.0
 11
225.588
 21
2.03261
 31
0.0
  0
LINE
  8
0
 62
     0
 10
225.588
 20
2.03261
 30
0.0
 11
225.588
 21
3.01377
 31
0.0
  0
LINE
  8
0
 62
     0
 10
225.588
 20
3.01377
 30
0.0
 11
227.313
 21
3.01377
 31
0.0
  0
LINE
  8
0
 62
     0
 10
227.313
 20
3.01377
 30
0.0
 11
227.313
 21
7.48273
 31
0.0
  0
LINE
  8
0
 62
     0
 10
227.313
 20
7.48273
 30
0.0
 11
228.837
 21
7.48273
 31
0.0
  0
LINE
  8
0
 62
     0
 10
228.837
 20
7.48273
 30
0.0
 11
228.837
 21
2.78364
 31
0.0
  0
LINE
  8
0
 62
     0
 10
228.837
 20
2.78364
 30
0.0
 11
242.838
 21
2.78364
 31
0.0
  0
LINE
  8
0
 62
     0
 10
242.838
 20
2.78364
 30
0.0
 11
242.838
 21
7.48273
 31
0.0
  0
LINE
  8
0
 62
     0
 10
242.838
 20
7.48273
 30
0.0
 11
244.362
 21
7.48273
 31
0.0
  0
LINE
  8
0
 62
     0
 10
244.362
 20
7.48273
 30
0.0
 11
244.362
 21
3.01377
 31
0.0
  0
LINE
  8
0
 62
     0
 10
244.362
 20
3.01377
 30
0.0
 11
246.087
 21
3.01377
 31
0.0
  0
LINE
  8
0
 62
     0
 10
246.087
 20
3.01377
 30
0.0
 11
246.087
 21
2.03261
 31
0.0
  0
LINE
  8
0
 62
     0
 10
246.087
 20
2.03261
 30
0.0
 11
249.388
 21
2.03261
 31
0.0
  0
LINE
  8
0
 62
     0
 10
249.388
 20
2.03261
 30
0.0
 11
249.388
 21
3.01377
 31
0.0
  0
LINE
  8
0
 62
     0
 10
249.388
 20
3.01377
 30
0.0
 11
251.112
 21
3.01377
 31
0.0
  0
LINE
  8
0
 62
     0
 10
251.112
 20
3.01377
 30
0.0
 11
251.112
 21
9.28384
 31
0.0
  0
LINE
  8
0
 62
     0
 10
251.112
 20
9.28384
 30
0.0
 11
251.937
 21
9.28384
 31
0.0
  0
LINE
  8
0
 62
     0
 10
251.937
 20
9.28384
 30
0.0
 11
251.937
 21
12.084
 31
0.0
  0
LINE
  8
0
 62
     0
 10
251.937
 20
12.084
 30
0.0
 11
251.112
 21
12.084
 31
0.0
  0
LINE
  8
0
 62
     0
 10
251.112
 20
12.084
 30
0.0
 11
251.112
 21
15.3128
 31
0.0
  0
LINE
  8
0
 62
     0
 10
251.112
 20
15.3128
 30
0.0
 11
249.388
 21
15.3128
 31
0.0
  0
LINE
  8
0
 62
     0
 10
249.388
 20
15.3128
 30
0.0
 11
249.388
 21
16.2333
 31
0.0
  0
LINE
  8
0
 62
     0
 10
249.388
 20
16.2333
 30
0.0
 11
246.087
 21
16.2333
 31
0.0
  0
LINE
  8
0
 62
     0
 10
246.087
 20
16.2333
 30
0.0
 11
246.087
 21
15.3128
 31
0.0
  0
LINE
  8
0
 62
     0
 10
246.087
 20
15.3128
 30
0.0
 11
244.362
 21
15.3128
 31
0.0
  0
LINE
  8
0
 62
     0
 10
244.362
 20
15.3128
 30
0.0
 11
244.362
 21
12.084
 31
0.0
  0
LINE
  8
0
 62
     0
 10
244.362
 20
12.084
 30
0.0
 11
242.838
 21
12.084
 31
0.0
  0
LINE
  8
0
 62
     0
 10
242.838
 20
12.084
 30
0.0
 11
242.838
 21
16.7831
 31
0.0
  0
LINE
  8
0
 62
     0
 10
242.838
 20
16.7831
 30
0.0
 11
228.837
 21
16.7831
 31
0.0
  0
LINE
  8
0
 62
     0
 10
131.207
 20
26.3095
 30
0.0
 11
131.207
 21
21.609
 31
0.0
  0
LINE
  8
0
 62
     0
 10
131.207
 20
21.609
 30
0.0
 11
84.5566
 21
21.609
 31
0.0
  0
LINE
  8
0
 62
     0
 10
84.5566
 20
21.609
 30
0.0
 11
84.5566
 21
24.8392
 31
0.0
  0
LINE
  8
0
 62
     0
 10
84.5566
 20
24.8392
 30
0.0
 11
82.8312
 21
24.8392
 31
0.0
  0
LINE
  8
0
 62
     0
 10
82.8312
 20
24.8392
 30
0.0
 11
82.8312
 21
25.7597
 31
0.0
  0
LINE
  8
0
 62
     0
 10
82.8312
 20
25.7597
 30
0.0
 11
79.532
 21
25.7597
 31
0.0
  0
LINE
  8
0
 62
     0
 10
79.532
 20
25.7597
 30
0.0
 11
79.532
 21
24.8392
 31
0.0
  0
LINE
  8
0
 62
     0
 10
79.532
 20
24.8392
 30
0.0
 11
77.8069
 21
24.8392
 31
0.0
  0
LINE
  8
0
 62
     0
 10
77.8069
 20
24.8392
 30
0.0
 11
77.8069
 21
21.609
 31
0.0
  0
LINE
  8
0
 62
     0
 10
77.8069
 20
21.609
 30
0.0
 11
76.9814
 21
21.609
 31
0.0
  0
LINE
  8
0
 62
     0
 10
76.9814
 20
21.609
 30
0.0
 11
76.9814
 21
18.8088
 31
0.0
  0
LINE
  8
0
 62
     0
 10
76.9814
 20
18.8088
 30
0.0
 11
77.8069
 21
18.8088
 31
0.0
  0
LINE
  8
0
 62
     0
 10
77.8069
 20
18.8088
 30
0.0
 11
77.8069
 21
12.5388
 31
0.0
  0
LINE
  8
0
 62
     0
 10
77.8069
 20
12.5388
 30
0.0
 11
79.532
 21
12.5388
 31
0.0
  0
LINE
  8
0
 62
     0
 10
79.532
 20
12.5388
 30
0.0
 11
79.532
 21
11.5576
 31
0.0
  0
LINE
  8
0
 62
     0
 10
79.532
 20
11.5576
 30
0.0
 11
82.8312
 21
11.5576
 31
0.0
  0
LINE
  8
0
 62
     0
 10
82.8312
 20
11.5576
 30
0.0
 11
82.8312
 21
12.5388
 31
0.0
  0
LINE
  8
0
 62
     0
 10
82.8312
 20
12.5388
 30
0.0
 11
84.5566
 21
12.5388
 31
0.0
  0
LINE
  8
0
 62
     0
 10
84.5566
 20
12.5388
 30
0.0
 11
84.5566
 21
17.0077
 31
0.0
  0
LINE
  8
0
 62
     0
 10
84.5566
 20
17.0077
 30
0.0
 11
131.207
 21
17.0077
 31
0.0
  0
LINE
  8
0
 62
     0
 10
131.207
 20
17.0077
 30
0.0
 11
131.207
 21
12.3086
 31
0.0
  0
LINE
  8
0
 62
     0
 10
131.207
 20
12.3086
 30
0.0
 11
145.207
 21
12.3086
 31
0.0
  0
LINE
  8
0
 62
     0
 10
145.207
 20
12.3086
 30
0.0
 11
145.207
 21
17.0077
 31
0.0
  0
LINE
  8
0
 62
     0
 10
145.207
 20
17.0077
 30
0.0
 11
172.806
 21
17.0077
 31
0.0
  0
LINE
  8
0
 62
     0
 10
172.806
 20
17.0077
 30
0.0
 11
172.806
 21
12.5388
 31
0.0
  0
LINE
  8
0
 62
     0
 10
172.806
 20
12.5388
 30
0.0
 11
174.531
 21
12.5388
 31
0.0
  0
LINE
  8
0
 62
     0
 10
174.531
 20
12.5388
 30
0.0
 11
174.531
 21
11.5576
 31
0.0
  0
LINE
  8
0
 62
     0
 10
174.531
 20
11.5576
 30
0.0
 11
177.832
 21
11.5576
 31
0.0
  0
LINE
  8
0
 62
     0
 10
177.832
 20
11.5576
 30
0.0
 11
177.832
 21
12.5388
 31
0.0
  0
LINE
  8
0
 62
     0
 10
177.832
 20
12.5388
 30
0.0
 11
179.557
 21
12.5388
 31
0.0
  0
LINE
  8
0
 62
     0
 10
179.557
 20
12.5388
 30
0.0
 11
179.557
 21
18.8088
 31
0.0
  0
LINE
  8
0
 62
     0
 10
179.557
 20
18.8088
 30
0.0
 11
180.381
 21
18.8088
 31
0.0
  0
LINE
  8
0
 62
     0
 10
180.381
 20
18.8088
 30
0.0
 11
180.381
 21
21.609
 31
0.0
  0
LINE
  8
0
 62
     0
 10
180.381
 20
21.609
 30
0.0
 11
179.557
 21
21.609
 31
0.0
  0
LINE
  8
0
 62
     0
 10
179.557
 20
21.609
 30
0.0
 11
179.557
 21
24.8392
 31
0.0
  0
LINE
  8
0
 62
     0
 10
179.557
 20
24.8392
 30
0.0
 11
177.832
 21
24.8392
 31
0.0
  0
LINE
  8
0
 62
     0
 10
177.832
 20
24.8392
 30
0.0
 11
177.832
 21
25.7597
 31
0.0
  0
LINE
  8
0
 62
     0
 10
177.832
 20
25.7597
 30
0.0
 11
174.531
 21
25.7597
 31
0.0
  0
LINE
  8
0
 62
     0
 10
174.531
 20
25.7597
 30
0.0
 11
174.531
 21
24.8392
 31
0.0
  0
LINE
  8
0
 62
     0
 10
174.531
 20
24.8392
 30
0.0
 11
172.806
 21
24.8392
 31
0.0
  0
LINE
  8
0
 62
     0
 10
172.806
 20
24.8392
 30
0.0
 11
172.806
 21
21.609
 31
0.0
  0
LINE
  8
0
 62
     0
 10
172.806
 20
21.609
 30
0.0
 11
145.207
 21
21.609
 31
0.0
  0
LINE
  8
0
 62
     0
 10
145.207
 20
21.609
 30
0.0
 11
145.207
 21
26.3095
 31
0.0
  0
LINE
  8
0
 62
     0
 10
145.207
 20
26.3095
 30
0.0
 11
131.207
 21
26.3095
 31
0.0
  0
LINE
  8
0
 62
     0
 10
95.4871
 20
45.3595
 30
0.0
 11
95.4871
 21
40.6576
 31
0.0
  0
LINE
  8
0
 62
     0
 10
95.4871
 20
40.6576
 30
0.0
 11
93.9631
 21
40.6576
 31
0.0
  0
LINE
  8
0
 62
     0
 10
93.9631
 20
40.6576
 30
0.0
 11
93.9631
 21
43.8891
 31
0.0
  0
LINE
  8
0
 62
     0
 10
93.9631
 20
43.8891
 30
0.0
 11
92.2376
 21
43.8891
 31
0.0
  0
LINE
  8
0
 62
     0
 10
92.2376
 20
43.8891
 30
0.0
 11
92.2376
 21
44.8098
 31
0.0
  0
LINE
  8
0
 62
     0
 10
92.2376
 20
44.8098
 30
0.0
 11
88.937
 21
44.8098
 31
0.0
  0
LINE
  8
0
 62
     0
 10
88.937
 20
44.8098
 30
0.0
 11
88.937
 21
43.8891
 31
0.0
  0
LINE
  8
0
 62
     0
 10
88.937
 20
43.8891
 30
0.0
 11
87.212
 21
43.8891
 31
0.0
  0
LINE
  8
0
 62
     0
 10
87.212
 20
43.8891
 30
0.0
 11
87.212
 21
40.6576
 31
0.0
  0
LINE
  8
0
 62
     0
 10
87.212
 20
40.6576
 30
0.0
 11
86.3879
 21
40.6576
 31
0.0
  0
LINE
  8
0
 62
     0
 10
86.3879
 20
40.6576
 30
0.0
 11
86.3879
 21
37.8587
 31
0.0
  0
LINE
  8
0
 62
     0
 10
86.3879
 20
37.8587
 30
0.0
 11
87.212
 21
37.8587
 31
0.0
  0
LINE
  8
0
 62
     0
 10
87.212
 20
37.8587
 30
0.0
 11
87.212
 21
31.5888
 31
0.0
  0
LINE
  8
0
 62
     0
 10
87.212
 20
31.5888
 30
0.0
 11
88.937
 21
31.5888
 31
0.0
  0
LINE
  8
0
 62
     0
 10
88.937
 20
31.5888
 30
0.0
 11
88.937
 21
30.609
 31
0.0
  0
LINE
  8
0
 62
     0
 10
88.937
 20
30.609
 30
0.0
 11
92.2376
 21
30.609
 31
0.0
  0
LINE
  8
0
 62
     0
 10
92.2376
 20
30.609
 30
0.0
 11
92.2376
 21
31.5888
 31
0.0
  0
LINE
  8
0
 62
     0
 10
92.2376
 20
31.5888
 30
0.0
 11
93.9631
 21
31.5888
 31
0.0
  0
LINE
  8
0
 62
     0
 10
93.9631
 20
31.5888
 30
0.0
 11
93.9631
 21
36.0592
 31
0.0
  0
LINE
  8
0
 62
     0
 10
93.9631
 20
36.0592
 30
0.0
 11
95.4871
 21
36.0592
 31
0.0
  0
LINE
  8
0
 62
     0
 10
95.4871
 20
36.0592
 30
0.0
 11
95.4871
 21
31.3586
 31
0.0
  0
LINE
  8
0
 62
     0
 10
95.4871
 20
31.3586
 30
0.0
 11
109.488
 21
31.3586
 31
0.0
  0
LINE
  8
0
 62
     0
 10
109.488
 20
31.3586
 30
0.0
 11
109.488
 21
36.0592
 31
0.0
  0
LINE
  8
0
 62
     0
 10
109.488
 20
36.0592
 30
0.0
 11
111.012
 21
36.0592
 31
0.0
  0
LINE
  8
0
 62
     0
 10
111.012
 20
36.0592
 30
0.0
 11
111.012
 21
31.5888
 31
0.0
  0
LINE
  8
0
 62
     0
 10
111.012
 20
31.5888
 30
0.0
 11
112.737
 21
31.5888
 31
0.0
  0
LINE
  8
0
 62
     0
 10
112.737
 20
31.5888
 30
0.0
 11
112.737
 21
30.609
 31
0.0
  0
LINE
  8
0
 62
     0
 10
112.737
 20
30.609
 30
0.0
 11
116.038
 21
30.609
 31
0.0
  0
LINE
  8
0
 62
     0
 10
116.038
 20
30.609
 30
0.0
 11
116.038
 21
31.5888
 31
0.0
  0
LINE
  8
0
 62
     0
 10
116.038
 20
31.5888
 30
0.0
 11
117.763
 21
31.5888
 31
0.0
  0
LINE
  8
0
 62
     0
 10
117.763
 20
31.5888
 30
0.0
 11
117.763
 21
37.8587
 31
0.0
  0
LINE
  8
0
 62
     0
 10
117.763
 20
37.8587
 30
0.0
 11
118.587
 21
37.8587
 31
0.0
  0
LINE
  8
0
 62
     0
 10
118.587
 20
37.8587
 30
0.0
 11
118.587
 21
40.6576
 31
0.0
  0
LINE
  8
0
 62
     0
 10
118.587
 20
40.6576
 30
0.0
 11
117.763
 21
40.6576
 31
0.0
  0
LINE
  8
0
 62
     0
 10
117.763
 20
40.6576
 30
0.0
 11
117.763
 21
43.8891
 31
0.0
  0
LINE
  8
0
 62
     0
 10
117.763
 20
43.8891
 30
0.0
 11
116.038
 21
43.8891
 31
0.0
  0
LINE
  8
0
 62
     0
 10
116.038
 20
43.8891
 30
0.0
 11
116.038
 21
44.8098
 31
0.0
  0
LINE
  8
0
 62
     0
 10
116.038
 20
44.8098
 30
0.0
 11
112.737
 21
44.8098
 31
0.0
  0
LINE
  8
0
 62
     0
 10
112.737
 20
44.8098
 30
0.0
 11
112.737
 21
43.8891
 31
0.0
  0
LINE
  8
0
 62
     0
 10
112.737
 20
43.8891
 30
0.0
 11
111.012
 21
43.8891
 31
0.0
  0
LINE
  8
0
 62
     0
 10
111.012
 20
43.8891
 30
0.0
 11
111.012
 21
40.6576
 31
0.0
  0
LINE
  8
0
 62
     0
 10
111.012
 20
40.6576
 30
0.0
 11
109.488
 21
40.6576
 31
0.0
  0
LINE
  8
0
 62
     0
 10
109.488
 20
40.6576
 30
0.0
 11
109.488
 21
45.3595
 31
0.0
  0
LINE
  8
0
 62
     0
 10
109.488
 20
45.3595
 30
0.0
 11
95.4871
 21
45.3595
 31
0.0
  0
LINE
  8
0
 62
     0
 10
143.112
 20
45.3595
 30
0.0
 11
143.112
 21
40.6576
 31
0.0
  0
LINE
  8
0
 62
     0
 10
143.112
 20
40.6576
 30
0.0
 11
141.588
 21
40.6576
 31
0.0
  0
LINE
  8
0
 62
     0
 10
141.588
 20
40.6576
 30
0.0
 11
141.588
 21
43.8891
 31
0.0
  0
LINE
  8
0
 62
     0
 10
141.588
 20
43.8891
 30
0.0
 11
139.863
 21
43.8891
 31
0.0
  0
LINE
  8
0
 62
     0
 10
139.863
 20
43.8891
 30
0.0
 11
139.863
 21
44.8098
 31
0.0
  0
LINE
  8
0
 62
     0
 10
139.863
 20
44.8098
 30
0.0
 11
136.562
 21
44.8098
 31
0.0
  0
LINE
  8
0
 62
     0
 10
136.562
 20
44.8098
 30
0.0
 11
136.562
 21
43.8891
 31
0.0
  0
LINE
  8
0
 62
     0
 10
136.562
 20
43.8891
 30
0.0
 11
134.837
 21
43.8891
 31
0.0
  0
LINE
  8
0
 62
     0
 10
134.837
 20
43.8891
 30
0.0
 11
134.837
 21
40.6576
 31
0.0
  0
LINE
  8
0
 62
     0
 10
134.837
 20
40.6576
 30
0.0
 11
134.013
 21
40.6576
 31
0.0
  0
LINE
  8
0
 62
     0
 10
134.013
 20
40.6576
 30
0.0
 11
134.013
 21
37.8587
 31
0.0
  0
LINE
  8
0
 62
     0
 10
134.013
 20
37.8587
 30
0.0
 11
134.837
 21
37.8587
 31
0.0
  0
LINE
  8
0
 62
     0
 10
134.837
 20
37.8587
 30
0.0
 11
134.837
 21
31.5888
 31
0.0
  0
LINE
  8
0
 62
     0
 10
134.837
 20
31.5888
 30
0.0
 11
136.562
 21
31.5888
 31
0.0
  0
LINE
  8
0
 62
     0
 10
136.562
 20
31.5888
 30
0.0
 11
136.562
 21
30.609
 31
0.0
  0
LINE
  8
0
 62
     0
 10
136.562
 20
30.609
 30
0.0
 11
139.863
 21
30.609
 31
0.0
  0
LINE
  8
0
 62
     0
 10
139.863
 20
30.609
 30
0.0
 11
139.863
 21
31.5888
 31
0.0
  0
LINE
  8
0
 62
     0
 10
139.863
 20
31.5888
 30
0.0
 11
141.588
 21
31.5888
 31
0.0
  0
LINE
  8
0
 62
     0
 10
141.588
 20
31.5888
 30
0.0
 11
141.588
 21
36.0592
 31
0.0
  0
LINE
  8
0
 62
     0
 10
141.588
 20
36.0592
 30
0.0
 11
143.112
 21
36.0592
 31
0.0
  0
LINE
  8
0
 62
     0
 10
143.112
 20
36.0592
 30
0.0
 11
143.112
 21
31.3586
 31
0.0
  0
LINE
  8
0
 62
     0
 10
143.112
 20
31.3586
 30
0.0
 11
157.113
 21
31.3586
 31
0.0
  0
LINE
  8
0
 62
     0
 10
157.113
 20
31.3586
 30
0.0
 11
157.113
 21
36.0592
 31
0.0
  0
LINE
  8
0
 62
     0
 10
157.113
 20
36.0592
 30
0.0
 11
158.637
 21
36.0592
 31
0.0
  0
LINE
  8
0
 62
     0
 10
158.637
 20
36.0592
 30
0.0
 11
158.637
 21
31.5888
 31
0.0
  0
LINE
  8
0
 62
     0
 10
158.637
 20
31.5888
 30
0.0
 11
160.362
 21
31.5888
 31
0.0
  0
LINE
  8
0
 62
     0
 10
160.362
 20
31.5888
 30
0.0
 11
160.362
 21
30.609
 31
0.0
  0
LINE
  8
0
 62
     0
 10
160.362
 20
30.609
 30
0.0
 11
163.663
 21
30.609
 31
0.0
  0
LINE
  8
0
 62
     0
 10
163.663
 20
30.609
 30
0.0
 11
163.663
 21
31.5888
 31
0.0
  0
LINE
  8
0
 62
     0
 10
163.663
 20
31.5888
 30
0.0
 11
165.388
 21
31.5888
 31
0.0
  0
LINE
  8
0
 62
     0
 10
165.388
 20
31.5888
 30
0.0
 11
165.388
 21
37.8587
 31
0.0
  0
LINE
  8
0
 62
     0
 10
165.388
 20
37.8587
 30
0.0
 11
166.212
 21
37.8587
 31
0.0
  0
LINE
  8
0
 62
     0
 10
166.212
 20
37.8587
 30
0.0
 11
166.212
 21
40.6576
 31
0.0
  0
LINE
  8
0
 62
     0
 10
166.212
 20
40.6576
 30
0.0
 11
165.388
 21
40.6576
 31
0.0
  0
LINE
  8
0
 62
     0
 10
165.388
 20
40.6576
 30
0.0
 11
165.388
 21
43.8891
 31
0.0
  0
LINE
  8
0
 62
     0
 10
165.388
 20
43.8891
 30
0.0
 11
163.663
 21
43.8891
 31
0.0
  0
LINE
  8
0
 62
     0
 10
163.663
 20
43.8891
 30
0.0
 11
163.663
 21
44.8098
 31
0.0
  0
LINE
  8
0
 62
     0
 10
163.663
 20
44.8098
 30
0.0
 11
160.362
 21
44.8098
 31
0.0
  0
LINE
  8
0
 62
     0
 10
160.362
 20
44.8098
 30
0.0
 11
160.362
 21
43.8891
 31
0.0
  0
LINE
  8
0
 62
     0
 10
160.362
 20
43.8891
 30
0.0
 11
158.637
 21
43.8891
 31
0.0
  0
LINE
  8
0
 62
     0
 10
158.637
 20
43.8891
 30
0.0
 11
158.637
 21
40.6576
 31
0.0
  0
LINE
  8
0
 62
     0
 10
158.637
 20
40.6576
 30
0.0
 11
157.113
 21
40.6576
 31
0.0
  0
LINE
  8
0
 62
     0
 10
157.113
 20
40.6576
 30
0.0
 11
157.113
 21
45.3595
 31
0.0
  0
LINE
  8
0
 62
     0
 10
157.113
 20
45.3595
 30
0.0
 11
143.112
 21
45.3595
 31
0.0
  0
LINE
  8
0
 62
     0
 10
7.38216
 20
45.3595
 30
0.0
 11
21.3817
 21
45.3595
 31
0.0
  0
LINE
  8
0
 62
     0
 10
21.3817
 20
45.3595
 30
0.0
 11
21.3817
 21
31.3586
 31
0.0
  0
LINE
  8
0
 62
     0
 10
21.3817
 20
31.3586
 30
0.0
 11
7.38216
 21
31.3586
 31
0.0
  0
LINE
  8
0
 62
     0
 10
7.38216
 20
31.3586
 30
0.0
 11
7.38216
 21
45.3595
 31
0.0
  0
LINE
  8
0
 62
     0
 10
33.5759
 20
45.3595
 30
0.0
 11
47.5753
 21
45.3595
 31
0.0
  0
LINE
  8
0
 62
     0
 10
47.5753
 20
45.3595
 30
0.0
 11
47.5753
 21
31.3586
 31
0.0
  0
LINE
  8
0
 62
     0
 10
47.5753
 20
31.3586
 30
0.0
 11
33.5759
 21
31.3586
 31
0.0
  0
LINE
  8
0
 62
     0
 10
33.5759
 20
31.3586
 30
0.0
 11
33.5759
 21
45.3595
 31
0.0
  0
LINE
  8
0
 62
     0
 10
59.7697
 20
45.3595
 30
0.0
 11
73.769
 21
45.3595
 31
0.0
  0
LINE
  8
0
 62
     0
 10
73.769
 20
45.3595
 30
0.0
 11
73.769
 21
31.3586
 31
0.0
  0
LINE
  8
0
 62
     0
 10
73.769
 20
31.3586
 30
0.0
 11
59.7697
 21
31.3586
 31
0.0
  0
LINE
  8
0
 62
     0
 10
59.7697
 20
31.3586
 30
0.0
 11
59.7697
 21
45.3595
 31
0.0
  0
LINE
  8
0
 62
     0
 10
183.595
 20
45.3595
 30
0.0
 11
197.594
 21
45.3595
 31
0.0
  0
LINE
  8
0
 62
     0
 10
197.594
 20
45.3595
 30
0.0
 11
197.594
 21
31.3586
 31
0.0
  0
LINE
  8
0
 62
     0
 10
197.594
 20
31.3586
 30
0.0
 11
183.595
 21
31.3586
 31
0.0
  0
LINE
  8
0
 62
     0
 10
183.595
 20
31.3586
 30
0.0
 11
183.595
 21
45.3595
 31
0.0
  0
LINE
  8
0
 62
     0
 10
209.787
 20
45.3595
 30
0.0
 11
223.788
 21
45.3595
 31
0.0
  0
LINE
  8
0
 62
     0
 10
223.788
 20
45.3595
 30
0.0
 11
223.788
 21
31.3586
 31
0.0
  0
LINE
  8
0
 62
     0
 10
223.788
 20
31.3586
 30
0.0
 11
209.787
 21
31.3586
 31
0.0
  0
LINE
  8
0
 62
     0
 10
209.787
 20
31.3586
 30
0.0
 11
209.787
 21
45.3595
 31
0.0
  0
LINE
  8
0
 62
     0
 10
235.982
 20
45.3595
 30
0.0
 11
249.982
 21
45.3595
 31
0.0
  0
LINE
  8
0
 62
     0
 10
249.982
 20
45.3595
 30
0.0
 11
249.982
 21
31.3586
 31
0.0
  0
LINE
  8
0
 62
     0
 10
249.982
 20
31.3586
 30
0.0
 11
235.982
 21
31.3586
 31
0.0
  0
LINE
  8
0
 62
     0
 10
235.982
 20
31.3586
 30
0.0
 11
235.982
 21
45.3595
 31
0.0
  0
LINE
  8
0
 62
     0
 10
93.1072
 20
64.4081
 30
0.0
 11
93.1072
 21
59.7076
 31
0.0
  0
LINE
  8
0
 62
     0
 10
93.1072
 20
59.7076
 30
0.0
 11
84.431
 21
59.7076
 31
0.0
  0
LINE
  8
0
 62
     0
 10
84.431
 20
59.7076
 30
0.0
 11
84.431
 21
62.9377
 31
0.0
  0
LINE
  8
0
 62
     0
 10
84.431
 20
62.9377
 30
0.0
 11
82.707
 21
62.9377
 31
0.0
  0
LINE
  8
0
 62
     0
 10
82.707
 20
62.9377
 30
0.0
 11
82.707
 21
63.8598
 31
0.0
  0
LINE
  8
0
 62
     0
 10
82.707
 20
63.8598
 30
0.0
 11
79.4067
 21
63.8598
 31
0.0
  0
LINE
  8
0
 62
     0
 10
79.4067
 20
63.8598
 30
0.0
 11
79.4067
 21
62.9377
 31
0.0
  0
LINE
  8
0
 62
     0
 10
79.4067
 20
62.9377
 30
0.0
 11
77.6813
 21
62.9377
 31
0.0
  0
LINE
  8
0
 62
     0
 10
77.6813
 20
62.9377
 30
0.0
 11
77.6813
 21
59.7076
 31
0.0
  0
LINE
  8
0
 62
     0
 10
77.6813
 20
59.7076
 30
0.0
 11
76.8558
 21
59.7076
 31
0.0
  0
LINE
  8
0
 62
     0
 10
76.8558
 20
59.7076
 30
0.0
 11
76.8558
 21
56.9087
 31
0.0
  0
LINE
  8
0
 62
     0
 10
76.8558
 20
56.9087
 30
0.0
 11
77.6813
 21
56.9087
 31
0.0
  0
LINE
  8
0
 62
     0
 10
77.6813
 20
56.9087
 30
0.0
 11
77.6813
 21
50.6388
 31
0.0
  0
LINE
  8
0
 62
     0
 10
77.6813
 20
50.6388
 30
0.0
 11
79.4067
 21
50.6388
 31
0.0
  0
LINE
  8
0
 62
     0
 10
79.4067
 20
50.6388
 30
0.0
 11
79.4067
 21
49.6577
 31
0.0
  0
LINE
  8
0
 62
     0
 10
79.4067
 20
49.6577
 30
0.0
 11
82.707
 21
49.6577
 31
0.0
  0
LINE
  8
0
 62
     0
 10
82.707
 20
49.6577
 30
0.0
 11
82.707
 21
50.6388
 31
0.0
  0
LINE
  8
0
 62
     0
 10
82.707
 20
50.6388
 30
0.0
 11
84.431
 21
50.6388
 31
0.0
  0
LINE
  8
0
 62
     0
 10
84.431
 20
50.6388
 30
0.0
 11
84.431
 21
55.1092
 31
0.0
  0
LINE
  8
0
 62
     0
 10
84.431
 20
55.1092
 30
0.0
 11
93.1072
 21
55.1092
 31
0.0
  0
LINE
  8
0
 62
     0
 10
93.1072
 20
55.1092
 30
0.0
 11
93.1072
 21
50.4088
 31
0.0
  0
LINE
  8
0
 62
     0
 10
93.1072
 20
50.4088
 30
0.0
 11
107.107
 21
50.4088
 31
0.0
  0
LINE
  8
0
 62
     0
 10
107.107
 20
50.4088
 30
0.0
 11
107.107
 21
55.1092
 31
0.0
  0
LINE
  8
0
 62
     0
 10
107.107
 20
55.1092
 30
0.0
 11
115.781
 21
55.1092
 31
0.0
  0
LINE
  8
0
 62
     0
 10
115.781
 20
55.1092
 30
0.0
 11
115.781
 21
50.6388
 31
0.0
  0
LINE
  8
0
 62
     0
 10
115.781
 20
50.6388
 30
0.0
 11
117.507
 21
50.6388
 31
0.0
  0
LINE
  8
0
 62
     0
 10
117.507
 20
50.6388
 30
0.0
 11
117.507
 21
49.6577
 31
0.0
  0
LINE
  8
0
 62
     0
 10
117.507
 20
49.6577
 30
0.0
 11
120.807
 21
49.6577
 31
0.0
  0
LINE
  8
0
 62
     0
 10
120.807
 20
49.6577
 30
0.0
 11
120.807
 21
50.6388
 31
0.0
  0
LINE
  8
0
 62
     0
 10
120.807
 20
50.6388
 30
0.0
 11
122.531
 21
50.6388
 31
0.0
  0
LINE
  8
0
 62
     0
 10
122.531
 20
50.6388
 30
0.0
 11
122.531
 21
56.9087
 31
0.0
  0
LINE
  8
0
 62
     0
 10
122.531
 20
56.9087
 30
0.0
 11
123.357
 21
56.9087
 31
0.0
  0
LINE
  8
0
 62
     0
 10
123.357
 20
56.9087
 30
0.0
 11
123.357
 21
59.7076
 31
0.0
  0
LINE
  8
0
 62
     0
 10
123.357
 20
59.7076
 30
0.0
 11
122.531
 21
59.7076
 31
0.0
  0
LINE
  8
0
 62
     0
 10
122.531
 20
59.7076
 30
0.0
 11
122.531
 21
62.9377
 31
0.0
  0
LINE
  8
0
 62
     0
 10
122.531
 20
62.9377
 30
0.0
 11
120.807
 21
62.9377
 31
0.0
  0
LINE
  8
0
 62
     0
 10
120.807
 20
62.9377
 30
0.0
 11
120.807
 21
63.8598
 31
0.0
  0
LINE
  8
0
 62
     0
 10
120.807
 20
63.8598
 30
0.0
 11
117.507
 21
63.8598
 31
0.0
  0
LINE
  8
0
 62
     0
 10
117.507
 20
63.8598
 30
0.0
 11
117.507
 21
62.9377
 31
0.0
  0
LINE
  8
0
 62
     0
 10
117.507
 20
62.9377
 30
0.0
 11
115.781
 21
62.9377
 31
0.0
  0
LINE
  8
0
 62
     0
 10
115.781
 20
62.9377
 30
0.0
 11
115.781
 21
59.7076
 31
0.0
  0
LINE
  8
0
 62
     0
 10
115.781
 20
59.7076
 30
0.0
 11
107.107
 21
59.7076
 31
0.0
  0
LINE
  8
0
 62
     0
 10
107.107
 20
59.7076
 30
0.0
 11
107.107
 21
64.4081
 31
0.0
  0
LINE
  8
0
 62
     0
 10
107.107
 20
64.4081
 30
0.0
 11
93.1072
 21
64.4081
 31
0.0
  0
LINE
  8
0
 62
     0
 10
150.257
 20
64.4081
 30
0.0
 11
150.257
 21
59.7076
 31
0.0
  0
LINE
  8
0
 62
     0
 10
150.257
 20
59.7076
 30
0.0
 11
141.581
 21
59.7076
 31
0.0
  0
LINE
  8
0
 62
     0
 10
141.581
 20
59.7076
 30
0.0
 11
141.581
 21
62.9377
 31
0.0
  0
LINE
  8
0
 62
     0
 10
141.581
 20
62.9377
 30
0.0
 11
139.857
 21
62.9377
 31
0.0
  0
LINE
  8
0
 62
     0
 10
139.857
 20
62.9377
 30
0.0
 11
139.857
 21
63.8598
 31
0.0
  0
LINE
  8
0
 62
     0
 10
139.857
 20
63.8598
 30
0.0
 11
136.557
 21
63.8598
 31
0.0
  0
LINE
  8
0
 62
     0
 10
136.557
 20
63.8598
 30
0.0
 11
136.557
 21
62.9377
 31
0.0
  0
LINE
  8
0
 62
     0
 10
136.557
 20
62.9377
 30
0.0
 11
134.831
 21
62.9377
 31
0.0
  0
LINE
  8
0
 62
     0
 10
134.831
 20
62.9377
 30
0.0
 11
134.831
 21
59.7076
 31
0.0
  0
LINE
  8
0
 62
     0
 10
134.831
 20
59.7076
 30
0.0
 11
134.006
 21
59.7076
 31
0.0
  0
LINE
  8
0
 62
     0
 10
134.006
 20
59.7076
 30
0.0
 11
134.006
 21
56.9087
 31
0.0
  0
LINE
  8
0
 62
     0
 10
134.006
 20
56.9087
 30
0.0
 11
134.831
 21
56.9087
 31
0.0
  0
LINE
  8
0
 62
     0
 10
134.831
 20
56.9087
 30
0.0
 11
134.831
 21
50.6388
 31
0.0
  0
LINE
  8
0
 62
     0
 10
134.831
 20
50.6388
 30
0.0
 11
136.557
 21
50.6388
 31
0.0
  0
LINE
  8
0
 62
     0
 10
136.557
 20
50.6388
 30
0.0
 11
136.557
 21
49.6577
 31
0.0
  0
LINE
  8
0
 62
     0
 10
136.557
 20
49.6577
 30
0.0
 11
139.857
 21
49.6577
 31
0.0
  0
LINE
  8
0
 62
     0
 10
139.857
 20
49.6577
 30
0.0
 11
139.857
 21
50.6388
 31
0.0
  0
LINE
  8
0
 62
     0
 10
139.857
 20
50.6388
 30
0.0
 11
141.581
 21
50.6388
 31
0.0
  0
LINE
  8
0
 62
     0
 10
141.581
 20
50.6388
 30
0.0
 11
141.581
 21
55.1092
 31
0.0
  0
LINE
  8
0
 62
     0
 10
141.581
 20
55.1092
 30
0.0
 11
150.257
 21
55.1092
 31
0.0
  0
LINE
  8
0
 62
     0
 10
150.257
 20
55.1092
 30
0.0
 11
150.257
 21
50.4088
 31
0.0
  0
LINE
  8
0
 62
     0
 10
150.257
 20
50.4088
 30
0.0
 11
164.257
 21
50.4088
 31
0.0
  0
LINE
  8
0
 62
     0
 10
164.257
 20
50.4088
 30
0.0
 11
164.257
 21
55.1092
 31
0.0
  0
LINE
  8
0
 62
     0
 10
164.257
 20
55.1092
 30
0.0
 11
172.931
 21
55.1092
 31
0.0
  0
LINE
  8
0
 62
     0
 10
172.931
 20
55.1092
 30
0.0
 11
172.931
 21
50.6388
 31
0.0
  0
LINE
  8
0
 62
     0
 10
172.931
 20
50.6388
 30
0.0
 11
174.657
 21
50.6388
 31
0.0
  0
LINE
  8
0
 62
     0
 10
174.657
 20
50.6388
 30
0.0
 11
174.657
 21
49.6577
 31
0.0
  0
LINE
  8
0
 62
     0
 10
174.657
 20
49.6577
 30
0.0
 11
177.957
 21
49.6577
 31
0.0
  0
LINE
  8
0
 62
     0
 10
177.957
 20
49.6577
 30
0.0
 11
177.957
 21
50.6388
 31
0.0
  0
LINE
  8
0
 62
     0
 10
177.957
 20
50.6388
 30
0.0
 11
179.681
 21
50.6388
 31
0.0
  0
LINE
  8
0
 62
     0
 10
179.681
 20
50.6388
 30
0.0
 11
179.681
 21
56.9087
 31
0.0
  0
LINE
  8
0
 62
     0
 10
179.681
 20
56.9087
 30
0.0
 11
180.507
 21
56.9087
 31
0.0
  0
LINE
  8
0
 62
     0
 10
180.507
 20
56.9087
 30
0.0
 11
180.507
 21
59.7076
 31
0.0
  0
LINE
  8
0
 62
     0
 10
180.507
 20
59.7076
 30
0.0
 11
179.681
 21
59.7076
 31
0.0
  0
LINE
  8
0
 62
     0
 10
179.681
 20
59.7076
 30
0.0
 11
179.681
 21
62.9377
 31
0.0
  0
LINE
  8
0
 62
     0
 10
179.681
 20
62.9377
 30
0.0
 11
177.957
 21
62.9377
 31
0.0
  0
LINE
  8
0
 62
     0
 10
177.957
 20
62.9377
 30
0.0
 11
177.957
 21
63.8598
 31
0.0
  0
LINE
  8
0
 62
     0
 10
177.957
 20
63.8598
 30
0.0
 11
174.657
 21
63.8598
 31
0.0
  0
LINE
  8
0
 62
     0
 10
174.657
 20
63.8598
 30
0.0
 11
174.657
 21
62.9377
 31
0.0
  0
LINE
  8
0
 62
     0
 10
174.657
 20
62.9377
 30
0.0
 11
172.931
 21
62.9377
 31
0.0
  0
LINE
  8
0
 62
     0
 10
172.931
 20
62.9377
 30
0.0
 11
172.931
 21
59.7076
 31
0.0
  0
LINE
  8
0
 62
     0
 10
172.931
 20
59.7076
 30
0.0
 11
164.257
 21
59.7076
 31
0.0
  0
LINE
  8
0
 62
     0
 10
164.257
 20
59.7076
 30
0.0
 11
164.257
 21
64.4081
 31
0.0
  0
LINE
  8
0
 62
     0
 10
164.257
 20
64.4081
 30
0.0
 11
150.257
 21
64.4081
 31
0.0
  0
LINE
  8
0
 62
     0
 10
5.00091
 20
64.4081
 30
0.0
 11
19.0004
 21
64.4081
 31
0.0
  0
LINE
  8
0
 62
     0
 10
19.0004
 20
64.4081
 30
0.0
 11
19.0004
 21
50.4088
 31
0.0
  0
LINE
  8
0
 62
     0
 10
19.0004
 20
50.4088
 30
0.0
 11
5.00091
 21
50.4088
 31
0.0
  0
LINE
  8
0
 62
     0
 10
5.00091
 20
50.4088
 30
0.0
 11
5.00091
 21
64.4081
 31
0.0
  0
LINE
  8
0
 62
     0
 10
28.812
 20
64.4081
 30
0.0
 11
42.8128
 21
64.4081
 31
0.0
  0
LINE
  8
0
 62
     0
 10
42.8128
 20
64.4081
 30
0.0
 11
42.8128
 21
50.4088
 31
0.0
  0
LINE
  8
0
 62
     0
 10
42.8128
 20
50.4088
 30
0.0
 11
28.812
 21
50.4088
 31
0.0
  0
LINE
  8
0
 62
     0
 10
28.812
 20
50.4088
 30
0.0
 11
28.812
 21
64.4081
 31
0.0
  0
LINE
  8
0
 62
     0
 10
52.626
 20
64.4081
 30
0.0
 11
66.6253
 21
64.4081
 31
0.0
  0
LINE
  8
0
 62
     0
 10
66.6253
 20
64.4081
 30
0.0
 11
66.6253
 21
50.4088
 31
0.0
  0
LINE
  8
0
 62
     0
 10
66.6253
 20
50.4088
 30
0.0
 11
52.626
 21
50.4088
 31
0.0
  0
LINE
  8
0
 62
     0
 10
52.626
 20
50.4088
 30
0.0
 11
52.626
 21
64.4081
 31
0.0
  0
LINE
  8
0
 62
     0
 10
190.737
 20
64.4081
 30
0.0
 11
204.738
 21
64.4081
 31
0.0
  0
LINE
  8
0
 62
     0
 10
204.738
 20
64.4081
 30
0.0
 11
204.738
 21
50.4088
 31
0.0
  0
LINE
  8
0
 62
     0
 10
204.738
 20
50.4088
 30
0.0
 11
190.737
 21
50.4088
 31
0.0
  0
LINE
  8
0
 62
     0
 10
190.737
 20
50.4088
 30
0.0
 11
190.737
 21
64.4081
 31
0.0
  0
LINE
  8
0
 62
     0
 10
214.551
 20
64.4081
 30
0.0
 11
228.55
 21
64.4081
 31
0.0
  0
LINE
  8
0
 62
     0
 10
228.55
 20
64.4081
 30
0.0
 11
228.55
 21
50.4088
 31
0.0
  0
LINE
  8
0
 62
     0
 10
228.55
 20
50.4088
 30
0.0
 11
214.551
 21
50.4088
 31
0.0
  0
LINE
  8
0
 62
     0
 10
214.551
 20
50.4088
 30
0.0
 11
214.551
 21
64.4081
 31
0.0
  0
LINE
  8
0
 62
     0
 10
238.362
 20
64.4081
 30
0.0
 11
252.361
 21
64.4081
 31
0.0
  0
LINE
  8
0
 62
     0
 10
252.361
 20
64.4081
 30
0.0
 11
252.361
 21
50.4088
 31
0.0
  0
LINE
  8
0
 62
     0
 10
252.361
 20
50.4088
 30
0.0
 11
238.362
 21
50.4088
 31
0.0
  0
LINE
  8
0
 62
     0
 10
238.362
 20
50.4088
 30
0.0
 11
238.362
 21
64.4081
 31
0.0
  0
LINE
  8
0
 62
     0
 10
14.5259
 20
83.4581
 30
0.0
 11
14.5259
 21
78.7576
 31
0.0
  0
LINE
  8
0
 62
     0
 10
14.5259
 20
78.7576
 30
0.0
 11
13.0004
 21
78.7576
 31
0.0
  0
LINE
  8
0
 62
     0
 10
13.0004
 20
78.7576
 30
0.0
 11
13.0004
 21
81.9877
 31
0.0
  0
LINE
  8
0
 62
     0
 10
13.0004
 20
81.9877
 30
0.0
 11
11.2751
 21
81.9877
 31
0.0
  0
LINE
  8
0
 62
     0
 10
11.2751
 20
81.9877
 30
0.0
 11
11.2751
 21
82.9098
 31
0.0
  0
LINE
  8
0
 62
     0
 10
11.2751
 20
82.9098
 30
0.0
 11
7.97609
 21
82.9098
 31
0.0
  0
LINE
  8
0
 62
     0
 10
7.97609
 20
82.9098
 30
0.0
 11
7.97609
 21
81.9877
 31
0.0
  0
LINE
  8
0
 62
     0
 10
7.97609
 20
81.9877
 30
0.0
 11
6.2508
 21
81.9877
 31
0.0
  0
LINE
  8
0
 62
     0
 10
6.2508
 20
81.9877
 30
0.0
 11
6.2508
 21
78.7576
 31
0.0
  0
LINE
  8
0
 62
     0
 10
6.2508
 20
78.7576
 30
0.0
 11
5.42533
 21
78.7576
 31
0.0
  0
LINE
  8
0
 62
     0
 10
5.42533
 20
78.7576
 30
0.0
 11
5.42533
 21
75.9587
 31
0.0
  0
LINE
  8
0
 62
     0
 10
5.42533
 20
75.9587
 30
0.0
 11
6.2508
 21
75.9587
 31
0.0
  0
LINE
  8
0
 62
     0
 10
6.2508
 20
75.9587
 30
0.0
 11
6.2508
 21
69.6888
 31
0.0
  0
LINE
  8
0
 62
     0
 10
6.2508
 20
69.6888
 30
0.0
 11
7.97609
 21
69.6888
 31
0.0
  0
LINE
  8
0
 62
     0
 10
7.97609
 20
69.6888
 30
0.0
 11
7.97609
 21
68.7077
 31
0.0
  0
LINE
  8
0
 62
     0
 10
7.97609
 20
68.7077
 30
0.0
 11
11.2751
 21
68.7077
 31
0.0
  0
LINE
  8
0
 62
     0
 10
11.2751
 20
68.7077
 30
0.0
 11
11.2751
 21
69.6888
 31
0.0
  0
LINE
  8
0
 62
     0
 10
11.2751
 20
69.6888
 30
0.0
 11
13.0004
 21
69.6888
 31
0.0
  0
LINE
  8
0
 62
     0
 10
13.0004
 20
69.6888
 30
0.0
 11
13.0004
 21
74.1578
 31
0.0
  0
LINE
  8
0
 62
     0
 10
13.0004
 20
74.1578
 30
0.0
 11
14.5259
 21
74.1578
 31
0.0
  0
LINE
  8
0
 62
     0
 10
14.5259
 20
74.1578
 30
0.0
 11
14.5259
 21
69.4588
 31
0.0
  0
LINE
  8
0
 62
     0
 10
14.5259
 20
69.4588
 30
0.0
 11
28.5254
 21
69.4588
 31
0.0
  0
LINE
  8
0
 62
     0
 10
28.5254
 20
69.4588
 30
0.0
 11
28.5254
 21
74.1578
 31
0.0
  0
LINE
  8
0
 62
     0
 10
28.5254
 20
74.1578
 30
0.0
 11
30.0509
 21
74.1578
 31
0.0
  0
LINE
  8
0
 62
     0
 10
30.0509
 20
74.1578
 30
0.0
 11
30.0509
 21
69.6888
 31
0.0
  0
LINE
  8
0
 62
     0
 10
30.0509
 20
69.6888
 30
0.0
 11
31.7748
 21
69.6888
 31
0.0
  0
LINE
  8
0
 62
     0
 10
31.7748
 20
69.6888
 30
0.0
 11
31.7748
 21
68.7077
 31
0.0
  0
LINE
  8
0
 62
     0
 10
31.7748
 20
68.7077
 30
0.0
 11
35.0752
 21
68.7077
 31
0.0
  0
LINE
  8
0
 62
     0
 10
35.0752
 20
68.7077
 30
0.0
 11
35.0752
 21
69.6888
 31
0.0
  0
LINE
  8
0
 62
     0
 10
35.0752
 20
69.6888
 30
0.0
 11
36.8004
 21
69.6888
 31
0.0
  0
LINE
  8
0
 62
     0
 10
36.8004
 20
69.6888
 30
0.0
 11
36.8004
 21
75.9587
 31
0.0
  0
LINE
  8
0
 62
     0
 10
36.8004
 20
75.9587
 30
0.0
 11
37.6259
 21
75.9587
 31
0.0
  0
LINE
  8
0
 62
     0
 10
37.6259
 20
75.9587
 30
0.0
 11
37.6259
 21
78.7576
 31
0.0
  0
LINE
  8
0
 62
     0
 10
37.6259
 20
78.7576
 30
0.0
 11
36.8004
 21
78.7576
 31
0.0
  0
LINE
  8
0
 62
     0
 10
36.8004
 20
78.7576
 30
0.0
 11
36.8004
 21
81.9877
 31
0.0
  0
LINE
  8
0
 62
     0
 10
36.8004
 20
81.9877
 30
0.0
 11
35.0752
 21
81.9877
 31
0.0
  0
LINE
  8
0
 62
     0
 10
35.0752
 20
81.9877
 30
0.0
 11
35.0752
 21
82.9098
 31
0.0
  0
LINE
  8
0
 62
     0
 10
35.0752
 20
82.9098
 30
0.0
 11
31.7748
 21
82.9098
 31
0.0
  0
LINE
  8
0
 62
     0
 10
31.7748
 20
82.9098
 30
0.0
 11
31.7748
 21
81.9877
 31
0.0
  0
LINE
  8
0
 62
     0
 10
31.7748
 20
81.9877
 30
0.0
 11
30.0509
 21
81.9877
 31
0.0
  0
LINE
  8
0
 62
     0
 10
30.0509
 20
81.9877
 30
0.0
 11
30.0509
 21
78.7576
 31
0.0
  0
LINE
  8
0
 62
     0
 10
30.0509
 20
78.7576
 30
0.0
 11
28.5254
 21
78.7576
 31
0.0
  0
LINE
  8
0
 62
     0
 10
28.5254
 20
78.7576
 30
0.0
 11
28.5254
 21
83.4581
 31
0.0
  0
LINE
  8
0
 62
     0
 10
28.5254
 20
83.4581
 30
0.0
 11
14.5259
 21
83.4581
 31
0.0
  0
LINE
  8
0
 62
     0
 10
45.4822
 20
83.4581
 30
0.0
 11
59.4815
 21
83.4581
 31
0.0
  0
LINE
  8
0
 62
     0
 10
59.4815
 20
83.4581
 30
0.0
 11
59.4815
 21
69.4588
 31
0.0
  0
LINE
  8
0
 62
     0
 10
59.4815
 20
69.4588
 30
0.0
 11
45.4822
 21
69.4588
 31
0.0
  0
LINE
  8
0
 62
     0
 10
45.4822
 20
69.4588
 30
0.0
 11
45.4822
 21
83.4581
 31
0.0
  0
LINE
  8
0
 62
     0
 10
64.5322
 20
83.4581
 30
0.0
 11
78.5315
 21
83.4581
 31
0.0
  0
LINE
  8
0
 62
     0
 10
78.5315
 20
83.4581
 30
0.0
 11
78.5315
 21
69.4588
 31
0.0
  0
LINE
  8
0
 62
     0
 10
78.5315
 20
69.4588
 30
0.0
 11
64.5322
 21
69.4588
 31
0.0
  0
LINE
  8
0
 62
     0
 10
64.5322
 20
69.4588
 30
0.0
 11
64.5322
 21
83.4581
 31
0.0
  0
LINE
  8
0
 62
     0
 10
83.5822
 20
83.4581
 30
0.0
 11
97.5815
 21
83.4581
 31
0.0
  0
LINE
  8
0
 62
     0
 10
97.5815
 20
83.4581
 30
0.0
 11
97.5815
 21
69.4588
 31
0.0
  0
LINE
  8
0
 62
     0
 10
97.5815
 20
69.4588
 30
0.0
 11
83.5822
 21
69.4588
 31
0.0
  0
LINE
  8
0
 62
     0
 10
83.5822
 20
69.4588
 30
0.0
 11
83.5822
 21
83.4581
 31
0.0
  0
LINE
  8
0
 62
     0
 10
102.632
 20
83.4581
 30
0.0
 11
116.632
 21
83.4581
 31
0.0
  0
LINE
  8
0
 62
     0
 10
116.632
 20
83.4581
 30
0.0
 11
116.632
 21
69.4588
 31
0.0
  0
LINE
  8
0
 62
     0
 10
116.632
 20
69.4588
 30
0.0
 11
102.632
 21
69.4588
 31
0.0
  0
LINE
  8
0
 62
     0
 10
102.632
 20
69.4588
 30
0.0
 11
102.632
 21
83.4581
 31
0.0
  0
LINE
  8
0
 62
     0
 10
121.682
 20
83.4581
 30
0.0
 11
135.682
 21
83.4581
 31
0.0
  0
LINE
  8
0
 62
     0
 10
135.682
 20
83.4581
 30
0.0
 11
135.682
 21
69.4588
 31
0.0
  0
LINE
  8
0
 62
     0
 10
135.682
 20
69.4588
 30
0.0
 11
121.682
 21
69.4588
 31
0.0
  0
LINE
  8
0
 62
     0
 10
121.682
 20
69.4588
 30
0.0
 11
121.682
 21
83.4581
 31
0.0
  0
LINE
  8
0
 62
     0
 10
140.732
 20
83.4581
 30
0.0
 11
154.732
 21
83.4581
 31
0.0
  0
LINE
  8
0
 62
     0
 10
154.732
 20
83.4581
 30
0.0
 11
154.732
 21
69.4588
 31
0.0
  0
LINE
  8
0
 62
     0
 10
154.732
 20
69.4588
 30
0.0
 11
140.732
 21
69.4588
 31
0.0
  0
LINE
  8
0
 62
     0
 10
140.732
 20
69.4588
 30
0.0
 11
140.732
 21
83.4581
 31
0.0
  0
LINE
  8
0
 62
     0
 10
159.782
 20
83.4581
 30
0.0
 11
173.782
 21
83.4581
 31
0.0
  0
LINE
  8
0
 62
     0
 10
173.782
 20
83.4581
 30
0.0
 11
173.782
 21
69.4588
 31
0.0
  0
LINE
  8
0
 62
     0
 10
173.782
 20
69.4588
 30
0.0
 11
159.782
 21
69.4588
 31
0.0
  0
LINE
  8
0
 62
     0
 10
159.782
 20
69.4588
 30
0.0
 11
159.782
 21
83.4581
 31
0.0
  0
LINE
  8
0
 62
     0
 10
178.832
 20
83.4581
 30
0.0
 11
192.832
 21
83.4581
 31
0.0
  0
LINE
  8
0
 62
     0
 10
192.832
 20
83.4581
 30
0.0
 11
192.832
 21
69.4588
 31
0.0
  0
LINE
  8
0
 62
     0
 10
192.832
 20
69.4588
 30
0.0
 11
178.832
 21
69.4588
 31
0.0
  0
LINE
  8
0
 62
     0
 10
178.832
 20
69.4588
 30
0.0
 11
178.832
 21
83.4581
 31
0.0
  0
LINE
  8
0
 62
     0
 10
197.882
 20
83.4581
 30
0.0
 11
211.882
 21
83.4581
 31
0.0
  0
LINE
  8
0
 62
     0
 10
211.882
 20
83.4581
 30
0.0
 11
211.882
 21
69.4588
 31
0.0
  0
LINE
  8
0
 62
     0
 10
211.882
 20
69.4588
 30
0.0
 11
197.882
 21
69.4588
 31
0.0
  0
LINE
  8
0
 62
     0
 10
197.882
 20
69.4588
 30
0.0
 11
197.882
 21
83.4581
 31
0.0
  0
LINE
  8
0
 62
     0
 10
216.932
 20
83.4581
 30
0.0
 11
230.932
 21
83.4581
 31
0.0
  0
LINE
  8
0
 62
     0
 10
230.932
 20
83.4581
 30
0.0
 11
230.932
 21
69.4588
 31
0.0
  0
LINE
  8
0
 62
     0
 10
230.932
 20
69.4588
 30
0.0
 11
216.932
 21
69.4588
 31
0.0
  0
LINE
  8
0
 62
     0
 10
216.932
 20
69.4588
 30
0.0
 11
216.932
 21
83.4581
 31
0.0
  0
LINE
  8
0
 62
     0
 10
238.362
 20
83.4581
 30
0.0
 11
252.361
 21
83.4581
 31
0.0
  0
LINE
  8
0
 62
     0
 10
252.361
 20
83.4581
 30
0.0
 11
252.361
 21
69.4588
 31
0.0
  0
LINE
  8
0
 62
     0
 10
252.361
 20
69.4588
 30
0.0
 11
238.362
 21
69.4588
 31
0.0
  0
LINE
  8
0
 62
     0
 10
238.362
 20
69.4588
 30
0.0
 11
238.362
 21
83.4581
 31
0.0
  0
LINE
  8
0
 62
     0
 10
5.00091
 20
102.508
 30
0.0
 11
23.7629
 21
102.508
 31
0.0
  0
LINE
  8
0
 62
     0
 10
23.7629
 20
102.508
 30
0.0
 11
23.7629
 21
88.5088
 31
0.0
  0
LINE
  8
0
 62
     0
 10
23.7629
 20
88.5088
 30
0.0
 11
5.00091
 21
88.5088
 31
0.0
  0
LINE
  8
0
 62
     0
 10
5.00091
 20
88.5088
 30
0.0
 11
5.00091
 21
102.508
 31
0.0
  0
LINE
  8
0
 62
     0
 10
35.9572
 20
102.508
 30
0.0
 11
49.9565
 21
102.508
 31
0.0
  0
LINE
  8
0
 62
     0
 10
49.9565
 20
102.508
 30
0.0
 11
49.9565
 21
88.5088
 31
0.0
  0
LINE
  8
0
 62
     0
 10
49.9565
 20
88.5088
 30
0.0
 11
35.9572
 21
88.5088
 31
0.0
  0
LINE
  8
0
 62
     0
 10
35.9572
 20
88.5088
 30
0.0
 11
35.9572
 21
102.508
 31
0.0
  0
LINE
  8
0
 62
     0
 10
55.0072
 20
102.508
 30
0.0
 11
69.0065
 21
102.508
 31
0.0
  0
LINE
  8
0
 62
     0
 10
69.0065
 20
102.508
 30
0.0
 11
69.0065
 21
88.5088
 31
0.0
  0
LINE
  8
0
 62
     0
 10
69.0065
 20
88.5088
 30
0.0
 11
55.0072
 21
88.5088
 31
0.0
  0
LINE
  8
0
 62
     0
 10
55.0072
 20
88.5088
 30
0.0
 11
55.0072
 21
102.508
 31
0.0
  0
LINE
  8
0
 62
     0
 10
74.0572
 20
102.508
 30
0.0
 11
88.0565
 21
102.508
 31
0.0
  0
LINE
  8
0
 62
     0
 10
88.0565
 20
102.508
 30
0.0
 11
88.0565
 21
88.5088
 31
0.0
  0
LINE
  8
0
 62
     0
 10
88.0565
 20
88.5088
 30
0.0
 11
74.0572
 21
88.5088
 31
0.0
  0
LINE
  8
0
 62
     0
 10
74.0572
 20
88.5088
 30
0.0
 11
74.0572
 21
102.508
 31
0.0
  0
LINE
  8
0
 62
     0
 10
93.1072
 20
102.508
 30
0.0
 11
107.107
 21
102.508
 31
0.0
  0
LINE
  8
0
 62
     0
 10
107.107
 20
102.508
 30
0.0
 11
107.107
 21
88.5088
 31
0.0
  0
LINE
  8
0
 62
     0
 10
107.107
 20
88.5088
 30
0.0
 11
93.1072
 21
88.5088
 31
0.0
  0
LINE
  8
0
 62
     0
 10
93.1072
 20
88.5088
 30
0.0
 11
93.1072
 21
102.508
 31
0.0
  0
LINE
  8
0
 62
     0
 10
112.157
 20
102.508
 30
0.0
 11
126.157
 21
102.508
 31
0.0
  0
LINE
  8
0
 62
     0
 10
126.157
 20
102.508
 30
0.0
 11
126.157
 21
88.5088
 31
0.0
  0
LINE
  8
0
 62
     0
 10
126.157
 20
88.5088
 30
0.0
 11
112.157
 21
88.5088
 31
0.0
  0
LINE
  8
0
 62
     0
 10
112.157
 20
88.5088
 30
0.0
 11
112.157
 21
102.508
 31
0.0
  0
LINE
  8
0
 62
     0
 10
131.207
 20
102.508
 30
0.0
 11
145.207
 21
102.508
 31
0.0
  0
LINE
  8
0
 62
     0
 10
145.207
 20
102.508
 30
0.0
 11
145.207
 21
88.5088
 31
0.0
  0
LINE
  8
0
 62
     0
 10
145.207
 20
88.5088
 30
0.0
 11
131.207
 21
88.5088
 31
0.0
  0
LINE
  8
0
 62
     0
 10
131.207
 20
88.5088
 30
0.0
 11
131.207
 21
102.508
 31
0.0
  0
LINE
  8
0
 62
     0
 10
150.257
 20
102.508
 30
0.0
 11
164.257
 21
102.508
 31
0.0
  0
LINE
  8
0
 62
     0
 10
164.257
 20
102.508
 30
0.0
 11
164.257
 21
88.5088
 31
0.0
  0
LINE
  8
0
 62
     0
 10
164.257
 20
88.5088
 30
0.0
 11
150.257
 21
88.5088
 31
0.0
  0
LINE
  8
0
 62
     0
 10
150.257
 20
88.5088
 30
0.0
 11
150.257
 21
102.508
 31
0.0
  0
LINE
  8
0
 62
     0
 10
169.307
 20
102.508
 30
0.0
 11
183.307
 21
102.508
 31
0.0
  0
LINE
  8
0
 62
     0
 10
183.307
 20
102.508
 30
0.0
 11
183.307
 21
88.5088
 31
0.0
  0
LINE
  8
0
 62
     0
 10
183.307
 20
88.5088
 30
0.0
 11
169.307
 21
88.5088
 31
0.0
  0
LINE
  8
0
 62
     0
 10
169.307
 20
88.5088
 30
0.0
 11
169.307
 21
102.508
 31
0.0
  0
LINE
  8
0
 62
     0
 10
188.357
 20
102.508
 30
0.0
 11
202.357
 21
102.508
 31
0.0
  0
LINE
  8
0
 62
     0
 10
202.357
 20
102.508
 30
0.0
 11
202.357
 21
88.5088
 31
0.0
  0
LINE
  8
0
 62
     0
 10
202.357
 20
88.5088
 30
0.0
 11
188.357
 21
88.5088
 31
0.0
  0
LINE
  8
0
 62
     0
 10
188.357
 20
88.5088
 30
0.0
 11
188.357
 21
102.508
 31
0.0
  0
LINE
  8
0
 62
     0
 10
207.407
 20
102.508
 30
0.0
 11
221.407
 21
102.508
 31
0.0
  0
LINE
  8
0
 62
     0
 10
221.407
 20
102.508
 30
0.0
 11
221.407
 21
88.5088
 31
0.0
  0
LINE
  8
0
 62
     0
 10
221.407
 20
88.5088
 30
0.0
 11
207.407
 21
88.5088
 31
0.0
  0
LINE
  8
0
 62
     0
 10
207.407
 20
88.5088
 30
0.0
 11
207.407
 21
102.508
 31
0.0
  0
LINE
  8
0
 62
     0
 10
233.601
 20
102.508
 30
0.0
 11
247.6
 21
102.508
 31
0.0
  0
LINE
  8
0
 62
     0
 10
247.6
 20
102.508
 30
0.0
 11
247.6
 21
88.5088
 31
0.0
  0
LINE
  8
0
 62
     0
 10
247.6
 20
88.5088
 30
0.0
 11
233.601
 21
88.5088
 31
0.0
  0
LINE
  8
0
 62
     0
 10
233.601
 20
88.5088
 30
0.0
 11
233.601
 21
102.508
 31
0.0
  0
LINE
  8
0
 62
     0
 10
7.38216
 20
121.558
 30
0.0
 11
21.3817
 21
121.558
 31
0.0
  0
LINE
  8
0
 62
     0
 10
21.3817
 20
121.558
 30
0.0
 11
21.3817
 21
107.559
 31
0.0
  0
LINE
  8
0
 62
     0
 10
21.3817
 20
107.559
 30
0.0
 11
7.38216
 21
107.559
 31
0.0
  0
LINE
  8
0
 62
     0
 10
7.38216
 20
107.559
 30
0.0
 11
7.38216
 21
121.558
 31
0.0
  0
LINE
  8
0
 62
     0
 10
31.1947
 20
121.558
 30
0.0
 11
45.194
 21
121.558
 31
0.0
  0
LINE
  8
0
 62
     0
 10
45.194
 20
121.558
 30
0.0
 11
45.194
 21
107.559
 31
0.0
  0
LINE
  8
0
 62
     0
 10
45.194
 20
107.559
 30
0.0
 11
31.1947
 21
107.559
 31
0.0
  0
LINE
  8
0
 62
     0
 10
31.1947
 20
107.559
 30
0.0
 11
31.1947
 21
121.558
 31
0.0
  0
LINE
  8
0
 62
     0
 10
50.2447
 20
121.558
 30
0.0
 11
64.244
 21
121.558
 31
0.0
  0
LINE
  8
0
 62
     0
 10
64.244
 20
121.558
 30
0.0
 11
64.244
 21
107.559
 31
0.0
  0
LINE
  8
0
 62
     0
 10
64.244
 20
107.559
 30
0.0
 11
50.2447
 21
107.559
 31
0.0
  0
LINE
  8
0
 62
     0
 10
50.2447
 20
107.559
 30
0.0
 11
50.2447
 21
121.558
 31
0.0
  0
LINE
  8
0
 62
     0
 10
69.2947
 20
121.558
 30
0.0
 11
83.294
 21
121.558
 31
0.0
  0
LINE
  8
0
 62
     0
 10
83.294
 20
121.558
 30
0.0
 11
83.294
 21
107.559
 31
0.0
  0
LINE
  8
0
 62
     0
 10
83.294
 20
107.559
 30
0.0
 11
69.2947
 21
107.559
 31
0.0
  0
LINE
  8
0
 62
     0
 10
69.2947
 20
107.559
 30
0.0
 11
69.2947
 21
121.558
 31
0.0
  0
LINE
  8
0
 62
     0
 10
88.3447
 20
121.558
 30
0.0
 11
102.344
 21
121.558
 31
0.0
  0
LINE
  8
0
 62
     0
 10
102.344
 20
121.558
 30
0.0
 11
102.344
 21
107.559
 31
0.0
  0
LINE
  8
0
 62
     0
 10
102.344
 20
107.559
 30
0.0
 11
88.3447
 21
107.559
 31
0.0
  0
LINE
  8
0
 62
     0
 10
88.3447
 20
107.559
 30
0.0
 11
88.3447
 21
121.558
 31
0.0
  0
LINE
  8
0
 62
     0
 10
107.395
 20
121.558
 30
0.0
 11
121.394
 21
121.558
 31
0.0
  0
LINE
  8
0
 62
     0
 10
121.394
 20
121.558
 30
0.0
 11
121.394
 21
107.559
 31
0.0
  0
LINE
  8
0
 62
     0
 10
121.394
 20
107.559
 30
0.0
 11
107.395
 21
107.559
 31
0.0
  0
LINE
  8
0
 62
     0
 10
107.395
 20
107.559
 30
0.0
 11
107.395
 21
121.558
 31
0.0
  0
LINE
  8
0
 62
     0
 10
126.445
 20
121.558
 30
0.0
 11
140.444
 21
121.558
 31
0.0
  0
LINE
  8
0
 62
     0
 10
140.444
 20
121.558
 30
0.0
 11
140.444
 21
107.559
 31
0.0
  0
LINE
  8
0
 62
     0
 10
140.444
 20
107.559
 30
0.0
 11
126.445
 21
107.559
 31
0.0
  0
LINE
  8
0
 62
     0
 10
126.445
 20
107.559
 30
0.0
 11
126.445
 21
121.558
 31
0.0
  0
LINE
  8
0
 62
     0
 10
145.495
 20
121.558
 30
0.0
 11
159.494
 21
121.558
 31
0.0
  0
LINE
  8
0
 62
     0
 10
159.494
 20
121.558
 30
0.0
 11
159.494
 21
107.559
 31
0.0
  0
LINE
  8
0
 62
     0
 10
159.494
 20
107.559
 30
0.0
 11
145.495
 21
107.559
 31
0.0
  0
LINE
  8
0
 62
     0
 10
145.495
 20
107.559
 30
0.0
 11
145.495
 21
121.558
 31
0.0
  0
LINE
  8
0
 62
     0
 10
164.545
 20
121.558
 30
0.0
 11
178.544
 21
121.558
 31
0.0
  0
LINE
  8
0
 62
     0
 10
178.544
 20
121.558
 30
0.0
 11
178.544
 21
107.559
 31
0.0
  0
LINE
  8
0
 62
     0
 10
178.544
 20
107.559
 30
0.0
 11
164.545
 21
107.559
 31
0.0
  0
LINE
  8
0
 62
     0
 10
164.545
 20
107.559
 30
0.0
 11
164.545
 21
121.558
 31
0.0
  0
LINE
  8
0
 62
     0
 10
183.595
 20
121.558
 30
0.0
 11
197.594
 21
121.558
 31
0.0
  0
LINE
  8
0
 62
     0
 10
197.594
 20
121.558
 30
0.0
 11
197.594
 21
107.559
 31
0.0
  0
LINE
  8
0
 62
     0
 10
197.594
 20
107.559
 30
0.0
 11
183.595
 21
107.559
 31
0.0
  0
LINE
  8
0
 62
     0
 10
183.595
 20
107.559
 30
0.0
 11
183.595
 21
121.558
 31
0.0
  0
LINE
  8
0
 62
     0
 10
202.645
 20
121.558
 30
0.0
 11
216.644
 21
121.558
 31
0.0
  0
LINE
  8
0
 62
     0
 10
216.644
 20
121.558
 30
0.0
 11
216.644
 21
107.559
 31
0.0
  0
LINE
  8
0
 62
     0
 10
216.644
 20
107.559
 30
0.0
 11
202.645
 21
107.559
 31
0.0
  0
LINE
  8
0
 62
     0
 10
202.645
 20
107.559
 30
0.0
 11
202.645
 21
121.558
 31
0.0
  0
LINE
  8
0
 62
     0
 10
221.695
 20
121.558
 30
0.0
 11
235.694
 21
121.558
 31
0.0
  0
LINE
  8
0
 62
     0
 10
235.694
 20
121.558
 30
0.0
 11
235.694
 21
107.559
 31
0.0
  0
LINE
  8
0
 62
     0
 10
235.694
 20
107.559
 30
0.0
 11
221.695
 21
107.559
 31
0.0
  0
LINE
  8
0
 62
     0
 10
221.695
 20
107.559
 30
0.0
 11
221.695
 21
121.558
 31
0.0
  0
LINE
  8
0
 62
     0
 10
240.745
 20
121.558
 30
0.0
 11
254.744
 21
121.558
 31
0.0
  0
LINE
  8
0
 62
     0
 10
254.744
 20
121.558
 30
0.0
 11
254.744
 21
107.559
 31
0.0
  0
LINE
  8
0
 62
     0
 10
254.744
 20
107.559
 30
0.0
 11
240.745
 21
107.559
 31
0.0
  0
LINE
  8
0
 62
     0
 10
240.745
 20
107.559
 30
0.0
 11
240.745
 21
121.558
 31
0.0
  0
LINE
  8
0
 62
     0
 10
231.22
 20
140.608
 30
0.0
 11
231.22
 21
135.908
 31
0.0
  0
LINE
  8
0
 62
     0
 10
231.22
 20
135.908
 30
0.0
 11
229.694
 21
135.908
 31
0.0
  0
LINE
  8
0
 62
     0
 10
229.694
 20
135.908
 30
0.0
 11
229.694
 21
139.138
 31
0.0
  0
LINE
  8
0
 62
     0
 10
229.694
 20
139.138
 30
0.0
 11
227.969
 21
139.138
 31
0.0
  0
LINE
  8
0
 62
     0
 10
227.969
 20
139.138
 30
0.0
 11
227.969
 21
140.06
 31
0.0
  0
LINE
  8
0
 62
     0
 10
227.969
 20
140.06
 30
0.0
 11
224.67
 21
140.06
 31
0.0
  0
LINE
  8
0
 62
     0
 10
224.67
 20
140.06
 30
0.0
 11
224.67
 21
139.138
 31
0.0
  0
LINE
  8
0
 62
     0
 10
224.67
 20
139.138
 30
0.0
 11
222.945
 21
139.138
 31
0.0
  0
LINE
  8
0
 62
     0
 10
222.945
 20
139.138
 30
0.0
 11
222.945
 21
135.908
 31
0.0
  0
LINE
  8
0
 62
     0
 10
222.945
 20
135.908
 30
0.0
 11
222.119
 21
135.908
 31
0.0
  0
LINE
  8
0
 62
     0
 10
222.119
 20
135.908
 30
0.0
 11
222.119
 21
133.109
 31
0.0
  0
LINE
  8
0
 62
     0
 10
222.119
 20
133.109
 30
0.0
 11
222.945
 21
133.109
 31
0.0
  0
LINE
  8
0
 62
     0
 10
222.945
 20
133.109
 30
0.0
 11
222.945
 21
126.839
 31
0.0
  0
LINE
  8
0
 62
     0
 10
222.945
 20
126.839
 30
0.0
 11
224.67
 21
126.839
 31
0.0
  0
LINE
  8
0
 62
     0
 10
224.67
 20
126.839
 30
0.0
 11
224.67
 21
125.858
 31
0.0
  0
LINE
  8
0
 62
     0
 10
224.67
 20
125.858
 30
0.0
 11
227.969
 21
125.858
 31
0.0
  0
LINE
  8
0
 62
     0
 10
227.969
 20
125.858
 30
0.0
 11
227.969
 21
126.839
 31
0.0
  0
LINE
  8
0
 62
     0
 10
227.969
 20
126.839
 30
0.0
 11
229.694
 21
126.839
 31
0.0
  0
LINE
  8
0
 62
     0
 10
229.694
 20
126.839
 30
0.0
 11
229.694
 21
131.308
 31
0.0
  0
LINE
  8
0
 62
     0
 10
229.694
 20
131.308
 30
0.0
 11
231.22
 21
131.308
 31
0.0
  0
LINE
  8
0
 62
     0
 10
231.22
 20
131.308
 30
0.0
 11
231.22
 21
126.609
 31
0.0
  0
LINE
  8
0
 62
     0
 10
231.22
 20
126.609
 30
0.0
 11
245.219
 21
126.609
 31
0.0
  0
LINE
  8
0
 62
     0
 10
245.219
 20
126.609
 30
0.0
 11
245.219
 21
131.308
 31
0.0
  0
LINE
  8
0
 62
     0
 10
245.219
 20
131.308
 30
0.0
 11
246.745
 21
131.308
 31
0.0
  0
LINE
  8
0
 62
     0
 10
246.745
 20
131.308
 30
0.0
 11
246.745
 21
126.839
 31
0.0
  0
LINE
  8
0
 62
     0
 10
246.745
 20
126.839
 30
0.0
 11
248.47
 21
126.839
 31
0.0
  0
LINE
  8
0
 62
     0
 10
248.47
 20
126.839
 30
0.0
 11
248.47
 21
125.858
 31
0.0
  0
LINE
  8
0
 62
     0
 10
248.47
 20
125.858
 30
0.0
 11
251.769
 21
125.858
 31
0.0
  0
LINE
  8
0
 62
     0
 10
251.769
 20
125.858
 30
0.0
 11
251.769
 21
126.839
 31
0.0
  0
LINE
  8
0
 62
     0
 10
251.769
 20
126.839
 30
0.0
 11
253.493
 21
126.839
 31
0.0
  0
LINE
  8
0
 62
     0
 10
253.493
 20
126.839
 30
0.0
 11
253.493
 21
133.109
 31
0.0
  0
LINE
  8
0
 62
     0
 10
253.493
 20
133.109
 30
0.0
 11
254.32
 21
133.109
 31
0.0
  0
LINE
  8
0
 62
     0
 10
254.32
 20
133.109
 30
0.0
 11
254.32
 21
135.908
 31
0.0
  0
LINE
  8
0
 62
     0
 10
254.32
 20
135.908
 30
0.0
 11
253.493
 21
135.908
 31
0.0
  0
LINE
  8
0
 62
     0
 10
253.493
 20
135.908
 30
0.0
 11
253.493
 21
139.138
 31
0.0
  0
LINE
  8
0
 62
     0
 10
253.493
 20
139.138
 30
0.0
 11
251.769
 21
139.138
 31
0.0
  0
LINE
  8
0
 62
     0
 10
251.769
 20
139.138
 30
0.0
 11
251.769
 21
140.06
 31
0.0
  0
LINE
  8
0
 62
     0
 10
251.769
 20
140.06
 30
0.0
 11
248.47
 21
140.06
 31
0.0
  0
LINE
  8
0
 62
     0
 10
248.47
 20
140.06
 30
0.0
 11
248.47
 21
139.138
 31
0.0
  0
LINE
  8
0
 62
     0
 10
248.47
 20
139.138
 30
0.0
 11
246.745
 21
139.138
 31
0.0
  0
LINE
  8
0
 62
     0
 10
246.745
 20
139.138
 30
0.0
 11
246.745
 21
135.908
 31
0.0
  0
LINE
  8
0
 62
     0
 10
246.745
 20
135.908
 30
0.0
 11
245.219
 21
135.908
 31
0.0
  0
LINE
  8
0
 62
     0
 10
245.219
 20
135.908
 30
0.0
 11
245.219
 21
140.608
 31
0.0
  0
LINE
  8
0
 62
     0
 10
245.219
 20
140.608
 30
0.0
 11
231.22
 21
140.608
 31
0.0
  0
ENDSEC
  0
EOF
