%TF.GenerationSoftware,KiCad,Pcbnew,7.0.7-7.0.7~ubuntu23.04.1*%
%TF.CreationDate,Date%
%TF.ProjectId,plate,706c6174-652e-46b6-9963-61645f706362,rev?*%
%TF.SameCoordinates,Original*%
%TF.FileFunction,Drillmap*%
%TF.FilePolarity,Positive*%
%FSLAX45Y45*%
G04 Gerber Fmt 4.5, Leading zero omitted, Abs format (unit mm)*
G04 Created by KiCad*
%MOMM*%
%LPD*%
G01*
G04 APERTURE LIST*
%ADD10C,0.100000*%
%ADD11C,0.150000*%
%ADD12C,0.200000*%
G04 APERTURE END LIST*
D10*
X4238023Y-8921800D02*
X2493023Y-8921800D01*
X27098082Y-10827255D02*
X23685132Y-10827255D01*
D11*
X19157632Y-12732195D02*
X15112632Y-12732195D01*
X4909492Y-11357202D02*
G75*
G03*
X4809492Y-11457195I-12J-99988D01*
G01*
X22335682Y-12732262D02*
G75*
G03*
X22435682Y-12632255I-2J100002D01*
G01*
X3999497Y-12732255D02*
X2491998Y-12732255D01*
X15012635Y-12632195D02*
G75*
G03*
X15112632Y-12732195I99995J-5D01*
G01*
X20251382Y-12632255D02*
X20251382Y-11422195D01*
X7254497Y-11322247D02*
G75*
G03*
X7154497Y-11422255I-7J-99993D01*
G01*
X6619492Y-12732202D02*
G75*
G03*
X6719492Y-12632195I-2J100002D01*
G01*
X10432642Y-11322262D02*
G75*
G03*
X10332642Y-11422255I-12J-99988D01*
G01*
X19257632Y-11422195D02*
X19257632Y-12632195D01*
X9238867Y-12732197D02*
G75*
G03*
X9338867Y-12632195I3J99997D01*
G01*
X2392005Y-12632255D02*
G75*
G03*
X2491998Y-12732255I99995J-5D01*
G01*
X2491998Y-11322255D02*
G75*
G03*
X2391998Y-11422255I-11J-99990D01*
G01*
X9338865Y-11422255D02*
G75*
G03*
X9238867Y-11322255I-99995J5D01*
G01*
X7154497Y-12632195D02*
X7154497Y-11422255D01*
X24816975Y-11422195D02*
G75*
G03*
X24716982Y-11322195I-99995J5D01*
G01*
X7154505Y-12632195D02*
G75*
G03*
X7254497Y-12732195I99995J-5D01*
G01*
X22335682Y-12732255D02*
X20351382Y-12732255D01*
X6719485Y-11457195D02*
G75*
G03*
X6619492Y-11357195I-99995J5D01*
G01*
D10*
X2136375Y-5359750D02*
G75*
G03*
X1936375Y-5559750I0J-200000D01*
G01*
D11*
X4099495Y-11422255D02*
G75*
G03*
X3999497Y-11322255I-99995J5D01*
G01*
X24061380Y-6917250D02*
G75*
G03*
X24161382Y-7017250I100000J0D01*
G01*
D10*
X1936375Y-12779750D02*
X1936375Y-5559750D01*
D11*
X13780687Y-11422255D02*
X13780687Y-12632195D01*
X4809495Y-12632195D02*
G75*
G03*
X4909492Y-12732195I99995J-5D01*
G01*
X7254497Y-11322255D02*
X9238867Y-11322255D01*
D10*
X23685132Y-9417262D02*
G75*
G03*
X23585132Y-9517255I-12J-99988D01*
G01*
X2393030Y-8821800D02*
G75*
G03*
X2493023Y-8921800I99990J-10D01*
G01*
D11*
X15112632Y-11322195D02*
X19157632Y-11322195D01*
X27198075Y-11422195D02*
G75*
G03*
X27098082Y-11322195I-99995J5D01*
G01*
D10*
X27653875Y-5559750D02*
X27653875Y-12779750D01*
D11*
X20351382Y-11322202D02*
G75*
G03*
X20251382Y-11422195I-12J-99988D01*
G01*
X10332642Y-12632195D02*
X10332642Y-11422255D01*
X3999497Y-12732257D02*
G75*
G03*
X4099497Y-12632255I3J99998D01*
G01*
D10*
X27198082Y-9517255D02*
X27198082Y-10727255D01*
D11*
X22970682Y-11322202D02*
G75*
G03*
X22870682Y-11422195I-12J-99988D01*
G01*
X27336382Y-7017252D02*
G75*
G03*
X27436382Y-6917250I-2J100002D01*
G01*
X19257625Y-11422195D02*
G75*
G03*
X19157632Y-11322195I-99995J5D01*
G01*
X22435675Y-11422195D02*
G75*
G03*
X22335682Y-11322195I-99995J5D01*
G01*
X15012632Y-12632195D02*
X15012632Y-11422195D01*
X25490135Y-12632255D02*
G75*
G03*
X25590132Y-12732255I99995J-5D01*
G01*
X25490132Y-12632255D02*
X25490132Y-11422195D01*
X24716982Y-12732262D02*
G75*
G03*
X24816982Y-12632255I-2J100002D01*
G01*
X6719492Y-11457195D02*
X6719492Y-12632195D01*
D10*
X23585132Y-10727255D02*
X23585132Y-9517255D01*
X27453875Y-12979745D02*
G75*
G03*
X27653875Y-12779750I5J199995D01*
G01*
D11*
X10332645Y-12632195D02*
G75*
G03*
X10432642Y-12732195I99995J-5D01*
G01*
D10*
X1936375Y-12779750D02*
G75*
G03*
X2136375Y-12979750I200000J0D01*
G01*
X27098082Y-10827262D02*
G75*
G03*
X27198082Y-10727255I-2J100002D01*
G01*
D11*
X24161382Y-5607250D02*
X27336382Y-5607250D01*
X24716982Y-12732255D02*
X22970682Y-12732255D01*
X13680687Y-12732195D02*
X10432642Y-12732195D01*
D10*
X4238023Y-8921793D02*
G75*
G03*
X4338023Y-8821800I7J99993D01*
G01*
D11*
X25590132Y-11322195D02*
X27098082Y-11322195D01*
X22870682Y-12632255D02*
X22870682Y-11422195D01*
D10*
X27453875Y-5359750D02*
X2136375Y-5359750D01*
D11*
X4909492Y-11357195D02*
X6619492Y-11357195D01*
D10*
X2136375Y-12979750D02*
X27453875Y-12979750D01*
D11*
X24816982Y-11422195D02*
X24816982Y-12632255D01*
X27336382Y-7017250D02*
X24161382Y-7017250D01*
X22435682Y-11422195D02*
X22435682Y-12632255D01*
X4809492Y-12632195D02*
X4809492Y-11457195D01*
X24061382Y-6917250D02*
X24061382Y-5707250D01*
D10*
X23585135Y-10727255D02*
G75*
G03*
X23685132Y-10827255I99995J-5D01*
G01*
X2493023Y-7513793D02*
G75*
G03*
X2393023Y-7613800I7J-100007D01*
G01*
X27653880Y-5559750D02*
G75*
G03*
X27453875Y-5359750I-200000J0D01*
G01*
D11*
X20251385Y-12632255D02*
G75*
G03*
X20351382Y-12732255I99995J-5D01*
G01*
D10*
X2493023Y-7513800D02*
X4238023Y-7513800D01*
D11*
X22870685Y-12632255D02*
G75*
G03*
X22970682Y-12732255I99995J-5D01*
G01*
X27098082Y-12732255D02*
X25590132Y-12732255D01*
X2491998Y-11322255D02*
X3999497Y-11322255D01*
D10*
X4338020Y-7613800D02*
G75*
G03*
X4238023Y-7513800I-100000J0D01*
G01*
D11*
X25590132Y-11322202D02*
G75*
G03*
X25490132Y-11422195I-12J-99988D01*
G01*
X27198082Y-11422195D02*
X27198082Y-12632255D01*
X2391998Y-12632255D02*
X2391998Y-11422255D01*
X13680687Y-12732197D02*
G75*
G03*
X13780687Y-12632195I3J99997D01*
G01*
X9338867Y-11422255D02*
X9338867Y-12632195D01*
X22970682Y-11322195D02*
X24716982Y-11322195D01*
X27436382Y-5707250D02*
X27436382Y-6917250D01*
X6619492Y-12732195D02*
X4909492Y-12732195D01*
X19157632Y-12732202D02*
G75*
G03*
X19257632Y-12632195I-2J100002D01*
G01*
X9238867Y-12732195D02*
X7254497Y-12732195D01*
X10432642Y-11322255D02*
X13680687Y-11322255D01*
X27098082Y-12732262D02*
G75*
G03*
X27198082Y-12632255I-2J100002D01*
G01*
D10*
X23685132Y-9417255D02*
X27098082Y-9417255D01*
D11*
X27436380Y-5707250D02*
G75*
G03*
X27336382Y-5607250I-100000J0D01*
G01*
D10*
X4338023Y-7613800D02*
X4338023Y-8821800D01*
D11*
X24161382Y-5607252D02*
G75*
G03*
X24061382Y-5707250I-2J-99998D01*
G01*
X20351382Y-11322195D02*
X22335682Y-11322195D01*
X15112632Y-11322202D02*
G75*
G03*
X15012632Y-11422195I-12J-99988D01*
G01*
D10*
X2393023Y-8821800D02*
X2393023Y-7613800D01*
X27198075Y-9517255D02*
G75*
G03*
X27098082Y-9417255I-99995J5D01*
G01*
D11*
X13780685Y-11422255D02*
G75*
G03*
X13680687Y-11322255I-99995J5D01*
G01*
X4099497Y-11422255D02*
X4099497Y-12632255D01*
D12*
X2192152Y-13296234D02*
X2192152Y-13096234D01*
X2192152Y-13096234D02*
X2239771Y-13096234D01*
X2239771Y-13096234D02*
X2268342Y-13105758D01*
X2268342Y-13105758D02*
X2287390Y-13124805D01*
X2287390Y-13124805D02*
X2296914Y-13143853D01*
X2296914Y-13143853D02*
X2306438Y-13181948D01*
X2306438Y-13181948D02*
X2306438Y-13210519D01*
X2306438Y-13210519D02*
X2296914Y-13248615D01*
X2296914Y-13248615D02*
X2287390Y-13267662D01*
X2287390Y-13267662D02*
X2268342Y-13286710D01*
X2268342Y-13286710D02*
X2239771Y-13296234D01*
X2239771Y-13296234D02*
X2192152Y-13296234D01*
X2392152Y-13296234D02*
X2392152Y-13162900D01*
X2392152Y-13200996D02*
X2401676Y-13181948D01*
X2401676Y-13181948D02*
X2411199Y-13172424D01*
X2411199Y-13172424D02*
X2430247Y-13162900D01*
X2430247Y-13162900D02*
X2449295Y-13162900D01*
X2515961Y-13296234D02*
X2515961Y-13162900D01*
X2515961Y-13096234D02*
X2506438Y-13105758D01*
X2506438Y-13105758D02*
X2515961Y-13115281D01*
X2515961Y-13115281D02*
X2525485Y-13105758D01*
X2525485Y-13105758D02*
X2515961Y-13096234D01*
X2515961Y-13096234D02*
X2515961Y-13115281D01*
X2639771Y-13296234D02*
X2620723Y-13286710D01*
X2620723Y-13286710D02*
X2611199Y-13267662D01*
X2611199Y-13267662D02*
X2611199Y-13096234D01*
X2744533Y-13296234D02*
X2725485Y-13286710D01*
X2725485Y-13286710D02*
X2715961Y-13267662D01*
X2715961Y-13267662D02*
X2715961Y-13096234D01*
X2973104Y-13296234D02*
X2973104Y-13096234D01*
X2973104Y-13096234D02*
X3039771Y-13239091D01*
X3039771Y-13239091D02*
X3106437Y-13096234D01*
X3106437Y-13096234D02*
X3106437Y-13296234D01*
X3287390Y-13296234D02*
X3287390Y-13191472D01*
X3287390Y-13191472D02*
X3277866Y-13172424D01*
X3277866Y-13172424D02*
X3258818Y-13162900D01*
X3258818Y-13162900D02*
X3220723Y-13162900D01*
X3220723Y-13162900D02*
X3201676Y-13172424D01*
X3287390Y-13286710D02*
X3268342Y-13296234D01*
X3268342Y-13296234D02*
X3220723Y-13296234D01*
X3220723Y-13296234D02*
X3201676Y-13286710D01*
X3201676Y-13286710D02*
X3192152Y-13267662D01*
X3192152Y-13267662D02*
X3192152Y-13248615D01*
X3192152Y-13248615D02*
X3201676Y-13229567D01*
X3201676Y-13229567D02*
X3220723Y-13220043D01*
X3220723Y-13220043D02*
X3268342Y-13220043D01*
X3268342Y-13220043D02*
X3287390Y-13210519D01*
X3382628Y-13162900D02*
X3382628Y-13362900D01*
X3382628Y-13172424D02*
X3401676Y-13162900D01*
X3401676Y-13162900D02*
X3439771Y-13162900D01*
X3439771Y-13162900D02*
X3458818Y-13172424D01*
X3458818Y-13172424D02*
X3468342Y-13181948D01*
X3468342Y-13181948D02*
X3477866Y-13200996D01*
X3477866Y-13200996D02*
X3477866Y-13258138D01*
X3477866Y-13258138D02*
X3468342Y-13277186D01*
X3468342Y-13277186D02*
X3458818Y-13286710D01*
X3458818Y-13286710D02*
X3439771Y-13296234D01*
X3439771Y-13296234D02*
X3401676Y-13296234D01*
X3401676Y-13296234D02*
X3382628Y-13286710D01*
X3563580Y-13277186D02*
X3573104Y-13286710D01*
X3573104Y-13286710D02*
X3563580Y-13296234D01*
X3563580Y-13296234D02*
X3554057Y-13286710D01*
X3554057Y-13286710D02*
X3563580Y-13277186D01*
X3563580Y-13277186D02*
X3563580Y-13296234D01*
X3563580Y-13172424D02*
X3573104Y-13181948D01*
X3573104Y-13181948D02*
X3563580Y-13191472D01*
X3563580Y-13191472D02*
X3554057Y-13181948D01*
X3554057Y-13181948D02*
X3563580Y-13172424D01*
X3563580Y-13172424D02*
X3563580Y-13191472D01*
M02*
