G04 #@! TF.GenerationSoftware,KiCad,Pcbnew,7.0.7-7.0.7~ubuntu23.04.1*
G04 #@! TF.CreationDate,2023-08-23T01:29:14+00:00*
G04 #@! TF.ProjectId,plate,706c6174-652e-46b6-9963-61645f706362,rev?*
G04 #@! TF.SameCoordinates,Original*
G04 #@! TF.FileFunction,Profile,NP*
%FSLAX46Y46*%
G04 Gerber Fmt 4.6, Leading zero omitted, Abs format (unit mm)*
G04 Created by KiCad (PCBNEW 7.0.7-7.0.7~ubuntu23.04.1) date 2023-08-23 01:29:14*
%MOMM*%
%LPD*%
G01*
G04 APERTURE LIST*
G04 #@! TA.AperFunction,Profile*
%ADD10C,0.100000*%
G04 #@! TD*
G04 #@! TA.AperFunction,Profile*
%ADD11C,0.150000*%
G04 #@! TD*
G04 #@! TA.AperFunction,Profile*
%ADD12C,0.200000*%
G04 #@! TD*
G04 APERTURE END LIST*
D10*
X42380230Y-89218000D02*
X24930230Y-89218000D01*
X270980820Y-108272550D02*
X236851320Y-108272550D01*
D11*
X191576320Y-127321950D02*
X151126320Y-127321950D01*
X49094920Y-113572020D02*
G75*
G03*
X48094920Y-114571950I-120J-999880D01*
G01*
X223356820Y-127322620D02*
G75*
G03*
X224356820Y-126322550I-20J1000020D01*
G01*
X39994975Y-127322550D02*
X24919975Y-127322550D01*
X150126350Y-126321950D02*
G75*
G03*
X151126320Y-127321950I999950J-50D01*
G01*
X202513820Y-126322550D02*
X202513820Y-114221950D01*
X72544970Y-113222470D02*
G75*
G03*
X71544970Y-114222550I-70J-999930D01*
G01*
X66194920Y-127322020D02*
G75*
G03*
X67194920Y-126321950I-20J1000020D01*
G01*
X104326420Y-113222620D02*
G75*
G03*
X103326420Y-114222550I-120J-999880D01*
G01*
X192576320Y-114221950D02*
X192576320Y-126321950D01*
X92388670Y-127321970D02*
G75*
G03*
X93388670Y-126321950I30J999970D01*
G01*
X23920050Y-126322550D02*
G75*
G03*
X24919975Y-127322550I999950J-50D01*
G01*
X24919975Y-113222555D02*
G75*
G03*
X23919975Y-114222550I-105J-999895D01*
G01*
X93388650Y-114222550D02*
G75*
G03*
X92388670Y-113222550I-999950J50D01*
G01*
X71544970Y-126321950D02*
X71544970Y-114222550D01*
X248169750Y-114221950D02*
G75*
G03*
X247169820Y-113221950I-999950J50D01*
G01*
X71545050Y-126321950D02*
G75*
G03*
X72544970Y-127321950I999950J-50D01*
G01*
X223356820Y-127322550D02*
X203513820Y-127322550D01*
X67194850Y-114571950D02*
G75*
G03*
X66194920Y-113571950I-999950J50D01*
G01*
D10*
X21363751Y-53597501D02*
G75*
G03*
X19363751Y-55597500I-1J-1999999D01*
G01*
D11*
X40994950Y-114222550D02*
G75*
G03*
X39994975Y-113222550I-999950J50D01*
G01*
X240613800Y-69172500D02*
G75*
G03*
X241613820Y-70172500I1000000J0D01*
G01*
D10*
X19363750Y-127797500D02*
X19363750Y-55597500D01*
D11*
X137806870Y-114222550D02*
X137806870Y-126321950D01*
X48094950Y-126321950D02*
G75*
G03*
X49094920Y-127321950I999950J-50D01*
G01*
X72544970Y-113222550D02*
X92388670Y-113222550D01*
D10*
X236851320Y-94172620D02*
G75*
G03*
X235851320Y-95172550I-120J-999880D01*
G01*
X23930300Y-88218000D02*
G75*
G03*
X24930230Y-89218000I999900J-100D01*
G01*
D11*
X151126320Y-113221950D02*
X191576320Y-113221950D01*
X271980750Y-114221950D02*
G75*
G03*
X270980820Y-113221950I-999950J50D01*
G01*
D10*
X276538750Y-55597500D02*
X276538750Y-127797500D01*
D11*
X203513820Y-113222020D02*
G75*
G03*
X202513820Y-114221950I-120J-999880D01*
G01*
X103326420Y-126321950D02*
X103326420Y-114222550D01*
X39994975Y-127322575D02*
G75*
G03*
X40994975Y-126322550I25J999975D01*
G01*
D10*
X271980820Y-95172550D02*
X271980820Y-107272550D01*
D11*
X229706820Y-113222020D02*
G75*
G03*
X228706820Y-114221950I-120J-999880D01*
G01*
X273363820Y-70172520D02*
G75*
G03*
X274363820Y-69172500I-20J1000020D01*
G01*
X192576250Y-114221950D02*
G75*
G03*
X191576320Y-113221950I-999950J50D01*
G01*
X224356750Y-114221950D02*
G75*
G03*
X223356820Y-113221950I-999950J50D01*
G01*
X150126320Y-126321950D02*
X150126320Y-114221950D01*
X254901350Y-126322550D02*
G75*
G03*
X255901320Y-127322550I999950J-50D01*
G01*
X254901320Y-126322550D02*
X254901320Y-114221950D01*
X247169820Y-127322620D02*
G75*
G03*
X248169820Y-126322550I-20J1000020D01*
G01*
X67194920Y-114571950D02*
X67194920Y-126321950D01*
D10*
X235851320Y-107272550D02*
X235851320Y-95172550D01*
X274538750Y-129797450D02*
G75*
G03*
X276538750Y-127797500I50J1999950D01*
G01*
D11*
X103326450Y-126321950D02*
G75*
G03*
X104326420Y-127321950I999950J-50D01*
G01*
D10*
X19363750Y-127797500D02*
G75*
G03*
X21363749Y-129797500I2000000J0D01*
G01*
X270980820Y-108272620D02*
G75*
G03*
X271980820Y-107272550I-20J1000020D01*
G01*
D11*
X241613820Y-56072500D02*
X273363820Y-56072500D01*
X247169820Y-127322550D02*
X229706820Y-127322550D01*
X136806870Y-127321950D02*
X104326420Y-127321950D01*
D10*
X42380230Y-89217930D02*
G75*
G03*
X43380230Y-88218000I70J999930D01*
G01*
D11*
X255901320Y-113221950D02*
X270980820Y-113221950D01*
X228706820Y-126322550D02*
X228706820Y-114221950D01*
D10*
X274538752Y-53597500D02*
X21363751Y-53597500D01*
D11*
X49094920Y-113571950D02*
X66194920Y-113571950D01*
D10*
X21363749Y-129797500D02*
X274538750Y-129797500D01*
D11*
X248169820Y-114221950D02*
X248169820Y-126322550D01*
X273363820Y-70172500D02*
X241613820Y-70172500D01*
X224356820Y-114221950D02*
X224356820Y-126322550D01*
X48094920Y-126321950D02*
X48094920Y-114571950D01*
X240613820Y-69172500D02*
X240613820Y-57072500D01*
D10*
X235851350Y-107272550D02*
G75*
G03*
X236851320Y-108272550I999950J-50D01*
G01*
X24930230Y-75137930D02*
G75*
G03*
X23930230Y-76138000I70J-1000070D01*
G01*
X276538800Y-55597500D02*
G75*
G03*
X274538752Y-53597500I-2000000J0D01*
G01*
D11*
X202513850Y-126322550D02*
G75*
G03*
X203513820Y-127322550I999950J-50D01*
G01*
D10*
X24930230Y-75138000D02*
X42380230Y-75138000D01*
D11*
X228706850Y-126322550D02*
G75*
G03*
X229706820Y-127322550I999950J-50D01*
G01*
X270980820Y-127322550D02*
X255901320Y-127322550D01*
X24919975Y-113222550D02*
X39994975Y-113222550D01*
D10*
X43380200Y-76138000D02*
G75*
G03*
X42380230Y-75138000I-1000000J0D01*
G01*
D11*
X255901320Y-113222020D02*
G75*
G03*
X254901320Y-114221950I-120J-999880D01*
G01*
X271980820Y-114221950D02*
X271980820Y-126322550D01*
X23919975Y-126322550D02*
X23919975Y-114222550D01*
X136806870Y-127321970D02*
G75*
G03*
X137806870Y-126321950I30J999970D01*
G01*
X93388670Y-114222550D02*
X93388670Y-126321950D01*
X229706820Y-113221950D02*
X247169820Y-113221950D01*
X274363820Y-57072500D02*
X274363820Y-69172500D01*
X66194920Y-127321950D02*
X49094920Y-127321950D01*
X191576320Y-127322020D02*
G75*
G03*
X192576320Y-126321950I-20J1000020D01*
G01*
X92388670Y-127321950D02*
X72544970Y-127321950D01*
X104326420Y-113222550D02*
X136806870Y-113222550D01*
X270980820Y-127322620D02*
G75*
G03*
X271980820Y-126322550I-20J1000020D01*
G01*
D10*
X236851320Y-94172550D02*
X270980820Y-94172550D01*
D11*
X274363800Y-57072500D02*
G75*
G03*
X273363820Y-56072500I-1000000J0D01*
G01*
D10*
X43380230Y-76138000D02*
X43380230Y-88218000D01*
D11*
X241613820Y-56072520D02*
G75*
G03*
X240613820Y-57072500I-20J-999980D01*
G01*
X203513820Y-113221950D02*
X223356820Y-113221950D01*
X151126320Y-113222020D02*
G75*
G03*
X150126320Y-114221950I-120J-999880D01*
G01*
D10*
X23930230Y-88218000D02*
X23930230Y-76138000D01*
X271980750Y-95172550D02*
G75*
G03*
X270980820Y-94172550I-999950J50D01*
G01*
D11*
X137806850Y-114222550D02*
G75*
G03*
X136806870Y-113222550I-999950J50D01*
G01*
X40994975Y-114222550D02*
X40994975Y-126322550D01*
D12*
X145363440Y-69172500D02*
X145363440Y-57072500D01*
X146363440Y-56072500D02*
X159063440Y-56072500D01*
X159063440Y-70172500D02*
X146363440Y-70172500D01*
X160063440Y-57072500D02*
X160063440Y-69172500D01*
X146363440Y-56072500D02*
G75*
G03*
X145363440Y-57072500I-1J-999999D01*
G01*
X145363440Y-69172500D02*
G75*
G03*
X146363440Y-70172500I999999J-1D01*
G01*
X160063440Y-57072500D02*
G75*
G03*
X159063440Y-56072500I-1000000J0D01*
G01*
X159063440Y-70172500D02*
G75*
G03*
X160063440Y-69172500I0J1000000D01*
G01*
X252519740Y-88222500D02*
X252519740Y-76122500D01*
X253519740Y-75122500D02*
X266219740Y-75122500D01*
X266219740Y-89222500D02*
X253519740Y-89222500D01*
X267219740Y-76122500D02*
X267219740Y-88222500D01*
X253519740Y-75122500D02*
G75*
G03*
X252519740Y-76122500I-1J-999999D01*
G01*
X252519740Y-88222500D02*
G75*
G03*
X253519740Y-89222500I999999J-1D01*
G01*
X267219740Y-76122500D02*
G75*
G03*
X266219740Y-75122500I-1000000J0D01*
G01*
X266219740Y-89222500D02*
G75*
G03*
X267219740Y-88222500I0J1000000D01*
G01*
X121550940Y-107272650D02*
X121550940Y-95172650D01*
X122550940Y-94172650D02*
X135250940Y-94172650D01*
X135250940Y-108272650D02*
X122550940Y-108272650D01*
X136250940Y-95172650D02*
X136250940Y-107272650D01*
X122550940Y-94172650D02*
G75*
G03*
X121550940Y-95172650I-1J-999999D01*
G01*
X121550940Y-107272650D02*
G75*
G03*
X122550940Y-108272650I999999J-1D01*
G01*
X136250940Y-95172650D02*
G75*
G03*
X135250940Y-94172650I-1000000J0D01*
G01*
X135250940Y-108272650D02*
G75*
G03*
X136250940Y-107272650I0J1000000D01*
G01*
X64400940Y-107272650D02*
X64400940Y-95172650D01*
X65400940Y-94172650D02*
X78100940Y-94172650D01*
X78100940Y-108272650D02*
X65400940Y-108272650D01*
X79100940Y-95172650D02*
X79100940Y-107272650D01*
X65400940Y-94172650D02*
G75*
G03*
X64400940Y-95172650I-1J-999999D01*
G01*
X64400940Y-107272650D02*
G75*
G03*
X65400940Y-108272650I999999J-1D01*
G01*
X79100940Y-95172650D02*
G75*
G03*
X78100940Y-94172650I-1000000J0D01*
G01*
X78100940Y-108272650D02*
G75*
G03*
X79100940Y-107272650I0J1000000D01*
G01*
X216800940Y-107272650D02*
X216800940Y-95172650D01*
X217800940Y-94172650D02*
X230500940Y-94172650D01*
X230500940Y-108272650D02*
X217800940Y-108272650D01*
X231500940Y-95172650D02*
X231500940Y-107272650D01*
X217800940Y-94172650D02*
G75*
G03*
X216800940Y-95172650I-1J-999999D01*
G01*
X216800940Y-107272650D02*
G75*
G03*
X217800940Y-108272650I999999J-1D01*
G01*
X231500940Y-95172650D02*
G75*
G03*
X230500940Y-94172650I-1000000J0D01*
G01*
X230500940Y-108272650D02*
G75*
G03*
X231500940Y-107272650I0J1000000D01*
G01*
X150125940Y-88222500D02*
X150125940Y-76122500D01*
X151125940Y-75122500D02*
X163825940Y-75122500D01*
X163825940Y-89222500D02*
X151125940Y-89222500D01*
X164825940Y-76122500D02*
X164825940Y-88222500D01*
X151125940Y-75122500D02*
G75*
G03*
X150125940Y-76122500I-1J-999999D01*
G01*
X150125940Y-88222500D02*
G75*
G03*
X151125940Y-89222500I999999J-1D01*
G01*
X164825940Y-76122500D02*
G75*
G03*
X163825940Y-75122500I-1000000J0D01*
G01*
X163825940Y-89222500D02*
G75*
G03*
X164825940Y-88222500I0J1000000D01*
G01*
X24744740Y-94172650D02*
X56844740Y-94172650D01*
X24744740Y-107272650D02*
X24744740Y-94172650D01*
X55844740Y-108272650D02*
X25744740Y-108272650D01*
X56844740Y-94172650D02*
X56844740Y-107272650D01*
X24744740Y-107272650D02*
G75*
G03*
X25744740Y-108272650I999999J-1D01*
G01*
X55844740Y-108272650D02*
G75*
G03*
X56844740Y-107272650I0J1000000D01*
G01*
X131075940Y-88222500D02*
X131075940Y-76122500D01*
X132075940Y-75122500D02*
X144775940Y-75122500D01*
X144775940Y-89222500D02*
X132075940Y-89222500D01*
X145775940Y-76122500D02*
X145775940Y-88222500D01*
X132075940Y-75122500D02*
G75*
G03*
X131075940Y-76122500I-1J-999999D01*
G01*
X131075940Y-88222500D02*
G75*
G03*
X132075940Y-89222500I999999J-1D01*
G01*
X145775940Y-76122500D02*
G75*
G03*
X144775940Y-75122500I-1000000J0D01*
G01*
X144775940Y-89222500D02*
G75*
G03*
X145775940Y-88222500I0J1000000D01*
G01*
X226325940Y-88222500D02*
X226325940Y-76122500D01*
X227325940Y-75122500D02*
X240025940Y-75122500D01*
X240025940Y-89222500D02*
X227325940Y-89222500D01*
X241025940Y-76122500D02*
X241025940Y-88222500D01*
X227325940Y-75122500D02*
G75*
G03*
X226325940Y-76122500I-1J-999999D01*
G01*
X226325940Y-88222500D02*
G75*
G03*
X227325940Y-89222500I999999J-1D01*
G01*
X241025940Y-76122500D02*
G75*
G03*
X240025940Y-75122500I-1000000J0D01*
G01*
X240025940Y-89222500D02*
G75*
G03*
X241025940Y-88222500I0J1000000D01*
G01*
X126313440Y-69172500D02*
X126313440Y-57072500D01*
X127313440Y-56072500D02*
X140013440Y-56072500D01*
X140013440Y-70172500D02*
X127313440Y-70172500D01*
X141013440Y-57072500D02*
X141013440Y-69172500D01*
X127313440Y-56072500D02*
G75*
G03*
X126313440Y-57072500I-1J-999999D01*
G01*
X126313440Y-69172500D02*
G75*
G03*
X127313440Y-70172500I999999J-1D01*
G01*
X141013440Y-57072500D02*
G75*
G03*
X140013440Y-56072500I-1000000J0D01*
G01*
X140013440Y-70172500D02*
G75*
G03*
X141013440Y-69172500I0J1000000D01*
G01*
X26301250Y-69172500D02*
X26301250Y-57072500D01*
X27301250Y-56072500D02*
X40001250Y-56072500D01*
X40001250Y-70172500D02*
X27301250Y-70172500D01*
X41001250Y-57072500D02*
X41001250Y-69172500D01*
X27301250Y-56072500D02*
G75*
G03*
X26301250Y-57072500I-1J-999999D01*
G01*
X26301250Y-69172500D02*
G75*
G03*
X27301250Y-70172500I999999J-1D01*
G01*
X41001250Y-57072500D02*
G75*
G03*
X40001250Y-56072500I-1000000J0D01*
G01*
X40001250Y-70172500D02*
G75*
G03*
X41001250Y-69172500I0J1000000D01*
G01*
X83450940Y-107272650D02*
X83450940Y-95172650D01*
X84450940Y-94172650D02*
X97150940Y-94172650D01*
X97150940Y-108272650D02*
X84450940Y-108272650D01*
X98150940Y-95172650D02*
X98150940Y-107272650D01*
X84450940Y-94172650D02*
G75*
G03*
X83450940Y-95172650I-1J-999999D01*
G01*
X83450940Y-107272650D02*
G75*
G03*
X84450940Y-108272650I999999J-1D01*
G01*
X98150940Y-95172650D02*
G75*
G03*
X97150940Y-94172650I-1000000J0D01*
G01*
X97150940Y-108272650D02*
G75*
G03*
X98150940Y-107272650I0J1000000D01*
G01*
X207275940Y-88222500D02*
X207275940Y-76122500D01*
X208275940Y-75122500D02*
X220975940Y-75122500D01*
X220975940Y-89222500D02*
X208275940Y-89222500D01*
X221975940Y-76122500D02*
X221975940Y-88222500D01*
X208275940Y-75122500D02*
G75*
G03*
X207275940Y-76122500I-1J-999999D01*
G01*
X207275940Y-88222500D02*
G75*
G03*
X208275940Y-89222500I999999J-1D01*
G01*
X221975940Y-76122500D02*
G75*
G03*
X220975940Y-75122500I-1000000J0D01*
G01*
X220975940Y-89222500D02*
G75*
G03*
X221975940Y-88222500I0J1000000D01*
G01*
X178700940Y-107272650D02*
X178700940Y-95172650D01*
X179700940Y-94172650D02*
X192400940Y-94172650D01*
X192400940Y-108272650D02*
X179700940Y-108272650D01*
X193400940Y-95172650D02*
X193400940Y-107272650D01*
X179700940Y-94172650D02*
G75*
G03*
X178700940Y-95172650I-1J-999999D01*
G01*
X178700940Y-107272650D02*
G75*
G03*
X179700940Y-108272650I999999J-1D01*
G01*
X193400940Y-95172650D02*
G75*
G03*
X192400940Y-94172650I-1000000J0D01*
G01*
X192400940Y-108272650D02*
G75*
G03*
X193400940Y-107272650I0J1000000D01*
G01*
X50113440Y-69172500D02*
X50113440Y-57072500D01*
X51113440Y-56072500D02*
X63813440Y-56072500D01*
X63813440Y-70172500D02*
X51113440Y-70172500D01*
X64813440Y-57072500D02*
X64813440Y-69172500D01*
X51113440Y-56072500D02*
G75*
G03*
X50113440Y-57072500I-1J-999999D01*
G01*
X50113440Y-69172500D02*
G75*
G03*
X51113440Y-70172500I999999J-1D01*
G01*
X64813440Y-57072500D02*
G75*
G03*
X63813440Y-56072500I-1000000J0D01*
G01*
X63813440Y-70172500D02*
G75*
G03*
X64813440Y-69172500I0J1000000D01*
G01*
X164413440Y-69172500D02*
X164413440Y-57072500D01*
X165413440Y-56072500D02*
X178113440Y-56072500D01*
X178113440Y-70172500D02*
X165413440Y-70172500D01*
X179113440Y-57072500D02*
X179113440Y-69172500D01*
X165413440Y-56072500D02*
G75*
G03*
X164413440Y-57072500I-1J-999999D01*
G01*
X164413440Y-69172500D02*
G75*
G03*
X165413440Y-70172500I999999J-1D01*
G01*
X179113440Y-57072500D02*
G75*
G03*
X178113440Y-56072500I-1000000J0D01*
G01*
X178113440Y-70172500D02*
G75*
G03*
X179113440Y-69172500I0J1000000D01*
G01*
X202513440Y-69172500D02*
X202513440Y-57072500D01*
X203513440Y-56072500D02*
X216213440Y-56072500D01*
X216213440Y-70172500D02*
X203513440Y-70172500D01*
X217213440Y-57072500D02*
X217213440Y-69172500D01*
X203513440Y-56072500D02*
G75*
G03*
X202513440Y-57072500I-1J-999999D01*
G01*
X202513440Y-69172500D02*
G75*
G03*
X203513440Y-70172500I999999J-1D01*
G01*
X217213440Y-57072500D02*
G75*
G03*
X216213440Y-56072500I-1000000J0D01*
G01*
X216213440Y-70172500D02*
G75*
G03*
X217213440Y-69172500I0J1000000D01*
G01*
X140600940Y-107272650D02*
X140600940Y-95172650D01*
X141600940Y-94172650D02*
X154300940Y-94172650D01*
X154300940Y-108272650D02*
X141600940Y-108272650D01*
X155300940Y-95172650D02*
X155300940Y-107272650D01*
X141600940Y-94172650D02*
G75*
G03*
X140600940Y-95172650I-1J-999999D01*
G01*
X140600940Y-107272650D02*
G75*
G03*
X141600940Y-108272650I999999J-1D01*
G01*
X155300940Y-95172650D02*
G75*
G03*
X154300940Y-94172650I-1000000J0D01*
G01*
X154300940Y-108272650D02*
G75*
G03*
X155300940Y-107272650I0J1000000D01*
G01*
X183463440Y-69172500D02*
X183463440Y-57072500D01*
X184463440Y-56072500D02*
X197163440Y-56072500D01*
X197163440Y-70172500D02*
X184463440Y-70172500D01*
X198163440Y-57072500D02*
X198163440Y-69172500D01*
X184463440Y-56072500D02*
G75*
G03*
X183463440Y-57072500I-1J-999999D01*
G01*
X183463440Y-69172500D02*
G75*
G03*
X184463440Y-70172500I999999J-1D01*
G01*
X198163440Y-57072500D02*
G75*
G03*
X197163440Y-56072500I-1000000J0D01*
G01*
X197163440Y-70172500D02*
G75*
G03*
X198163440Y-69172500I0J1000000D01*
G01*
X73925940Y-88222500D02*
X73925940Y-76122500D01*
X74925940Y-75122500D02*
X87625940Y-75122500D01*
X87625940Y-89222500D02*
X74925940Y-89222500D01*
X88625940Y-76122500D02*
X88625940Y-88222500D01*
X74925940Y-75122500D02*
G75*
G03*
X73925940Y-76122500I-1J-999999D01*
G01*
X73925940Y-88222500D02*
G75*
G03*
X74925940Y-89222500I999999J-1D01*
G01*
X88625940Y-76122500D02*
G75*
G03*
X87625940Y-75122500I-1000000J0D01*
G01*
X87625940Y-89222500D02*
G75*
G03*
X88625940Y-88222500I0J1000000D01*
G01*
X197750940Y-107272650D02*
X197750940Y-95172650D01*
X198750940Y-94172650D02*
X211450940Y-94172650D01*
X211450940Y-108272650D02*
X198750940Y-108272650D01*
X212450940Y-95172650D02*
X212450940Y-107272650D01*
X198750940Y-94172650D02*
G75*
G03*
X197750940Y-95172650I-1J-999999D01*
G01*
X197750940Y-107272650D02*
G75*
G03*
X198750940Y-108272650I999999J-1D01*
G01*
X212450940Y-95172650D02*
G75*
G03*
X211450940Y-94172650I-1000000J0D01*
G01*
X211450940Y-108272650D02*
G75*
G03*
X212450940Y-107272650I0J1000000D01*
G01*
X221563440Y-69172500D02*
X221563440Y-57072500D01*
X222563440Y-56072500D02*
X235263440Y-56072500D01*
X235263440Y-70172500D02*
X222563440Y-70172500D01*
X236263440Y-57072500D02*
X236263440Y-69172500D01*
X222563440Y-56072500D02*
G75*
G03*
X221563440Y-57072500I-1J-999999D01*
G01*
X221563440Y-69172500D02*
G75*
G03*
X222563440Y-70172500I999999J-1D01*
G01*
X236263440Y-57072500D02*
G75*
G03*
X235263440Y-56072500I-1000000J0D01*
G01*
X235263440Y-70172500D02*
G75*
G03*
X236263440Y-69172500I0J1000000D01*
G01*
X88213440Y-69172500D02*
X88213440Y-57072500D01*
X89213440Y-56072500D02*
X101913440Y-56072500D01*
X101913440Y-70172500D02*
X89213440Y-70172500D01*
X102913440Y-57072500D02*
X102913440Y-69172500D01*
X89213440Y-56072500D02*
G75*
G03*
X88213440Y-57072500I-1J-999999D01*
G01*
X88213440Y-69172500D02*
G75*
G03*
X89213440Y-70172500I999999J-1D01*
G01*
X102913440Y-57072500D02*
G75*
G03*
X101913440Y-56072500I-1000000J0D01*
G01*
X101913440Y-70172500D02*
G75*
G03*
X102913440Y-69172500I0J1000000D01*
G01*
X102500940Y-107272650D02*
X102500940Y-95172650D01*
X103500940Y-94172650D02*
X116200940Y-94172650D01*
X116200940Y-108272650D02*
X103500940Y-108272650D01*
X117200940Y-95172650D02*
X117200940Y-107272650D01*
X103500940Y-94172650D02*
G75*
G03*
X102500940Y-95172650I-1J-999999D01*
G01*
X102500940Y-107272650D02*
G75*
G03*
X103500940Y-108272650I999999J-1D01*
G01*
X117200940Y-95172650D02*
G75*
G03*
X116200940Y-94172650I-1000000J0D01*
G01*
X116200940Y-108272650D02*
G75*
G03*
X117200940Y-107272650I0J1000000D01*
G01*
X159650940Y-107272650D02*
X159650940Y-95172650D01*
X160650940Y-94172650D02*
X173350940Y-94172650D01*
X173350940Y-108272650D02*
X160650940Y-108272650D01*
X174350940Y-95172650D02*
X174350940Y-107272650D01*
X160650940Y-94172650D02*
G75*
G03*
X159650940Y-95172650I-1J-999999D01*
G01*
X159650940Y-107272650D02*
G75*
G03*
X160650940Y-108272650I999999J-1D01*
G01*
X174350940Y-95172650D02*
G75*
G03*
X173350940Y-94172650I-1000000J0D01*
G01*
X173350940Y-108272650D02*
G75*
G03*
X174350940Y-107272650I0J1000000D01*
G01*
X188225940Y-88222500D02*
X188225940Y-76122500D01*
X189225940Y-75122500D02*
X201925940Y-75122500D01*
X201925940Y-89222500D02*
X189225940Y-89222500D01*
X202925940Y-76122500D02*
X202925940Y-88222500D01*
X189225940Y-75122500D02*
G75*
G03*
X188225940Y-76122500I-1J-999999D01*
G01*
X188225940Y-88222500D02*
G75*
G03*
X189225940Y-89222500I999999J-1D01*
G01*
X202925940Y-76122500D02*
G75*
G03*
X201925940Y-75122500I-1000000J0D01*
G01*
X201925940Y-89222500D02*
G75*
G03*
X202925940Y-88222500I0J1000000D01*
G01*
X54875940Y-88222500D02*
X54875940Y-76122500D01*
X55875940Y-75122500D02*
X68575940Y-75122500D01*
X68575940Y-89222500D02*
X55875940Y-89222500D01*
X69575940Y-76122500D02*
X69575940Y-88222500D01*
X55875940Y-75122500D02*
G75*
G03*
X54875940Y-76122500I-1J-999999D01*
G01*
X54875940Y-88222500D02*
G75*
G03*
X55875940Y-89222500I999999J-1D01*
G01*
X69575940Y-76122500D02*
G75*
G03*
X68575940Y-75122500I-1000000J0D01*
G01*
X68575940Y-89222500D02*
G75*
G03*
X69575940Y-88222500I0J1000000D01*
G01*
X107263440Y-69172500D02*
X107263440Y-57072500D01*
X108263440Y-56072500D02*
X120963440Y-56072500D01*
X120963440Y-70172500D02*
X108263440Y-70172500D01*
X121963440Y-57072500D02*
X121963440Y-69172500D01*
X108263440Y-56072500D02*
G75*
G03*
X107263440Y-57072500I-1J-999999D01*
G01*
X107263440Y-69172500D02*
G75*
G03*
X108263440Y-70172500I999999J-1D01*
G01*
X121963440Y-57072500D02*
G75*
G03*
X120963440Y-56072500I-1000000J0D01*
G01*
X120963440Y-70172500D02*
G75*
G03*
X121963440Y-69172500I0J1000000D01*
G01*
X69163440Y-69172500D02*
X69163440Y-57072500D01*
X70163440Y-56072500D02*
X82863440Y-56072500D01*
X82863440Y-70172500D02*
X70163440Y-70172500D01*
X83863440Y-57072500D02*
X83863440Y-69172500D01*
X70163440Y-56072500D02*
G75*
G03*
X69163440Y-57072500I-1J-999999D01*
G01*
X69163440Y-69172500D02*
G75*
G03*
X70163440Y-70172500I999999J-1D01*
G01*
X83863440Y-57072500D02*
G75*
G03*
X82863440Y-56072500I-1000000J0D01*
G01*
X82863440Y-70172500D02*
G75*
G03*
X83863440Y-69172500I0J1000000D01*
G01*
X169175940Y-88222500D02*
X169175940Y-76122500D01*
X170175940Y-75122500D02*
X182875940Y-75122500D01*
X182875940Y-89222500D02*
X170175940Y-89222500D01*
X183875940Y-76122500D02*
X183875940Y-88222500D01*
X170175940Y-75122500D02*
G75*
G03*
X169175940Y-76122500I-1J-999999D01*
G01*
X169175940Y-88222500D02*
G75*
G03*
X170175940Y-89222500I999999J-1D01*
G01*
X183875940Y-76122500D02*
G75*
G03*
X182875940Y-75122500I-1000000J0D01*
G01*
X182875940Y-89222500D02*
G75*
G03*
X183875940Y-88222500I0J1000000D01*
G01*
X92975940Y-88222500D02*
X92975940Y-76122500D01*
X93975940Y-75122500D02*
X106675940Y-75122500D01*
X106675940Y-89222500D02*
X93975940Y-89222500D01*
X107675940Y-76122500D02*
X107675940Y-88222500D01*
X93975940Y-75122500D02*
G75*
G03*
X92975940Y-76122500I-1J-999999D01*
G01*
X92975940Y-88222500D02*
G75*
G03*
X93975940Y-89222500I999999J-1D01*
G01*
X107675940Y-76122500D02*
G75*
G03*
X106675940Y-75122500I-1000000J0D01*
G01*
X106675940Y-89222500D02*
G75*
G03*
X107675940Y-88222500I0J1000000D01*
G01*
X112025940Y-88222500D02*
X112025940Y-76122500D01*
X113025940Y-75122500D02*
X125725940Y-75122500D01*
X125725940Y-89222500D02*
X113025940Y-89222500D01*
X126725940Y-76122500D02*
X126725940Y-88222500D01*
X113025940Y-75122500D02*
G75*
G03*
X112025940Y-76122500I-1J-999999D01*
G01*
X112025940Y-88222500D02*
G75*
G03*
X113025940Y-89222500I999999J-1D01*
G01*
X126725940Y-76122500D02*
G75*
G03*
X125725940Y-75122500I-1000000J0D01*
G01*
X125725940Y-89222500D02*
G75*
G03*
X126725940Y-88222500I0J1000000D01*
G01*
M02*
