  0
SECTION
  2
HEADER
  9
$ACADVER
  1
AC1009
  9
$FILLMODE
 70
 0
  9
$SPLFRAME
 70
 1
  9
$EXTMIN
 10
0
 20
0
 30
0.0
  9
$EXTMAX
 10
1058.33
 20
1058.33
 30
0.0
  0
ENDSEC
  0
SECTION
  2
TABLES
  0
TABLE
  2
LAYER
 70
1
  0
LAYER
  2
0
 70
     0
 62
     7
  6
CONTINUOUS
  0
ENDTAB
  0
ENDSEC
  0
SECTION
  2
ENTITIES
  0
LINE
  8
0
 62
     0
 10
0.0950846
 20
119.496
 30
0.0
 11
257.27
 21
119.496
 31
0.0
  0
LINE
  8
0
 62
     0
 10
257.27
 20
119.496
 30
0.0
 11
257.27
 21
0.432703
 31
0.0
  0
LINE
  8
0
 62
     0
 10
257.27
 20
0.432703
 30
0.0
 11
0.0950846
 21
0.432703
 31
0.0
  0
LINE
  8
0
 62
     0
 10
0.0950846
 20
0.432703
 30
0.0
 11
0.0950846
 21
119.496
 31
0.0
  0
LINE
  8
0
 62
     0
 10
9.76203
 20
16.9595
 30
0.0
 11
23.7629
 21
16.9595
 31
0.0
  0
LINE
  8
0
 62
     0
 10
23.7629
 20
16.9595
 30
0.0
 11
23.7629
 21
2.95865
 31
0.0
  0
LINE
  8
0
 62
     0
 10
23.7629
 20
2.95865
 30
0.0
 11
9.76203
 21
2.95865
 31
0.0
  0
LINE
  8
0
 62
     0
 10
9.76203
 20
2.95865
 30
0.0
 11
9.76203
 21
16.9595
 31
0.0
  0
LINE
  8
0
 62
     0
 10
79.4067
 20
40.2223
 30
0.0
 11
82.707
 21
40.2223
 31
0.0
  0
LINE
  8
0
 62
     0
 10
82.707
 20
40.2223
 30
0.0
 11
82.707
 21
26.0215
 31
0.0
  0
LINE
  8
0
 62
     0
 10
82.707
 20
26.0215
 30
0.0
 11
79.4067
 21
26.0215
 31
0.0
  0
LINE
  8
0
 62
     0
 10
79.4067
 20
26.0215
 30
0.0
 11
79.4067
 21
40.2223
 31
0.0
  0
LINE
  8
0
 62
     0
 10
117.507
 20
40.2223
 30
0.0
 11
120.807
 21
40.2223
 31
0.0
  0
LINE
  8
0
 62
     0
 10
120.807
 20
40.2223
 30
0.0
 11
120.807
 21
26.0215
 31
0.0
  0
LINE
  8
0
 62
     0
 10
120.807
 20
26.0215
 30
0.0
 11
117.507
 21
26.0215
 31
0.0
  0
LINE
  8
0
 62
     0
 10
117.507
 20
26.0215
 30
0.0
 11
117.507
 21
40.2223
 31
0.0
  0
LINE
  8
0
 62
     0
 10
136.557
 20
40.2223
 30
0.0
 11
139.857
 21
40.2223
 31
0.0
  0
LINE
  8
0
 62
     0
 10
139.857
 20
40.2223
 30
0.0
 11
139.857
 21
26.0215
 31
0.0
  0
LINE
  8
0
 62
     0
 10
139.857
 20
26.0215
 30
0.0
 11
136.557
 21
26.0215
 31
0.0
  0
LINE
  8
0
 62
     0
 10
136.557
 20
26.0215
 30
0.0
 11
136.557
 21
40.2223
 31
0.0
  0
LINE
  8
0
 62
     0
 10
174.657
 20
40.2223
 30
0.0
 11
177.957
 21
40.2223
 31
0.0
  0
LINE
  8
0
 62
     0
 10
177.957
 20
40.2223
 30
0.0
 11
177.957
 21
26.0215
 31
0.0
  0
LINE
  8
0
 62
     0
 10
177.957
 20
26.0215
 30
0.0
 11
174.657
 21
26.0215
 31
0.0
  0
LINE
  8
0
 62
     0
 10
174.657
 20
26.0215
 30
0.0
 11
174.657
 21
40.2223
 31
0.0
  0
LINE
  8
0
 62
     0
 10
5.00091
 20
40.7705
 30
0.0
 11
19.0004
 21
40.7705
 31
0.0
  0
LINE
  8
0
 62
     0
 10
19.0004
 20
40.7705
 30
0.0
 11
19.0004
 21
26.7711
 31
0.0
  0
LINE
  8
0
 62
     0
 10
19.0004
 20
26.7711
 30
0.0
 11
5.00091
 21
26.7711
 31
0.0
  0
LINE
  8
0
 62
     0
 10
5.00091
 20
26.7711
 30
0.0
 11
5.00091
 21
40.7705
 31
0.0
  0
LINE
  8
0
 62
     0
 10
28.812
 20
40.7705
 30
0.0
 11
42.8128
 21
40.7705
 31
0.0
  0
LINE
  8
0
 62
     0
 10
42.8128
 20
40.7705
 30
0.0
 11
42.8128
 21
26.7711
 31
0.0
  0
LINE
  8
0
 62
     0
 10
42.8128
 20
26.7711
 30
0.0
 11
28.812
 21
26.7711
 31
0.0
  0
LINE
  8
0
 62
     0
 10
28.812
 20
26.7711
 30
0.0
 11
28.812
 21
40.7705
 31
0.0
  0
LINE
  8
0
 62
     0
 10
52.626
 20
40.7705
 30
0.0
 11
66.6253
 21
40.7705
 31
0.0
  0
LINE
  8
0
 62
     0
 10
66.6253
 20
40.7705
 30
0.0
 11
66.6253
 21
26.7711
 31
0.0
  0
LINE
  8
0
 62
     0
 10
66.6253
 20
26.7711
 30
0.0
 11
52.626
 21
26.7711
 31
0.0
  0
LINE
  8
0
 62
     0
 10
52.626
 20
26.7711
 30
0.0
 11
52.626
 21
40.7705
 31
0.0
  0
LINE
  8
0
 62
     0
 10
93.1072
 20
40.7705
 30
0.0
 11
107.107
 21
40.7705
 31
0.0
  0
LINE
  8
0
 62
     0
 10
107.107
 20
40.7705
 30
0.0
 11
107.107
 21
26.7711
 31
0.0
  0
LINE
  8
0
 62
     0
 10
107.107
 20
26.7711
 30
0.0
 11
93.1072
 21
26.7711
 31
0.0
  0
LINE
  8
0
 62
     0
 10
93.1072
 20
26.7711
 30
0.0
 11
93.1072
 21
40.7705
 31
0.0
  0
LINE
  8
0
 62
     0
 10
150.257
 20
40.7705
 30
0.0
 11
164.257
 21
40.7705
 31
0.0
  0
LINE
  8
0
 62
     0
 10
164.257
 20
40.7705
 30
0.0
 11
164.257
 21
26.7711
 31
0.0
  0
LINE
  8
0
 62
     0
 10
164.257
 20
26.7711
 30
0.0
 11
150.257
 21
26.7711
 31
0.0
  0
LINE
  8
0
 62
     0
 10
150.257
 20
26.7711
 30
0.0
 11
150.257
 21
40.7705
 31
0.0
  0
LINE
  8
0
 62
     0
 10
190.737
 20
40.7705
 30
0.0
 11
204.738
 21
40.7705
 31
0.0
  0
LINE
  8
0
 62
     0
 10
204.738
 20
40.7705
 30
0.0
 11
204.738
 21
26.7711
 31
0.0
  0
LINE
  8
0
 62
     0
 10
204.738
 20
26.7711
 30
0.0
 11
190.737
 21
26.7711
 31
0.0
  0
LINE
  8
0
 62
     0
 10
190.737
 20
26.7711
 30
0.0
 11
190.737
 21
40.7705
 31
0.0
  0
LINE
  8
0
 62
     0
 10
214.551
 20
40.7705
 30
0.0
 11
228.55
 21
40.7705
 31
0.0
  0
LINE
  8
0
 62
     0
 10
228.55
 20
40.7705
 30
0.0
 11
228.55
 21
26.7711
 31
0.0
  0
LINE
  8
0
 62
     0
 10
228.55
 20
26.7711
 30
0.0
 11
214.551
 21
26.7711
 31
0.0
  0
LINE
  8
0
 62
     0
 10
214.551
 20
26.7711
 30
0.0
 11
214.551
 21
40.7705
 31
0.0
  0
LINE
  8
0
 62
     0
 10
238.362
 20
40.7705
 30
0.0
 11
252.361
 21
40.7705
 31
0.0
  0
LINE
  8
0
 62
     0
 10
252.361
 20
40.7705
 30
0.0
 11
252.361
 21
26.7711
 31
0.0
  0
LINE
  8
0
 62
     0
 10
252.361
 20
26.7711
 30
0.0
 11
238.362
 21
26.7711
 31
0.0
  0
LINE
  8
0
 62
     0
 10
238.362
 20
26.7711
 30
0.0
 11
238.362
 21
40.7705
 31
0.0
  0
LINE
  8
0
 62
     0
 10
88.937
 20
59.2723
 30
0.0
 11
92.2376
 21
59.2723
 31
0.0
  0
LINE
  8
0
 62
     0
 10
92.2376
 20
59.2723
 30
0.0
 11
92.2376
 21
45.0716
 31
0.0
  0
LINE
  8
0
 62
     0
 10
92.2376
 20
45.0716
 30
0.0
 11
88.937
 21
45.0716
 31
0.0
  0
LINE
  8
0
 62
     0
 10
88.937
 20
45.0716
 30
0.0
 11
88.937
 21
59.2723
 31
0.0
  0
LINE
  8
0
 62
     0
 10
112.737
 20
59.2723
 30
0.0
 11
116.038
 21
59.2723
 31
0.0
  0
LINE
  8
0
 62
     0
 10
116.038
 20
59.2723
 30
0.0
 11
116.038
 21
45.0716
 31
0.0
  0
LINE
  8
0
 62
     0
 10
116.038
 20
45.0716
 30
0.0
 11
112.737
 21
45.0716
 31
0.0
  0
LINE
  8
0
 62
     0
 10
112.737
 20
45.0716
 30
0.0
 11
112.737
 21
59.2723
 31
0.0
  0
LINE
  8
0
 62
     0
 10
136.562
 20
59.2723
 30
0.0
 11
139.863
 21
59.2723
 31
0.0
  0
LINE
  8
0
 62
     0
 10
139.863
 20
59.2723
 30
0.0
 11
139.863
 21
45.0716
 31
0.0
  0
LINE
  8
0
 62
     0
 10
139.863
 20
45.0716
 30
0.0
 11
136.562
 21
45.0716
 31
0.0
  0
LINE
  8
0
 62
     0
 10
136.562
 20
45.0716
 30
0.0
 11
136.562
 21
59.2723
 31
0.0
  0
LINE
  8
0
 62
     0
 10
160.362
 20
59.2723
 30
0.0
 11
163.663
 21
59.2723
 31
0.0
  0
LINE
  8
0
 62
     0
 10
163.663
 20
59.2723
 30
0.0
 11
163.663
 21
45.0716
 31
0.0
  0
LINE
  8
0
 62
     0
 10
163.663
 20
45.0716
 30
0.0
 11
160.362
 21
45.0716
 31
0.0
  0
LINE
  8
0
 62
     0
 10
160.362
 20
45.0716
 30
0.0
 11
160.362
 21
59.2723
 31
0.0
  0
LINE
  8
0
 62
     0
 10
7.38216
 20
59.8205
 30
0.0
 11
21.3817
 21
59.8205
 31
0.0
  0
LINE
  8
0
 62
     0
 10
21.3817
 20
59.8205
 30
0.0
 11
21.3817
 21
45.8212
 31
0.0
  0
LINE
  8
0
 62
     0
 10
21.3817
 20
45.8212
 30
0.0
 11
7.38216
 21
45.8212
 31
0.0
  0
LINE
  8
0
 62
     0
 10
7.38216
 20
45.8212
 30
0.0
 11
7.38216
 21
59.8205
 31
0.0
  0
LINE
  8
0
 62
     0
 10
33.5759
 20
59.8205
 30
0.0
 11
47.5753
 21
59.8205
 31
0.0
  0
LINE
  8
0
 62
     0
 10
47.5753
 20
59.8205
 30
0.0
 11
47.5753
 21
45.8212
 31
0.0
  0
LINE
  8
0
 62
     0
 10
47.5753
 20
45.8212
 30
0.0
 11
33.5759
 21
45.8212
 31
0.0
  0
LINE
  8
0
 62
     0
 10
33.5759
 20
45.8212
 30
0.0
 11
33.5759
 21
59.8205
 31
0.0
  0
LINE
  8
0
 62
     0
 10
59.7697
 20
59.8205
 30
0.0
 11
73.769
 21
59.8205
 31
0.0
  0
LINE
  8
0
 62
     0
 10
73.769
 20
59.8205
 30
0.0
 11
73.769
 21
45.8212
 31
0.0
  0
LINE
  8
0
 62
     0
 10
73.769
 20
45.8212
 30
0.0
 11
59.7697
 21
45.8212
 31
0.0
  0
LINE
  8
0
 62
     0
 10
59.7697
 20
45.8212
 30
0.0
 11
59.7697
 21
59.8205
 31
0.0
  0
LINE
  8
0
 62
     0
 10
95.4871
 20
59.8205
 30
0.0
 11
109.488
 21
59.8205
 31
0.0
  0
LINE
  8
0
 62
     0
 10
109.488
 20
59.8205
 30
0.0
 11
109.488
 21
45.8212
 31
0.0
  0
LINE
  8
0
 62
     0
 10
109.488
 20
45.8212
 30
0.0
 11
95.4871
 21
45.8212
 31
0.0
  0
LINE
  8
0
 62
     0
 10
95.4871
 20
45.8212
 30
0.0
 11
95.4871
 21
59.8205
 31
0.0
  0
LINE
  8
0
 62
     0
 10
143.112
 20
59.8205
 30
0.0
 11
157.113
 21
59.8205
 31
0.0
  0
LINE
  8
0
 62
     0
 10
157.113
 20
59.8205
 30
0.0
 11
157.113
 21
45.8212
 31
0.0
  0
LINE
  8
0
 62
     0
 10
157.113
 20
45.8212
 30
0.0
 11
143.112
 21
45.8212
 31
0.0
  0
LINE
  8
0
 62
     0
 10
143.112
 20
45.8212
 30
0.0
 11
143.112
 21
59.8205
 31
0.0
  0
LINE
  8
0
 62
     0
 10
183.595
 20
59.8205
 30
0.0
 11
197.594
 21
59.8205
 31
0.0
  0
LINE
  8
0
 62
     0
 10
197.594
 20
59.8205
 30
0.0
 11
197.594
 21
45.8212
 31
0.0
  0
LINE
  8
0
 62
     0
 10
197.594
 20
45.8212
 30
0.0
 11
183.595
 21
45.8212
 31
0.0
  0
LINE
  8
0
 62
     0
 10
183.595
 20
45.8212
 30
0.0
 11
183.595
 21
59.8205
 31
0.0
  0
LINE
  8
0
 62
     0
 10
209.787
 20
59.8205
 30
0.0
 11
223.788
 21
59.8205
 31
0.0
  0
LINE
  8
0
 62
     0
 10
223.788
 20
59.8205
 30
0.0
 11
223.788
 21
45.8212
 31
0.0
  0
LINE
  8
0
 62
     0
 10
223.788
 20
45.8212
 30
0.0
 11
209.787
 21
45.8212
 31
0.0
  0
LINE
  8
0
 62
     0
 10
209.787
 20
45.8212
 30
0.0
 11
209.787
 21
59.8205
 31
0.0
  0
LINE
  8
0
 62
     0
 10
235.982
 20
59.8205
 30
0.0
 11
249.982
 21
59.8205
 31
0.0
  0
LINE
  8
0
 62
     0
 10
249.982
 20
59.8205
 30
0.0
 11
249.982
 21
45.8212
 31
0.0
  0
LINE
  8
0
 62
     0
 10
249.982
 20
45.8212
 30
0.0
 11
235.982
 21
45.8212
 31
0.0
  0
LINE
  8
0
 62
     0
 10
235.982
 20
45.8212
 30
0.0
 11
235.982
 21
59.8205
 31
0.0
  0
LINE
  8
0
 62
     0
 10
7.97609
 20
78.3209
 30
0.0
 11
11.2751
 21
78.3209
 31
0.0
  0
LINE
  8
0
 62
     0
 10
11.2751
 20
78.3209
 30
0.0
 11
11.2751
 21
64.1216
 31
0.0
  0
LINE
  8
0
 62
     0
 10
11.2751
 20
64.1216
 30
0.0
 11
7.97609
 21
64.1216
 31
0.0
  0
LINE
  8
0
 62
     0
 10
7.97609
 20
64.1216
 30
0.0
 11
7.97609
 21
78.3209
 31
0.0
  0
LINE
  8
0
 62
     0
 10
31.7748
 20
78.3209
 30
0.0
 11
35.0752
 21
78.3209
 31
0.0
  0
LINE
  8
0
 62
     0
 10
35.0752
 20
78.3209
 30
0.0
 11
35.0752
 21
64.1216
 31
0.0
  0
LINE
  8
0
 62
     0
 10
35.0752
 20
64.1216
 30
0.0
 11
31.7748
 21
64.1216
 31
0.0
  0
LINE
  8
0
 62
     0
 10
31.7748
 20
64.1216
 30
0.0
 11
31.7748
 21
78.3209
 31
0.0
  0
LINE
  8
0
 62
     0
 10
14.5259
 20
78.8705
 30
0.0
 11
28.5254
 21
78.8705
 31
0.0
  0
LINE
  8
0
 62
     0
 10
28.5254
 20
78.8705
 30
0.0
 11
28.5254
 21
64.8712
 31
0.0
  0
LINE
  8
0
 62
     0
 10
28.5254
 20
64.8712
 30
0.0
 11
14.5259
 21
64.8712
 31
0.0
  0
LINE
  8
0
 62
     0
 10
14.5259
 20
64.8712
 30
0.0
 11
14.5259
 21
78.8705
 31
0.0
  0
LINE
  8
0
 62
     0
 10
45.4822
 20
78.8705
 30
0.0
 11
59.4815
 21
78.8705
 31
0.0
  0
LINE
  8
0
 62
     0
 10
59.4815
 20
78.8705
 30
0.0
 11
59.4815
 21
64.8712
 31
0.0
  0
LINE
  8
0
 62
     0
 10
59.4815
 20
64.8712
 30
0.0
 11
45.4822
 21
64.8712
 31
0.0
  0
LINE
  8
0
 62
     0
 10
45.4822
 20
64.8712
 30
0.0
 11
45.4822
 21
78.8705
 31
0.0
  0
LINE
  8
0
 62
     0
 10
64.5322
 20
78.8705
 30
0.0
 11
78.5315
 21
78.8705
 31
0.0
  0
LINE
  8
0
 62
     0
 10
78.5315
 20
78.8705
 30
0.0
 11
78.5315
 21
64.8712
 31
0.0
  0
LINE
  8
0
 62
     0
 10
78.5315
 20
64.8712
 30
0.0
 11
64.5322
 21
64.8712
 31
0.0
  0
LINE
  8
0
 62
     0
 10
64.5322
 20
64.8712
 30
0.0
 11
64.5322
 21
78.8705
 31
0.0
  0
LINE
  8
0
 62
     0
 10
83.5822
 20
78.8705
 30
0.0
 11
97.5815
 21
78.8705
 31
0.0
  0
LINE
  8
0
 62
     0
 10
97.5815
 20
78.8705
 30
0.0
 11
97.5815
 21
64.8712
 31
0.0
  0
LINE
  8
0
 62
     0
 10
97.5815
 20
64.8712
 30
0.0
 11
83.5822
 21
64.8712
 31
0.0
  0
LINE
  8
0
 62
     0
 10
83.5822
 20
64.8712
 30
0.0
 11
83.5822
 21
78.8705
 31
0.0
  0
LINE
  8
0
 62
     0
 10
102.632
 20
78.8705
 30
0.0
 11
116.632
 21
78.8705
 31
0.0
  0
LINE
  8
0
 62
     0
 10
116.632
 20
78.8705
 30
0.0
 11
116.632
 21
64.8712
 31
0.0
  0
LINE
  8
0
 62
     0
 10
116.632
 20
64.8712
 30
0.0
 11
102.632
 21
64.8712
 31
0.0
  0
LINE
  8
0
 62
     0
 10
102.632
 20
64.8712
 30
0.0
 11
102.632
 21
78.8705
 31
0.0
  0
LINE
  8
0
 62
     0
 10
121.682
 20
78.8705
 30
0.0
 11
135.682
 21
78.8705
 31
0.0
  0
LINE
  8
0
 62
     0
 10
135.682
 20
78.8705
 30
0.0
 11
135.682
 21
64.8712
 31
0.0
  0
LINE
  8
0
 62
     0
 10
135.682
 20
64.8712
 30
0.0
 11
121.682
 21
64.8712
 31
0.0
  0
LINE
  8
0
 62
     0
 10
121.682
 20
64.8712
 30
0.0
 11
121.682
 21
78.8705
 31
0.0
  0
LINE
  8
0
 62
     0
 10
140.732
 20
78.8705
 30
0.0
 11
154.732
 21
78.8705
 31
0.0
  0
LINE
  8
0
 62
     0
 10
154.732
 20
78.8705
 30
0.0
 11
154.732
 21
64.8712
 31
0.0
  0
LINE
  8
0
 62
     0
 10
154.732
 20
64.8712
 30
0.0
 11
140.732
 21
64.8712
 31
0.0
  0
LINE
  8
0
 62
     0
 10
140.732
 20
64.8712
 30
0.0
 11
140.732
 21
78.8705
 31
0.0
  0
LINE
  8
0
 62
     0
 10
159.782
 20
78.8705
 30
0.0
 11
173.782
 21
78.8705
 31
0.0
  0
LINE
  8
0
 62
     0
 10
173.782
 20
78.8705
 30
0.0
 11
173.782
 21
64.8712
 31
0.0
  0
LINE
  8
0
 62
     0
 10
173.782
 20
64.8712
 30
0.0
 11
159.782
 21
64.8712
 31
0.0
  0
LINE
  8
0
 62
     0
 10
159.782
 20
64.8712
 30
0.0
 11
159.782
 21
78.8705
 31
0.0
  0
LINE
  8
0
 62
     0
 10
178.832
 20
78.8705
 30
0.0
 11
192.832
 21
78.8705
 31
0.0
  0
LINE
  8
0
 62
     0
 10
192.832
 20
78.8705
 30
0.0
 11
192.832
 21
64.8712
 31
0.0
  0
LINE
  8
0
 62
     0
 10
192.832
 20
64.8712
 30
0.0
 11
178.832
 21
64.8712
 31
0.0
  0
LINE
  8
0
 62
     0
 10
178.832
 20
64.8712
 30
0.0
 11
178.832
 21
78.8705
 31
0.0
  0
LINE
  8
0
 62
     0
 10
197.882
 20
78.8705
 30
0.0
 11
211.882
 21
78.8705
 31
0.0
  0
LINE
  8
0
 62
     0
 10
211.882
 20
78.8705
 30
0.0
 11
211.882
 21
64.8712
 31
0.0
  0
LINE
  8
0
 62
     0
 10
211.882
 20
64.8712
 30
0.0
 11
197.882
 21
64.8712
 31
0.0
  0
LINE
  8
0
 62
     0
 10
197.882
 20
64.8712
 30
0.0
 11
197.882
 21
78.8705
 31
0.0
  0
LINE
  8
0
 62
     0
 10
216.932
 20
78.8705
 30
0.0
 11
230.932
 21
78.8705
 31
0.0
  0
LINE
  8
0
 62
     0
 10
230.932
 20
78.8705
 30
0.0
 11
230.932
 21
64.8712
 31
0.0
  0
LINE
  8
0
 62
     0
 10
230.932
 20
64.8712
 30
0.0
 11
216.932
 21
64.8712
 31
0.0
  0
LINE
  8
0
 62
     0
 10
216.932
 20
64.8712
 30
0.0
 11
216.932
 21
78.8705
 31
0.0
  0
LINE
  8
0
 62
     0
 10
238.362
 20
78.8705
 30
0.0
 11
252.361
 21
78.8705
 31
0.0
  0
LINE
  8
0
 62
     0
 10
252.361
 20
78.8705
 30
0.0
 11
252.361
 21
64.8712
 31
0.0
  0
LINE
  8
0
 62
     0
 10
252.361
 20
64.8712
 30
0.0
 11
238.362
 21
64.8712
 31
0.0
  0
LINE
  8
0
 62
     0
 10
238.362
 20
64.8712
 30
0.0
 11
238.362
 21
78.8705
 31
0.0
  0
LINE
  8
0
 62
     0
 10
5.00091
 20
97.9205
 30
0.0
 11
19.0004
 21
97.9205
 31
0.0
  0
LINE
  8
0
 62
     0
 10
19.0004
 20
97.9205
 30
0.0
 11
19.0004
 21
83.9212
 31
0.0
  0
LINE
  8
0
 62
     0
 10
19.0004
 20
83.9212
 30
0.0
 11
5.00091
 21
83.9212
 31
0.0
  0
LINE
  8
0
 62
     0
 10
5.00091
 20
83.9212
 30
0.0
 11
5.00091
 21
97.9205
 31
0.0
  0
LINE
  8
0
 62
     0
 10
35.9572
 20
97.9205
 30
0.0
 11
49.9565
 21
97.9205
 31
0.0
  0
LINE
  8
0
 62
     0
 10
49.9565
 20
97.9205
 30
0.0
 11
49.9565
 21
83.9212
 31
0.0
  0
LINE
  8
0
 62
     0
 10
49.9565
 20
83.9212
 30
0.0
 11
35.9572
 21
83.9212
 31
0.0
  0
LINE
  8
0
 62
     0
 10
35.9572
 20
83.9212
 30
0.0
 11
35.9572
 21
97.9205
 31
0.0
  0
LINE
  8
0
 62
     0
 10
55.0072
 20
97.9205
 30
0.0
 11
69.0065
 21
97.9205
 31
0.0
  0
LINE
  8
0
 62
     0
 10
69.0065
 20
97.9205
 30
0.0
 11
69.0065
 21
83.9212
 31
0.0
  0
LINE
  8
0
 62
     0
 10
69.0065
 20
83.9212
 30
0.0
 11
55.0072
 21
83.9212
 31
0.0
  0
LINE
  8
0
 62
     0
 10
55.0072
 20
83.9212
 30
0.0
 11
55.0072
 21
97.9205
 31
0.0
  0
LINE
  8
0
 62
     0
 10
74.0572
 20
97.9205
 30
0.0
 11
88.0565
 21
97.9205
 31
0.0
  0
LINE
  8
0
 62
     0
 10
88.0565
 20
97.9205
 30
0.0
 11
88.0565
 21
83.9212
 31
0.0
  0
LINE
  8
0
 62
     0
 10
88.0565
 20
83.9212
 30
0.0
 11
74.0572
 21
83.9212
 31
0.0
  0
LINE
  8
0
 62
     0
 10
74.0572
 20
83.9212
 30
0.0
 11
74.0572
 21
97.9205
 31
0.0
  0
LINE
  8
0
 62
     0
 10
93.1072
 20
97.9205
 30
0.0
 11
107.107
 21
97.9205
 31
0.0
  0
LINE
  8
0
 62
     0
 10
107.107
 20
97.9205
 30
0.0
 11
107.107
 21
83.9212
 31
0.0
  0
LINE
  8
0
 62
     0
 10
107.107
 20
83.9212
 30
0.0
 11
93.1072
 21
83.9212
 31
0.0
  0
LINE
  8
0
 62
     0
 10
93.1072
 20
83.9212
 30
0.0
 11
93.1072
 21
97.9205
 31
0.0
  0
LINE
  8
0
 62
     0
 10
112.157
 20
97.9205
 30
0.0
 11
126.157
 21
97.9205
 31
0.0
  0
LINE
  8
0
 62
     0
 10
126.157
 20
97.9205
 30
0.0
 11
126.157
 21
83.9212
 31
0.0
  0
LINE
  8
0
 62
     0
 10
126.157
 20
83.9212
 30
0.0
 11
112.157
 21
83.9212
 31
0.0
  0
LINE
  8
0
 62
     0
 10
112.157
 20
83.9212
 30
0.0
 11
112.157
 21
97.9205
 31
0.0
  0
LINE
  8
0
 62
     0
 10
131.207
 20
97.9205
 30
0.0
 11
145.207
 21
97.9205
 31
0.0
  0
LINE
  8
0
 62
     0
 10
145.207
 20
97.9205
 30
0.0
 11
145.207
 21
83.9212
 31
0.0
  0
LINE
  8
0
 62
     0
 10
145.207
 20
83.9212
 30
0.0
 11
131.207
 21
83.9212
 31
0.0
  0
LINE
  8
0
 62
     0
 10
131.207
 20
83.9212
 30
0.0
 11
131.207
 21
97.9205
 31
0.0
  0
LINE
  8
0
 62
     0
 10
150.257
 20
97.9205
 30
0.0
 11
164.257
 21
97.9205
 31
0.0
  0
LINE
  8
0
 62
     0
 10
164.257
 20
97.9205
 30
0.0
 11
164.257
 21
83.9212
 31
0.0
  0
LINE
  8
0
 62
     0
 10
164.257
 20
83.9212
 30
0.0
 11
150.257
 21
83.9212
 31
0.0
  0
LINE
  8
0
 62
     0
 10
150.257
 20
83.9212
 30
0.0
 11
150.257
 21
97.9205
 31
0.0
  0
LINE
  8
0
 62
     0
 10
169.307
 20
97.9205
 30
0.0
 11
183.307
 21
97.9205
 31
0.0
  0
LINE
  8
0
 62
     0
 10
183.307
 20
97.9205
 30
0.0
 11
183.307
 21
83.9212
 31
0.0
  0
LINE
  8
0
 62
     0
 10
183.307
 20
83.9212
 30
0.0
 11
169.307
 21
83.9212
 31
0.0
  0
LINE
  8
0
 62
     0
 10
169.307
 20
83.9212
 30
0.0
 11
169.307
 21
97.9205
 31
0.0
  0
LINE
  8
0
 62
     0
 10
188.357
 20
97.9205
 30
0.0
 11
202.357
 21
97.9205
 31
0.0
  0
LINE
  8
0
 62
     0
 10
202.357
 20
97.9205
 30
0.0
 11
202.357
 21
83.9212
 31
0.0
  0
LINE
  8
0
 62
     0
 10
202.357
 20
83.9212
 30
0.0
 11
188.357
 21
83.9212
 31
0.0
  0
LINE
  8
0
 62
     0
 10
188.357
 20
83.9212
 30
0.0
 11
188.357
 21
97.9205
 31
0.0
  0
LINE
  8
0
 62
     0
 10
207.407
 20
97.9205
 30
0.0
 11
221.407
 21
97.9205
 31
0.0
  0
LINE
  8
0
 62
     0
 10
221.407
 20
97.9205
 30
0.0
 11
221.407
 21
83.9212
 31
0.0
  0
LINE
  8
0
 62
     0
 10
221.407
 20
83.9212
 30
0.0
 11
207.407
 21
83.9212
 31
0.0
  0
LINE
  8
0
 62
     0
 10
207.407
 20
83.9212
 30
0.0
 11
207.407
 21
97.9205
 31
0.0
  0
LINE
  8
0
 62
     0
 10
233.601
 20
97.9205
 30
0.0
 11
247.6
 21
97.9205
 31
0.0
  0
LINE
  8
0
 62
     0
 10
247.6
 20
97.9205
 30
0.0
 11
247.6
 21
83.9212
 31
0.0
  0
LINE
  8
0
 62
     0
 10
247.6
 20
83.9212
 30
0.0
 11
233.601
 21
83.9212
 31
0.0
  0
LINE
  8
0
 62
     0
 10
233.601
 20
83.9212
 30
0.0
 11
233.601
 21
97.9205
 31
0.0
  0
LINE
  8
0
 62
     0
 10
7.38216
 20
116.971
 30
0.0
 11
21.3817
 21
116.971
 31
0.0
  0
LINE
  8
0
 62
     0
 10
21.3817
 20
116.971
 30
0.0
 11
21.3817
 21
102.971
 31
0.0
  0
LINE
  8
0
 62
     0
 10
21.3817
 20
102.971
 30
0.0
 11
7.38216
 21
102.971
 31
0.0
  0
LINE
  8
0
 62
     0
 10
7.38216
 20
102.971
 30
0.0
 11
7.38216
 21
116.971
 31
0.0
  0
LINE
  8
0
 62
     0
 10
31.1947
 20
116.971
 30
0.0
 11
45.194
 21
116.971
 31
0.0
  0
LINE
  8
0
 62
     0
 10
45.194
 20
116.971
 30
0.0
 11
45.194
 21
102.971
 31
0.0
  0
LINE
  8
0
 62
     0
 10
45.194
 20
102.971
 30
0.0
 11
31.1947
 21
102.971
 31
0.0
  0
LINE
  8
0
 62
     0
 10
31.1947
 20
102.971
 30
0.0
 11
31.1947
 21
116.971
 31
0.0
  0
LINE
  8
0
 62
     0
 10
50.2447
 20
116.971
 30
0.0
 11
64.244
 21
116.971
 31
0.0
  0
LINE
  8
0
 62
     0
 10
64.244
 20
116.971
 30
0.0
 11
64.244
 21
102.971
 31
0.0
  0
LINE
  8
0
 62
     0
 10
64.244
 20
102.971
 30
0.0
 11
50.2447
 21
102.971
 31
0.0
  0
LINE
  8
0
 62
     0
 10
50.2447
 20
102.971
 30
0.0
 11
50.2447
 21
116.971
 31
0.0
  0
LINE
  8
0
 62
     0
 10
69.2947
 20
116.971
 30
0.0
 11
83.294
 21
116.971
 31
0.0
  0
LINE
  8
0
 62
     0
 10
83.294
 20
116.971
 30
0.0
 11
83.294
 21
102.971
 31
0.0
  0
LINE
  8
0
 62
     0
 10
83.294
 20
102.971
 30
0.0
 11
69.2947
 21
102.971
 31
0.0
  0
LINE
  8
0
 62
     0
 10
69.2947
 20
102.971
 30
0.0
 11
69.2947
 21
116.971
 31
0.0
  0
LINE
  8
0
 62
     0
 10
88.3447
 20
116.971
 30
0.0
 11
102.344
 21
116.971
 31
0.0
  0
LINE
  8
0
 62
     0
 10
102.344
 20
116.971
 30
0.0
 11
102.344
 21
102.971
 31
0.0
  0
LINE
  8
0
 62
     0
 10
102.344
 20
102.971
 30
0.0
 11
88.3447
 21
102.971
 31
0.0
  0
LINE
  8
0
 62
     0
 10
88.3447
 20
102.971
 30
0.0
 11
88.3447
 21
116.971
 31
0.0
  0
LINE
  8
0
 62
     0
 10
107.395
 20
116.971
 30
0.0
 11
121.394
 21
116.971
 31
0.0
  0
LINE
  8
0
 62
     0
 10
121.394
 20
116.971
 30
0.0
 11
121.394
 21
102.971
 31
0.0
  0
LINE
  8
0
 62
     0
 10
121.394
 20
102.971
 30
0.0
 11
107.395
 21
102.971
 31
0.0
  0
LINE
  8
0
 62
     0
 10
107.395
 20
102.971
 30
0.0
 11
107.395
 21
116.971
 31
0.0
  0
LINE
  8
0
 62
     0
 10
126.445
 20
116.971
 30
0.0
 11
140.444
 21
116.971
 31
0.0
  0
LINE
  8
0
 62
     0
 10
140.444
 20
116.971
 30
0.0
 11
140.444
 21
102.971
 31
0.0
  0
LINE
  8
0
 62
     0
 10
140.444
 20
102.971
 30
0.0
 11
126.445
 21
102.971
 31
0.0
  0
LINE
  8
0
 62
     0
 10
126.445
 20
102.971
 30
0.0
 11
126.445
 21
116.971
 31
0.0
  0
LINE
  8
0
 62
     0
 10
145.495
 20
116.971
 30
0.0
 11
159.494
 21
116.971
 31
0.0
  0
LINE
  8
0
 62
     0
 10
159.494
 20
116.971
 30
0.0
 11
159.494
 21
102.971
 31
0.0
  0
LINE
  8
0
 62
     0
 10
159.494
 20
102.971
 30
0.0
 11
145.495
 21
102.971
 31
0.0
  0
LINE
  8
0
 62
     0
 10
145.495
 20
102.971
 30
0.0
 11
145.495
 21
116.971
 31
0.0
  0
LINE
  8
0
 62
     0
 10
164.545
 20
116.971
 30
0.0
 11
178.544
 21
116.971
 31
0.0
  0
LINE
  8
0
 62
     0
 10
178.544
 20
116.971
 30
0.0
 11
178.544
 21
102.971
 31
0.0
  0
LINE
  8
0
 62
     0
 10
178.544
 20
102.971
 30
0.0
 11
164.545
 21
102.971
 31
0.0
  0
LINE
  8
0
 62
     0
 10
164.545
 20
102.971
 30
0.0
 11
164.545
 21
116.971
 31
0.0
  0
LINE
  8
0
 62
     0
 10
183.595
 20
116.971
 30
0.0
 11
197.594
 21
116.971
 31
0.0
  0
LINE
  8
0
 62
     0
 10
197.594
 20
116.971
 30
0.0
 11
197.594
 21
102.971
 31
0.0
  0
LINE
  8
0
 62
     0
 10
197.594
 20
102.971
 30
0.0
 11
183.595
 21
102.971
 31
0.0
  0
LINE
  8
0
 62
     0
 10
183.595
 20
102.971
 30
0.0
 11
183.595
 21
116.971
 31
0.0
  0
LINE
  8
0
 62
     0
 10
202.645
 20
116.971
 30
0.0
 11
216.644
 21
116.971
 31
0.0
  0
LINE
  8
0
 62
     0
 10
216.644
 20
116.971
 30
0.0
 11
216.644
 21
102.971
 31
0.0
  0
LINE
  8
0
 62
     0
 10
216.644
 20
102.971
 30
0.0
 11
202.645
 21
102.971
 31
0.0
  0
LINE
  8
0
 62
     0
 10
202.645
 20
102.971
 30
0.0
 11
202.645
 21
116.971
 31
0.0
  0
LINE
  8
0
 62
     0
 10
221.695
 20
116.971
 30
0.0
 11
235.694
 21
116.971
 31
0.0
  0
LINE
  8
0
 62
     0
 10
235.694
 20
116.971
 30
0.0
 11
235.694
 21
102.971
 31
0.0
  0
LINE
  8
0
 62
     0
 10
235.694
 20
102.971
 30
0.0
 11
221.695
 21
102.971
 31
0.0
  0
LINE
  8
0
 62
     0
 10
221.695
 20
102.971
 30
0.0
 11
221.695
 21
116.971
 31
0.0
  0
LINE
  8
0
 62
     0
 10
240.745
 20
116.971
 30
0.0
 11
254.744
 21
116.971
 31
0.0
  0
LINE
  8
0
 62
     0
 10
254.744
 20
116.971
 30
0.0
 11
254.744
 21
102.971
 31
0.0
  0
LINE
  8
0
 62
     0
 10
254.744
 20
102.971
 30
0.0
 11
240.745
 21
102.971
 31
0.0
  0
LINE
  8
0
 62
     0
 10
240.745
 20
102.971
 30
0.0
 11
240.745
 21
116.971
 31
0.0
  0
ENDSEC
  0
EOF
