  0
SECTION
  2
HEADER
  9
$ANGBASE
  50
0.0
  9
$ANGDIR
  70
1
  9
$MEASUREMENT
  70
1
  0
ENDSEC
  0
SECTION
  2
TABLES
  0
TABLE
  2
LTYPE
  70
4
  0
LTYPE
  5
40F
  2
CONTINUOUS
  70
0
  3
Solid line
  72
65
  73
0
  40
0.0
  0
LTYPE
  5
410
  2
DASHDOT
 70
0
  3
Dash Dot ____ _ ____ _
 72
65
 73
4
 40
2.0
 49
1.25
 49
-0.25
 49
0.25
 49
-0.25
  0
LTYPE
  5
411
  2
DASHED
 70
0
  3
Dashed __ __ __ __ __
 72
65
 73
2
 40
0.75
 49
0.5
 49
-0.25
  0
LTYPE
  5
43B
  2
DOTTED
 70
0
  3
Dotted .  .  .  .
 72
65
 73
2
 40
0.2
 49
0.0
 49
-0.2
  0
ENDTAB
  0
TABLE
  2
STYLE
  70
4
  0
STYLE
  2
KICAD
  70
0
  40
0
  41
1
  42
1
  50
0
  71
0
  3
isocp.shx
  0
STYLE
  2
KICADB
  70
0
  40
0
  41
1
  42
1
  50
0
  71
0
  3
isocp.shx
  0
STYLE
  2
KICADI
  70
0
  40
0
  41
1
  42
1
  50
15
  71
0
  3
isocp.shx
  0
STYLE
  2
KICADBI
  70
0
  40
0
  41
1
  42
1
  50
15
  71
0
  3
isocp.shx
  0
ENDTAB
  0
TABLE
  2
LAYER
  70
1
  0
LAYER
  2
BLACK
  70
0
  62
7
  6
CONTINUOUS
  0
ENDTAB
  0
ENDSEC
  0
SECTION
  2
ENTITIES
0
LINE
8
BLACK
6
CONTINUOUS
10
207.626
20
-75.1728
11
221.626
21
-75.1728
0
LINE
8
BLACK
6
CONTINUOUS
10
179.051
20
-94.2229
11
193.051
21
-94.2229
0
LINE
8
BLACK
6
CONTINUOUS
10
140.663
20
-56.1228
11
140.663
21
-70.1221
0
LINE
8
BLACK
6
CONTINUOUS
10
102.563
20
-70.1221
11
88.5638
21
-70.1221
0
LINE
8
BLACK
6
CONTINUOUS
10
47.7945
20
-103.523
11
49.32
21
-103.523
0
LINE
8
BLACK
6
CONTINUOUS
10
183.526
20
-117.973
11
183.526
21
-113.273
0
LINE
8
BLACK
6
CONTINUOUS
10
69.5138
20
-70.1221
11
69.5138
21
-56.1228
0
LINE
8
BLACK
6
CONTINUOUS
10
33.795
20
-103.523
11
33.795
21
-108.222
0
LINE
8
BLACK
6
CONTINUOUS
10
224.007
20
-127.272
11
210.006
21
-127.272
0
LINE
8
BLACK
6
CONTINUOUS
10
198.101
20
-94.2229
11
212.101
21
-94.2229
0
LINE
8
BLACK
6
CONTINUOUS
10
126.664
20
-70.1221
11
126.664
21
-56.1228
0
LINE
8
BLACK
6
CONTINUOUS
10
71.8951
20
-127.272
11
71.8951
21
-113.273
0
LINE
8
BLACK
6
CONTINUOUS
10
55.2263
20
-75.1728
11
69.2256
21
-75.1728
0
LINE
8
BLACK
6
CONTINUOUS
10
210.006
20
-127.272
11
210.006
21
-113.273
0
LINE
8
BLACK
6
CONTINUOUS
10
140.076
20
-127.042
11
141.8
21
-127.042
0
LINE
8
BLACK
6
CONTINUOUS
10
27.2452
20
-109.192
11
30.5442
21
-109.192
0
LINE
8
BLACK
6
CONTINUOUS
10
142.626
20
-117.973
11
141.8
21
-117.973
0
LINE
8
BLACK
6
CONTINUOUS
10
56.0695
20
-95.6931
11
49.32
21
-95.6931
0
LINE
8
BLACK
6
CONTINUOUS
10
135.05
20
-117.973
11
126.376
21
-117.973
0
LINE
8
BLACK
6
CONTINUOUS
10
136.776
20
-127.042
11
136.776
21
-128.242
0
LINE
8
BLACK
6
CONTINUOUS
10
40.6508
20
-56.1228
11
40.6508
21
-70.1221
0
LINE
8
BLACK
6
CONTINUOUS
10
183.814
20
-56.1228
11
197.813
21
-56.1228
0
LINE
8
BLACK
6
CONTINUOUS
10
235.913
20
-70.1221
11
221.914
21
-70.1221
0
LINE
8
BLACK
6
CONTINUOUS
10
112.376
20
-75.1728
11
126.376
21
-75.1728
0
LINE
8
BLACK
6
CONTINUOUS
10
271.63
20
-108.222
11
257.631
21
-108.222
0
LINE
8
BLACK
6
CONTINUOUS
10
192.2
20
-122.573
11
192.2
21
-127.042
0
LINE
8
BLACK
6
CONTINUOUS
10
212.101
20
-94.2229
11
212.101
21
-108.222
0
LINE
8
BLACK
6
CONTINUOUS
10
74.2763
20
-89.1722
11
74.2763
21
-75.1728
0
LINE
8
BLACK
6
CONTINUOUS
10
233.82
20
-127.272
11
233.82
21
-113.273
0
LINE
8
BLACK
6
CONTINUOUS
10
56.895
20
-98.9233
11
56.0695
21
-98.9233
0
LINE
8
BLACK
6
CONTINUOUS
10
47.7945
20
-98.9233
11
47.7945
21
-94.2229
0
LINE
8
BLACK
6
CONTINUOUS
10
131.426
20
-89.1722
11
131.426
21
-75.1728
0
LINE
8
BLACK
6
CONTINUOUS
10
135.901
20
-108.222
11
121.901
21
-108.222
0
LINE
8
BLACK
6
CONTINUOUS
10
271.63
20
-127.272
11
257.631
21
-127.272
0
LINE
8
BLACK
6
CONTINUOUS
10
226.676
20
-89.1722
11
226.676
21
-75.1728
0
LINE
8
BLACK
6
CONTINUOUS
10
49.32
20
-103.523
11
49.32
21
-107.992
0
LINE
8
BLACK
6
CONTINUOUS
10
160.85
20
-122.573
11
169.526
21
-122.573
0
LINE
8
BLACK
6
CONTINUOUS
10
178.763
20
-56.1228
11
178.763
21
-70.1221
0
LINE
8
BLACK
6
CONTINUOUS
10
198.95
20
-127.042
11
198.95
21
-120.772
0
LINE
8
BLACK
6
CONTINUOUS
10
266.869
20
-75.1728
11
266.869
21
-89.1722
0
LINE
8
BLACK
6
CONTINUOUS
10
62.0819
20
-113.273
11
62.0819
21
-127.272
0
LINE
8
BLACK
6
CONTINUOUS
10
169.526
20
-89.1722
11
169.526
21
-75.1728
0
LINE
8
BLACK
6
CONTINUOUS
10
126.376
20
-122.573
11
135.05
21
-122.573
0
LINE
8
BLACK
6
CONTINUOUS
10
154.1
20
-114.743
11
154.1
21
-117.973
0
LINE
8
BLACK
6
CONTINUOUS
10
207.626
20
-89.1722
11
207.626
21
-75.1728
0
LINE
8
BLACK
6
CONTINUOUS
10
154.1
20
-120.772
11
154.1
21
-127.042
0
LINE
8
BLACK
6
CONTINUOUS
10
48.0811
20
-113.273
11
62.0819
21
-113.273
0
LINE
8
BLACK
6
CONTINUOUS
10
116.851
20
-94.2229
11
116.851
21
-108.222
0
LINE
8
BLACK
6
CONTINUOUS
10
188.576
20
-89.1722
11
188.576
21
-75.1728
0
LINE
8
BLACK
6
CONTINUOUS
10
126.376
20
-75.1728
11
126.376
21
-89.1722
0
LINE
8
BLACK
6
CONTINUOUS
10
49.32
20
-98.9233
11
47.7945
21
-98.9233
0
LINE
8
BLACK
6
CONTINUOUS
10
174.001
20
-108.222
11
160.001
21
-108.222
0
LINE
8
BLACK
6
CONTINUOUS
10
98.6758
20
-127.042
11
98.6758
21
-128.242
0
LINE
8
BLACK
6
CONTINUOUS
10
192.2
20
-114.743
11
192.2
21
-117.973
0
LINE
8
BLACK
6
CONTINUOUS
10
150.476
20
-75.1728
11
164.476
21
-75.1728
0
LINE
8
BLACK
6
CONTINUOUS
10
183.814
20
-70.1221
11
183.814
21
-56.1228
0
LINE
8
BLACK
6
CONTINUOUS
10
240.964
20
-70.1221
11
240.964
21
-56.1228
0
LINE
8
BLACK
6
CONTINUOUS
10
193.926
20
-128.242
11
197.226
21
-128.242
0
LINE
8
BLACK
6
CONTINUOUS
10
188.576
20
-75.1728
11
202.576
21
-75.1728
0
LINE
8
BLACK
6
CONTINUOUS
10
78.7506
20
-108.222
11
64.7513
21
-108.222
0
LINE
8
BLACK
6
CONTINUOUS
10
145.714
20
-70.1221
11
145.714
21
-56.1228
0
LINE
8
BLACK
6
CONTINUOUS
10
25.5199
20
-107.992
11
27.2452
21
-107.992
0
LINE
8
BLACK
6
CONTINUOUS
10
26.6512
20
-56.1228
11
40.6508
21
-56.1228
0
LINE
8
BLACK
6
CONTINUOUS
10
83.8013
20
-94.2229
11
97.8006
21
-94.2229
0
LINE
8
BLACK
6
CONTINUOUS
10
83.5131
20
-70.1221
11
69.5138
21
-70.1221
0
LINE
8
BLACK
6
CONTINUOUS
10
24.6944
20
-98.9233
11
24.6944
21
-101.722
0
LINE
8
BLACK
6
CONTINUOUS
10
221.914
20
-70.1221
11
221.914
21
-56.1228
0
ARC
8
BLACK
10
21.3637
20
-55.5975
40
2
50
90
51
180
0
LINE
8
BLACK
6
CONTINUOUS
10
183.526
20
-89.1722
11
169.526
21
-89.1722
0
LINE
8
BLACK
6
CONTINUOUS
10
252.87
20
-89.1722
11
252.87
21
-75.1728
0
LINE
8
BLACK
6
CONTINUOUS
10
24.27
20
-75.1728
11
38.2695
21
-75.1728
0
LINE
8
BLACK
6
CONTINUOUS
10
26.6512
20
-70.1221
11
26.6512
21
-56.1228
0
LINE
8
BLACK
6
CONTINUOUS
10
169.526
20
-113.273
11
169.526
21
-117.973
0
LINE
8
BLACK
6
CONTINUOUS
10
231.151
20
-108.222
11
217.151
21
-108.222
0
LINE
8
BLACK
6
CONTINUOUS
10
169.526
20
-122.573
11
169.526
21
-127.272
0
LINE
8
BLACK
6
CONTINUOUS
10
250.201
20
-94.2229
11
250.201
21
-108.222
0
LINE
8
BLACK
6
CONTINUOUS
10
174.001
20
-94.2229
11
174.001
21
-108.222
0
LINE
8
BLACK
6
CONTINUOUS
10
140.951
20
-108.222
11
140.951
21
-94.2229
0
LINE
8
BLACK
6
CONTINUOUS
10
197.226
20
-128.242
11
197.226
21
-127.042
0
LINE
8
BLACK
6
CONTINUOUS
10
19.3637
20
-127.797
11
19.3637
21
-55.5975
0
LINE
8
BLACK
6
CONTINUOUS
10
198.95
20
-114.743
11
192.2
21
-114.743
0
LINE
8
BLACK
6
CONTINUOUS
10
96.9504
20
-127.042
11
98.6758
21
-127.042
0
LINE
8
BLACK
6
CONTINUOUS
10
240.676
20
-75.1728
11
240.676
21
-89.1722
0
LINE
8
BLACK
6
CONTINUOUS
10
145.426
20
-89.1722
11
131.426
21
-89.1722
0
LINE
8
BLACK
6
CONTINUOUS
10
153.275
20
-117.973
11
153.275
21
-120.772
0
LINE
8
BLACK
6
CONTINUOUS
10
183.526
20
-75.1728
11
183.526
21
-89.1722
0
LINE
8
BLACK
6
CONTINUOUS
10
74.2763
20
-75.1728
11
88.2756
21
-75.1728
0
LINE
8
BLACK
6
CONTINUOUS
10
257.631
20
-94.2229
11
271.63
21
-94.2229
0
LINE
8
BLACK
6
CONTINUOUS
10
202.864
20
-56.1228
11
216.863
21
-56.1228
0
LINE
8
BLACK
6
CONTINUOUS
10
240.964
20
-56.1228
11
254.963
21
-56.1228
0
LINE
8
BLACK
6
CONTINUOUS
10
64.7513
20
-108.222
11
64.7513
21
-94.2229
0
LINE
8
BLACK
6
CONTINUOUS
10
169.526
20
-75.1728
11
183.526
21
-75.1728
0
LINE
8
BLACK
6
CONTINUOUS
10
38.2695
20
-75.1728
11
38.2695
21
-89.1722
0
LINE
8
BLACK
6
CONTINUOUS
10
48.0811
20
-127.272
11
48.0811
21
-113.273
0
LINE
8
BLACK
6
CONTINUOUS
10
142.626
20
-120.772
11
142.626
21
-117.973
0
LINE
8
BLACK
6
CONTINUOUS
10
56.0695
20
-101.722
11
56.895
21
-101.722
0
LINE
8
BLACK
6
CONTINUOUS
10
260.014
20
-70.1221
11
260.014
21
-56.1228
0
LINE
8
BLACK
6
CONTINUOUS
10
49.32
20
-95.6931
11
49.32
21
-98.9233
0
LINE
8
BLACK
6
CONTINUOUS
10
199.776
20
-117.973
11
198.95
21
-117.973
0
LINE
8
BLACK
6
CONTINUOUS
10
98.6758
20
-128.242
11
101.976
21
-128.242
0
LINE
8
BLACK
6
CONTINUOUS
10
88.2756
20
-89.1722
11
74.2763
21
-89.1722
0
LINE
8
BLACK
6
CONTINUOUS
10
192.2
20
-117.973
11
183.526
21
-117.973
0
LINE
8
BLACK
6
CONTINUOUS
10
160.001
20
-108.222
11
160.001
21
-94.2229
0
LINE
8
BLACK
6
CONTINUOUS
10
153.275
20
-120.772
11
154.1
21
-120.772
0
LINE
8
BLACK
6
CONTINUOUS
10
33.795
20
-108.222
11
47.7945
21
-108.222
0
LINE
8
BLACK
6
CONTINUOUS
10
24.6944
20
-101.722
11
25.5199
21
-101.722
0
LINE
8
BLACK
6
CONTINUOUS
10
276.539
20
-55.5975
11
276.539
21
-127.797
0
LINE
8
BLACK
6
CONTINUOUS
10
160.001
20
-94.2229
11
174.001
21
-94.2229
0
LINE
8
BLACK
6
CONTINUOUS
10
107.614
20
-56.1228
11
121.613
21
-56.1228
0
LINE
8
BLACK
6
CONTINUOUS
10
78.7506
20
-94.2229
11
78.7506
21
-108.222
0
LINE
8
BLACK
6
CONTINUOUS
10
96.9504
20
-120.772
11
96.9504
21
-127.042
0
LINE
8
BLACK
6
CONTINUOUS
10
183.526
20
-122.573
11
192.2
21
-122.573
0
LINE
8
BLACK
6
CONTINUOUS
10
88.5638
20
-56.1228
11
102.563
21
-56.1228
0
LINE
8
BLACK
6
CONTINUOUS
10
38.2695
20
-127.272
11
24.27
21
-127.272
0
LINE
8
BLACK
6
CONTINUOUS
10
217.151
20
-94.2229
11
231.151
21
-94.2229
0
LINE
8
BLACK
6
CONTINUOUS
10
55.2263
20
-89.1722
11
55.2263
21
-75.1728
0
LINE
8
BLACK
6
CONTINUOUS
10
135.05
20
-114.743
11
135.05
21
-117.973
0
LINE
8
BLACK
6
CONTINUOUS
10
193.051
20
-94.2229
11
193.051
21
-108.222
0
LINE
8
BLACK
6
CONTINUOUS
10
183.526
20
-127.272
11
183.526
21
-122.573
0
LINE
8
BLACK
6
CONTINUOUS
10
121.613
20
-70.1221
11
107.614
21
-70.1221
0
LINE
8
BLACK
6
CONTINUOUS
10
40.6508
20
-70.1221
11
26.6512
21
-70.1221
0
LINE
8
BLACK
6
CONTINUOUS
10
97.8006
20
-108.222
11
83.8013
21
-108.222
0
LINE
8
BLACK
6
CONTINUOUS
10
38.2695
20
-89.1722
11
24.27
21
-89.1722
0
LINE
8
BLACK
6
CONTINUOUS
10
96.1249
20
-120.772
11
96.9504
21
-120.772
0
LINE
8
BLACK
6
CONTINUOUS
10
93.3263
20
-89.1722
11
93.3263
21
-75.1728
0
LINE
8
BLACK
6
CONTINUOUS
10
83.8013
20
-108.222
11
83.8013
21
-94.2229
0
LINE
8
BLACK
6
CONTINUOUS
10
217.151
20
-108.222
11
217.151
21
-94.2229
0
LINE
8
BLACK
6
CONTINUOUS
10
33.795
20
-98.9233
11
32.2695
21
-98.9233
0
LINE
8
BLACK
6
CONTINUOUS
10
164.476
20
-75.1728
11
164.476
21
-89.1722
0
LINE
8
BLACK
6
CONTINUOUS
10
112.376
20
-89.1722
11
112.376
21
-75.1728
0
LINE
8
BLACK
6
CONTINUOUS
10
25.5199
20
-101.722
11
25.5199
21
-107.992
0
LINE
8
BLACK
6
CONTINUOUS
10
250.201
20
-108.222
11
236.201
21
-108.222
0
LINE
8
BLACK
6
CONTINUOUS
10
135.05
20
-127.042
11
136.776
21
-127.042
0
LINE
8
BLACK
6
CONTINUOUS
10
235.913
20
-56.1228
11
235.913
21
-70.1221
0
LINE
8
BLACK
6
CONTINUOUS
10
212.101
20
-108.222
11
198.101
21
-108.222
0
LINE
8
BLACK
6
CONTINUOUS
10
198.95
20
-120.772
11
199.776
21
-120.772
0
LINE
8
BLACK
6
CONTINUOUS
10
271.63
20
-113.273
11
271.63
21
-127.272
0
LINE
8
BLACK
6
CONTINUOUS
10
198.101
20
-108.222
11
198.101
21
-94.2229
0
LINE
8
BLACK
6
CONTINUOUS
10
85.8944
20
-113.273
11
85.8944
21
-127.272
0
LINE
8
BLACK
6
CONTINUOUS
10
150.476
20
-89.1722
11
150.476
21
-75.1728
0
ARC
8
BLACK
10
274.539
20
-127.797
40
1.99995
50
-90.0014
51
-0
0
LINE
8
BLACK
6
CONTINUOUS
10
257.631
20
-127.272
11
257.631
21
-113.273
0
LINE
8
BLACK
6
CONTINUOUS
10
192.2
20
-127.042
11
193.926
21
-127.042
0
LINE
8
BLACK
6
CONTINUOUS
10
247.819
20
-127.272
11
233.82
21
-127.272
0
LINE
8
BLACK
6
CONTINUOUS
10
56.895
20
-101.722
11
56.895
21
-98.9233
0
LINE
8
BLACK
6
CONTINUOUS
10
193.926
20
-127.042
11
193.926
21
-128.242
0
LINE
8
BLACK
6
CONTINUOUS
10
50.4638
20
-70.1221
11
50.4638
21
-56.1228
0
LINE
8
BLACK
6
CONTINUOUS
10
247.819
20
-113.273
11
247.819
21
-127.272
0
LINE
8
BLACK
6
CONTINUOUS
10
32.2695
20
-103.523
11
33.795
21
-103.523
0
LINE
8
BLACK
6
CONTINUOUS
10
164.764
20
-56.1228
11
178.763
21
-56.1228
0
LINE
8
BLACK
6
CONTINUOUS
10
25.5199
20
-95.6931
11
25.5199
21
-98.9233
0
LINE
8
BLACK
6
CONTINUOUS
10
224.007
20
-113.273
11
224.007
21
-127.272
0
LINE
8
BLACK
6
CONTINUOUS
10
197.813
20
-70.1221
11
183.814
21
-70.1221
0
LINE
8
BLACK
6
CONTINUOUS
10
164.476
20
-89.1722
11
150.476
21
-89.1722
0
LINE
8
BLACK
6
CONTINUOUS
10
159.713
20
-70.1221
11
145.714
21
-70.1221
0
LINE
8
BLACK
6
CONTINUOUS
10
252.87
20
-75.1728
11
266.869
21
-75.1728
0
LINE
8
BLACK
6
CONTINUOUS
10
141.8
20
-127.042
11
141.8
21
-120.772
0
ARC
8
BLACK
10
21.3637
20
-127.797
40
2
50
-180
51
-90
0
LINE
8
BLACK
6
CONTINUOUS
10
216.863
20
-56.1228
11
216.863
21
-70.1221
0
LINE
8
BLACK
6
CONTINUOUS
10
30.5442
20
-107.992
11
32.2695
21
-107.992
0
LINE
8
BLACK
6
CONTINUOUS
10
199.776
20
-120.772
11
199.776
21
-117.973
0
LINE
8
BLACK
6
CONTINUOUS
10
102.851
20
-108.222
11
102.851
21
-94.2229
0
LINE
8
BLACK
6
CONTINUOUS
10
62.0819
20
-127.272
11
48.0811
21
-127.272
0
LINE
8
BLACK
6
CONTINUOUS
10
266.869
20
-89.1722
11
252.87
21
-89.1722
0
LINE
8
BLACK
6
CONTINUOUS
10
121.901
20
-108.222
11
121.901
21
-94.2229
0
LINE
8
BLACK
6
CONTINUOUS
10
141.8
20
-117.973
11
141.8
21
-114.743
0
LINE
8
BLACK
6
CONTINUOUS
10
69.2256
20
-89.1722
11
55.2263
21
-89.1722
0
LINE
8
BLACK
6
CONTINUOUS
10
107.326
20
-75.1728
11
107.326
21
-89.1722
0
LINE
8
BLACK
6
CONTINUOUS
10
202.576
20
-89.1722
11
188.576
21
-89.1722
0
LINE
8
BLACK
6
CONTINUOUS
10
112.376
20
-113.273
11
112.376
21
-117.973
0
LINE
8
BLACK
6
CONTINUOUS
10
103.7
20
-122.573
11
112.376
21
-122.573
0
LINE
8
BLACK
6
CONTINUOUS
10
210.006
20
-113.273
11
224.007
21
-113.273
0
LINE
8
BLACK
6
CONTINUOUS
10
159.126
20
-127.042
11
160.85
21
-127.042
0
LINE
8
BLACK
6
CONTINUOUS
10
254.963
20
-70.1221
11
240.964
21
-70.1221
0
LINE
8
BLACK
6
CONTINUOUS
10
96.9504
20
-117.973
11
96.1249
21
-117.973
0
LINE
8
BLACK
6
CONTINUOUS
10
160.85
20
-117.973
11
160.85
21
-114.743
0
LINE
8
BLACK
6
CONTINUOUS
10
233.82
20
-113.273
11
247.819
21
-113.273
0
LINE
8
BLACK
6
CONTINUOUS
10
236.201
20
-94.2229
11
250.201
21
-94.2229
0
LINE
8
BLACK
6
CONTINUOUS
10
135.05
20
-122.573
11
135.05
21
-127.042
0
LINE
8
BLACK
6
CONTINUOUS
10
260.014
20
-56.1228
11
274.013
21
-56.1228
0
LINE
8
BLACK
6
CONTINUOUS
10
145.714
20
-56.1228
11
159.713
21
-56.1228
0
LINE
8
BLACK
6
CONTINUOUS
10
274.539
20
-53.5975
11
21.3638
21
-53.5975
0
LINE
8
BLACK
6
CONTINUOUS
10
145.426
20
-75.1728
11
145.426
21
-89.1722
0
LINE
8
BLACK
6
CONTINUOUS
10
271.63
20
-94.2229
11
271.63
21
-108.222
0
LINE
8
BLACK
6
CONTINUOUS
10
155.826
20
-127.042
11
155.826
21
-128.242
0
LINE
8
BLACK
6
CONTINUOUS
10
197.813
20
-56.1228
11
197.813
21
-70.1221
0
LINE
8
BLACK
6
CONTINUOUS
10
126.376
20
-89.1722
11
112.376
21
-89.1722
0
LINE
8
BLACK
6
CONTINUOUS
10
221.626
20
-75.1728
11
221.626
21
-89.1722
0
LINE
8
BLACK
6
CONTINUOUS
10
71.8951
20
-113.273
11
85.8944
21
-113.273
0
LINE
8
BLACK
6
CONTINUOUS
10
112.376
20
-127.272
11
126.376
21
-127.272
0
LINE
8
BLACK
6
CONTINUOUS
10
112.376
20
-117.973
11
103.7
21
-117.973
0
LINE
8
BLACK
6
CONTINUOUS
10
126.376
20
-113.273
11
112.376
21
-113.273
0
LINE
8
BLACK
6
CONTINUOUS
10
154.951
20
-94.2229
11
154.951
21
-108.222
0
LINE
8
BLACK
6
CONTINUOUS
10
88.5638
20
-70.1221
11
88.5638
21
-56.1228
0
LINE
8
BLACK
6
CONTINUOUS
10
47.7945
20
-94.2229
11
33.795
21
-94.2229
0
LINE
8
BLACK
6
CONTINUOUS
10
49.32
20
-107.992
11
51.0439
21
-107.992
0
LINE
8
BLACK
6
CONTINUOUS
10
202.864
20
-70.1221
11
202.864
21
-56.1228
0
LINE
8
BLACK
6
CONTINUOUS
10
164.764
20
-70.1221
11
164.764
21
-56.1228
0
LINE
8
BLACK
6
CONTINUOUS
10
56.0695
20
-107.992
11
56.0695
21
-101.722
0
LINE
8
BLACK
6
CONTINUOUS
10
140.663
20
-70.1221
11
126.664
21
-70.1221
0
LINE
8
BLACK
6
CONTINUOUS
10
198.95
20
-117.973
11
198.95
21
-114.743
0
LINE
8
BLACK
6
CONTINUOUS
10
24.27
20
-89.1722
11
24.27
21
-75.1728
0
LINE
8
BLACK
6
CONTINUOUS
10
21.3637
20
-129.797
11
274.539
21
-129.797
0
LINE
8
BLACK
6
CONTINUOUS
10
93.3263
20
-75.1728
11
107.326
21
-75.1728
0
LINE
8
BLACK
6
CONTINUOUS
10
226.676
20
-75.1728
11
240.676
21
-75.1728
0
LINE
8
BLACK
6
CONTINUOUS
10
221.626
20
-89.1722
11
207.626
21
-89.1722
0
LINE
8
BLACK
6
CONTINUOUS
10
51.0439
20
-109.192
11
54.3443
21
-109.192
0
LINE
8
BLACK
6
CONTINUOUS
10
27.2452
20
-107.992
11
27.2452
21
-109.192
0
LINE
8
BLACK
6
CONTINUOUS
10
169.526
20
-127.272
11
183.526
21
-127.272
0
LINE
8
BLACK
6
CONTINUOUS
10
155.826
20
-128.242
11
159.126
21
-128.242
0
LINE
8
BLACK
6
CONTINUOUS
10
136.776
20
-128.242
11
140.076
21
-128.242
0
LINE
8
BLACK
6
CONTINUOUS
10
240.676
20
-89.1722
11
226.676
21
-89.1722
0
LINE
8
BLACK
6
CONTINUOUS
10
274.013
20
-56.1228
11
274.013
21
-70.1221
0
LINE
8
BLACK
6
CONTINUOUS
10
103.7
20
-127.042
11
103.7
21
-122.573
0
LINE
8
BLACK
6
CONTINUOUS
10
107.614
20
-70.1221
11
107.614
21
-56.1228
0
LINE
8
BLACK
6
CONTINUOUS
10
160.85
20
-127.042
11
160.85
21
-122.573
0
LINE
8
BLACK
6
CONTINUOUS
10
83.5131
20
-56.1228
11
83.5131
21
-70.1221
0
LINE
8
BLACK
6
CONTINUOUS
10
102.851
20
-94.2229
11
116.851
21
-94.2229
0
LINE
8
BLACK
6
CONTINUOUS
10
178.763
20
-70.1221
11
164.764
21
-70.1221
0
LINE
8
BLACK
6
CONTINUOUS
10
159.126
20
-128.242
11
159.126
21
-127.042
0
LINE
8
BLACK
6
CONTINUOUS
10
88.2756
20
-75.1728
11
88.2756
21
-89.1722
0
LINE
8
BLACK
6
CONTINUOUS
10
25.5199
20
-98.9233
11
24.6944
21
-98.9233
0
LINE
8
BLACK
6
CONTINUOUS
10
183.526
20
-113.273
11
169.526
21
-113.273
0
LINE
8
BLACK
6
CONTINUOUS
10
107.326
20
-89.1722
11
93.3263
21
-89.1722
0
LINE
8
BLACK
6
CONTINUOUS
10
96.9504
20
-114.743
11
96.9504
21
-117.973
0
LINE
8
BLACK
6
CONTINUOUS
10
141.8
20
-120.772
11
142.626
21
-120.772
0
LINE
8
BLACK
6
CONTINUOUS
10
38.2695
20
-113.273
11
38.2695
21
-127.272
0
LINE
8
BLACK
6
CONTINUOUS
10
121.613
20
-56.1228
11
121.613
21
-70.1221
0
LINE
8
BLACK
6
CONTINUOUS
10
116.851
20
-108.222
11
102.851
21
-108.222
0
LINE
8
BLACK
6
CONTINUOUS
10
101.976
20
-128.242
11
101.976
21
-127.042
0
ARC
8
BLACK
10
274.539
20
-55.5975
40
2
50
-0
51
90.0014
0
LINE
8
BLACK
6
CONTINUOUS
10
126.664
20
-56.1228
11
140.663
21
-56.1228
0
LINE
8
BLACK
6
CONTINUOUS
10
126.376
20
-117.973
11
126.376
21
-113.273
0
LINE
8
BLACK
6
CONTINUOUS
10
274.013
20
-70.1221
11
260.014
21
-70.1221
0
LINE
8
BLACK
6
CONTINUOUS
10
193.051
20
-108.222
11
179.051
21
-108.222
0
LINE
8
BLACK
6
CONTINUOUS
10
69.5138
20
-56.1228
11
83.5131
21
-56.1228
0
LINE
8
BLACK
6
CONTINUOUS
10
154.1
20
-117.973
11
153.275
21
-117.973
0
LINE
8
BLACK
6
CONTINUOUS
10
101.976
20
-127.042
11
103.7
21
-127.042
0
LINE
8
BLACK
6
CONTINUOUS
10
32.2695
20
-95.6931
11
25.5199
21
-95.6931
0
LINE
8
BLACK
6
CONTINUOUS
10
112.376
20
-122.573
11
112.376
21
-127.272
0
LINE
8
BLACK
6
CONTINUOUS
10
47.7945
20
-108.222
11
47.7945
21
-103.523
0
LINE
8
BLACK
6
CONTINUOUS
10
140.076
20
-128.242
11
140.076
21
-127.042
0
LINE
8
BLACK
6
CONTINUOUS
10
121.901
20
-94.2229
11
135.901
21
-94.2229
0
LINE
8
BLACK
6
CONTINUOUS
10
257.631
20
-108.222
11
257.631
21
-94.2229
0
LINE
8
BLACK
6
CONTINUOUS
10
141.8
20
-114.743
11
135.05
21
-114.743
0
LINE
8
BLACK
6
CONTINUOUS
10
30.5442
20
-109.192
11
30.5442
21
-107.992
0
LINE
8
BLACK
6
CONTINUOUS
10
254.963
20
-56.1228
11
254.963
21
-70.1221
0
LINE
8
BLACK
6
CONTINUOUS
10
103.7
20
-114.743
11
96.9504
21
-114.743
0
LINE
8
BLACK
6
CONTINUOUS
10
221.914
20
-56.1228
11
235.913
21
-56.1228
0
LINE
8
BLACK
6
CONTINUOUS
10
64.4631
20
-56.1228
11
64.4631
21
-70.1221
0
LINE
8
BLACK
6
CONTINUOUS
10
257.631
20
-113.273
11
271.63
21
-113.273
0
LINE
8
BLACK
6
CONTINUOUS
10
69.2256
20
-75.1728
11
69.2256
21
-89.1722
0
LINE
8
BLACK
6
CONTINUOUS
10
231.151
20
-94.2229
11
231.151
21
-108.222
0
LINE
8
BLACK
6
CONTINUOUS
10
154.951
20
-108.222
11
140.951
21
-108.222
0
LINE
8
BLACK
6
CONTINUOUS
10
131.426
20
-75.1728
11
145.426
21
-75.1728
0
LINE
8
BLACK
6
CONTINUOUS
10
216.863
20
-70.1221
11
202.864
21
-70.1221
0
LINE
8
BLACK
6
CONTINUOUS
10
64.7513
20
-94.2229
11
78.7506
21
-94.2229
0
LINE
8
BLACK
6
CONTINUOUS
10
154.1
20
-127.042
11
155.826
21
-127.042
0
LINE
8
BLACK
6
CONTINUOUS
10
85.8944
20
-127.272
11
71.8951
21
-127.272
0
LINE
8
BLACK
6
CONTINUOUS
10
64.4631
20
-70.1221
11
50.4638
21
-70.1221
0
LINE
8
BLACK
6
CONTINUOUS
10
33.795
20
-94.2229
11
33.795
21
-98.9233
0
LINE
8
BLACK
6
CONTINUOUS
10
50.4638
20
-56.1228
11
64.4631
21
-56.1228
0
LINE
8
BLACK
6
CONTINUOUS
10
54.3443
20
-107.992
11
56.0695
21
-107.992
0
LINE
8
BLACK
6
CONTINUOUS
10
236.201
20
-108.222
11
236.201
21
-94.2229
0
LINE
8
BLACK
6
CONTINUOUS
10
160.85
20
-114.743
11
154.1
21
-114.743
0
LINE
8
BLACK
6
CONTINUOUS
10
102.563
20
-56.1228
11
102.563
21
-70.1221
0
LINE
8
BLACK
6
CONTINUOUS
10
24.27
20
-127.272
11
24.27
21
-113.273
0
LINE
8
BLACK
6
CONTINUOUS
10
54.3443
20
-109.192
11
54.3443
21
-107.992
0
LINE
8
BLACK
6
CONTINUOUS
10
197.226
20
-127.042
11
198.95
21
-127.042
0
LINE
8
BLACK
6
CONTINUOUS
10
159.713
20
-56.1228
11
159.713
21
-70.1221
0
LINE
8
BLACK
6
CONTINUOUS
10
24.27
20
-113.273
11
38.2695
21
-113.273
0
LINE
8
BLACK
6
CONTINUOUS
10
96.1249
20
-117.973
11
96.1249
21
-120.772
0
LINE
8
BLACK
6
CONTINUOUS
10
140.951
20
-94.2229
11
154.951
21
-94.2229
0
LINE
8
BLACK
6
CONTINUOUS
10
169.526
20
-117.973
11
160.85
21
-117.973
0
LINE
8
BLACK
6
CONTINUOUS
10
179.051
20
-108.222
11
179.051
21
-94.2229
0
LINE
8
BLACK
6
CONTINUOUS
10
103.7
20
-117.973
11
103.7
21
-114.743
0
LINE
8
BLACK
6
CONTINUOUS
10
32.2695
20
-98.9233
11
32.2695
21
-95.6931
0
LINE
8
BLACK
6
CONTINUOUS
10
202.576
20
-75.1728
11
202.576
21
-89.1722
0
LINE
8
BLACK
6
CONTINUOUS
10
32.2695
20
-107.992
11
32.2695
21
-103.523
0
LINE
8
BLACK
6
CONTINUOUS
10
135.901
20
-94.2229
11
135.901
21
-108.222
0
LINE
8
BLACK
6
CONTINUOUS
10
126.376
20
-127.272
11
126.376
21
-122.573
0
LINE
8
BLACK
6
CONTINUOUS
10
97.8006
20
-94.2229
11
97.8006
21
-108.222
0
LINE
8
BLACK
6
CONTINUOUS
10
51.0439
20
-107.992
11
51.0439
21
-109.192
0
LINE
8
BLACK
6
CONTINUOUS
10
56.0695
20
-98.9233
11
56.0695
21
-95.6931
0
CIRCLE
8
BLACK
10
21.745
20
-120.272
40
1.6
0
CIRCLE
8
BLACK
10
269.395
20
-82.1725
40
1.6
0
CIRCLE
8
BLACK
10
162.239
20
-63.1225
40
1.6
0
CIRCLE
8
BLACK
10
187.43
20
-120.272
40
1.6
0
CIRCLE
8
BLACK
10
90.8012
20
-82.1725
40
1.6
0
CIRCLE
8
BLACK
10
157.476
20
-101.222
40
1.6
0
CIRCLE
8
BLACK
10
224.151
20
-82.1725
40
1.6
0
CIRCLE
8
BLACK
10
226.532
20
-120.272
40
1.6
0
CIRCLE
8
BLACK
10
200.339
20
-63.1225
40
1.6
0
CIRCLE
8
BLACK
10
233.676
20
-101.222
40
1.6
0
CIRCLE
8
BLACK
10
186.051
20
-82.1725
40
1.6
0
CIRCLE
8
BLACK
10
145.759
20
-120.272
40
1.6
0
CIRCLE
8
BLACK
10
21.67
20
-101.222
40
1.6
0
CIRCLE
8
BLACK
10
274.157
20
-120.272
40
1.6
0
CIRCLE
8
BLACK
10
48.745
20
-82.1725
40
1.6
0
CIRCLE
8
BLACK
10
251.536
20
-120.272
40
1.6
0
CIRCLE
8
BLACK
10
45.5575
20
-63.1225
40
1.6
0
CIRCLE
8
BLACK
10
86.0387
20
-63.1225
40
1.6
0
CIRCLE
8
BLACK
10
62.2263
20
-101.222
40
1.6
0
CIRCLE
8
BLACK
10
24.1262
20
-63.1225
40
1.6
0
CIRCLE
8
BLACK
10
69.37
20
-120.272
40
1.6
0
CIRCLE
8
BLACK
10
44.3669
20
-120.272
40
1.6
0
CIRCLE
8
BLACK
10
238.439
20
-63.1225
40
1.6
0
CIRCLE
8
BLACK
10
147.976
20
-82.1725
40
1.6
0
CIRCLE
8
BLACK
10
119.376
20
-101.222
40
1.6
0
CIRCLE
8
BLACK
10
124.139
20
-63.1225
40
1.6
0
CIRCLE
8
BLACK
10
274.157
20
-101.222
40
1.6
  0
ENDSEC
  0
EOF
