  0
SECTION
  2
HEADER
  9
$ACADVER
  1
AC1009
  9
$FILLMODE
 70
 0
  9
$SPLFRAME
 70
 1
  9
$EXTMIN
 10
0
 20
0
 30
0.0
  9
$EXTMAX
 10
1058.33
 20
1058.33
 30
0.0
  0
ENDSEC
  0
SECTION
  2
TABLES
  0
TABLE
  2
LAYER
 70
1
  0
LAYER
  2
0
 70
     0
 62
     7
  6
CONTINUOUS
  0
ENDTAB
  0
ENDSEC
  0
SECTION
  2
ENTITIES
  0
LINE
  8
0
 62
     0
 10
0.0950846
 20
76.4575
 30
0.0
 11
257.27
 21
76.4575
 31
0.0
  0
LINE
  8
0
 62
     0
 10
257.27
 20
76.4575
 30
0.0
 11
257.27
 21
0.257693
 31
0.0
  0
LINE
  8
0
 62
     0
 10
257.27
 20
0.257693
 30
0.0
 11
0.0950846
 21
0.257693
 31
0.0
  0
LINE
  8
0
 62
     0
 10
0.0950846
 20
0.257693
 30
0.0
 11
0.0950846
 21
76.4575
 31
0.0
  0
LINE
  8
0
 62
     0
 10
88.937
 20
16.2347
 30
0.0
 11
92.2376
 21
16.2347
 31
0.0
  0
LINE
  8
0
 62
     0
 10
92.2376
 20
16.2347
 30
0.0
 11
92.2376
 21
2.03261
 31
0.0
  0
LINE
  8
0
 62
     0
 10
92.2376
 20
2.03261
 30
0.0
 11
88.937
 21
2.03261
 31
0.0
  0
LINE
  8
0
 62
     0
 10
88.937
 20
2.03261
 30
0.0
 11
88.937
 21
16.2347
 31
0.0
  0
LINE
  8
0
 62
     0
 10
112.737
 20
16.2347
 30
0.0
 11
116.038
 21
16.2347
 31
0.0
  0
LINE
  8
0
 62
     0
 10
116.038
 20
16.2347
 30
0.0
 11
116.038
 21
2.03261
 31
0.0
  0
LINE
  8
0
 62
     0
 10
116.038
 20
2.03261
 30
0.0
 11
112.737
 21
2.03261
 31
0.0
  0
LINE
  8
0
 62
     0
 10
112.737
 20
2.03261
 30
0.0
 11
112.737
 21
16.2347
 31
0.0
  0
LINE
  8
0
 62
     0
 10
136.562
 20
16.2347
 30
0.0
 11
139.863
 21
16.2347
 31
0.0
  0
LINE
  8
0
 62
     0
 10
139.863
 20
16.2347
 30
0.0
 11
139.863
 21
2.03261
 31
0.0
  0
LINE
  8
0
 62
     0
 10
139.863
 20
2.03261
 30
0.0
 11
136.562
 21
2.03261
 31
0.0
  0
LINE
  8
0
 62
     0
 10
136.562
 20
2.03261
 30
0.0
 11
136.562
 21
16.2347
 31
0.0
  0
LINE
  8
0
 62
     0
 10
160.362
 20
16.2347
 30
0.0
 11
163.663
 21
16.2347
 31
0.0
  0
LINE
  8
0
 62
     0
 10
163.663
 20
16.2347
 30
0.0
 11
163.663
 21
2.03261
 31
0.0
  0
LINE
  8
0
 62
     0
 10
163.663
 20
2.03261
 30
0.0
 11
160.362
 21
2.03261
 31
0.0
  0
LINE
  8
0
 62
     0
 10
160.362
 20
2.03261
 30
0.0
 11
160.362
 21
16.2347
 31
0.0
  0
LINE
  8
0
 62
     0
 10
7.38216
 20
16.7831
 30
0.0
 11
21.3817
 21
16.7831
 31
0.0
  0
LINE
  8
0
 62
     0
 10
21.3817
 20
16.7831
 30
0.0
 11
21.3817
 21
2.78364
 31
0.0
  0
LINE
  8
0
 62
     0
 10
21.3817
 20
2.78364
 30
0.0
 11
7.38216
 21
2.78364
 31
0.0
  0
LINE
  8
0
 62
     0
 10
7.38216
 20
2.78364
 30
0.0
 11
7.38216
 21
16.7831
 31
0.0
  0
LINE
  8
0
 62
     0
 10
33.5759
 20
16.7831
 30
0.0
 11
47.5753
 21
16.7831
 31
0.0
  0
LINE
  8
0
 62
     0
 10
47.5753
 20
16.7831
 30
0.0
 11
47.5753
 21
2.78364
 31
0.0
  0
LINE
  8
0
 62
     0
 10
47.5753
 20
2.78364
 30
0.0
 11
33.5759
 21
2.78364
 31
0.0
  0
LINE
  8
0
 62
     0
 10
33.5759
 20
2.78364
 30
0.0
 11
33.5759
 21
16.7831
 31
0.0
  0
LINE
  8
0
 62
     0
 10
59.7697
 20
16.7831
 30
0.0
 11
73.769
 21
16.7831
 31
0.0
  0
LINE
  8
0
 62
     0
 10
73.769
 20
16.7831
 30
0.0
 11
73.769
 21
2.78364
 31
0.0
  0
LINE
  8
0
 62
     0
 10
73.769
 20
2.78364
 30
0.0
 11
59.7697
 21
2.78364
 31
0.0
  0
LINE
  8
0
 62
     0
 10
59.7697
 20
2.78364
 30
0.0
 11
59.7697
 21
16.7831
 31
0.0
  0
LINE
  8
0
 62
     0
 10
95.4871
 20
16.7831
 30
0.0
 11
109.488
 21
16.7831
 31
0.0
  0
LINE
  8
0
 62
     0
 10
109.488
 20
16.7831
 30
0.0
 11
109.488
 21
2.78364
 31
0.0
  0
LINE
  8
0
 62
     0
 10
109.488
 20
2.78364
 30
0.0
 11
95.4871
 21
2.78364
 31
0.0
  0
LINE
  8
0
 62
     0
 10
95.4871
 20
2.78364
 30
0.0
 11
95.4871
 21
16.7831
 31
0.0
  0
LINE
  8
0
 62
     0
 10
143.112
 20
16.7831
 30
0.0
 11
157.113
 21
16.7831
 31
0.0
  0
LINE
  8
0
 62
     0
 10
157.113
 20
16.7831
 30
0.0
 11
157.113
 21
2.78364
 31
0.0
  0
LINE
  8
0
 62
     0
 10
157.113
 20
2.78364
 30
0.0
 11
143.112
 21
2.78364
 31
0.0
  0
LINE
  8
0
 62
     0
 10
143.112
 20
2.78364
 30
0.0
 11
143.112
 21
16.7831
 31
0.0
  0
LINE
  8
0
 62
     0
 10
183.595
 20
16.7831
 30
0.0
 11
197.594
 21
16.7831
 31
0.0
  0
LINE
  8
0
 62
     0
 10
197.594
 20
16.7831
 30
0.0
 11
197.594
 21
2.78364
 31
0.0
  0
LINE
  8
0
 62
     0
 10
197.594
 20
2.78364
 30
0.0
 11
183.595
 21
2.78364
 31
0.0
  0
LINE
  8
0
 62
     0
 10
183.595
 20
2.78364
 30
0.0
 11
183.595
 21
16.7831
 31
0.0
  0
LINE
  8
0
 62
     0
 10
209.787
 20
16.7831
 30
0.0
 11
223.788
 21
16.7831
 31
0.0
  0
LINE
  8
0
 62
     0
 10
223.788
 20
16.7831
 30
0.0
 11
223.788
 21
2.78364
 31
0.0
  0
LINE
  8
0
 62
     0
 10
223.788
 20
2.78364
 30
0.0
 11
209.787
 21
2.78364
 31
0.0
  0
LINE
  8
0
 62
     0
 10
209.787
 20
2.78364
 30
0.0
 11
209.787
 21
16.7831
 31
0.0
  0
LINE
  8
0
 62
     0
 10
235.982
 20
16.7831
 30
0.0
 11
249.982
 21
16.7831
 31
0.0
  0
LINE
  8
0
 62
     0
 10
249.982
 20
16.7831
 30
0.0
 11
249.982
 21
2.78364
 31
0.0
  0
LINE
  8
0
 62
     0
 10
249.982
 20
2.78364
 30
0.0
 11
235.982
 21
2.78364
 31
0.0
  0
LINE
  8
0
 62
     0
 10
235.982
 20
2.78364
 30
0.0
 11
235.982
 21
16.7831
 31
0.0
  0
LINE
  8
0
 62
     0
 10
7.97609
 20
35.2834
 30
0.0
 11
11.2751
 21
35.2834
 31
0.0
  0
LINE
  8
0
 62
     0
 10
11.2751
 20
35.2834
 30
0.0
 11
11.2751
 21
21.0826
 31
0.0
  0
LINE
  8
0
 62
     0
 10
11.2751
 20
21.0826
 30
0.0
 11
7.97609
 21
21.0826
 31
0.0
  0
LINE
  8
0
 62
     0
 10
7.97609
 20
21.0826
 30
0.0
 11
7.97609
 21
35.2834
 31
0.0
  0
LINE
  8
0
 62
     0
 10
31.7748
 20
35.2834
 30
0.0
 11
35.0752
 21
35.2834
 31
0.0
  0
LINE
  8
0
 62
     0
 10
35.0752
 20
35.2834
 30
0.0
 11
35.0752
 21
21.0826
 31
0.0
  0
LINE
  8
0
 62
     0
 10
35.0752
 20
21.0826
 30
0.0
 11
31.7748
 21
21.0826
 31
0.0
  0
LINE
  8
0
 62
     0
 10
31.7748
 20
21.0826
 30
0.0
 11
31.7748
 21
35.2834
 31
0.0
  0
LINE
  8
0
 62
     0
 10
14.5259
 20
35.833
 30
0.0
 11
28.5254
 21
35.833
 31
0.0
  0
LINE
  8
0
 62
     0
 10
28.5254
 20
35.833
 30
0.0
 11
28.5254
 21
21.8336
 31
0.0
  0
LINE
  8
0
 62
     0
 10
28.5254
 20
21.8336
 30
0.0
 11
14.5259
 21
21.8336
 31
0.0
  0
LINE
  8
0
 62
     0
 10
14.5259
 20
21.8336
 30
0.0
 11
14.5259
 21
35.833
 31
0.0
  0
LINE
  8
0
 62
     0
 10
45.4822
 20
35.833
 30
0.0
 11
59.4815
 21
35.833
 31
0.0
  0
LINE
  8
0
 62
     0
 10
59.4815
 20
35.833
 30
0.0
 11
59.4815
 21
21.8336
 31
0.0
  0
LINE
  8
0
 62
     0
 10
59.4815
 20
21.8336
 30
0.0
 11
45.4822
 21
21.8336
 31
0.0
  0
LINE
  8
0
 62
     0
 10
45.4822
 20
21.8336
 30
0.0
 11
45.4822
 21
35.833
 31
0.0
  0
LINE
  8
0
 62
     0
 10
64.5322
 20
35.833
 30
0.0
 11
78.5315
 21
35.833
 31
0.0
  0
LINE
  8
0
 62
     0
 10
78.5315
 20
35.833
 30
0.0
 11
78.5315
 21
21.8336
 31
0.0
  0
LINE
  8
0
 62
     0
 10
78.5315
 20
21.8336
 30
0.0
 11
64.5322
 21
21.8336
 31
0.0
  0
LINE
  8
0
 62
     0
 10
64.5322
 20
21.8336
 30
0.0
 11
64.5322
 21
35.833
 31
0.0
  0
LINE
  8
0
 62
     0
 10
83.5822
 20
35.833
 30
0.0
 11
97.5815
 21
35.833
 31
0.0
  0
LINE
  8
0
 62
     0
 10
97.5815
 20
35.833
 30
0.0
 11
97.5815
 21
21.8336
 31
0.0
  0
LINE
  8
0
 62
     0
 10
97.5815
 20
21.8336
 30
0.0
 11
83.5822
 21
21.8336
 31
0.0
  0
LINE
  8
0
 62
     0
 10
83.5822
 20
21.8336
 30
0.0
 11
83.5822
 21
35.833
 31
0.0
  0
LINE
  8
0
 62
     0
 10
102.632
 20
35.833
 30
0.0
 11
116.632
 21
35.833
 31
0.0
  0
LINE
  8
0
 62
     0
 10
116.632
 20
35.833
 30
0.0
 11
116.632
 21
21.8336
 31
0.0
  0
LINE
  8
0
 62
     0
 10
116.632
 20
21.8336
 30
0.0
 11
102.632
 21
21.8336
 31
0.0
  0
LINE
  8
0
 62
     0
 10
102.632
 20
21.8336
 30
0.0
 11
102.632
 21
35.833
 31
0.0
  0
LINE
  8
0
 62
     0
 10
121.682
 20
35.833
 30
0.0
 11
135.682
 21
35.833
 31
0.0
  0
LINE
  8
0
 62
     0
 10
135.682
 20
35.833
 30
0.0
 11
135.682
 21
21.8336
 31
0.0
  0
LINE
  8
0
 62
     0
 10
135.682
 20
21.8336
 30
0.0
 11
121.682
 21
21.8336
 31
0.0
  0
LINE
  8
0
 62
     0
 10
121.682
 20
21.8336
 30
0.0
 11
121.682
 21
35.833
 31
0.0
  0
LINE
  8
0
 62
     0
 10
140.732
 20
35.833
 30
0.0
 11
154.732
 21
35.833
 31
0.0
  0
LINE
  8
0
 62
     0
 10
154.732
 20
35.833
 30
0.0
 11
154.732
 21
21.8336
 31
0.0
  0
LINE
  8
0
 62
     0
 10
154.732
 20
21.8336
 30
0.0
 11
140.732
 21
21.8336
 31
0.0
  0
LINE
  8
0
 62
     0
 10
140.732
 20
21.8336
 30
0.0
 11
140.732
 21
35.833
 31
0.0
  0
LINE
  8
0
 62
     0
 10
159.782
 20
35.833
 30
0.0
 11
173.782
 21
35.833
 31
0.0
  0
LINE
  8
0
 62
     0
 10
173.782
 20
35.833
 30
0.0
 11
173.782
 21
21.8336
 31
0.0
  0
LINE
  8
0
 62
     0
 10
173.782
 20
21.8336
 30
0.0
 11
159.782
 21
21.8336
 31
0.0
  0
LINE
  8
0
 62
     0
 10
159.782
 20
21.8336
 30
0.0
 11
159.782
 21
35.833
 31
0.0
  0
LINE
  8
0
 62
     0
 10
178.832
 20
35.833
 30
0.0
 11
192.832
 21
35.833
 31
0.0
  0
LINE
  8
0
 62
     0
 10
192.832
 20
35.833
 30
0.0
 11
192.832
 21
21.8336
 31
0.0
  0
LINE
  8
0
 62
     0
 10
192.832
 20
21.8336
 30
0.0
 11
178.832
 21
21.8336
 31
0.0
  0
LINE
  8
0
 62
     0
 10
178.832
 20
21.8336
 30
0.0
 11
178.832
 21
35.833
 31
0.0
  0
LINE
  8
0
 62
     0
 10
197.882
 20
35.833
 30
0.0
 11
211.882
 21
35.833
 31
0.0
  0
LINE
  8
0
 62
     0
 10
211.882
 20
35.833
 30
0.0
 11
211.882
 21
21.8336
 31
0.0
  0
LINE
  8
0
 62
     0
 10
211.882
 20
21.8336
 30
0.0
 11
197.882
 21
21.8336
 31
0.0
  0
LINE
  8
0
 62
     0
 10
197.882
 20
21.8336
 30
0.0
 11
197.882
 21
35.833
 31
0.0
  0
LINE
  8
0
 62
     0
 10
216.932
 20
35.833
 30
0.0
 11
230.932
 21
35.833
 31
0.0
  0
LINE
  8
0
 62
     0
 10
230.932
 20
35.833
 30
0.0
 11
230.932
 21
21.8336
 31
0.0
  0
LINE
  8
0
 62
     0
 10
230.932
 20
21.8336
 30
0.0
 11
216.932
 21
21.8336
 31
0.0
  0
LINE
  8
0
 62
     0
 10
216.932
 20
21.8336
 30
0.0
 11
216.932
 21
35.833
 31
0.0
  0
LINE
  8
0
 62
     0
 10
238.362
 20
35.833
 30
0.0
 11
252.361
 21
35.833
 31
0.0
  0
LINE
  8
0
 62
     0
 10
252.361
 20
35.833
 30
0.0
 11
252.361
 21
21.8336
 31
0.0
  0
LINE
  8
0
 62
     0
 10
252.361
 20
21.8336
 30
0.0
 11
238.362
 21
21.8336
 31
0.0
  0
LINE
  8
0
 62
     0
 10
238.362
 20
21.8336
 30
0.0
 11
238.362
 21
35.833
 31
0.0
  0
LINE
  8
0
 62
     0
 10
5.00091
 20
54.8831
 30
0.0
 11
19.0004
 21
54.8831
 31
0.0
  0
LINE
  8
0
 62
     0
 10
19.0004
 20
54.8831
 30
0.0
 11
19.0004
 21
40.8838
 31
0.0
  0
LINE
  8
0
 62
     0
 10
19.0004
 20
40.8838
 30
0.0
 11
5.00091
 21
40.8838
 31
0.0
  0
LINE
  8
0
 62
     0
 10
5.00091
 20
40.8838
 30
0.0
 11
5.00091
 21
54.8831
 31
0.0
  0
LINE
  8
0
 62
     0
 10
35.9572
 20
54.8831
 30
0.0
 11
49.9565
 21
54.8831
 31
0.0
  0
LINE
  8
0
 62
     0
 10
49.9565
 20
54.8831
 30
0.0
 11
49.9565
 21
40.8838
 31
0.0
  0
LINE
  8
0
 62
     0
 10
49.9565
 20
40.8838
 30
0.0
 11
35.9572
 21
40.8838
 31
0.0
  0
LINE
  8
0
 62
     0
 10
35.9572
 20
40.8838
 30
0.0
 11
35.9572
 21
54.8831
 31
0.0
  0
LINE
  8
0
 62
     0
 10
55.0072
 20
54.8831
 30
0.0
 11
69.0065
 21
54.8831
 31
0.0
  0
LINE
  8
0
 62
     0
 10
69.0065
 20
54.8831
 30
0.0
 11
69.0065
 21
40.8838
 31
0.0
  0
LINE
  8
0
 62
     0
 10
69.0065
 20
40.8838
 30
0.0
 11
55.0072
 21
40.8838
 31
0.0
  0
LINE
  8
0
 62
     0
 10
55.0072
 20
40.8838
 30
0.0
 11
55.0072
 21
54.8831
 31
0.0
  0
LINE
  8
0
 62
     0
 10
74.0572
 20
54.8831
 30
0.0
 11
88.0565
 21
54.8831
 31
0.0
  0
LINE
  8
0
 62
     0
 10
88.0565
 20
54.8831
 30
0.0
 11
88.0565
 21
40.8838
 31
0.0
  0
LINE
  8
0
 62
     0
 10
88.0565
 20
40.8838
 30
0.0
 11
74.0572
 21
40.8838
 31
0.0
  0
LINE
  8
0
 62
     0
 10
74.0572
 20
40.8838
 30
0.0
 11
74.0572
 21
54.8831
 31
0.0
  0
LINE
  8
0
 62
     0
 10
93.1072
 20
54.8831
 30
0.0
 11
107.107
 21
54.8831
 31
0.0
  0
LINE
  8
0
 62
     0
 10
107.107
 20
54.8831
 30
0.0
 11
107.107
 21
40.8838
 31
0.0
  0
LINE
  8
0
 62
     0
 10
107.107
 20
40.8838
 30
0.0
 11
93.1072
 21
40.8838
 31
0.0
  0
LINE
  8
0
 62
     0
 10
93.1072
 20
40.8838
 30
0.0
 11
93.1072
 21
54.8831
 31
0.0
  0
LINE
  8
0
 62
     0
 10
112.157
 20
54.8831
 30
0.0
 11
126.157
 21
54.8831
 31
0.0
  0
LINE
  8
0
 62
     0
 10
126.157
 20
54.8831
 30
0.0
 11
126.157
 21
40.8838
 31
0.0
  0
LINE
  8
0
 62
     0
 10
126.157
 20
40.8838
 30
0.0
 11
112.157
 21
40.8838
 31
0.0
  0
LINE
  8
0
 62
     0
 10
112.157
 20
40.8838
 30
0.0
 11
112.157
 21
54.8831
 31
0.0
  0
LINE
  8
0
 62
     0
 10
131.207
 20
54.8831
 30
0.0
 11
145.207
 21
54.8831
 31
0.0
  0
LINE
  8
0
 62
     0
 10
145.207
 20
54.8831
 30
0.0
 11
145.207
 21
40.8838
 31
0.0
  0
LINE
  8
0
 62
     0
 10
145.207
 20
40.8838
 30
0.0
 11
131.207
 21
40.8838
 31
0.0
  0
LINE
  8
0
 62
     0
 10
131.207
 20
40.8838
 30
0.0
 11
131.207
 21
54.8831
 31
0.0
  0
LINE
  8
0
 62
     0
 10
150.257
 20
54.8831
 30
0.0
 11
164.257
 21
54.8831
 31
0.0
  0
LINE
  8
0
 62
     0
 10
164.257
 20
54.8831
 30
0.0
 11
164.257
 21
40.8838
 31
0.0
  0
LINE
  8
0
 62
     0
 10
164.257
 20
40.8838
 30
0.0
 11
150.257
 21
40.8838
 31
0.0
  0
LINE
  8
0
 62
     0
 10
150.257
 20
40.8838
 30
0.0
 11
150.257
 21
54.8831
 31
0.0
  0
LINE
  8
0
 62
     0
 10
169.307
 20
54.8831
 30
0.0
 11
183.307
 21
54.8831
 31
0.0
  0
LINE
  8
0
 62
     0
 10
183.307
 20
54.8831
 30
0.0
 11
183.307
 21
40.8838
 31
0.0
  0
LINE
  8
0
 62
     0
 10
183.307
 20
40.8838
 30
0.0
 11
169.307
 21
40.8838
 31
0.0
  0
LINE
  8
0
 62
     0
 10
169.307
 20
40.8838
 30
0.0
 11
169.307
 21
54.8831
 31
0.0
  0
LINE
  8
0
 62
     0
 10
188.357
 20
54.8831
 30
0.0
 11
202.357
 21
54.8831
 31
0.0
  0
LINE
  8
0
 62
     0
 10
202.357
 20
54.8831
 30
0.0
 11
202.357
 21
40.8838
 31
0.0
  0
LINE
  8
0
 62
     0
 10
202.357
 20
40.8838
 30
0.0
 11
188.357
 21
40.8838
 31
0.0
  0
LINE
  8
0
 62
     0
 10
188.357
 20
40.8838
 30
0.0
 11
188.357
 21
54.8831
 31
0.0
  0
LINE
  8
0
 62
     0
 10
207.407
 20
54.8831
 30
0.0
 11
221.407
 21
54.8831
 31
0.0
  0
LINE
  8
0
 62
     0
 10
221.407
 20
54.8831
 30
0.0
 11
221.407
 21
40.8838
 31
0.0
  0
LINE
  8
0
 62
     0
 10
221.407
 20
40.8838
 30
0.0
 11
207.407
 21
40.8838
 31
0.0
  0
LINE
  8
0
 62
     0
 10
207.407
 20
40.8838
 30
0.0
 11
207.407
 21
54.8831
 31
0.0
  0
LINE
  8
0
 62
     0
 10
233.601
 20
54.8831
 30
0.0
 11
247.6
 21
54.8831
 31
0.0
  0
LINE
  8
0
 62
     0
 10
247.6
 20
54.8831
 30
0.0
 11
247.6
 21
40.8838
 31
0.0
  0
LINE
  8
0
 62
     0
 10
247.6
 20
40.8838
 30
0.0
 11
233.601
 21
40.8838
 31
0.0
  0
LINE
  8
0
 62
     0
 10
233.601
 20
40.8838
 30
0.0
 11
233.601
 21
54.8831
 31
0.0
  0
LINE
  8
0
 62
     0
 10
7.38216
 20
73.9331
 30
0.0
 11
21.3817
 21
73.9331
 31
0.0
  0
LINE
  8
0
 62
     0
 10
21.3817
 20
73.9331
 30
0.0
 11
21.3817
 21
59.9338
 31
0.0
  0
LINE
  8
0
 62
     0
 10
21.3817
 20
59.9338
 30
0.0
 11
7.38216
 21
59.9338
 31
0.0
  0
LINE
  8
0
 62
     0
 10
7.38216
 20
59.9338
 30
0.0
 11
7.38216
 21
73.9331
 31
0.0
  0
LINE
  8
0
 62
     0
 10
31.1947
 20
73.9331
 30
0.0
 11
45.194
 21
73.9331
 31
0.0
  0
LINE
  8
0
 62
     0
 10
45.194
 20
73.9331
 30
0.0
 11
45.194
 21
59.9338
 31
0.0
  0
LINE
  8
0
 62
     0
 10
45.194
 20
59.9338
 30
0.0
 11
31.1947
 21
59.9338
 31
0.0
  0
LINE
  8
0
 62
     0
 10
31.1947
 20
59.9338
 30
0.0
 11
31.1947
 21
73.9331
 31
0.0
  0
LINE
  8
0
 62
     0
 10
50.2447
 20
73.9331
 30
0.0
 11
64.244
 21
73.9331
 31
0.0
  0
LINE
  8
0
 62
     0
 10
64.244
 20
73.9331
 30
0.0
 11
64.244
 21
59.9338
 31
0.0
  0
LINE
  8
0
 62
     0
 10
64.244
 20
59.9338
 30
0.0
 11
50.2447
 21
59.9338
 31
0.0
  0
LINE
  8
0
 62
     0
 10
50.2447
 20
59.9338
 30
0.0
 11
50.2447
 21
73.9331
 31
0.0
  0
LINE
  8
0
 62
     0
 10
69.2947
 20
73.9331
 30
0.0
 11
83.294
 21
73.9331
 31
0.0
  0
LINE
  8
0
 62
     0
 10
83.294
 20
73.9331
 30
0.0
 11
83.294
 21
59.9338
 31
0.0
  0
LINE
  8
0
 62
     0
 10
83.294
 20
59.9338
 30
0.0
 11
69.2947
 21
59.9338
 31
0.0
  0
LINE
  8
0
 62
     0
 10
69.2947
 20
59.9338
 30
0.0
 11
69.2947
 21
73.9331
 31
0.0
  0
LINE
  8
0
 62
     0
 10
88.3447
 20
73.9331
 30
0.0
 11
102.344
 21
73.9331
 31
0.0
  0
LINE
  8
0
 62
     0
 10
102.344
 20
73.9331
 30
0.0
 11
102.344
 21
59.9338
 31
0.0
  0
LINE
  8
0
 62
     0
 10
102.344
 20
59.9338
 30
0.0
 11
88.3447
 21
59.9338
 31
0.0
  0
LINE
  8
0
 62
     0
 10
88.3447
 20
59.9338
 30
0.0
 11
88.3447
 21
73.9331
 31
0.0
  0
LINE
  8
0
 62
     0
 10
107.395
 20
73.9331
 30
0.0
 11
121.394
 21
73.9331
 31
0.0
  0
LINE
  8
0
 62
     0
 10
121.394
 20
73.9331
 30
0.0
 11
121.394
 21
59.9338
 31
0.0
  0
LINE
  8
0
 62
     0
 10
121.394
 20
59.9338
 30
0.0
 11
107.395
 21
59.9338
 31
0.0
  0
LINE
  8
0
 62
     0
 10
107.395
 20
59.9338
 30
0.0
 11
107.395
 21
73.9331
 31
0.0
  0
LINE
  8
0
 62
     0
 10
126.445
 20
73.9331
 30
0.0
 11
140.444
 21
73.9331
 31
0.0
  0
LINE
  8
0
 62
     0
 10
140.444
 20
73.9331
 30
0.0
 11
140.444
 21
59.9338
 31
0.0
  0
LINE
  8
0
 62
     0
 10
140.444
 20
59.9338
 30
0.0
 11
126.445
 21
59.9338
 31
0.0
  0
LINE
  8
0
 62
     0
 10
126.445
 20
59.9338
 30
0.0
 11
126.445
 21
73.9331
 31
0.0
  0
LINE
  8
0
 62
     0
 10
145.495
 20
73.9331
 30
0.0
 11
159.494
 21
73.9331
 31
0.0
  0
LINE
  8
0
 62
     0
 10
159.494
 20
73.9331
 30
0.0
 11
159.494
 21
59.9338
 31
0.0
  0
LINE
  8
0
 62
     0
 10
159.494
 20
59.9338
 30
0.0
 11
145.495
 21
59.9338
 31
0.0
  0
LINE
  8
0
 62
     0
 10
145.495
 20
59.9338
 30
0.0
 11
145.495
 21
73.9331
 31
0.0
  0
LINE
  8
0
 62
     0
 10
164.545
 20
73.9331
 30
0.0
 11
178.544
 21
73.9331
 31
0.0
  0
LINE
  8
0
 62
     0
 10
178.544
 20
73.9331
 30
0.0
 11
178.544
 21
59.9338
 31
0.0
  0
LINE
  8
0
 62
     0
 10
178.544
 20
59.9338
 30
0.0
 11
164.545
 21
59.9338
 31
0.0
  0
LINE
  8
0
 62
     0
 10
164.545
 20
59.9338
 30
0.0
 11
164.545
 21
73.9331
 31
0.0
  0
LINE
  8
0
 62
     0
 10
183.595
 20
73.9331
 30
0.0
 11
197.594
 21
73.9331
 31
0.0
  0
LINE
  8
0
 62
     0
 10
197.594
 20
73.9331
 30
0.0
 11
197.594
 21
59.9338
 31
0.0
  0
LINE
  8
0
 62
     0
 10
197.594
 20
59.9338
 30
0.0
 11
183.595
 21
59.9338
 31
0.0
  0
LINE
  8
0
 62
     0
 10
183.595
 20
59.9338
 30
0.0
 11
183.595
 21
73.9331
 31
0.0
  0
LINE
  8
0
 62
     0
 10
202.645
 20
73.9331
 30
0.0
 11
216.644
 21
73.9331
 31
0.0
  0
LINE
  8
0
 62
     0
 10
216.644
 20
73.9331
 30
0.0
 11
216.644
 21
59.9338
 31
0.0
  0
LINE
  8
0
 62
     0
 10
216.644
 20
59.9338
 30
0.0
 11
202.645
 21
59.9338
 31
0.0
  0
LINE
  8
0
 62
     0
 10
202.645
 20
59.9338
 30
0.0
 11
202.645
 21
73.9331
 31
0.0
  0
LINE
  8
0
 62
     0
 10
221.695
 20
73.9331
 30
0.0
 11
235.694
 21
73.9331
 31
0.0
  0
LINE
  8
0
 62
     0
 10
235.694
 20
73.9331
 30
0.0
 11
235.694
 21
59.9338
 31
0.0
  0
LINE
  8
0
 62
     0
 10
235.694
 20
59.9338
 30
0.0
 11
221.695
 21
59.9338
 31
0.0
  0
LINE
  8
0
 62
     0
 10
221.695
 20
59.9338
 30
0.0
 11
221.695
 21
73.9331
 31
0.0
  0
LINE
  8
0
 62
     0
 10
240.745
 20
73.9331
 30
0.0
 11
254.744
 21
73.9331
 31
0.0
  0
LINE
  8
0
 62
     0
 10
254.744
 20
73.9331
 30
0.0
 11
254.744
 21
59.9338
 31
0.0
  0
LINE
  8
0
 62
     0
 10
254.744
 20
59.9338
 30
0.0
 11
240.745
 21
59.9338
 31
0.0
  0
LINE
  8
0
 62
     0
 10
240.745
 20
59.9338
 30
0.0
 11
240.745
 21
73.9331
 31
0.0
  0
ENDSEC
  0
EOF
