G04 #@! TF.GenerationSoftware,KiCad,Pcbnew,7.0.5.1-1-g8f565ef7f0-dirty-deb11*
G04 #@! TF.CreationDate,2023-08-09T16:09:14+00:00*
G04 #@! TF.ProjectId,plate,706c6174-652e-46b6-9963-61645f706362,rev?*
G04 #@! TF.SameCoordinates,Original*
G04 #@! TF.FileFunction,Profile,NP*
%FSLAX46Y46*%
G04 Gerber Fmt 4.6, Leading zero omitted, Abs format (unit mm)*
G04 Created by KiCad (PCBNEW 7.0.5.1-1-g8f565ef7f0-dirty-deb11) date 2023-08-09 16:09:14*
%MOMM*%
%LPD*%
G01*
G04 APERTURE LIST*
G04 #@! TA.AperFunction,Profile*
%ADD10C,0.100000*%
G04 #@! TD*
G04 APERTURE END LIST*
D10*
X207626090Y-75172850D02*
X221626090Y-75172850D01*
X179051090Y-94222950D02*
X193051090Y-94222950D01*
X140663090Y-56122850D02*
X140663090Y-70122150D01*
X102563090Y-70122150D02*
X88563790Y-70122150D01*
X47794490Y-103523250D02*
X49319990Y-103523250D01*
X183526090Y-117973350D02*
X183526090Y-113272850D01*
X69513790Y-70122150D02*
X69513790Y-56122850D01*
X33794990Y-103523250D02*
X33794990Y-108222350D01*
X224007090Y-127272310D02*
X210006090Y-127272310D01*
X198101090Y-94222950D02*
X212101090Y-94222950D01*
X126664090Y-70122150D02*
X126664090Y-56122850D01*
X71895090Y-127272310D02*
X71895090Y-113272850D01*
X55226290Y-75172850D02*
X69225590Y-75172850D01*
X210006090Y-127272310D02*
X210006090Y-113272850D01*
X140076090Y-127042180D02*
X141800090Y-127042180D01*
X27245180Y-109192450D02*
X30544190Y-109192450D01*
X142626090Y-117973350D02*
X141800090Y-117973350D01*
X56069490Y-95693150D02*
X49319990Y-95693150D01*
X135050090Y-117973350D02*
X126376090Y-117973350D01*
X136776090Y-127042180D02*
X136776090Y-128242450D01*
X40650790Y-56122850D02*
X40650790Y-70122150D01*
X183814090Y-56122850D02*
X197813090Y-56122850D01*
X235913090Y-70122150D02*
X221914090Y-70122150D01*
X112376290Y-75172850D02*
X126376090Y-75172850D01*
X271630090Y-108222350D02*
X257631090Y-108222350D01*
X192200090Y-122573220D02*
X192200090Y-127042180D01*
X212101090Y-94222950D02*
X212101090Y-108222350D01*
X74276290Y-89172150D02*
X74276290Y-75172850D01*
X233820090Y-127272310D02*
X233820090Y-113272850D01*
X56894990Y-98923350D02*
X56069490Y-98923350D01*
X47794490Y-98923350D02*
X47794490Y-94222950D01*
X131426090Y-89172150D02*
X131426090Y-75172850D01*
X135901090Y-108222350D02*
X121901090Y-108222350D01*
X271630090Y-127272310D02*
X257631090Y-127272310D01*
X226676090Y-89172150D02*
X226676090Y-75172850D01*
X49319990Y-103523250D02*
X49319990Y-107992150D01*
X160850090Y-122573220D02*
X169526090Y-122573220D01*
X178763090Y-56122850D02*
X178763090Y-70122150D01*
X198950090Y-127042180D02*
X198950090Y-120772110D01*
X266869090Y-75172850D02*
X266869090Y-89172150D01*
X62081890Y-113272850D02*
X62081890Y-127272310D01*
X169526090Y-89172150D02*
X169526090Y-75172850D01*
X126376090Y-122573220D02*
X135050090Y-122573220D01*
X154100090Y-114743150D02*
X154100090Y-117973350D01*
X207626090Y-89172150D02*
X207626090Y-75172850D01*
X154100090Y-120772110D02*
X154100090Y-127042180D01*
X48081090Y-113272850D02*
X62081890Y-113272850D01*
X116850590Y-94222950D02*
X116850590Y-108222350D01*
X188576090Y-89172150D02*
X188576090Y-75172850D01*
X126376090Y-75172850D02*
X126376090Y-89172150D01*
X49319990Y-98923350D02*
X47794490Y-98923350D01*
X174001090Y-108222350D02*
X160001090Y-108222350D01*
X98675790Y-127042180D02*
X98675790Y-128242450D01*
X192200090Y-114743150D02*
X192200090Y-117973350D01*
X150476090Y-75172850D02*
X164476090Y-75172850D01*
X183814090Y-70122150D02*
X183814090Y-56122850D01*
X240964090Y-70122150D02*
X240964090Y-56122850D01*
X193926090Y-128242450D02*
X197226090Y-128242450D01*
X188576090Y-75172850D02*
X202576090Y-75172850D01*
X78750590Y-108222350D02*
X64751290Y-108222350D01*
X145714090Y-70122150D02*
X145714090Y-56122850D01*
X25519890Y-107992150D02*
X27245180Y-107992150D01*
X26651250Y-56122850D02*
X40650790Y-56122850D01*
X83801290Y-94222950D02*
X97800590Y-94222950D01*
X83513090Y-70122150D02*
X69513790Y-70122150D01*
X24694420Y-98923350D02*
X24694420Y-101722150D01*
X221914090Y-70122150D02*
X221914090Y-56122850D01*
X21363751Y-53597501D02*
G75*
G03*
X19363751Y-55597500I-1J-1999999D01*
G01*
X183526090Y-89172150D02*
X169526090Y-89172150D01*
X252870090Y-89172150D02*
X252870090Y-75172850D01*
X24270000Y-75172850D02*
X38269490Y-75172850D01*
X26651250Y-70122150D02*
X26651250Y-56122850D01*
X169526090Y-113272850D02*
X169526090Y-117973350D01*
X231151090Y-108222350D02*
X217151090Y-108222350D01*
X169526090Y-122573220D02*
X169526090Y-127272310D01*
X250201090Y-94222950D02*
X250201090Y-108222350D01*
X174001090Y-94222950D02*
X174001090Y-108222350D01*
X140951090Y-108222350D02*
X140951090Y-94222950D01*
X197226090Y-128242450D02*
X197226090Y-127042180D01*
X19363750Y-127797500D02*
X19363750Y-55597500D01*
X198950090Y-114743150D02*
X192200090Y-114743150D01*
X96950390Y-127042180D02*
X98675790Y-127042180D01*
X240676090Y-75172850D02*
X240676090Y-89172150D01*
X145426090Y-89172150D02*
X131426090Y-89172150D01*
X153275090Y-117973350D02*
X153275090Y-120772110D01*
X183526090Y-75172850D02*
X183526090Y-89172150D01*
X74276290Y-75172850D02*
X88275590Y-75172850D01*
X257631090Y-94222950D02*
X271630090Y-94222950D01*
X202864090Y-56122850D02*
X216863090Y-56122850D01*
X240964090Y-56122850D02*
X254963090Y-56122850D01*
X64751290Y-108222350D02*
X64751290Y-94222950D01*
X169526090Y-75172850D02*
X183526090Y-75172850D01*
X38269490Y-75172850D02*
X38269490Y-89172150D01*
X48081090Y-127272310D02*
X48081090Y-113272850D01*
X142626090Y-120772110D02*
X142626090Y-117973350D01*
X56069490Y-101722150D02*
X56894990Y-101722150D01*
X260014090Y-70122150D02*
X260014090Y-56122850D01*
X49319990Y-95693150D02*
X49319990Y-98923350D01*
X199776090Y-117973350D02*
X198950090Y-117973350D01*
X98675790Y-128242450D02*
X101976090Y-128242450D01*
X88275590Y-89172150D02*
X74276290Y-89172150D01*
X192200090Y-117973350D02*
X183526090Y-117973350D01*
X160001090Y-108222350D02*
X160001090Y-94222950D01*
X153275090Y-120772110D02*
X154100090Y-120772110D01*
X33794990Y-108222350D02*
X47794490Y-108222350D01*
X24694420Y-101722150D02*
X25519890Y-101722150D01*
X276538750Y-55597500D02*
X276538750Y-127797500D01*
X160001090Y-94222950D02*
X174001090Y-94222950D01*
X107613790Y-56122850D02*
X121613090Y-56122850D01*
X78750590Y-94222950D02*
X78750590Y-108222350D01*
X96950390Y-120772110D02*
X96950390Y-127042180D01*
X183526090Y-122573220D02*
X192200090Y-122573220D01*
X88563790Y-56122850D02*
X102563090Y-56122850D01*
X38269490Y-127272310D02*
X24270000Y-127272310D01*
X217151090Y-94222950D02*
X231151090Y-94222950D01*
X55226290Y-89172150D02*
X55226290Y-75172850D01*
X135050090Y-114743150D02*
X135050090Y-117973350D01*
X193051090Y-94222950D02*
X193051090Y-108222350D01*
X183526090Y-127272310D02*
X183526090Y-122573220D01*
X121613090Y-70122150D02*
X107613790Y-70122150D01*
X40650790Y-70122150D02*
X26651250Y-70122150D01*
X97800590Y-108222350D02*
X83801290Y-108222350D01*
X38269490Y-89172150D02*
X24270000Y-89172150D01*
X96124890Y-120772110D02*
X96950390Y-120772110D01*
X93326290Y-89172150D02*
X93326290Y-75172850D01*
X83801290Y-108222350D02*
X83801290Y-94222950D01*
X217151090Y-108222350D02*
X217151090Y-94222950D01*
X33794990Y-98923350D02*
X32269490Y-98923350D01*
X164476090Y-75172850D02*
X164476090Y-89172150D01*
X112376290Y-89172150D02*
X112376290Y-75172850D01*
X25519890Y-101722150D02*
X25519890Y-107992150D01*
X250201090Y-108222350D02*
X236201090Y-108222350D01*
X135050090Y-127042180D02*
X136776090Y-127042180D01*
X235913090Y-56122850D02*
X235913090Y-70122150D01*
X212101090Y-108222350D02*
X198101090Y-108222350D01*
X198950090Y-120772110D02*
X199776090Y-120772110D01*
X271630090Y-113272850D02*
X271630090Y-127272310D01*
X198101090Y-108222350D02*
X198101090Y-94222950D01*
X85894390Y-113272850D02*
X85894390Y-127272310D01*
X150476090Y-89172150D02*
X150476090Y-75172850D01*
X274538750Y-129797450D02*
G75*
G03*
X276538750Y-127797500I50J1999950D01*
G01*
X257631090Y-127272310D02*
X257631090Y-113272850D01*
X192200090Y-127042180D02*
X193926090Y-127042180D01*
X247819090Y-127272310D02*
X233820090Y-127272310D01*
X56894990Y-101722150D02*
X56894990Y-98923350D01*
X193926090Y-127042180D02*
X193926090Y-128242450D01*
X50463790Y-70122150D02*
X50463790Y-56122850D01*
X247819090Y-113272850D02*
X247819090Y-127272310D01*
X32269490Y-103523250D02*
X33794990Y-103523250D01*
X164764090Y-56122850D02*
X178763090Y-56122850D01*
X25519890Y-95693150D02*
X25519890Y-98923350D01*
X224007090Y-113272850D02*
X224007090Y-127272310D01*
X197813090Y-70122150D02*
X183814090Y-70122150D01*
X164476090Y-89172150D02*
X150476090Y-89172150D01*
X159713090Y-70122150D02*
X145714090Y-70122150D01*
X252870090Y-75172850D02*
X266869090Y-75172850D01*
X141800090Y-127042180D02*
X141800090Y-120772110D01*
X19363750Y-127797500D02*
G75*
G03*
X21363749Y-129797500I2000000J0D01*
G01*
X216863090Y-56122850D02*
X216863090Y-70122150D01*
X30544190Y-107992150D02*
X32269490Y-107992150D01*
X199776090Y-120772110D02*
X199776090Y-117973350D01*
X102851290Y-108222350D02*
X102851290Y-94222950D01*
X62081890Y-127272310D02*
X48081090Y-127272310D01*
X266869090Y-89172150D02*
X252870090Y-89172150D01*
X121901090Y-108222350D02*
X121901090Y-94222950D01*
X141800090Y-117973350D02*
X141800090Y-114743150D01*
X69225590Y-89172150D02*
X55226290Y-89172150D01*
X107325590Y-75172850D02*
X107325590Y-89172150D01*
X202576090Y-89172150D02*
X188576090Y-89172150D01*
X112376290Y-113272850D02*
X112376290Y-117973350D01*
X103700090Y-122573220D02*
X112376290Y-122573220D01*
X210006090Y-113272850D02*
X224007090Y-113272850D01*
X159126090Y-127042180D02*
X160850090Y-127042180D01*
X254963090Y-70122150D02*
X240964090Y-70122150D01*
X96950390Y-117973350D02*
X96124890Y-117973350D01*
X160850090Y-117973350D02*
X160850090Y-114743150D01*
X233820090Y-113272850D02*
X247819090Y-113272850D01*
X236201090Y-94222950D02*
X250201090Y-94222950D01*
X135050090Y-122573220D02*
X135050090Y-127042180D01*
X260014090Y-56122850D02*
X274013090Y-56122850D01*
X145714090Y-56122850D02*
X159713090Y-56122850D01*
X274538752Y-53597500D02*
X21363751Y-53597500D01*
X145426090Y-75172850D02*
X145426090Y-89172150D01*
X271630090Y-94222950D02*
X271630090Y-108222350D01*
X155826090Y-127042180D02*
X155826090Y-128242450D01*
X197813090Y-56122850D02*
X197813090Y-70122150D01*
X126376090Y-89172150D02*
X112376290Y-89172150D01*
X221626090Y-75172850D02*
X221626090Y-89172150D01*
X71895090Y-113272850D02*
X85894390Y-113272850D01*
X112376290Y-127272310D02*
X126376090Y-127272310D01*
X112376290Y-117973350D02*
X103700090Y-117973350D01*
X126376090Y-113272850D02*
X112376290Y-113272850D01*
X154951090Y-94222950D02*
X154951090Y-108222350D01*
X88563790Y-70122150D02*
X88563790Y-56122850D01*
X47794490Y-94222950D02*
X33794990Y-94222950D01*
X49319990Y-107992150D02*
X51043890Y-107992150D01*
X202864090Y-70122150D02*
X202864090Y-56122850D01*
X164764090Y-70122150D02*
X164764090Y-56122850D01*
X56069490Y-107992150D02*
X56069490Y-101722150D01*
X140663090Y-70122150D02*
X126664090Y-70122150D01*
X198950090Y-117973350D02*
X198950090Y-114743150D01*
X24270000Y-89172150D02*
X24270000Y-75172850D01*
X21363749Y-129797500D02*
X274538750Y-129797500D01*
X93326290Y-75172850D02*
X107325590Y-75172850D01*
X226676090Y-75172850D02*
X240676090Y-75172850D01*
X221626090Y-89172150D02*
X207626090Y-89172150D01*
X51043890Y-109192450D02*
X54344290Y-109192450D01*
X27245180Y-107992150D02*
X27245180Y-109192450D01*
X169526090Y-127272310D02*
X183526090Y-127272310D01*
X155826090Y-128242450D02*
X159126090Y-128242450D01*
X136776090Y-128242450D02*
X140076090Y-128242450D01*
X240676090Y-89172150D02*
X226676090Y-89172150D01*
X274013090Y-56122850D02*
X274013090Y-70122150D01*
X103700090Y-127042180D02*
X103700090Y-122573220D01*
X107613790Y-70122150D02*
X107613790Y-56122850D01*
X160850090Y-127042180D02*
X160850090Y-122573220D01*
X83513090Y-56122850D02*
X83513090Y-70122150D01*
X102851290Y-94222950D02*
X116850590Y-94222950D01*
X178763090Y-70122150D02*
X164764090Y-70122150D01*
X159126090Y-128242450D02*
X159126090Y-127042180D01*
X88275590Y-75172850D02*
X88275590Y-89172150D01*
X25519890Y-98923350D02*
X24694420Y-98923350D01*
X183526090Y-113272850D02*
X169526090Y-113272850D01*
X107325590Y-89172150D02*
X93326290Y-89172150D01*
X96950390Y-114743150D02*
X96950390Y-117973350D01*
X141800090Y-120772110D02*
X142626090Y-120772110D01*
X38269490Y-113272850D02*
X38269490Y-127272310D01*
X121613090Y-56122850D02*
X121613090Y-70122150D01*
X116850590Y-108222350D02*
X102851290Y-108222350D01*
X101976090Y-128242450D02*
X101976090Y-127042180D01*
X276538800Y-55597500D02*
G75*
G03*
X274538752Y-53597500I-2000000J0D01*
G01*
X126664090Y-56122850D02*
X140663090Y-56122850D01*
X126376090Y-117973350D02*
X126376090Y-113272850D01*
X274013090Y-70122150D02*
X260014090Y-70122150D01*
X193051090Y-108222350D02*
X179051090Y-108222350D01*
X69513790Y-56122850D02*
X83513090Y-56122850D01*
X154100090Y-117973350D02*
X153275090Y-117973350D01*
X101976090Y-127042180D02*
X103700090Y-127042180D01*
X32269490Y-95693150D02*
X25519890Y-95693150D01*
X112376290Y-122573220D02*
X112376290Y-127272310D01*
X47794490Y-108222350D02*
X47794490Y-103523250D01*
X140076090Y-128242450D02*
X140076090Y-127042180D01*
X121901090Y-94222950D02*
X135901090Y-94222950D01*
X257631090Y-108222350D02*
X257631090Y-94222950D01*
X141800090Y-114743150D02*
X135050090Y-114743150D01*
X30544190Y-109192450D02*
X30544190Y-107992150D01*
X254963090Y-56122850D02*
X254963090Y-70122150D01*
X103700090Y-114743150D02*
X96950390Y-114743150D01*
X221914090Y-56122850D02*
X235913090Y-56122850D01*
X64463090Y-56122850D02*
X64463090Y-70122150D01*
X257631090Y-113272850D02*
X271630090Y-113272850D01*
X69225590Y-75172850D02*
X69225590Y-89172150D01*
X231151090Y-94222950D02*
X231151090Y-108222350D01*
X154951090Y-108222350D02*
X140951090Y-108222350D01*
X131426090Y-75172850D02*
X145426090Y-75172850D01*
X216863090Y-70122150D02*
X202864090Y-70122150D01*
X64751290Y-94222950D02*
X78750590Y-94222950D01*
X154100090Y-127042180D02*
X155826090Y-127042180D01*
X85894390Y-127272310D02*
X71895090Y-127272310D01*
X64463090Y-70122150D02*
X50463790Y-70122150D01*
X33794990Y-94222950D02*
X33794990Y-98923350D01*
X50463790Y-56122850D02*
X64463090Y-56122850D01*
X54344290Y-107992150D02*
X56069490Y-107992150D01*
X236201090Y-108222350D02*
X236201090Y-94222950D01*
X160850090Y-114743150D02*
X154100090Y-114743150D01*
X102563090Y-56122850D02*
X102563090Y-70122150D01*
X24270000Y-127272310D02*
X24270000Y-113272850D01*
X54344290Y-109192450D02*
X54344290Y-107992150D01*
X197226090Y-127042180D02*
X198950090Y-127042180D01*
X159713090Y-56122850D02*
X159713090Y-70122150D01*
X24270000Y-113272850D02*
X38269490Y-113272850D01*
X96124890Y-117973350D02*
X96124890Y-120772110D01*
X140951090Y-94222950D02*
X154951090Y-94222950D01*
X169526090Y-117973350D02*
X160850090Y-117973350D01*
X179051090Y-108222350D02*
X179051090Y-94222950D01*
X103700090Y-117973350D02*
X103700090Y-114743150D01*
X32269490Y-98923350D02*
X32269490Y-95693150D01*
X202576090Y-75172850D02*
X202576090Y-89172150D01*
X32269490Y-107992150D02*
X32269490Y-103523250D01*
X135901090Y-94222950D02*
X135901090Y-108222350D01*
X126376090Y-127272310D02*
X126376090Y-122573220D01*
X97800590Y-94222950D02*
X97800590Y-108222350D01*
X51043890Y-107992150D02*
X51043890Y-109192450D01*
X56069490Y-98923350D02*
X56069490Y-95693150D01*
M02*
