G04 #@! TF.GenerationSoftware,KiCad,Pcbnew,7.0.5.1-1-g8f565ef7f0-dirty-deb11*
G04 #@! TF.CreationDate,2023-07-20T20:23:13+00:00*
G04 #@! TF.ProjectId,plate,706c6174-652e-46b6-9963-61645f706362,rev?*
G04 #@! TF.SameCoordinates,Original*
G04 #@! TF.FileFunction,Legend,Bot*
G04 #@! TF.FilePolarity,Positive*
%FSLAX46Y46*%
G04 Gerber Fmt 4.6, Leading zero omitted, Abs format (unit mm)*
G04 Created by KiCad (PCBNEW 7.0.5.1-1-g8f565ef7f0-dirty-deb11) date 2023-07-20 20:23:13*
%MOMM*%
%LPD*%
G01*
G04 APERTURE LIST*
%ADD10C,0.150000*%
%ADD11C,2.200000*%
G04 APERTURE END LIST*
D10*
X252327136Y-74217592D02*
G75*
G03*
X252327136Y-74217592I-194818J0D01*
G01*
X244706521Y-80099338D02*
X244302460Y-79695277D01*
X244302460Y-79695277D02*
X244194710Y-79641402D01*
X244194710Y-79641402D02*
X244086961Y-79641402D01*
X244086961Y-79641402D02*
X243979211Y-79695277D01*
X243979211Y-79695277D02*
X243925336Y-79749152D01*
X244679584Y-78994904D02*
X244410210Y-79264278D01*
X244410210Y-79264278D02*
X244975895Y-79829964D01*
X245245269Y-78536969D02*
X245191394Y-78536969D01*
X245191394Y-78536969D02*
X245083645Y-78590843D01*
X245083645Y-78590843D02*
X245029770Y-78644718D01*
X245029770Y-78644718D02*
X244975895Y-78752468D01*
X244975895Y-78752468D02*
X244975895Y-78860217D01*
X244975895Y-78860217D02*
X245002833Y-78941030D01*
X245002833Y-78941030D02*
X245083645Y-79075717D01*
X245083645Y-79075717D02*
X245164457Y-79156529D01*
X245164457Y-79156529D02*
X245299144Y-79237341D01*
X245299144Y-79237341D02*
X245379956Y-79264278D01*
X245379956Y-79264278D02*
X245487706Y-79264278D01*
X245487706Y-79264278D02*
X245595455Y-79210404D01*
X245595455Y-79210404D02*
X245649330Y-79156529D01*
X245649330Y-79156529D02*
X245703205Y-79048779D01*
X245703205Y-79048779D02*
X245703205Y-78994904D01*
X246161141Y-78644718D02*
X245757080Y-78240657D01*
X245757080Y-78240657D02*
X245649330Y-78186782D01*
X245649330Y-78186782D02*
X245541581Y-78186782D01*
X245541581Y-78186782D02*
X245433831Y-78240657D01*
X245433831Y-78240657D02*
X245379956Y-78294532D01*
X246134204Y-77540285D02*
X245864830Y-77809659D01*
X245864830Y-77809659D02*
X246430515Y-78375344D01*
X246699889Y-77082349D02*
X246646014Y-77082349D01*
X246646014Y-77082349D02*
X246538265Y-77136224D01*
X246538265Y-77136224D02*
X246484390Y-77190098D01*
X246484390Y-77190098D02*
X246430515Y-77297848D01*
X246430515Y-77297848D02*
X246430515Y-77405598D01*
X246430515Y-77405598D02*
X246457452Y-77486410D01*
X246457452Y-77486410D02*
X246538265Y-77621097D01*
X246538265Y-77621097D02*
X246619077Y-77701909D01*
X246619077Y-77701909D02*
X246753764Y-77782721D01*
X246753764Y-77782721D02*
X246834576Y-77809659D01*
X246834576Y-77809659D02*
X246942326Y-77809659D01*
X246942326Y-77809659D02*
X247050075Y-77755784D01*
X247050075Y-77755784D02*
X247103950Y-77701909D01*
X247103950Y-77701909D02*
X247157825Y-77594159D01*
X247157825Y-77594159D02*
X247157825Y-77540285D01*
X247615761Y-77190098D02*
X247211700Y-76786037D01*
X247211700Y-76786037D02*
X247103950Y-76732163D01*
X247103950Y-76732163D02*
X246996200Y-76732163D01*
X246996200Y-76732163D02*
X246888451Y-76786037D01*
X246888451Y-76786037D02*
X246834576Y-76839912D01*
X247588823Y-76085665D02*
X247319449Y-76355039D01*
X247319449Y-76355039D02*
X247885135Y-76920724D01*
X248154509Y-75627729D02*
X248100634Y-75627729D01*
X248100634Y-75627729D02*
X247992884Y-75681604D01*
X247992884Y-75681604D02*
X247939009Y-75735479D01*
X247939009Y-75735479D02*
X247885135Y-75843228D01*
X247885135Y-75843228D02*
X247885135Y-75950978D01*
X247885135Y-75950978D02*
X247912072Y-76031790D01*
X247912072Y-76031790D02*
X247992884Y-76166477D01*
X247992884Y-76166477D02*
X248073696Y-76247289D01*
X248073696Y-76247289D02*
X248208383Y-76328101D01*
X248208383Y-76328101D02*
X248289196Y-76355039D01*
X248289196Y-76355039D02*
X248396945Y-76355039D01*
X248396945Y-76355039D02*
X248504695Y-76301164D01*
X248504695Y-76301164D02*
X248558570Y-76247289D01*
X248558570Y-76247289D02*
X248612444Y-76139540D01*
X248612444Y-76139540D02*
X248612444Y-76085665D01*
X249070380Y-75735479D02*
X248666319Y-75331418D01*
X248666319Y-75331418D02*
X248558570Y-75277543D01*
X248558570Y-75277543D02*
X248450820Y-75277543D01*
X248450820Y-75277543D02*
X248343070Y-75331418D01*
X248343070Y-75331418D02*
X248289196Y-75385292D01*
X249043443Y-74631045D02*
X248774069Y-74900419D01*
X248774069Y-74900419D02*
X249339754Y-75466104D01*
X249609128Y-74173109D02*
X249555254Y-74173109D01*
X249555254Y-74173109D02*
X249447504Y-74226984D01*
X249447504Y-74226984D02*
X249393629Y-74280859D01*
X249393629Y-74280859D02*
X249339754Y-74388608D01*
X249339754Y-74388608D02*
X249339754Y-74496358D01*
X249339754Y-74496358D02*
X249366692Y-74577170D01*
X249366692Y-74577170D02*
X249447504Y-74711857D01*
X249447504Y-74711857D02*
X249528316Y-74792670D01*
X249528316Y-74792670D02*
X249663003Y-74873482D01*
X249663003Y-74873482D02*
X249743815Y-74900419D01*
X249743815Y-74900419D02*
X249851565Y-74900419D01*
X249851565Y-74900419D02*
X249959315Y-74846544D01*
X249959315Y-74846544D02*
X250013189Y-74792670D01*
X250013189Y-74792670D02*
X250067064Y-74684920D01*
X250067064Y-74684920D02*
X250067064Y-74631045D01*
X242703839Y-68266795D02*
X242703839Y-67466795D01*
X242703839Y-67466795D02*
X242513363Y-67466795D01*
X242513363Y-67466795D02*
X242399077Y-67504890D01*
X242399077Y-67504890D02*
X242322887Y-67581080D01*
X242322887Y-67581080D02*
X242284792Y-67657271D01*
X242284792Y-67657271D02*
X242246696Y-67809652D01*
X242246696Y-67809652D02*
X242246696Y-67923938D01*
X242246696Y-67923938D02*
X242284792Y-68076319D01*
X242284792Y-68076319D02*
X242322887Y-68152509D01*
X242322887Y-68152509D02*
X242399077Y-68228700D01*
X242399077Y-68228700D02*
X242513363Y-68266795D01*
X242513363Y-68266795D02*
X242703839Y-68266795D01*
X241637173Y-67847747D02*
X241903839Y-67847747D01*
X241903839Y-68266795D02*
X241903839Y-67466795D01*
X241903839Y-67466795D02*
X241522887Y-67466795D01*
X241218125Y-67466795D02*
X241218125Y-68114414D01*
X241218125Y-68114414D02*
X241180030Y-68190604D01*
X241180030Y-68190604D02*
X241141935Y-68228700D01*
X241141935Y-68228700D02*
X241065744Y-68266795D01*
X241065744Y-68266795D02*
X240913363Y-68266795D01*
X240913363Y-68266795D02*
X240837173Y-68228700D01*
X240837173Y-68228700D02*
X240799078Y-68190604D01*
X240799078Y-68190604D02*
X240760982Y-68114414D01*
X240760982Y-68114414D02*
X240760982Y-67466795D01*
X35589107Y-128818700D02*
X35665298Y-128856795D01*
X35665298Y-128856795D02*
X35817679Y-128856795D01*
X35817679Y-128856795D02*
X35893869Y-128818700D01*
X35893869Y-128818700D02*
X35931964Y-128780604D01*
X35931964Y-128780604D02*
X35970060Y-128704414D01*
X35970060Y-128704414D02*
X35970060Y-128475842D01*
X35970060Y-128475842D02*
X35931964Y-128399652D01*
X35931964Y-128399652D02*
X35893869Y-128361557D01*
X35893869Y-128361557D02*
X35817679Y-128323461D01*
X35817679Y-128323461D02*
X35665298Y-128323461D01*
X35665298Y-128323461D02*
X35589107Y-128361557D01*
X34903393Y-128856795D02*
X34903393Y-128437747D01*
X34903393Y-128437747D02*
X34941488Y-128361557D01*
X34941488Y-128361557D02*
X35017679Y-128323461D01*
X35017679Y-128323461D02*
X35170060Y-128323461D01*
X35170060Y-128323461D02*
X35246250Y-128361557D01*
X34903393Y-128818700D02*
X34979584Y-128856795D01*
X34979584Y-128856795D02*
X35170060Y-128856795D01*
X35170060Y-128856795D02*
X35246250Y-128818700D01*
X35246250Y-128818700D02*
X35284346Y-128742509D01*
X35284346Y-128742509D02*
X35284346Y-128666319D01*
X35284346Y-128666319D02*
X35246250Y-128590128D01*
X35246250Y-128590128D02*
X35170060Y-128552033D01*
X35170060Y-128552033D02*
X34979584Y-128552033D01*
X34979584Y-128552033D02*
X34903393Y-128513938D01*
X34522440Y-128323461D02*
X34522440Y-129123461D01*
X34522440Y-128361557D02*
X34446250Y-128323461D01*
X34446250Y-128323461D02*
X34293869Y-128323461D01*
X34293869Y-128323461D02*
X34217678Y-128361557D01*
X34217678Y-128361557D02*
X34179583Y-128399652D01*
X34179583Y-128399652D02*
X34141488Y-128475842D01*
X34141488Y-128475842D02*
X34141488Y-128704414D01*
X34141488Y-128704414D02*
X34179583Y-128780604D01*
X34179583Y-128780604D02*
X34217678Y-128818700D01*
X34217678Y-128818700D02*
X34293869Y-128856795D01*
X34293869Y-128856795D02*
X34446250Y-128856795D01*
X34446250Y-128856795D02*
X34522440Y-128818700D01*
X33874821Y-128323461D02*
X33684345Y-128856795D01*
X33493868Y-128323461D02*
X33684345Y-128856795D01*
X33684345Y-128856795D02*
X33760535Y-129047271D01*
X33760535Y-129047271D02*
X33798630Y-129085366D01*
X33798630Y-129085366D02*
X33874821Y-129123461D01*
X33189106Y-128856795D02*
X33189106Y-128056795D01*
X33189106Y-128361557D02*
X33112916Y-128323461D01*
X33112916Y-128323461D02*
X32960535Y-128323461D01*
X32960535Y-128323461D02*
X32884344Y-128361557D01*
X32884344Y-128361557D02*
X32846249Y-128399652D01*
X32846249Y-128399652D02*
X32808154Y-128475842D01*
X32808154Y-128475842D02*
X32808154Y-128704414D01*
X32808154Y-128704414D02*
X32846249Y-128780604D01*
X32846249Y-128780604D02*
X32884344Y-128818700D01*
X32884344Y-128818700D02*
X32960535Y-128856795D01*
X32960535Y-128856795D02*
X33112916Y-128856795D01*
X33112916Y-128856795D02*
X33189106Y-128818700D01*
X32122439Y-128323461D02*
X32122439Y-128856795D01*
X32465296Y-128323461D02*
X32465296Y-128742509D01*
X32465296Y-128742509D02*
X32427201Y-128818700D01*
X32427201Y-128818700D02*
X32351011Y-128856795D01*
X32351011Y-128856795D02*
X32236725Y-128856795D01*
X32236725Y-128856795D02*
X32160534Y-128818700D01*
X32160534Y-128818700D02*
X32122439Y-128780604D01*
X31627201Y-128856795D02*
X31703391Y-128818700D01*
X31703391Y-128818700D02*
X31741486Y-128742509D01*
X31741486Y-128742509D02*
X31741486Y-128056795D01*
X31208153Y-128856795D02*
X31284343Y-128818700D01*
X31284343Y-128818700D02*
X31322438Y-128742509D01*
X31322438Y-128742509D02*
X31322438Y-128056795D01*
X30979581Y-128323461D02*
X30789105Y-128856795D01*
X30598628Y-128323461D02*
X30789105Y-128856795D01*
X30789105Y-128856795D02*
X30865295Y-129047271D01*
X30865295Y-129047271D02*
X30903390Y-129085366D01*
X30903390Y-129085366D02*
X30979581Y-129123461D01*
X29760533Y-128323461D02*
X29570057Y-128856795D01*
X29570057Y-128856795D02*
X29379580Y-128323461D01*
X28922437Y-128056795D02*
X28846247Y-128056795D01*
X28846247Y-128056795D02*
X28770056Y-128094890D01*
X28770056Y-128094890D02*
X28731961Y-128132985D01*
X28731961Y-128132985D02*
X28693866Y-128209176D01*
X28693866Y-128209176D02*
X28655771Y-128361557D01*
X28655771Y-128361557D02*
X28655771Y-128552033D01*
X28655771Y-128552033D02*
X28693866Y-128704414D01*
X28693866Y-128704414D02*
X28731961Y-128780604D01*
X28731961Y-128780604D02*
X28770056Y-128818700D01*
X28770056Y-128818700D02*
X28846247Y-128856795D01*
X28846247Y-128856795D02*
X28922437Y-128856795D01*
X28922437Y-128856795D02*
X28998628Y-128818700D01*
X28998628Y-128818700D02*
X29036723Y-128780604D01*
X29036723Y-128780604D02*
X29074818Y-128704414D01*
X29074818Y-128704414D02*
X29112914Y-128552033D01*
X29112914Y-128552033D02*
X29112914Y-128361557D01*
X29112914Y-128361557D02*
X29074818Y-128209176D01*
X29074818Y-128209176D02*
X29036723Y-128132985D01*
X29036723Y-128132985D02*
X28998628Y-128094890D01*
X28998628Y-128094890D02*
X28922437Y-128056795D01*
X28312913Y-128780604D02*
X28274818Y-128818700D01*
X28274818Y-128818700D02*
X28312913Y-128856795D01*
X28312913Y-128856795D02*
X28351009Y-128818700D01*
X28351009Y-128818700D02*
X28312913Y-128780604D01*
X28312913Y-128780604D02*
X28312913Y-128856795D01*
X27512914Y-128856795D02*
X27970057Y-128856795D01*
X27741485Y-128856795D02*
X27741485Y-128056795D01*
X27741485Y-128056795D02*
X27817676Y-128171080D01*
X27817676Y-128171080D02*
X27893866Y-128247271D01*
X27893866Y-128247271D02*
X27970057Y-128285366D01*
X26560532Y-128856795D02*
X26560532Y-128056795D01*
X26560532Y-128361557D02*
X26484342Y-128323461D01*
X26484342Y-128323461D02*
X26331961Y-128323461D01*
X26331961Y-128323461D02*
X26255770Y-128361557D01*
X26255770Y-128361557D02*
X26217675Y-128399652D01*
X26217675Y-128399652D02*
X26179580Y-128475842D01*
X26179580Y-128475842D02*
X26179580Y-128704414D01*
X26179580Y-128704414D02*
X26217675Y-128780604D01*
X26217675Y-128780604D02*
X26255770Y-128818700D01*
X26255770Y-128818700D02*
X26331961Y-128856795D01*
X26331961Y-128856795D02*
X26484342Y-128856795D01*
X26484342Y-128856795D02*
X26560532Y-128818700D01*
X25912913Y-128323461D02*
X25722437Y-128856795D01*
X25531960Y-128323461D02*
X25722437Y-128856795D01*
X25722437Y-128856795D02*
X25798627Y-129047271D01*
X25798627Y-129047271D02*
X25836722Y-129085366D01*
X25836722Y-129085366D02*
X25912913Y-129123461D01*
X24655770Y-128818700D02*
X24579579Y-128856795D01*
X24579579Y-128856795D02*
X24427198Y-128856795D01*
X24427198Y-128856795D02*
X24351008Y-128818700D01*
X24351008Y-128818700D02*
X24312912Y-128742509D01*
X24312912Y-128742509D02*
X24312912Y-128704414D01*
X24312912Y-128704414D02*
X24351008Y-128628223D01*
X24351008Y-128628223D02*
X24427198Y-128590128D01*
X24427198Y-128590128D02*
X24541484Y-128590128D01*
X24541484Y-128590128D02*
X24617674Y-128552033D01*
X24617674Y-128552033D02*
X24655770Y-128475842D01*
X24655770Y-128475842D02*
X24655770Y-128437747D01*
X24655770Y-128437747D02*
X24617674Y-128361557D01*
X24617674Y-128361557D02*
X24541484Y-128323461D01*
X24541484Y-128323461D02*
X24427198Y-128323461D01*
X24427198Y-128323461D02*
X24351008Y-128361557D01*
X23970055Y-128323461D02*
X23970055Y-129123461D01*
X23970055Y-128361557D02*
X23893865Y-128323461D01*
X23893865Y-128323461D02*
X23741484Y-128323461D01*
X23741484Y-128323461D02*
X23665293Y-128361557D01*
X23665293Y-128361557D02*
X23627198Y-128399652D01*
X23627198Y-128399652D02*
X23589103Y-128475842D01*
X23589103Y-128475842D02*
X23589103Y-128704414D01*
X23589103Y-128704414D02*
X23627198Y-128780604D01*
X23627198Y-128780604D02*
X23665293Y-128818700D01*
X23665293Y-128818700D02*
X23741484Y-128856795D01*
X23741484Y-128856795D02*
X23893865Y-128856795D01*
X23893865Y-128856795D02*
X23970055Y-128818700D01*
X23131960Y-128856795D02*
X23208150Y-128818700D01*
X23208150Y-128818700D02*
X23246245Y-128780604D01*
X23246245Y-128780604D02*
X23284341Y-128704414D01*
X23284341Y-128704414D02*
X23284341Y-128475842D01*
X23284341Y-128475842D02*
X23246245Y-128399652D01*
X23246245Y-128399652D02*
X23208150Y-128361557D01*
X23208150Y-128361557D02*
X23131960Y-128323461D01*
X23131960Y-128323461D02*
X23017674Y-128323461D01*
X23017674Y-128323461D02*
X22941483Y-128361557D01*
X22941483Y-128361557D02*
X22903388Y-128399652D01*
X22903388Y-128399652D02*
X22865293Y-128475842D01*
X22865293Y-128475842D02*
X22865293Y-128704414D01*
X22865293Y-128704414D02*
X22903388Y-128780604D01*
X22903388Y-128780604D02*
X22941483Y-128818700D01*
X22941483Y-128818700D02*
X23017674Y-128856795D01*
X23017674Y-128856795D02*
X23131960Y-128856795D01*
X22522435Y-128856795D02*
X22522435Y-128323461D01*
X22522435Y-128475842D02*
X22484340Y-128399652D01*
X22484340Y-128399652D02*
X22446245Y-128361557D01*
X22446245Y-128361557D02*
X22370054Y-128323461D01*
X22370054Y-128323461D02*
X22293864Y-128323461D01*
X22027197Y-128856795D02*
X22027197Y-128056795D01*
X21951007Y-128552033D02*
X21722435Y-128856795D01*
X21722435Y-128323461D02*
X22027197Y-128628223D01*
X21036721Y-128323461D02*
X21036721Y-128856795D01*
X21379578Y-128323461D02*
X21379578Y-128742509D01*
X21379578Y-128742509D02*
X21341483Y-128818700D01*
X21341483Y-128818700D02*
X21265293Y-128856795D01*
X21265293Y-128856795D02*
X21151007Y-128856795D01*
X21151007Y-128856795D02*
X21074816Y-128818700D01*
X21074816Y-128818700D02*
X21036721Y-128780604D01*
X20693864Y-128818700D02*
X20617673Y-128856795D01*
X20617673Y-128856795D02*
X20465292Y-128856795D01*
X20465292Y-128856795D02*
X20389102Y-128818700D01*
X20389102Y-128818700D02*
X20351006Y-128742509D01*
X20351006Y-128742509D02*
X20351006Y-128704414D01*
X20351006Y-128704414D02*
X20389102Y-128628223D01*
X20389102Y-128628223D02*
X20465292Y-128590128D01*
X20465292Y-128590128D02*
X20579578Y-128590128D01*
X20579578Y-128590128D02*
X20655768Y-128552033D01*
X20655768Y-128552033D02*
X20693864Y-128475842D01*
X20693864Y-128475842D02*
X20693864Y-128437747D01*
X20693864Y-128437747D02*
X20655768Y-128361557D01*
X20655768Y-128361557D02*
X20579578Y-128323461D01*
X20579578Y-128323461D02*
X20465292Y-128323461D01*
X20465292Y-128323461D02*
X20389102Y-128361557D01*
%LPC*%
D11*
X224151250Y-82172500D03*
X44366875Y-120272500D03*
X21670000Y-101222500D03*
X48745000Y-82172500D03*
X90801250Y-82172500D03*
X233676250Y-101222500D03*
X45557500Y-63122500D03*
X145758625Y-120272149D03*
X86038750Y-63122500D03*
X238438750Y-63122500D03*
X162238750Y-63122500D03*
X200338750Y-63122500D03*
X251535625Y-120272500D03*
X119376250Y-101222500D03*
X147976250Y-82172500D03*
X214626250Y-101222500D03*
X186051250Y-82172500D03*
X187430500Y-120272500D03*
X124138750Y-63122500D03*
X62226250Y-101222500D03*
X157476250Y-101222500D03*
X269395000Y-82172500D03*
%LPD*%
M02*
