G04 #@! TF.GenerationSoftware,KiCad,Pcbnew,7.0.5.1-1-g8f565ef7f0-dirty-deb11*
G04 #@! TF.CreationDate,2023-07-20T20:23:13+00:00*
G04 #@! TF.ProjectId,plate,706c6174-652e-46b6-9963-61645f706362,rev?*
G04 #@! TF.SameCoordinates,Original*
G04 #@! TF.FileFunction,Profile,NP*
%FSLAX46Y46*%
G04 Gerber Fmt 4.6, Leading zero omitted, Abs format (unit mm)*
G04 Created by KiCad (PCBNEW 7.0.5.1-1-g8f565ef7f0-dirty-deb11) date 2023-07-20 20:23:13*
%MOMM*%
%LPD*%
G01*
G04 APERTURE LIST*
G04 #@! TA.AperFunction,Profile*
%ADD10C,0.100000*%
G04 #@! TD*
G04 APERTURE END LIST*
D10*
X21363751Y-53597501D02*
G75*
G03*
X19363751Y-55597500I-1J-1999999D01*
G01*
X19363750Y-127797500D02*
X19363750Y-55597500D01*
X276538750Y-55597500D02*
X276538750Y-127797500D01*
X274538750Y-129797450D02*
G75*
G03*
X276538750Y-127797500I50J1999950D01*
G01*
X19363750Y-127797500D02*
G75*
G03*
X21363749Y-129797500I2000000J0D01*
G01*
X274538752Y-53597500D02*
X21363751Y-53597500D01*
X21363749Y-129797500D02*
X274538750Y-129797500D01*
X276538800Y-55597500D02*
G75*
G03*
X274538752Y-53597500I-2000000J0D01*
G01*
X93326250Y-88172500D02*
X93326250Y-76172500D01*
X94326250Y-75172500D02*
X106326250Y-75172500D01*
X106326250Y-89172500D02*
X94326250Y-89172500D01*
X107326250Y-76172500D02*
X107326250Y-88172500D01*
X94326250Y-75172500D02*
G75*
G03*
X93326250Y-76172500I-1J-999999D01*
G01*
X93326250Y-88172500D02*
G75*
G03*
X94326250Y-89172500I999999J-1D01*
G01*
X107326250Y-76172500D02*
G75*
G03*
X106326250Y-75172500I-1000000J0D01*
G01*
X106326250Y-89172500D02*
G75*
G03*
X107326250Y-88172500I0J1000000D01*
G01*
X131426250Y-88172500D02*
X131426250Y-76172500D01*
X132426250Y-75172500D02*
X144426250Y-75172500D01*
X144426250Y-89172500D02*
X132426250Y-89172500D01*
X145426250Y-76172500D02*
X145426250Y-88172500D01*
X132426250Y-75172500D02*
G75*
G03*
X131426250Y-76172500I-1J-999999D01*
G01*
X131426250Y-88172500D02*
G75*
G03*
X132426250Y-89172500I999999J-1D01*
G01*
X145426250Y-76172500D02*
G75*
G03*
X144426250Y-75172500I-1000000J0D01*
G01*
X144426250Y-89172500D02*
G75*
G03*
X145426250Y-88172500I0J1000000D01*
G01*
X74276250Y-88172500D02*
X74276250Y-76172500D01*
X75276250Y-75172500D02*
X87276250Y-75172500D01*
X87276250Y-89172500D02*
X75276250Y-89172500D01*
X88276250Y-76172500D02*
X88276250Y-88172500D01*
X75276250Y-75172500D02*
G75*
G03*
X74276250Y-76172500I-1J-999999D01*
G01*
X74276250Y-88172500D02*
G75*
G03*
X75276250Y-89172500I999999J-1D01*
G01*
X88276250Y-76172500D02*
G75*
G03*
X87276250Y-75172500I-1000000J0D01*
G01*
X87276250Y-89172500D02*
G75*
G03*
X88276250Y-88172500I0J1000000D01*
G01*
X254963750Y-57122500D02*
X254963750Y-69122500D01*
X253963750Y-70122500D02*
X241963750Y-70122500D01*
X241963750Y-56122500D02*
X253963750Y-56122500D01*
X240963750Y-69122500D02*
X240963750Y-57122500D01*
X253963750Y-70122500D02*
G75*
G03*
X254963750Y-69122500I1J999999D01*
G01*
X254963750Y-57122500D02*
G75*
G03*
X253963750Y-56122500I-999999J1D01*
G01*
X240963750Y-69122500D02*
G75*
G03*
X241963750Y-70122500I1000000J0D01*
G01*
X241963750Y-56122500D02*
G75*
G03*
X240963750Y-57122500I0J-1000000D01*
G01*
X88563750Y-69122500D02*
X88563750Y-57122500D01*
X89563750Y-56122500D02*
X101563750Y-56122500D01*
X101563750Y-70122500D02*
X89563750Y-70122500D01*
X102563750Y-57122500D02*
X102563750Y-69122500D01*
X89563750Y-56122500D02*
G75*
G03*
X88563750Y-57122500I-1J-999999D01*
G01*
X88563750Y-69122500D02*
G75*
G03*
X89563750Y-70122500I999999J-1D01*
G01*
X102563750Y-57122500D02*
G75*
G03*
X101563750Y-56122500I-1000000J0D01*
G01*
X101563750Y-70122500D02*
G75*
G03*
X102563750Y-69122500I0J1000000D01*
G01*
X102851250Y-107222500D02*
X102851250Y-95222500D01*
X103851250Y-94222500D02*
X115851250Y-94222500D01*
X115851250Y-108222500D02*
X103851250Y-108222500D01*
X116851250Y-95222500D02*
X116851250Y-107222500D01*
X103851250Y-94222500D02*
G75*
G03*
X102851250Y-95222500I-1J-999999D01*
G01*
X102851250Y-107222500D02*
G75*
G03*
X103851250Y-108222500I999999J-1D01*
G01*
X116851250Y-95222500D02*
G75*
G03*
X115851250Y-94222500I-1000000J0D01*
G01*
X115851250Y-108222500D02*
G75*
G03*
X116851250Y-107222500I0J1000000D01*
G01*
X112376250Y-88172500D02*
X112376250Y-76172500D01*
X113376250Y-75172500D02*
X125376250Y-75172500D01*
X125376250Y-89172500D02*
X113376250Y-89172500D01*
X126376250Y-76172500D02*
X126376250Y-88172500D01*
X113376250Y-75172500D02*
G75*
G03*
X112376250Y-76172500I-1J-999999D01*
G01*
X112376250Y-88172500D02*
G75*
G03*
X113376250Y-89172500I999999J-1D01*
G01*
X126376250Y-76172500D02*
G75*
G03*
X125376250Y-75172500I-1000000J0D01*
G01*
X125376250Y-89172500D02*
G75*
G03*
X126376250Y-88172500I0J1000000D01*
G01*
X62082500Y-114272500D02*
X62082500Y-126272500D01*
X61082500Y-127272500D02*
X49082500Y-127272500D01*
X49082500Y-113272500D02*
X61082500Y-113272500D01*
X48082500Y-126272500D02*
X48082500Y-114272500D01*
X61082500Y-127272500D02*
G75*
G03*
X62082500Y-126272500I1J999999D01*
G01*
X62082500Y-114272500D02*
G75*
G03*
X61082500Y-113272500I-999999J1D01*
G01*
X48082500Y-126272500D02*
G75*
G03*
X49082500Y-127272500I1000000J0D01*
G01*
X49082500Y-113272500D02*
G75*
G03*
X48082500Y-114272500I0J-1000000D01*
G01*
X55226250Y-88172500D02*
X55226250Y-76172500D01*
X56226250Y-75172500D02*
X68226250Y-75172500D01*
X68226250Y-89172500D02*
X56226250Y-89172500D01*
X69226250Y-76172500D02*
X69226250Y-88172500D01*
X56226250Y-75172500D02*
G75*
G03*
X55226250Y-76172500I-1J-999999D01*
G01*
X55226250Y-88172500D02*
G75*
G03*
X56226250Y-89172500I999999J-1D01*
G01*
X69226250Y-76172500D02*
G75*
G03*
X68226250Y-75172500I-1000000J0D01*
G01*
X68226250Y-89172500D02*
G75*
G03*
X69226250Y-88172500I0J1000000D01*
G01*
X150476320Y-126272149D02*
X150476320Y-114272149D01*
X151476320Y-113272149D02*
X163476320Y-113272149D01*
X163476320Y-127272149D02*
X151476320Y-127272149D01*
X164476320Y-114272149D02*
X164476320Y-126272149D01*
X151476320Y-113272149D02*
G75*
G03*
X150476320Y-114272149I-1J-999999D01*
G01*
X150476320Y-126272149D02*
G75*
G03*
X151476320Y-127272149I999999J-1D01*
G01*
X164476320Y-114272149D02*
G75*
G03*
X163476320Y-113272149I-1000000J0D01*
G01*
X163476320Y-127272149D02*
G75*
G03*
X164476320Y-126272149I0J1000000D01*
G01*
X198101250Y-107222500D02*
X198101250Y-95222500D01*
X199101250Y-94222500D02*
X211101250Y-94222500D01*
X211101250Y-108222500D02*
X199101250Y-108222500D01*
X212101250Y-95222500D02*
X212101250Y-107222500D01*
X199101250Y-94222500D02*
G75*
G03*
X198101250Y-95222500I-1J-999999D01*
G01*
X198101250Y-107222500D02*
G75*
G03*
X199101250Y-108222500I999999J-1D01*
G01*
X212101250Y-95222500D02*
G75*
G03*
X211101250Y-94222500I-1000000J0D01*
G01*
X211101250Y-108222500D02*
G75*
G03*
X212101250Y-107222500I0J1000000D01*
G01*
X83801250Y-107222500D02*
X83801250Y-95222500D01*
X84801250Y-94222500D02*
X96801250Y-94222500D01*
X96801250Y-108222500D02*
X84801250Y-108222500D01*
X97801250Y-95222500D02*
X97801250Y-107222500D01*
X84801250Y-94222500D02*
G75*
G03*
X83801250Y-95222500I-1J-999999D01*
G01*
X83801250Y-107222500D02*
G75*
G03*
X84801250Y-108222500I999999J-1D01*
G01*
X97801250Y-95222500D02*
G75*
G03*
X96801250Y-94222500I-1000000J0D01*
G01*
X96801250Y-108222500D02*
G75*
G03*
X97801250Y-107222500I0J1000000D01*
G01*
X24270000Y-126272500D02*
X24270000Y-114272500D01*
X25270000Y-113272500D02*
X37270000Y-113272500D01*
X37270000Y-127272500D02*
X25270000Y-127272500D01*
X38270000Y-114272500D02*
X38270000Y-126272500D01*
X25270000Y-113272500D02*
G75*
G03*
X24270000Y-114272500I-1J-999999D01*
G01*
X24270000Y-126272500D02*
G75*
G03*
X25270000Y-127272500I999999J-1D01*
G01*
X38270000Y-114272500D02*
G75*
G03*
X37270000Y-113272500I-1000000J0D01*
G01*
X37270000Y-127272500D02*
G75*
G03*
X38270000Y-126272500I0J1000000D01*
G01*
X128757500Y-114272500D02*
X128757500Y-126272500D01*
X127757500Y-127272500D02*
X115757500Y-127272500D01*
X115757500Y-113272500D02*
X127757500Y-113272500D01*
X114757500Y-126272500D02*
X114757500Y-114272500D01*
X127757500Y-127272500D02*
G75*
G03*
X128757500Y-126272500I1J999999D01*
G01*
X128757500Y-114272500D02*
G75*
G03*
X127757500Y-113272500I-999999J1D01*
G01*
X114757500Y-126272500D02*
G75*
G03*
X115757500Y-127272500I1000000J0D01*
G01*
X115757500Y-113272500D02*
G75*
G03*
X114757500Y-114272500I0J-1000000D01*
G01*
X121901250Y-107222500D02*
X121901250Y-95222500D01*
X122901250Y-94222500D02*
X134901250Y-94222500D01*
X134901250Y-108222500D02*
X122901250Y-108222500D01*
X135901250Y-95222500D02*
X135901250Y-107222500D01*
X122901250Y-94222500D02*
G75*
G03*
X121901250Y-95222500I-1J-999999D01*
G01*
X121901250Y-107222500D02*
G75*
G03*
X122901250Y-108222500I999999J-1D01*
G01*
X135901250Y-95222500D02*
G75*
G03*
X134901250Y-94222500I-1000000J0D01*
G01*
X134901250Y-108222500D02*
G75*
G03*
X135901250Y-107222500I0J1000000D01*
G01*
X107613750Y-69122500D02*
X107613750Y-57122500D01*
X108613750Y-56122500D02*
X120613750Y-56122500D01*
X120613750Y-70122500D02*
X108613750Y-70122500D01*
X121613750Y-57122500D02*
X121613750Y-69122500D01*
X108613750Y-56122500D02*
G75*
G03*
X107613750Y-57122500I-1J-999999D01*
G01*
X107613750Y-69122500D02*
G75*
G03*
X108613750Y-70122500I999999J-1D01*
G01*
X121613750Y-57122500D02*
G75*
G03*
X120613750Y-56122500I-1000000J0D01*
G01*
X120613750Y-70122500D02*
G75*
G03*
X121613750Y-69122500I0J1000000D01*
G01*
X202863750Y-69122500D02*
X202863750Y-57122500D01*
X203863750Y-56122500D02*
X215863750Y-56122500D01*
X215863750Y-70122500D02*
X203863750Y-70122500D01*
X216863750Y-57122500D02*
X216863750Y-69122500D01*
X203863750Y-56122500D02*
G75*
G03*
X202863750Y-57122500I-1J-999999D01*
G01*
X202863750Y-69122500D02*
G75*
G03*
X203863750Y-70122500I999999J-1D01*
G01*
X216863750Y-57122500D02*
G75*
G03*
X215863750Y-56122500I-1000000J0D01*
G01*
X215863750Y-70122500D02*
G75*
G03*
X216863750Y-69122500I0J1000000D01*
G01*
X69513750Y-69122500D02*
X69513750Y-57122500D01*
X70513750Y-56122500D02*
X82513750Y-56122500D01*
X82513750Y-70122500D02*
X70513750Y-70122500D01*
X83513750Y-57122500D02*
X83513750Y-69122500D01*
X70513750Y-56122500D02*
G75*
G03*
X69513750Y-57122500I-1J-999999D01*
G01*
X69513750Y-69122500D02*
G75*
G03*
X70513750Y-70122500I999999J-1D01*
G01*
X83513750Y-57122500D02*
G75*
G03*
X82513750Y-56122500I-1000000J0D01*
G01*
X82513750Y-70122500D02*
G75*
G03*
X83513750Y-69122500I0J1000000D01*
G01*
X145713750Y-69122500D02*
X145713750Y-57122500D01*
X146713750Y-56122500D02*
X158713750Y-56122500D01*
X158713750Y-70122500D02*
X146713750Y-70122500D01*
X159713750Y-57122500D02*
X159713750Y-69122500D01*
X146713750Y-56122500D02*
G75*
G03*
X145713750Y-57122500I-1J-999999D01*
G01*
X145713750Y-69122500D02*
G75*
G03*
X146713750Y-70122500I999999J-1D01*
G01*
X159713750Y-57122500D02*
G75*
G03*
X158713750Y-56122500I-1000000J0D01*
G01*
X158713750Y-70122500D02*
G75*
G03*
X159713750Y-69122500I0J1000000D01*
G01*
X188576250Y-88172500D02*
X188576250Y-76172500D01*
X189576250Y-75172500D02*
X201576250Y-75172500D01*
X201576250Y-89172500D02*
X189576250Y-89172500D01*
X202576250Y-76172500D02*
X202576250Y-88172500D01*
X189576250Y-75172500D02*
G75*
G03*
X188576250Y-76172500I-1J-999999D01*
G01*
X188576250Y-88172500D02*
G75*
G03*
X189576250Y-89172500I999999J-1D01*
G01*
X202576250Y-76172500D02*
G75*
G03*
X201576250Y-75172500I-1000000J0D01*
G01*
X201576250Y-89172500D02*
G75*
G03*
X202576250Y-88172500I0J1000000D01*
G01*
X236201250Y-107222500D02*
X236201250Y-95222500D01*
X237201250Y-94222500D02*
X249201250Y-94222500D01*
X249201250Y-108222500D02*
X237201250Y-108222500D01*
X250201250Y-95222500D02*
X250201250Y-107222500D01*
X237201250Y-94222500D02*
G75*
G03*
X236201250Y-95222500I-1J-999999D01*
G01*
X236201250Y-107222500D02*
G75*
G03*
X237201250Y-108222500I999999J-1D01*
G01*
X250201250Y-95222500D02*
G75*
G03*
X249201250Y-94222500I-1000000J0D01*
G01*
X249201250Y-108222500D02*
G75*
G03*
X250201250Y-107222500I0J1000000D01*
G01*
X221913750Y-69122500D02*
X221913750Y-57122500D01*
X222913750Y-56122500D02*
X234913750Y-56122500D01*
X234913750Y-70122500D02*
X222913750Y-70122500D01*
X235913750Y-57122500D02*
X235913750Y-69122500D01*
X222913750Y-56122500D02*
G75*
G03*
X221913750Y-57122500I-1J-999999D01*
G01*
X221913750Y-69122500D02*
G75*
G03*
X222913750Y-70122500I999999J-1D01*
G01*
X235913750Y-57122500D02*
G75*
G03*
X234913750Y-56122500I-1000000J0D01*
G01*
X234913750Y-70122500D02*
G75*
G03*
X235913750Y-69122500I0J1000000D01*
G01*
X257632500Y-107222500D02*
X257632500Y-95222500D01*
X258632500Y-94222500D02*
X270632500Y-94222500D01*
X270632500Y-108222500D02*
X258632500Y-108222500D01*
X271632500Y-95222500D02*
X271632500Y-107222500D01*
X258632500Y-94222500D02*
G75*
G03*
X257632500Y-95222500I-1J-999999D01*
G01*
X257632500Y-107222500D02*
G75*
G03*
X258632500Y-108222500I999999J-1D01*
G01*
X271632500Y-95222500D02*
G75*
G03*
X270632500Y-94222500I-1000000J0D01*
G01*
X270632500Y-108222500D02*
G75*
G03*
X271632500Y-107222500I0J1000000D01*
G01*
X233816221Y-126270578D02*
X233816221Y-114270578D01*
X234816221Y-113270578D02*
X246816221Y-113270578D01*
X246816221Y-127270578D02*
X234816221Y-127270578D01*
X247816221Y-114270578D02*
X247816221Y-126270578D01*
X234816221Y-113270578D02*
G75*
G03*
X233816221Y-114270578I-1J-999999D01*
G01*
X233816221Y-126270578D02*
G75*
G03*
X234816221Y-127270578I999999J-1D01*
G01*
X247816221Y-114270578D02*
G75*
G03*
X246816221Y-113270578I-1000000J0D01*
G01*
X246816221Y-127270578D02*
G75*
G03*
X247816221Y-126270578I0J1000000D01*
G01*
X140951250Y-107222500D02*
X140951250Y-95222500D01*
X141951250Y-94222500D02*
X153951250Y-94222500D01*
X153951250Y-108222500D02*
X141951250Y-108222500D01*
X154951250Y-95222500D02*
X154951250Y-107222500D01*
X141951250Y-94222500D02*
G75*
G03*
X140951250Y-95222500I-1J-999999D01*
G01*
X140951250Y-107222500D02*
G75*
G03*
X141951250Y-108222500I999999J-1D01*
G01*
X154951250Y-95222500D02*
G75*
G03*
X153951250Y-94222500I-1000000J0D01*
G01*
X153951250Y-108222500D02*
G75*
G03*
X154951250Y-107222500I0J1000000D01*
G01*
X29032500Y-88172500D02*
X29032500Y-76172500D01*
X30032500Y-75172500D02*
X42032500Y-75172500D01*
X42032500Y-89172500D02*
X30032500Y-89172500D01*
X43032500Y-76172500D02*
X43032500Y-88172500D01*
X30032500Y-75172500D02*
G75*
G03*
X29032500Y-76172500I-1J-999999D01*
G01*
X29032500Y-88172500D02*
G75*
G03*
X30032500Y-89172500I999999J-1D01*
G01*
X43032500Y-76172500D02*
G75*
G03*
X42032500Y-75172500I-1000000J0D01*
G01*
X42032500Y-89172500D02*
G75*
G03*
X43032500Y-88172500I0J1000000D01*
G01*
X126663750Y-69122500D02*
X126663750Y-57122500D01*
X127663750Y-56122500D02*
X139663750Y-56122500D01*
X139663750Y-70122500D02*
X127663750Y-70122500D01*
X140663750Y-57122500D02*
X140663750Y-69122500D01*
X127663750Y-56122500D02*
G75*
G03*
X126663750Y-57122500I-1J-999999D01*
G01*
X126663750Y-69122500D02*
G75*
G03*
X127663750Y-70122500I999999J-1D01*
G01*
X140663750Y-57122500D02*
G75*
G03*
X139663750Y-56122500I-1000000J0D01*
G01*
X139663750Y-70122500D02*
G75*
G03*
X140663750Y-69122500I0J1000000D01*
G01*
X160001250Y-107222500D02*
X160001250Y-95222500D01*
X161001250Y-94222500D02*
X173001250Y-94222500D01*
X173001250Y-108222500D02*
X161001250Y-108222500D01*
X174001250Y-95222500D02*
X174001250Y-107222500D01*
X161001250Y-94222500D02*
G75*
G03*
X160001250Y-95222500I-1J-999999D01*
G01*
X160001250Y-107222500D02*
G75*
G03*
X161001250Y-108222500I999999J-1D01*
G01*
X174001250Y-95222500D02*
G75*
G03*
X173001250Y-94222500I-1000000J0D01*
G01*
X173001250Y-108222500D02*
G75*
G03*
X174001250Y-107222500I0J1000000D01*
G01*
X150476250Y-88172500D02*
X150476250Y-76172500D01*
X151476250Y-75172500D02*
X163476250Y-75172500D01*
X163476250Y-89172500D02*
X151476250Y-89172500D01*
X164476250Y-76172500D02*
X164476250Y-88172500D01*
X151476250Y-75172500D02*
G75*
G03*
X150476250Y-76172500I-1J-999999D01*
G01*
X150476250Y-88172500D02*
G75*
G03*
X151476250Y-89172500I999999J-1D01*
G01*
X164476250Y-76172500D02*
G75*
G03*
X163476250Y-75172500I-1000000J0D01*
G01*
X163476250Y-89172500D02*
G75*
G03*
X164476250Y-88172500I0J1000000D01*
G01*
X217151250Y-107222500D02*
X217151250Y-95222500D01*
X218151250Y-94222500D02*
X230151250Y-94222500D01*
X230151250Y-108222500D02*
X218151250Y-108222500D01*
X231151250Y-95222500D02*
X231151250Y-107222500D01*
X218151250Y-94222500D02*
G75*
G03*
X217151250Y-95222500I-1J-999999D01*
G01*
X217151250Y-107222500D02*
G75*
G03*
X218151250Y-108222500I999999J-1D01*
G01*
X231151250Y-95222500D02*
G75*
G03*
X230151250Y-94222500I-1000000J0D01*
G01*
X230151250Y-108222500D02*
G75*
G03*
X231151250Y-107222500I0J1000000D01*
G01*
X169714477Y-126272500D02*
X169714477Y-114272500D01*
X170714477Y-113272500D02*
X182714477Y-113272500D01*
X182714477Y-127272500D02*
X170714477Y-127272500D01*
X183714477Y-114272500D02*
X183714477Y-126272500D01*
X170714477Y-113272500D02*
G75*
G03*
X169714477Y-114272500I-1J-999999D01*
G01*
X169714477Y-126272500D02*
G75*
G03*
X170714477Y-127272500I999999J-1D01*
G01*
X183714477Y-114272500D02*
G75*
G03*
X182714477Y-113272500I-1000000J0D01*
G01*
X182714477Y-127272500D02*
G75*
G03*
X183714477Y-126272500I0J1000000D01*
G01*
X252870000Y-88172500D02*
X252870000Y-76172500D01*
X253870000Y-75172500D02*
X265870000Y-75172500D01*
X265870000Y-89172500D02*
X253870000Y-89172500D01*
X266870000Y-76172500D02*
X266870000Y-88172500D01*
X253870000Y-75172500D02*
G75*
G03*
X252870000Y-76172500I-1J-999999D01*
G01*
X252870000Y-88172500D02*
G75*
G03*
X253870000Y-89172500I999999J-1D01*
G01*
X266870000Y-76172500D02*
G75*
G03*
X265870000Y-75172500I-1000000J0D01*
G01*
X265870000Y-89172500D02*
G75*
G03*
X266870000Y-88172500I0J1000000D01*
G01*
X64751250Y-107222500D02*
X64751250Y-95222500D01*
X65751250Y-94222500D02*
X77751250Y-94222500D01*
X77751250Y-108222500D02*
X65751250Y-108222500D01*
X78751250Y-95222500D02*
X78751250Y-107222500D01*
X65751250Y-94222500D02*
G75*
G03*
X64751250Y-95222500I-1J-999999D01*
G01*
X64751250Y-107222500D02*
G75*
G03*
X65751250Y-108222500I999999J-1D01*
G01*
X78751250Y-95222500D02*
G75*
G03*
X77751250Y-94222500I-1000000J0D01*
G01*
X77751250Y-108222500D02*
G75*
G03*
X78751250Y-107222500I0J1000000D01*
G01*
X271632500Y-114272500D02*
X271632500Y-126272500D01*
X270632500Y-127272500D02*
X258632500Y-127272500D01*
X258632500Y-113272500D02*
X270632500Y-113272500D01*
X257632500Y-126272500D02*
X257632500Y-114272500D01*
X270632500Y-127272500D02*
G75*
G03*
X271632500Y-126272500I1J999999D01*
G01*
X271632500Y-114272500D02*
G75*
G03*
X270632500Y-113272500I-999999J1D01*
G01*
X257632500Y-126272500D02*
G75*
G03*
X258632500Y-127272500I1000000J0D01*
G01*
X258632500Y-113272500D02*
G75*
G03*
X257632500Y-114272500I0J-1000000D01*
G01*
X210006704Y-126272500D02*
X210006704Y-114272500D01*
X211006704Y-113272500D02*
X223006704Y-113272500D01*
X223006704Y-127272500D02*
X211006704Y-127272500D01*
X224006704Y-114272500D02*
X224006704Y-126272500D01*
X211006704Y-113272500D02*
G75*
G03*
X210006704Y-114272500I-1J-999999D01*
G01*
X210006704Y-126272500D02*
G75*
G03*
X211006704Y-127272500I999999J-1D01*
G01*
X224006704Y-114272500D02*
G75*
G03*
X223006704Y-113272500I-1000000J0D01*
G01*
X223006704Y-127272500D02*
G75*
G03*
X224006704Y-126272500I0J1000000D01*
G01*
X183813750Y-69122500D02*
X183813750Y-57122500D01*
X184813750Y-56122500D02*
X196813750Y-56122500D01*
X196813750Y-70122500D02*
X184813750Y-70122500D01*
X197813750Y-57122500D02*
X197813750Y-69122500D01*
X184813750Y-56122500D02*
G75*
G03*
X183813750Y-57122500I-1J-999999D01*
G01*
X183813750Y-69122500D02*
G75*
G03*
X184813750Y-70122500I999999J-1D01*
G01*
X197813750Y-57122500D02*
G75*
G03*
X196813750Y-56122500I-1000000J0D01*
G01*
X196813750Y-70122500D02*
G75*
G03*
X197813750Y-69122500I0J1000000D01*
G01*
X50463750Y-69122500D02*
X50463750Y-57122500D01*
X51463750Y-56122500D02*
X63463750Y-56122500D01*
X63463750Y-70122500D02*
X51463750Y-70122500D01*
X64463750Y-57122500D02*
X64463750Y-69122500D01*
X51463750Y-56122500D02*
G75*
G03*
X50463750Y-57122500I-1J-999999D01*
G01*
X50463750Y-69122500D02*
G75*
G03*
X51463750Y-70122500I999999J-1D01*
G01*
X64463750Y-57122500D02*
G75*
G03*
X63463750Y-56122500I-1000000J0D01*
G01*
X63463750Y-70122500D02*
G75*
G03*
X64463750Y-69122500I0J1000000D01*
G01*
X26651250Y-69122500D02*
X26651250Y-57122500D01*
X27651250Y-56122500D02*
X39651250Y-56122500D01*
X39651250Y-70122500D02*
X27651250Y-70122500D01*
X40651250Y-57122500D02*
X40651250Y-69122500D01*
X27651250Y-56122500D02*
G75*
G03*
X26651250Y-57122500I-1J-999999D01*
G01*
X26651250Y-69122500D02*
G75*
G03*
X27651250Y-70122500I999999J-1D01*
G01*
X40651250Y-57122500D02*
G75*
G03*
X39651250Y-56122500I-1000000J0D01*
G01*
X39651250Y-70122500D02*
G75*
G03*
X40651250Y-69122500I0J1000000D01*
G01*
X179051250Y-107222500D02*
X179051250Y-95222500D01*
X180051250Y-94222500D02*
X192051250Y-94222500D01*
X192051250Y-108222500D02*
X180051250Y-108222500D01*
X193051250Y-95222500D02*
X193051250Y-107222500D01*
X180051250Y-94222500D02*
G75*
G03*
X179051250Y-95222500I-1J-999999D01*
G01*
X179051250Y-107222500D02*
G75*
G03*
X180051250Y-108222500I999999J-1D01*
G01*
X193051250Y-95222500D02*
G75*
G03*
X192051250Y-94222500I-1000000J0D01*
G01*
X192051250Y-108222500D02*
G75*
G03*
X193051250Y-107222500I0J1000000D01*
G01*
X274013750Y-57122500D02*
X274013750Y-69122500D01*
X273013750Y-70122500D02*
X261013750Y-70122500D01*
X261013750Y-56122500D02*
X273013750Y-56122500D01*
X260013750Y-69122500D02*
X260013750Y-57122500D01*
X273013750Y-70122500D02*
G75*
G03*
X274013750Y-69122500I1J999999D01*
G01*
X274013750Y-57122500D02*
G75*
G03*
X273013750Y-56122500I-999999J1D01*
G01*
X260013750Y-69122500D02*
G75*
G03*
X261013750Y-70122500I1000000J0D01*
G01*
X261013750Y-56122500D02*
G75*
G03*
X260013750Y-57122500I0J-1000000D01*
G01*
X207626250Y-88172500D02*
X207626250Y-76172500D01*
X208626250Y-75172500D02*
X220626250Y-75172500D01*
X220626250Y-89172500D02*
X208626250Y-89172500D01*
X221626250Y-76172500D02*
X221626250Y-88172500D01*
X208626250Y-75172500D02*
G75*
G03*
X207626250Y-76172500I-1J-999999D01*
G01*
X207626250Y-88172500D02*
G75*
G03*
X208626250Y-89172500I999999J-1D01*
G01*
X221626250Y-76172500D02*
G75*
G03*
X220626250Y-75172500I-1000000J0D01*
G01*
X220626250Y-89172500D02*
G75*
G03*
X221626250Y-88172500I0J1000000D01*
G01*
X164763750Y-69122500D02*
X164763750Y-57122500D01*
X165763750Y-56122500D02*
X177763750Y-56122500D01*
X177763750Y-70122500D02*
X165763750Y-70122500D01*
X178763750Y-57122500D02*
X178763750Y-69122500D01*
X165763750Y-56122500D02*
G75*
G03*
X164763750Y-57122500I-1J-999999D01*
G01*
X164763750Y-69122500D02*
G75*
G03*
X165763750Y-70122500I999999J-1D01*
G01*
X178763750Y-57122500D02*
G75*
G03*
X177763750Y-56122500I-1000000J0D01*
G01*
X177763750Y-70122500D02*
G75*
G03*
X178763750Y-69122500I0J1000000D01*
G01*
X33795000Y-107222500D02*
X33795000Y-95222500D01*
X34795000Y-94222500D02*
X46795000Y-94222500D01*
X46795000Y-108222500D02*
X34795000Y-108222500D01*
X47795000Y-95222500D02*
X47795000Y-107222500D01*
X34795000Y-94222500D02*
G75*
G03*
X33795000Y-95222500I-1J-999999D01*
G01*
X33795000Y-107222500D02*
G75*
G03*
X34795000Y-108222500I999999J-1D01*
G01*
X47795000Y-95222500D02*
G75*
G03*
X46795000Y-94222500I-1000000J0D01*
G01*
X46795000Y-108222500D02*
G75*
G03*
X47795000Y-107222500I0J1000000D01*
G01*
X169526250Y-88172500D02*
X169526250Y-76172500D01*
X170526250Y-75172500D02*
X182526250Y-75172500D01*
X182526250Y-89172500D02*
X170526250Y-89172500D01*
X183526250Y-76172500D02*
X183526250Y-88172500D01*
X170526250Y-75172500D02*
G75*
G03*
X169526250Y-76172500I-1J-999999D01*
G01*
X169526250Y-88172500D02*
G75*
G03*
X170526250Y-89172500I999999J-1D01*
G01*
X183526250Y-76172500D02*
G75*
G03*
X182526250Y-75172500I-1000000J0D01*
G01*
X182526250Y-89172500D02*
G75*
G03*
X183526250Y-88172500I0J1000000D01*
G01*
X226676250Y-88172500D02*
X226676250Y-76172500D01*
X227676250Y-75172500D02*
X239676250Y-75172500D01*
X239676250Y-89172500D02*
X227676250Y-89172500D01*
X240676250Y-76172500D02*
X240676250Y-88172500D01*
X227676250Y-75172500D02*
G75*
G03*
X226676250Y-76172500I-1J-999999D01*
G01*
X226676250Y-88172500D02*
G75*
G03*
X227676250Y-89172500I999999J-1D01*
G01*
X240676250Y-76172500D02*
G75*
G03*
X239676250Y-75172500I-1000000J0D01*
G01*
X239676250Y-89172500D02*
G75*
G03*
X240676250Y-88172500I0J1000000D01*
G01*
X79037954Y-126272500D02*
X79037954Y-114272500D01*
X80037954Y-113272500D02*
X92037954Y-113272500D01*
X92037954Y-127272500D02*
X80037954Y-127272500D01*
X93037954Y-114272500D02*
X93037954Y-126272500D01*
X80037954Y-113272500D02*
G75*
G03*
X79037954Y-114272500I-1J-999999D01*
G01*
X79037954Y-126272500D02*
G75*
G03*
X80037954Y-127272500I999999J-1D01*
G01*
X93037954Y-114272500D02*
G75*
G03*
X92037954Y-113272500I-1000000J0D01*
G01*
X92037954Y-127272500D02*
G75*
G03*
X93037954Y-126272500I0J1000000D01*
G01*
M02*
