%TF.GenerationSoftware,KiCad,Pcbnew,7.0.7-7.0.7~ubuntu23.04.1*%
%TF.CreationDate,Date%
%TF.ProjectId,plate,706c6174-652e-46b6-9963-61645f706362,rev?*%
%TF.SameCoordinates,Original*%
%TF.FileFunction,Drillmap*%
%TF.FilePolarity,Positive*%
%FSLAX45Y45*%
G04 Gerber Fmt 4.5, Leading zero omitted, Abs format (unit mm)*
G04 Created by KiCad*
%MOMM*%
%LPD*%
G01*
G04 APERTURE LIST*
%ADD10C,0.100000*%
%ADD11C,0.200000*%
%ADD12C,0.320000*%
G04 APERTURE END LIST*
D10*
X2136375Y-5359750D02*
G75*
G03*
X1936375Y-5559750I0J-200000D01*
G01*
X1936375Y-12779750D02*
X1936375Y-5559750D01*
X27653875Y-5559750D02*
X27653875Y-12779750D01*
X27453875Y-12979745D02*
G75*
G03*
X27653875Y-12779750I5J199995D01*
G01*
X1936375Y-12779750D02*
G75*
G03*
X2136375Y-12979750I200000J0D01*
G01*
X27453875Y-5359750D02*
X2136375Y-5359750D01*
X2136375Y-12979750D02*
X27453875Y-12979750D01*
X27653880Y-5559750D02*
G75*
G03*
X27453875Y-5359750I-200000J0D01*
G01*
D11*
D12*
X2007000Y-9962250D02*
X2327000Y-10282250D01*
X2327000Y-9962250D02*
X2007000Y-10282250D01*
X2014500Y-11867250D02*
X2334500Y-12187250D01*
X2334500Y-11867250D02*
X2014500Y-12187250D01*
X2252625Y-6152250D02*
X2572625Y-6472250D01*
X2572625Y-6152250D02*
X2252625Y-6472250D01*
X4276688Y-11867250D02*
X4596688Y-12187250D01*
X4596688Y-11867250D02*
X4276688Y-12187250D01*
X4395750Y-6152250D02*
X4715750Y-6472250D01*
X4715750Y-6152250D02*
X4395750Y-6472250D01*
X4714500Y-8057250D02*
X5034500Y-8377250D01*
X5034500Y-8057250D02*
X4714500Y-8377250D01*
X6062625Y-9962250D02*
X6382625Y-10282250D01*
X6382625Y-9962250D02*
X6062625Y-10282250D01*
X6777000Y-11867250D02*
X7097000Y-12187250D01*
X7097000Y-11867250D02*
X6777000Y-12187250D01*
X8443875Y-6152250D02*
X8763875Y-6472250D01*
X8763875Y-6152250D02*
X8443875Y-6472250D01*
X8920125Y-8057250D02*
X9240125Y-8377250D01*
X9240125Y-8057250D02*
X8920125Y-8377250D01*
X11777625Y-9962250D02*
X12097625Y-10282250D01*
X12097625Y-9962250D02*
X11777625Y-10282250D01*
X12253875Y-6152250D02*
X12573875Y-6472250D01*
X12573875Y-6152250D02*
X12253875Y-6472250D01*
X14415862Y-11867215D02*
X14735862Y-12187215D01*
X14735862Y-11867215D02*
X14415862Y-12187215D01*
X14637625Y-8057250D02*
X14957625Y-8377250D01*
X14957625Y-8057250D02*
X14637625Y-8377250D01*
X15587625Y-9962250D02*
X15907625Y-10282250D01*
X15907625Y-9962250D02*
X15587625Y-10282250D01*
X16063875Y-6152250D02*
X16383875Y-6472250D01*
X16383875Y-6152250D02*
X16063875Y-6472250D01*
X18445125Y-8057250D02*
X18765125Y-8377250D01*
X18765125Y-8057250D02*
X18445125Y-8377250D01*
X18583050Y-11867250D02*
X18903050Y-12187250D01*
X18903050Y-11867250D02*
X18583050Y-12187250D01*
X19873875Y-6152250D02*
X20193875Y-6472250D01*
X20193875Y-6152250D02*
X19873875Y-6472250D01*
X22255125Y-8057250D02*
X22575125Y-8377250D01*
X22575125Y-8057250D02*
X22255125Y-8377250D01*
X22493170Y-11867250D02*
X22813170Y-12187250D01*
X22813170Y-11867250D02*
X22493170Y-12187250D01*
X23207625Y-9962250D02*
X23527625Y-10282250D01*
X23527625Y-9962250D02*
X23207625Y-10282250D01*
X23683875Y-6152250D02*
X24003875Y-6472250D01*
X24003875Y-6152250D02*
X23683875Y-6472250D01*
X24993562Y-11867250D02*
X25313562Y-12187250D01*
X25313562Y-11867250D02*
X24993562Y-12187250D01*
X26779500Y-8057250D02*
X27099500Y-8377250D01*
X27099500Y-8057250D02*
X26779500Y-8377250D01*
X27255750Y-9962250D02*
X27575750Y-10282250D01*
X27575750Y-9962250D02*
X27255750Y-10282250D01*
X27255750Y-11867250D02*
X27575750Y-12187250D01*
X27575750Y-11867250D02*
X27255750Y-12187250D01*
D11*
X2192152Y-13296234D02*
X2192152Y-13096234D01*
X2192152Y-13096234D02*
X2239771Y-13096234D01*
X2239771Y-13096234D02*
X2268342Y-13105758D01*
X2268342Y-13105758D02*
X2287390Y-13124805D01*
X2287390Y-13124805D02*
X2296914Y-13143853D01*
X2296914Y-13143853D02*
X2306438Y-13181948D01*
X2306438Y-13181948D02*
X2306438Y-13210519D01*
X2306438Y-13210519D02*
X2296914Y-13248615D01*
X2296914Y-13248615D02*
X2287390Y-13267662D01*
X2287390Y-13267662D02*
X2268342Y-13286710D01*
X2268342Y-13286710D02*
X2239771Y-13296234D01*
X2239771Y-13296234D02*
X2192152Y-13296234D01*
X2392152Y-13296234D02*
X2392152Y-13162900D01*
X2392152Y-13200996D02*
X2401676Y-13181948D01*
X2401676Y-13181948D02*
X2411199Y-13172424D01*
X2411199Y-13172424D02*
X2430247Y-13162900D01*
X2430247Y-13162900D02*
X2449295Y-13162900D01*
X2515961Y-13296234D02*
X2515961Y-13162900D01*
X2515961Y-13096234D02*
X2506438Y-13105758D01*
X2506438Y-13105758D02*
X2515961Y-13115281D01*
X2515961Y-13115281D02*
X2525485Y-13105758D01*
X2525485Y-13105758D02*
X2515961Y-13096234D01*
X2515961Y-13096234D02*
X2515961Y-13115281D01*
X2639771Y-13296234D02*
X2620723Y-13286710D01*
X2620723Y-13286710D02*
X2611199Y-13267662D01*
X2611199Y-13267662D02*
X2611199Y-13096234D01*
X2744533Y-13296234D02*
X2725485Y-13286710D01*
X2725485Y-13286710D02*
X2715961Y-13267662D01*
X2715961Y-13267662D02*
X2715961Y-13096234D01*
X2973104Y-13296234D02*
X2973104Y-13096234D01*
X2973104Y-13096234D02*
X3039771Y-13239091D01*
X3039771Y-13239091D02*
X3106437Y-13096234D01*
X3106437Y-13096234D02*
X3106437Y-13296234D01*
X3287390Y-13296234D02*
X3287390Y-13191472D01*
X3287390Y-13191472D02*
X3277866Y-13172424D01*
X3277866Y-13172424D02*
X3258818Y-13162900D01*
X3258818Y-13162900D02*
X3220723Y-13162900D01*
X3220723Y-13162900D02*
X3201676Y-13172424D01*
X3287390Y-13286710D02*
X3268342Y-13296234D01*
X3268342Y-13296234D02*
X3220723Y-13296234D01*
X3220723Y-13296234D02*
X3201676Y-13286710D01*
X3201676Y-13286710D02*
X3192152Y-13267662D01*
X3192152Y-13267662D02*
X3192152Y-13248615D01*
X3192152Y-13248615D02*
X3201676Y-13229567D01*
X3201676Y-13229567D02*
X3220723Y-13220043D01*
X3220723Y-13220043D02*
X3268342Y-13220043D01*
X3268342Y-13220043D02*
X3287390Y-13210519D01*
X3382628Y-13162900D02*
X3382628Y-13362900D01*
X3382628Y-13172424D02*
X3401676Y-13162900D01*
X3401676Y-13162900D02*
X3439771Y-13162900D01*
X3439771Y-13162900D02*
X3458818Y-13172424D01*
X3458818Y-13172424D02*
X3468342Y-13181948D01*
X3468342Y-13181948D02*
X3477866Y-13200996D01*
X3477866Y-13200996D02*
X3477866Y-13258138D01*
X3477866Y-13258138D02*
X3468342Y-13277186D01*
X3468342Y-13277186D02*
X3458818Y-13286710D01*
X3458818Y-13286710D02*
X3439771Y-13296234D01*
X3439771Y-13296234D02*
X3401676Y-13296234D01*
X3401676Y-13296234D02*
X3382628Y-13286710D01*
X3563580Y-13277186D02*
X3573104Y-13286710D01*
X3573104Y-13286710D02*
X3563580Y-13296234D01*
X3563580Y-13296234D02*
X3554057Y-13286710D01*
X3554057Y-13286710D02*
X3563580Y-13277186D01*
X3563580Y-13277186D02*
X3563580Y-13296234D01*
X3563580Y-13172424D02*
X3573104Y-13181948D01*
X3573104Y-13181948D02*
X3563580Y-13191472D01*
X3563580Y-13191472D02*
X3554057Y-13181948D01*
X3554057Y-13181948D02*
X3563580Y-13172424D01*
X3563580Y-13172424D02*
X3563580Y-13191472D01*
X1731375Y-13524750D02*
X1931375Y-13724750D01*
X1931375Y-13524750D02*
X1731375Y-13724750D01*
X2173104Y-13516234D02*
X2296914Y-13516234D01*
X2296914Y-13516234D02*
X2230247Y-13592424D01*
X2230247Y-13592424D02*
X2258819Y-13592424D01*
X2258819Y-13592424D02*
X2277866Y-13601948D01*
X2277866Y-13601948D02*
X2287390Y-13611472D01*
X2287390Y-13611472D02*
X2296914Y-13630519D01*
X2296914Y-13630519D02*
X2296914Y-13678138D01*
X2296914Y-13678138D02*
X2287390Y-13697186D01*
X2287390Y-13697186D02*
X2277866Y-13706710D01*
X2277866Y-13706710D02*
X2258819Y-13716234D01*
X2258819Y-13716234D02*
X2201676Y-13716234D01*
X2201676Y-13716234D02*
X2182628Y-13706710D01*
X2182628Y-13706710D02*
X2173104Y-13697186D01*
X2382628Y-13697186D02*
X2392152Y-13706710D01*
X2392152Y-13706710D02*
X2382628Y-13716234D01*
X2382628Y-13716234D02*
X2373104Y-13706710D01*
X2373104Y-13706710D02*
X2382628Y-13697186D01*
X2382628Y-13697186D02*
X2382628Y-13716234D01*
X2468342Y-13535281D02*
X2477866Y-13525758D01*
X2477866Y-13525758D02*
X2496914Y-13516234D01*
X2496914Y-13516234D02*
X2544533Y-13516234D01*
X2544533Y-13516234D02*
X2563580Y-13525758D01*
X2563580Y-13525758D02*
X2573104Y-13535281D01*
X2573104Y-13535281D02*
X2582628Y-13554329D01*
X2582628Y-13554329D02*
X2582628Y-13573377D01*
X2582628Y-13573377D02*
X2573104Y-13601948D01*
X2573104Y-13601948D02*
X2458819Y-13716234D01*
X2458819Y-13716234D02*
X2582628Y-13716234D01*
X2706438Y-13516234D02*
X2725485Y-13516234D01*
X2725485Y-13516234D02*
X2744533Y-13525758D01*
X2744533Y-13525758D02*
X2754057Y-13535281D01*
X2754057Y-13535281D02*
X2763580Y-13554329D01*
X2763580Y-13554329D02*
X2773104Y-13592424D01*
X2773104Y-13592424D02*
X2773104Y-13640043D01*
X2773104Y-13640043D02*
X2763580Y-13678138D01*
X2763580Y-13678138D02*
X2754057Y-13697186D01*
X2754057Y-13697186D02*
X2744533Y-13706710D01*
X2744533Y-13706710D02*
X2725485Y-13716234D01*
X2725485Y-13716234D02*
X2706438Y-13716234D01*
X2706438Y-13716234D02*
X2687390Y-13706710D01*
X2687390Y-13706710D02*
X2677866Y-13697186D01*
X2677866Y-13697186D02*
X2668342Y-13678138D01*
X2668342Y-13678138D02*
X2658819Y-13640043D01*
X2658819Y-13640043D02*
X2658819Y-13592424D01*
X2658819Y-13592424D02*
X2668342Y-13554329D01*
X2668342Y-13554329D02*
X2677866Y-13535281D01*
X2677866Y-13535281D02*
X2687390Y-13525758D01*
X2687390Y-13525758D02*
X2706438Y-13516234D01*
X2896914Y-13516234D02*
X2915961Y-13516234D01*
X2915961Y-13516234D02*
X2935009Y-13525758D01*
X2935009Y-13525758D02*
X2944533Y-13535281D01*
X2944533Y-13535281D02*
X2954057Y-13554329D01*
X2954057Y-13554329D02*
X2963580Y-13592424D01*
X2963580Y-13592424D02*
X2963580Y-13640043D01*
X2963580Y-13640043D02*
X2954057Y-13678138D01*
X2954057Y-13678138D02*
X2944533Y-13697186D01*
X2944533Y-13697186D02*
X2935009Y-13706710D01*
X2935009Y-13706710D02*
X2915961Y-13716234D01*
X2915961Y-13716234D02*
X2896914Y-13716234D01*
X2896914Y-13716234D02*
X2877866Y-13706710D01*
X2877866Y-13706710D02*
X2868342Y-13697186D01*
X2868342Y-13697186D02*
X2858818Y-13678138D01*
X2858818Y-13678138D02*
X2849295Y-13640043D01*
X2849295Y-13640043D02*
X2849295Y-13592424D01*
X2849295Y-13592424D02*
X2858818Y-13554329D01*
X2858818Y-13554329D02*
X2868342Y-13535281D01*
X2868342Y-13535281D02*
X2877866Y-13525758D01*
X2877866Y-13525758D02*
X2896914Y-13516234D01*
X3049295Y-13716234D02*
X3049295Y-13582900D01*
X3049295Y-13601948D02*
X3058818Y-13592424D01*
X3058818Y-13592424D02*
X3077866Y-13582900D01*
X3077866Y-13582900D02*
X3106438Y-13582900D01*
X3106438Y-13582900D02*
X3125485Y-13592424D01*
X3125485Y-13592424D02*
X3135009Y-13611472D01*
X3135009Y-13611472D02*
X3135009Y-13716234D01*
X3135009Y-13611472D02*
X3144533Y-13592424D01*
X3144533Y-13592424D02*
X3163580Y-13582900D01*
X3163580Y-13582900D02*
X3192152Y-13582900D01*
X3192152Y-13582900D02*
X3211199Y-13592424D01*
X3211199Y-13592424D02*
X3220723Y-13611472D01*
X3220723Y-13611472D02*
X3220723Y-13716234D01*
X3315961Y-13716234D02*
X3315961Y-13582900D01*
X3315961Y-13601948D02*
X3325485Y-13592424D01*
X3325485Y-13592424D02*
X3344533Y-13582900D01*
X3344533Y-13582900D02*
X3373104Y-13582900D01*
X3373104Y-13582900D02*
X3392152Y-13592424D01*
X3392152Y-13592424D02*
X3401676Y-13611472D01*
X3401676Y-13611472D02*
X3401676Y-13716234D01*
X3401676Y-13611472D02*
X3411199Y-13592424D01*
X3411199Y-13592424D02*
X3430247Y-13582900D01*
X3430247Y-13582900D02*
X3458818Y-13582900D01*
X3458818Y-13582900D02*
X3477866Y-13592424D01*
X3477866Y-13592424D02*
X3487390Y-13611472D01*
X3487390Y-13611472D02*
X3487390Y-13716234D01*
X3877866Y-13506710D02*
X3706438Y-13763853D01*
X4135009Y-13516234D02*
X4154057Y-13516234D01*
X4154057Y-13516234D02*
X4173104Y-13525758D01*
X4173104Y-13525758D02*
X4182628Y-13535281D01*
X4182628Y-13535281D02*
X4192152Y-13554329D01*
X4192152Y-13554329D02*
X4201676Y-13592424D01*
X4201676Y-13592424D02*
X4201676Y-13640043D01*
X4201676Y-13640043D02*
X4192152Y-13678138D01*
X4192152Y-13678138D02*
X4182628Y-13697186D01*
X4182628Y-13697186D02*
X4173104Y-13706710D01*
X4173104Y-13706710D02*
X4154057Y-13716234D01*
X4154057Y-13716234D02*
X4135009Y-13716234D01*
X4135009Y-13716234D02*
X4115961Y-13706710D01*
X4115961Y-13706710D02*
X4106438Y-13697186D01*
X4106438Y-13697186D02*
X4096914Y-13678138D01*
X4096914Y-13678138D02*
X4087390Y-13640043D01*
X4087390Y-13640043D02*
X4087390Y-13592424D01*
X4087390Y-13592424D02*
X4096914Y-13554329D01*
X4096914Y-13554329D02*
X4106438Y-13535281D01*
X4106438Y-13535281D02*
X4115961Y-13525758D01*
X4115961Y-13525758D02*
X4135009Y-13516234D01*
X4287390Y-13697186D02*
X4296914Y-13706710D01*
X4296914Y-13706710D02*
X4287390Y-13716234D01*
X4287390Y-13716234D02*
X4277866Y-13706710D01*
X4277866Y-13706710D02*
X4287390Y-13697186D01*
X4287390Y-13697186D02*
X4287390Y-13716234D01*
X4487390Y-13716234D02*
X4373104Y-13716234D01*
X4430247Y-13716234D02*
X4430247Y-13516234D01*
X4430247Y-13516234D02*
X4411200Y-13544805D01*
X4411200Y-13544805D02*
X4392152Y-13563853D01*
X4392152Y-13563853D02*
X4373104Y-13573377D01*
X4563581Y-13535281D02*
X4573104Y-13525758D01*
X4573104Y-13525758D02*
X4592152Y-13516234D01*
X4592152Y-13516234D02*
X4639771Y-13516234D01*
X4639771Y-13516234D02*
X4658819Y-13525758D01*
X4658819Y-13525758D02*
X4668343Y-13535281D01*
X4668343Y-13535281D02*
X4677866Y-13554329D01*
X4677866Y-13554329D02*
X4677866Y-13573377D01*
X4677866Y-13573377D02*
X4668343Y-13601948D01*
X4668343Y-13601948D02*
X4554057Y-13716234D01*
X4554057Y-13716234D02*
X4677866Y-13716234D01*
X4849295Y-13516234D02*
X4811200Y-13516234D01*
X4811200Y-13516234D02*
X4792152Y-13525758D01*
X4792152Y-13525758D02*
X4782628Y-13535281D01*
X4782628Y-13535281D02*
X4763581Y-13563853D01*
X4763581Y-13563853D02*
X4754057Y-13601948D01*
X4754057Y-13601948D02*
X4754057Y-13678138D01*
X4754057Y-13678138D02*
X4763581Y-13697186D01*
X4763581Y-13697186D02*
X4773104Y-13706710D01*
X4773104Y-13706710D02*
X4792152Y-13716234D01*
X4792152Y-13716234D02*
X4830247Y-13716234D01*
X4830247Y-13716234D02*
X4849295Y-13706710D01*
X4849295Y-13706710D02*
X4858819Y-13697186D01*
X4858819Y-13697186D02*
X4868343Y-13678138D01*
X4868343Y-13678138D02*
X4868343Y-13630519D01*
X4868343Y-13630519D02*
X4858819Y-13611472D01*
X4858819Y-13611472D02*
X4849295Y-13601948D01*
X4849295Y-13601948D02*
X4830247Y-13592424D01*
X4830247Y-13592424D02*
X4792152Y-13592424D01*
X4792152Y-13592424D02*
X4773104Y-13601948D01*
X4773104Y-13601948D02*
X4763581Y-13611472D01*
X4763581Y-13611472D02*
X4754057Y-13630519D01*
X4992152Y-13516234D02*
X5011200Y-13516234D01*
X5011200Y-13516234D02*
X5030247Y-13525758D01*
X5030247Y-13525758D02*
X5039771Y-13535281D01*
X5039771Y-13535281D02*
X5049295Y-13554329D01*
X5049295Y-13554329D02*
X5058819Y-13592424D01*
X5058819Y-13592424D02*
X5058819Y-13640043D01*
X5058819Y-13640043D02*
X5049295Y-13678138D01*
X5049295Y-13678138D02*
X5039771Y-13697186D01*
X5039771Y-13697186D02*
X5030247Y-13706710D01*
X5030247Y-13706710D02*
X5011200Y-13716234D01*
X5011200Y-13716234D02*
X4992152Y-13716234D01*
X4992152Y-13716234D02*
X4973104Y-13706710D01*
X4973104Y-13706710D02*
X4963581Y-13697186D01*
X4963581Y-13697186D02*
X4954057Y-13678138D01*
X4954057Y-13678138D02*
X4944533Y-13640043D01*
X4944533Y-13640043D02*
X4944533Y-13592424D01*
X4944533Y-13592424D02*
X4954057Y-13554329D01*
X4954057Y-13554329D02*
X4963581Y-13535281D01*
X4963581Y-13535281D02*
X4973104Y-13525758D01*
X4973104Y-13525758D02*
X4992152Y-13516234D01*
X5135009Y-13516234D02*
X5135009Y-13554329D01*
X5211200Y-13516234D02*
X5211200Y-13554329D01*
X5506438Y-13792424D02*
X5496914Y-13782900D01*
X5496914Y-13782900D02*
X5477866Y-13754329D01*
X5477866Y-13754329D02*
X5468343Y-13735281D01*
X5468343Y-13735281D02*
X5458819Y-13706710D01*
X5458819Y-13706710D02*
X5449295Y-13659091D01*
X5449295Y-13659091D02*
X5449295Y-13620996D01*
X5449295Y-13620996D02*
X5458819Y-13573377D01*
X5458819Y-13573377D02*
X5468343Y-13544805D01*
X5468343Y-13544805D02*
X5477866Y-13525758D01*
X5477866Y-13525758D02*
X5496914Y-13497186D01*
X5496914Y-13497186D02*
X5506438Y-13487662D01*
X5573105Y-13535281D02*
X5582628Y-13525758D01*
X5582628Y-13525758D02*
X5601676Y-13516234D01*
X5601676Y-13516234D02*
X5649295Y-13516234D01*
X5649295Y-13516234D02*
X5668343Y-13525758D01*
X5668343Y-13525758D02*
X5677866Y-13535281D01*
X5677866Y-13535281D02*
X5687390Y-13554329D01*
X5687390Y-13554329D02*
X5687390Y-13573377D01*
X5687390Y-13573377D02*
X5677866Y-13601948D01*
X5677866Y-13601948D02*
X5563581Y-13716234D01*
X5563581Y-13716234D02*
X5687390Y-13716234D01*
X5754057Y-13516234D02*
X5887390Y-13516234D01*
X5887390Y-13516234D02*
X5801676Y-13716234D01*
X6115962Y-13716234D02*
X6115962Y-13516234D01*
X6201676Y-13716234D02*
X6201676Y-13611472D01*
X6201676Y-13611472D02*
X6192152Y-13592424D01*
X6192152Y-13592424D02*
X6173105Y-13582900D01*
X6173105Y-13582900D02*
X6144533Y-13582900D01*
X6144533Y-13582900D02*
X6125485Y-13592424D01*
X6125485Y-13592424D02*
X6115962Y-13601948D01*
X6325485Y-13716234D02*
X6306438Y-13706710D01*
X6306438Y-13706710D02*
X6296914Y-13697186D01*
X6296914Y-13697186D02*
X6287390Y-13678138D01*
X6287390Y-13678138D02*
X6287390Y-13620996D01*
X6287390Y-13620996D02*
X6296914Y-13601948D01*
X6296914Y-13601948D02*
X6306438Y-13592424D01*
X6306438Y-13592424D02*
X6325485Y-13582900D01*
X6325485Y-13582900D02*
X6354057Y-13582900D01*
X6354057Y-13582900D02*
X6373105Y-13592424D01*
X6373105Y-13592424D02*
X6382628Y-13601948D01*
X6382628Y-13601948D02*
X6392152Y-13620996D01*
X6392152Y-13620996D02*
X6392152Y-13678138D01*
X6392152Y-13678138D02*
X6382628Y-13697186D01*
X6382628Y-13697186D02*
X6373105Y-13706710D01*
X6373105Y-13706710D02*
X6354057Y-13716234D01*
X6354057Y-13716234D02*
X6325485Y-13716234D01*
X6506438Y-13716234D02*
X6487390Y-13706710D01*
X6487390Y-13706710D02*
X6477866Y-13687662D01*
X6477866Y-13687662D02*
X6477866Y-13516234D01*
X6658819Y-13706710D02*
X6639771Y-13716234D01*
X6639771Y-13716234D02*
X6601676Y-13716234D01*
X6601676Y-13716234D02*
X6582628Y-13706710D01*
X6582628Y-13706710D02*
X6573105Y-13687662D01*
X6573105Y-13687662D02*
X6573105Y-13611472D01*
X6573105Y-13611472D02*
X6582628Y-13592424D01*
X6582628Y-13592424D02*
X6601676Y-13582900D01*
X6601676Y-13582900D02*
X6639771Y-13582900D01*
X6639771Y-13582900D02*
X6658819Y-13592424D01*
X6658819Y-13592424D02*
X6668343Y-13611472D01*
X6668343Y-13611472D02*
X6668343Y-13630519D01*
X6668343Y-13630519D02*
X6573105Y-13649567D01*
X6744533Y-13706710D02*
X6763581Y-13716234D01*
X6763581Y-13716234D02*
X6801676Y-13716234D01*
X6801676Y-13716234D02*
X6820724Y-13706710D01*
X6820724Y-13706710D02*
X6830247Y-13687662D01*
X6830247Y-13687662D02*
X6830247Y-13678138D01*
X6830247Y-13678138D02*
X6820724Y-13659091D01*
X6820724Y-13659091D02*
X6801676Y-13649567D01*
X6801676Y-13649567D02*
X6773105Y-13649567D01*
X6773105Y-13649567D02*
X6754057Y-13640043D01*
X6754057Y-13640043D02*
X6744533Y-13620996D01*
X6744533Y-13620996D02*
X6744533Y-13611472D01*
X6744533Y-13611472D02*
X6754057Y-13592424D01*
X6754057Y-13592424D02*
X6773105Y-13582900D01*
X6773105Y-13582900D02*
X6801676Y-13582900D01*
X6801676Y-13582900D02*
X6820724Y-13592424D01*
X6896914Y-13792424D02*
X6906438Y-13782900D01*
X6906438Y-13782900D02*
X6925486Y-13754329D01*
X6925486Y-13754329D02*
X6935009Y-13735281D01*
X6935009Y-13735281D02*
X6944533Y-13706710D01*
X6944533Y-13706710D02*
X6954057Y-13659091D01*
X6954057Y-13659091D02*
X6954057Y-13620996D01*
X6954057Y-13620996D02*
X6944533Y-13573377D01*
X6944533Y-13573377D02*
X6935009Y-13544805D01*
X6935009Y-13544805D02*
X6925486Y-13525758D01*
X6925486Y-13525758D02*
X6906438Y-13497186D01*
X6906438Y-13497186D02*
X6896914Y-13487662D01*
X7258819Y-13792424D02*
X7249295Y-13782900D01*
X7249295Y-13782900D02*
X7230247Y-13754329D01*
X7230247Y-13754329D02*
X7220724Y-13735281D01*
X7220724Y-13735281D02*
X7211200Y-13706710D01*
X7211200Y-13706710D02*
X7201676Y-13659091D01*
X7201676Y-13659091D02*
X7201676Y-13620996D01*
X7201676Y-13620996D02*
X7211200Y-13573377D01*
X7211200Y-13573377D02*
X7220724Y-13544805D01*
X7220724Y-13544805D02*
X7230247Y-13525758D01*
X7230247Y-13525758D02*
X7249295Y-13497186D01*
X7249295Y-13497186D02*
X7258819Y-13487662D01*
X7335009Y-13582900D02*
X7335009Y-13716234D01*
X7335009Y-13601948D02*
X7344533Y-13592424D01*
X7344533Y-13592424D02*
X7363581Y-13582900D01*
X7363581Y-13582900D02*
X7392152Y-13582900D01*
X7392152Y-13582900D02*
X7411200Y-13592424D01*
X7411200Y-13592424D02*
X7420724Y-13611472D01*
X7420724Y-13611472D02*
X7420724Y-13716234D01*
X7544533Y-13716234D02*
X7525486Y-13706710D01*
X7525486Y-13706710D02*
X7515962Y-13697186D01*
X7515962Y-13697186D02*
X7506438Y-13678138D01*
X7506438Y-13678138D02*
X7506438Y-13620996D01*
X7506438Y-13620996D02*
X7515962Y-13601948D01*
X7515962Y-13601948D02*
X7525486Y-13592424D01*
X7525486Y-13592424D02*
X7544533Y-13582900D01*
X7544533Y-13582900D02*
X7573105Y-13582900D01*
X7573105Y-13582900D02*
X7592152Y-13592424D01*
X7592152Y-13592424D02*
X7601676Y-13601948D01*
X7601676Y-13601948D02*
X7611200Y-13620996D01*
X7611200Y-13620996D02*
X7611200Y-13678138D01*
X7611200Y-13678138D02*
X7601676Y-13697186D01*
X7601676Y-13697186D02*
X7592152Y-13706710D01*
X7592152Y-13706710D02*
X7573105Y-13716234D01*
X7573105Y-13716234D02*
X7544533Y-13716234D01*
X7668343Y-13582900D02*
X7744533Y-13582900D01*
X7696914Y-13516234D02*
X7696914Y-13687662D01*
X7696914Y-13687662D02*
X7706438Y-13706710D01*
X7706438Y-13706710D02*
X7725486Y-13716234D01*
X7725486Y-13716234D02*
X7744533Y-13716234D01*
X7963581Y-13582900D02*
X7963581Y-13782900D01*
X7963581Y-13592424D02*
X7982628Y-13582900D01*
X7982628Y-13582900D02*
X8020724Y-13582900D01*
X8020724Y-13582900D02*
X8039771Y-13592424D01*
X8039771Y-13592424D02*
X8049295Y-13601948D01*
X8049295Y-13601948D02*
X8058819Y-13620996D01*
X8058819Y-13620996D02*
X8058819Y-13678138D01*
X8058819Y-13678138D02*
X8049295Y-13697186D01*
X8049295Y-13697186D02*
X8039771Y-13706710D01*
X8039771Y-13706710D02*
X8020724Y-13716234D01*
X8020724Y-13716234D02*
X7982628Y-13716234D01*
X7982628Y-13716234D02*
X7963581Y-13706710D01*
X8173105Y-13716234D02*
X8154057Y-13706710D01*
X8154057Y-13706710D02*
X8144533Y-13687662D01*
X8144533Y-13687662D02*
X8144533Y-13516234D01*
X8335009Y-13716234D02*
X8335009Y-13611472D01*
X8335009Y-13611472D02*
X8325486Y-13592424D01*
X8325486Y-13592424D02*
X8306438Y-13582900D01*
X8306438Y-13582900D02*
X8268343Y-13582900D01*
X8268343Y-13582900D02*
X8249295Y-13592424D01*
X8335009Y-13706710D02*
X8315962Y-13716234D01*
X8315962Y-13716234D02*
X8268343Y-13716234D01*
X8268343Y-13716234D02*
X8249295Y-13706710D01*
X8249295Y-13706710D02*
X8239771Y-13687662D01*
X8239771Y-13687662D02*
X8239771Y-13668615D01*
X8239771Y-13668615D02*
X8249295Y-13649567D01*
X8249295Y-13649567D02*
X8268343Y-13640043D01*
X8268343Y-13640043D02*
X8315962Y-13640043D01*
X8315962Y-13640043D02*
X8335009Y-13630519D01*
X8401676Y-13582900D02*
X8477867Y-13582900D01*
X8430248Y-13516234D02*
X8430248Y-13687662D01*
X8430248Y-13687662D02*
X8439771Y-13706710D01*
X8439771Y-13706710D02*
X8458819Y-13716234D01*
X8458819Y-13716234D02*
X8477867Y-13716234D01*
X8620724Y-13706710D02*
X8601676Y-13716234D01*
X8601676Y-13716234D02*
X8563581Y-13716234D01*
X8563581Y-13716234D02*
X8544533Y-13706710D01*
X8544533Y-13706710D02*
X8535010Y-13687662D01*
X8535010Y-13687662D02*
X8535010Y-13611472D01*
X8535010Y-13611472D02*
X8544533Y-13592424D01*
X8544533Y-13592424D02*
X8563581Y-13582900D01*
X8563581Y-13582900D02*
X8601676Y-13582900D01*
X8601676Y-13582900D02*
X8620724Y-13592424D01*
X8620724Y-13592424D02*
X8630248Y-13611472D01*
X8630248Y-13611472D02*
X8630248Y-13630519D01*
X8630248Y-13630519D02*
X8535010Y-13649567D01*
X8801676Y-13716234D02*
X8801676Y-13516234D01*
X8801676Y-13706710D02*
X8782629Y-13716234D01*
X8782629Y-13716234D02*
X8744533Y-13716234D01*
X8744533Y-13716234D02*
X8725486Y-13706710D01*
X8725486Y-13706710D02*
X8715962Y-13697186D01*
X8715962Y-13697186D02*
X8706438Y-13678138D01*
X8706438Y-13678138D02*
X8706438Y-13620996D01*
X8706438Y-13620996D02*
X8715962Y-13601948D01*
X8715962Y-13601948D02*
X8725486Y-13592424D01*
X8725486Y-13592424D02*
X8744533Y-13582900D01*
X8744533Y-13582900D02*
X8782629Y-13582900D01*
X8782629Y-13582900D02*
X8801676Y-13592424D01*
X8877867Y-13792424D02*
X8887391Y-13782900D01*
X8887391Y-13782900D02*
X8906438Y-13754329D01*
X8906438Y-13754329D02*
X8915962Y-13735281D01*
X8915962Y-13735281D02*
X8925486Y-13706710D01*
X8925486Y-13706710D02*
X8935010Y-13659091D01*
X8935010Y-13659091D02*
X8935010Y-13620996D01*
X8935010Y-13620996D02*
X8925486Y-13573377D01*
X8925486Y-13573377D02*
X8915962Y-13544805D01*
X8915962Y-13544805D02*
X8906438Y-13525758D01*
X8906438Y-13525758D02*
X8887391Y-13497186D01*
X8887391Y-13497186D02*
X8877867Y-13487662D01*
M02*
