  0
SECTION
  2
HEADER
  9
$ANGBASE
  50
0.0
  9
$ANGDIR
  70
1
  9
$MEASUREMENT
  70
1
  0
ENDSEC
  0
SECTION
  2
TABLES
  0
TABLE
  2
LTYPE
  70
4
  0
LTYPE
  5
40F
  2
CONTINUOUS
  70
0
  3
Solid line
  72
65
  73
0
  40
0.0
  0
LTYPE
  5
410
  2
DASHDOT
 70
0
  3
Dash Dot ____ _ ____ _
 72
65
 73
4
 40
2.0
 49
1.25
 49
-0.25
 49
0.25
 49
-0.25
  0
LTYPE
  5
411
  2
DASHED
 70
0
  3
Dashed __ __ __ __ __
 72
65
 73
2
 40
0.75
 49
0.5
 49
-0.25
  0
LTYPE
  5
43B
  2
DOTTED
 70
0
  3
Dotted .  .  .  .
 72
65
 73
2
 40
0.2
 49
0.0
 49
-0.2
  0
ENDTAB
  0
TABLE
  2
STYLE
  70
4
  0
STYLE
  2
KICAD
  70
0
  40
0
  41
1
  42
1
  50
0
  71
0
  3
isocp.shx
  0
STYLE
  2
KICADB
  70
0
  40
0
  41
1
  42
1
  50
0
  71
0
  3
isocp.shx
  0
STYLE
  2
KICADI
  70
0
  40
0
  41
1
  42
1
  50
15
  71
0
  3
isocp.shx
  0
STYLE
  2
KICADBI
  70
0
  40
0
  41
1
  42
1
  50
15
  71
0
  3
isocp.shx
  0
ENDTAB
  0
TABLE
  2
LAYER
  70
1
  0
LAYER
  2
BLACK
  70
0
  62
7
  6
CONTINUOUS
  0
ENDTAB
  0
ENDSEC
  0
SECTION
  2
ENTITIES
0
ARC
8
BLACK
10
21.3637
20
-55.5975
40
2
50
90
51
180
0
LINE
8
BLACK
6
CONTINUOUS
10
19.3637
20
-127.797
11
19.3637
21
-55.5975
0
LINE
8
BLACK
6
CONTINUOUS
10
276.539
20
-55.5975
11
276.539
21
-127.797
0
ARC
8
BLACK
10
274.539
20
-127.797
40
1.99995
50
-90.0014
51
-0
0
ARC
8
BLACK
10
21.3637
20
-127.797
40
2
50
-180
51
-90
0
LINE
8
BLACK
6
CONTINUOUS
10
274.539
20
-53.5975
11
21.3638
21
-53.5975
0
LINE
8
BLACK
6
CONTINUOUS
10
21.3637
20
-129.797
11
274.539
21
-129.797
0
ARC
8
BLACK
10
274.539
20
-55.5975
40
2
50
-0
51
90.0014
0
LINE
8
BLACK
6
CONTINUOUS
10
93.3263
20
-88.1725
11
93.3263
21
-76.1725
0
LINE
8
BLACK
6
CONTINUOUS
10
94.3263
20
-75.1725
11
106.326
21
-75.1725
0
LINE
8
BLACK
6
CONTINUOUS
10
106.326
20
-89.1725
11
94.3263
21
-89.1725
0
LINE
8
BLACK
6
CONTINUOUS
10
107.326
20
-76.1725
11
107.326
21
-88.1725
0
ARC
8
BLACK
10
94.3262
20
-76.1725
40
0.999999
50
-270
51
-180
0
ARC
8
BLACK
10
94.3262
20
-88.1725
40
0.999999
50
-180
51
-89.9999
0
ARC
8
BLACK
10
106.326
20
-76.1725
40
1
50
-0
51
90
0
ARC
8
BLACK
10
106.326
20
-88.1725
40
1
50
-90
51
-0
0
LINE
8
BLACK
6
CONTINUOUS
10
131.426
20
-88.1725
11
131.426
21
-76.1725
0
LINE
8
BLACK
6
CONTINUOUS
10
132.426
20
-75.1725
11
144.426
21
-75.1725
0
LINE
8
BLACK
6
CONTINUOUS
10
144.426
20
-89.1725
11
132.426
21
-89.1725
0
LINE
8
BLACK
6
CONTINUOUS
10
145.426
20
-76.1725
11
145.426
21
-88.1725
0
ARC
8
BLACK
10
132.426
20
-76.1725
40
0.999999
50
-270
51
-180
0
ARC
8
BLACK
10
132.426
20
-88.1725
40
0.999999
50
-180
51
-89.9999
0
ARC
8
BLACK
10
144.426
20
-76.1725
40
1
50
-0
51
90
0
ARC
8
BLACK
10
144.426
20
-88.1725
40
1
50
-90
51
-0
0
LINE
8
BLACK
6
CONTINUOUS
10
74.2762
20
-88.1725
11
74.2762
21
-76.1725
0
LINE
8
BLACK
6
CONTINUOUS
10
75.2762
20
-75.1725
11
87.2762
21
-75.1725
0
LINE
8
BLACK
6
CONTINUOUS
10
87.2762
20
-89.1725
11
75.2762
21
-89.1725
0
LINE
8
BLACK
6
CONTINUOUS
10
88.2762
20
-76.1725
11
88.2762
21
-88.1725
0
ARC
8
BLACK
10
75.2762
20
-76.1725
40
0.999999
50
-270
51
-180
0
ARC
8
BLACK
10
75.2762
20
-88.1725
40
0.999999
50
-180
51
-89.9999
0
ARC
8
BLACK
10
87.2762
20
-76.1725
40
1
50
-0
51
90
0
ARC
8
BLACK
10
87.2762
20
-88.1725
40
1
50
-90
51
-0
0
LINE
8
BLACK
6
CONTINUOUS
10
254.964
20
-57.1225
11
254.964
21
-69.1225
0
LINE
8
BLACK
6
CONTINUOUS
10
253.964
20
-70.1225
11
241.964
21
-70.1225
0
LINE
8
BLACK
6
CONTINUOUS
10
241.964
20
-56.1225
11
253.964
21
-56.1225
0
LINE
8
BLACK
6
CONTINUOUS
10
240.964
20
-69.1225
11
240.964
21
-57.1225
0
ARC
8
BLACK
10
253.964
20
-69.1225
40
0.999999
50
-90.0001
51
5.72958e-05
0
ARC
8
BLACK
10
253.964
20
-57.1225
40
0.999999
50
-5.72958e-05
51
90.0001
0
ARC
8
BLACK
10
241.964
20
-69.1225
40
1
50
-180
51
-90
0
ARC
8
BLACK
10
241.964
20
-57.1225
40
1
50
90
51
180
0
LINE
8
BLACK
6
CONTINUOUS
10
88.5637
20
-69.1225
11
88.5637
21
-57.1225
0
LINE
8
BLACK
6
CONTINUOUS
10
89.5637
20
-56.1225
11
101.564
21
-56.1225
0
LINE
8
BLACK
6
CONTINUOUS
10
101.564
20
-70.1225
11
89.5637
21
-70.1225
0
LINE
8
BLACK
6
CONTINUOUS
10
102.564
20
-57.1225
11
102.564
21
-69.1225
0
ARC
8
BLACK
10
89.5637
20
-57.1225
40
0.999999
50
-270
51
-180
0
ARC
8
BLACK
10
89.5637
20
-69.1225
40
0.999999
50
-180
51
-89.9999
0
ARC
8
BLACK
10
101.564
20
-57.1225
40
1
50
-0
51
90
0
ARC
8
BLACK
10
101.564
20
-69.1225
40
1
50
-90
51
-0
0
LINE
8
BLACK
6
CONTINUOUS
10
102.851
20
-107.222
11
102.851
21
-95.2225
0
LINE
8
BLACK
6
CONTINUOUS
10
103.851
20
-94.2225
11
115.851
21
-94.2225
0
LINE
8
BLACK
6
CONTINUOUS
10
115.851
20
-108.222
11
103.851
21
-108.222
0
LINE
8
BLACK
6
CONTINUOUS
10
116.851
20
-95.2225
11
116.851
21
-107.222
0
ARC
8
BLACK
10
103.851
20
-95.2225
40
0.999999
50
-270
51
-180
0
ARC
8
BLACK
10
103.851
20
-107.223
40
0.999999
50
-180
51
-89.9999
0
ARC
8
BLACK
10
115.851
20
-95.2225
40
1
50
-0
51
90
0
ARC
8
BLACK
10
115.851
20
-107.222
40
1
50
-90
51
-0
0
LINE
8
BLACK
6
CONTINUOUS
10
112.376
20
-88.1725
11
112.376
21
-76.1725
0
LINE
8
BLACK
6
CONTINUOUS
10
113.376
20
-75.1725
11
125.376
21
-75.1725
0
LINE
8
BLACK
6
CONTINUOUS
10
125.376
20
-89.1725
11
113.376
21
-89.1725
0
LINE
8
BLACK
6
CONTINUOUS
10
126.376
20
-76.1725
11
126.376
21
-88.1725
0
ARC
8
BLACK
10
113.376
20
-76.1725
40
0.999999
50
-270
51
-180
0
ARC
8
BLACK
10
113.376
20
-88.1725
40
0.999999
50
-180
51
-89.9999
0
ARC
8
BLACK
10
125.376
20
-76.1725
40
1
50
-0
51
90
0
ARC
8
BLACK
10
125.376
20
-88.1725
40
1
50
-90
51
-0
0
LINE
8
BLACK
6
CONTINUOUS
10
62.0825
20
-114.272
11
62.0825
21
-126.272
0
LINE
8
BLACK
6
CONTINUOUS
10
61.0825
20
-127.272
11
49.0825
21
-127.272
0
LINE
8
BLACK
6
CONTINUOUS
10
49.0825
20
-113.272
11
61.0825
21
-113.272
0
LINE
8
BLACK
6
CONTINUOUS
10
48.0825
20
-126.272
11
48.0825
21
-114.272
0
ARC
8
BLACK
10
61.0825
20
-126.273
40
0.999999
50
-90.0001
51
5.72958e-05
0
ARC
8
BLACK
10
61.0825
20
-114.272
40
0.999999
50
-5.72958e-05
51
90.0001
0
ARC
8
BLACK
10
49.0825
20
-126.272
40
1
50
-180
51
-90
0
ARC
8
BLACK
10
49.0825
20
-114.272
40
1
50
90
51
180
0
LINE
8
BLACK
6
CONTINUOUS
10
55.2263
20
-88.1725
11
55.2263
21
-76.1725
0
LINE
8
BLACK
6
CONTINUOUS
10
56.2263
20
-75.1725
11
68.2262
21
-75.1725
0
LINE
8
BLACK
6
CONTINUOUS
10
68.2262
20
-89.1725
11
56.2263
21
-89.1725
0
LINE
8
BLACK
6
CONTINUOUS
10
69.2262
20
-76.1725
11
69.2262
21
-88.1725
0
ARC
8
BLACK
10
56.2262
20
-76.1725
40
0.999999
50
-270
51
-180
0
ARC
8
BLACK
10
56.2262
20
-88.1725
40
0.999999
50
-180
51
-89.9999
0
ARC
8
BLACK
10
68.2262
20
-76.1725
40
1
50
-0
51
90
0
ARC
8
BLACK
10
68.2262
20
-88.1725
40
1
50
-90
51
-0
0
LINE
8
BLACK
6
CONTINUOUS
10
150.476
20
-126.272
11
150.476
21
-114.272
0
LINE
8
BLACK
6
CONTINUOUS
10
151.476
20
-113.272
11
163.476
21
-113.272
0
LINE
8
BLACK
6
CONTINUOUS
10
163.476
20
-127.272
11
151.476
21
-127.272
0
LINE
8
BLACK
6
CONTINUOUS
10
164.476
20
-114.272
11
164.476
21
-126.272
0
ARC
8
BLACK
10
151.476
20
-114.272
40
0.999999
50
-270
51
-180
0
ARC
8
BLACK
10
151.476
20
-126.272
40
0.999999
50
-180
51
-89.9999
0
ARC
8
BLACK
10
163.476
20
-114.272
40
1
50
-0
51
90
0
ARC
8
BLACK
10
163.476
20
-126.272
40
1
50
-90
51
-0
0
LINE
8
BLACK
6
CONTINUOUS
10
198.101
20
-107.222
11
198.101
21
-95.2225
0
LINE
8
BLACK
6
CONTINUOUS
10
199.101
20
-94.2225
11
211.101
21
-94.2225
0
LINE
8
BLACK
6
CONTINUOUS
10
211.101
20
-108.222
11
199.101
21
-108.222
0
LINE
8
BLACK
6
CONTINUOUS
10
212.101
20
-95.2225
11
212.101
21
-107.222
0
ARC
8
BLACK
10
199.101
20
-95.2225
40
0.999999
50
-270
51
-180
0
ARC
8
BLACK
10
199.101
20
-107.223
40
0.999999
50
-180
51
-89.9999
0
ARC
8
BLACK
10
211.101
20
-95.2225
40
1
50
-0
51
90
0
ARC
8
BLACK
10
211.101
20
-107.222
40
1
50
-90
51
-0
0
LINE
8
BLACK
6
CONTINUOUS
10
83.8012
20
-107.222
11
83.8012
21
-95.2225
0
LINE
8
BLACK
6
CONTINUOUS
10
84.8012
20
-94.2225
11
96.8012
21
-94.2225
0
LINE
8
BLACK
6
CONTINUOUS
10
96.8012
20
-108.222
11
84.8012
21
-108.222
0
LINE
8
BLACK
6
CONTINUOUS
10
97.8012
20
-95.2225
11
97.8012
21
-107.222
0
ARC
8
BLACK
10
84.8012
20
-95.2225
40
0.999999
50
-270
51
-180
0
ARC
8
BLACK
10
84.8012
20
-107.223
40
0.999999
50
-180
51
-89.9999
0
ARC
8
BLACK
10
96.8012
20
-95.2225
40
1
50
-0
51
90
0
ARC
8
BLACK
10
96.8012
20
-107.222
40
1
50
-90
51
-0
0
LINE
8
BLACK
6
CONTINUOUS
10
24.27
20
-126.272
11
24.27
21
-114.272
0
LINE
8
BLACK
6
CONTINUOUS
10
25.27
20
-113.272
11
37.27
21
-113.272
0
LINE
8
BLACK
6
CONTINUOUS
10
37.27
20
-127.272
11
25.27
21
-127.272
0
LINE
8
BLACK
6
CONTINUOUS
10
38.27
20
-114.272
11
38.27
21
-126.272
0
ARC
8
BLACK
10
25.27
20
-114.272
40
0.999999
50
-270
51
-180
0
ARC
8
BLACK
10
25.27
20
-126.273
40
0.999999
50
-180
51
-89.9999
0
ARC
8
BLACK
10
37.27
20
-114.272
40
1
50
-0
51
90
0
ARC
8
BLACK
10
37.27
20
-126.272
40
1
50
-90
51
-0
0
LINE
8
BLACK
6
CONTINUOUS
10
128.757
20
-114.272
11
128.757
21
-126.272
0
LINE
8
BLACK
6
CONTINUOUS
10
127.757
20
-127.272
11
115.757
21
-127.272
0
LINE
8
BLACK
6
CONTINUOUS
10
115.757
20
-113.272
11
127.757
21
-113.272
0
LINE
8
BLACK
6
CONTINUOUS
10
114.757
20
-126.272
11
114.757
21
-114.272
0
ARC
8
BLACK
10
127.758
20
-126.273
40
0.999999
50
-90.0001
51
5.72958e-05
0
ARC
8
BLACK
10
127.758
20
-114.272
40
0.999999
50
-5.72958e-05
51
90.0001
0
ARC
8
BLACK
10
115.757
20
-126.272
40
1
50
-180
51
-90
0
ARC
8
BLACK
10
115.757
20
-114.272
40
1
50
90
51
180
0
LINE
8
BLACK
6
CONTINUOUS
10
121.901
20
-107.222
11
121.901
21
-95.2225
0
LINE
8
BLACK
6
CONTINUOUS
10
122.901
20
-94.2225
11
134.901
21
-94.2225
0
LINE
8
BLACK
6
CONTINUOUS
10
134.901
20
-108.222
11
122.901
21
-108.222
0
LINE
8
BLACK
6
CONTINUOUS
10
135.901
20
-95.2225
11
135.901
21
-107.222
0
ARC
8
BLACK
10
122.901
20
-95.2225
40
0.999999
50
-270
51
-180
0
ARC
8
BLACK
10
122.901
20
-107.223
40
0.999999
50
-180
51
-89.9999
0
ARC
8
BLACK
10
134.901
20
-95.2225
40
1
50
-0
51
90
0
ARC
8
BLACK
10
134.901
20
-107.222
40
1
50
-90
51
-0
0
LINE
8
BLACK
6
CONTINUOUS
10
107.614
20
-69.1225
11
107.614
21
-57.1225
0
LINE
8
BLACK
6
CONTINUOUS
10
108.614
20
-56.1225
11
120.614
21
-56.1225
0
LINE
8
BLACK
6
CONTINUOUS
10
120.614
20
-70.1225
11
108.614
21
-70.1225
0
LINE
8
BLACK
6
CONTINUOUS
10
121.614
20
-57.1225
11
121.614
21
-69.1225
0
ARC
8
BLACK
10
108.614
20
-57.1225
40
0.999999
50
-270
51
-180
0
ARC
8
BLACK
10
108.614
20
-69.1225
40
0.999999
50
-180
51
-89.9999
0
ARC
8
BLACK
10
120.614
20
-57.1225
40
1
50
-0
51
90
0
ARC
8
BLACK
10
120.614
20
-69.1225
40
1
50
-90
51
-0
0
LINE
8
BLACK
6
CONTINUOUS
10
202.864
20
-69.1225
11
202.864
21
-57.1225
0
LINE
8
BLACK
6
CONTINUOUS
10
203.864
20
-56.1225
11
215.864
21
-56.1225
0
LINE
8
BLACK
6
CONTINUOUS
10
215.864
20
-70.1225
11
203.864
21
-70.1225
0
LINE
8
BLACK
6
CONTINUOUS
10
216.864
20
-57.1225
11
216.864
21
-69.1225
0
ARC
8
BLACK
10
203.864
20
-57.1225
40
0.999999
50
-270
51
-180
0
ARC
8
BLACK
10
203.864
20
-69.1225
40
0.999999
50
-180
51
-89.9999
0
ARC
8
BLACK
10
215.864
20
-57.1225
40
1
50
-0
51
90
0
ARC
8
BLACK
10
215.864
20
-69.1225
40
1
50
-90
51
-0
0
LINE
8
BLACK
6
CONTINUOUS
10
69.5138
20
-69.1225
11
69.5138
21
-57.1225
0
LINE
8
BLACK
6
CONTINUOUS
10
70.5138
20
-56.1225
11
82.5138
21
-56.1225
0
LINE
8
BLACK
6
CONTINUOUS
10
82.5138
20
-70.1225
11
70.5138
21
-70.1225
0
LINE
8
BLACK
6
CONTINUOUS
10
83.5138
20
-57.1225
11
83.5138
21
-69.1225
0
ARC
8
BLACK
10
70.5137
20
-57.1225
40
0.999999
50
-270
51
-180
0
ARC
8
BLACK
10
70.5137
20
-69.1225
40
0.999999
50
-180
51
-89.9999
0
ARC
8
BLACK
10
82.5138
20
-57.1225
40
1
50
-0
51
90
0
ARC
8
BLACK
10
82.5138
20
-69.1225
40
1
50
-90
51
-0
0
LINE
8
BLACK
6
CONTINUOUS
10
145.714
20
-69.1225
11
145.714
21
-57.1225
0
LINE
8
BLACK
6
CONTINUOUS
10
146.714
20
-56.1225
11
158.714
21
-56.1225
0
LINE
8
BLACK
6
CONTINUOUS
10
158.714
20
-70.1225
11
146.714
21
-70.1225
0
LINE
8
BLACK
6
CONTINUOUS
10
159.714
20
-57.1225
11
159.714
21
-69.1225
0
ARC
8
BLACK
10
146.714
20
-57.1225
40
0.999999
50
-270
51
-180
0
ARC
8
BLACK
10
146.714
20
-69.1225
40
0.999999
50
-180
51
-89.9999
0
ARC
8
BLACK
10
158.714
20
-57.1225
40
1
50
-0
51
90
0
ARC
8
BLACK
10
158.714
20
-69.1225
40
1
50
-90
51
-0
0
LINE
8
BLACK
6
CONTINUOUS
10
188.576
20
-88.1725
11
188.576
21
-76.1725
0
LINE
8
BLACK
6
CONTINUOUS
10
189.576
20
-75.1725
11
201.576
21
-75.1725
0
LINE
8
BLACK
6
CONTINUOUS
10
201.576
20
-89.1725
11
189.576
21
-89.1725
0
LINE
8
BLACK
6
CONTINUOUS
10
202.576
20
-76.1725
11
202.576
21
-88.1725
0
ARC
8
BLACK
10
189.576
20
-76.1725
40
0.999999
50
-270
51
-180
0
ARC
8
BLACK
10
189.576
20
-88.1725
40
0.999999
50
-180
51
-89.9999
0
ARC
8
BLACK
10
201.576
20
-76.1725
40
1
50
-0
51
90
0
ARC
8
BLACK
10
201.576
20
-88.1725
40
1
50
-90
51
-0
0
LINE
8
BLACK
6
CONTINUOUS
10
236.201
20
-107.222
11
236.201
21
-95.2225
0
LINE
8
BLACK
6
CONTINUOUS
10
237.201
20
-94.2225
11
249.201
21
-94.2225
0
LINE
8
BLACK
6
CONTINUOUS
10
249.201
20
-108.222
11
237.201
21
-108.222
0
LINE
8
BLACK
6
CONTINUOUS
10
250.201
20
-95.2225
11
250.201
21
-107.222
0
ARC
8
BLACK
10
237.201
20
-95.2225
40
0.999999
50
-270
51
-180
0
ARC
8
BLACK
10
237.201
20
-107.223
40
0.999999
50
-180
51
-89.9999
0
ARC
8
BLACK
10
249.201
20
-95.2225
40
1
50
-0
51
90
0
ARC
8
BLACK
10
249.201
20
-107.222
40
1
50
-90
51
-0
0
LINE
8
BLACK
6
CONTINUOUS
10
221.914
20
-69.1225
11
221.914
21
-57.1225
0
LINE
8
BLACK
6
CONTINUOUS
10
222.914
20
-56.1225
11
234.914
21
-56.1225
0
LINE
8
BLACK
6
CONTINUOUS
10
234.914
20
-70.1225
11
222.914
21
-70.1225
0
LINE
8
BLACK
6
CONTINUOUS
10
235.914
20
-57.1225
11
235.914
21
-69.1225
0
ARC
8
BLACK
10
222.914
20
-57.1225
40
0.999999
50
-270
51
-180
0
ARC
8
BLACK
10
222.914
20
-69.1225
40
0.999999
50
-180
51
-89.9999
0
ARC
8
BLACK
10
234.914
20
-57.1225
40
1
50
-0
51
90
0
ARC
8
BLACK
10
234.914
20
-69.1225
40
1
50
-90
51
-0
0
LINE
8
BLACK
6
CONTINUOUS
10
257.632
20
-107.222
11
257.632
21
-95.2225
0
LINE
8
BLACK
6
CONTINUOUS
10
258.632
20
-94.2225
11
270.632
21
-94.2225
0
LINE
8
BLACK
6
CONTINUOUS
10
270.632
20
-108.222
11
258.632
21
-108.222
0
LINE
8
BLACK
6
CONTINUOUS
10
271.632
20
-95.2225
11
271.632
21
-107.222
0
ARC
8
BLACK
10
258.632
20
-95.2225
40
0.999999
50
-270
51
-180
0
ARC
8
BLACK
10
258.632
20
-107.223
40
0.999999
50
-180
51
-89.9999
0
ARC
8
BLACK
10
270.632
20
-95.2225
40
1
50
-0
51
90
0
ARC
8
BLACK
10
270.632
20
-107.222
40
1
50
-90
51
-0
0
LINE
8
BLACK
6
CONTINUOUS
10
233.816
20
-126.271
11
233.816
21
-114.271
0
LINE
8
BLACK
6
CONTINUOUS
10
234.816
20
-113.271
11
246.816
21
-113.271
0
LINE
8
BLACK
6
CONTINUOUS
10
246.816
20
-127.271
11
234.816
21
-127.271
0
LINE
8
BLACK
6
CONTINUOUS
10
247.816
20
-114.271
11
247.816
21
-126.271
0
ARC
8
BLACK
10
234.816
20
-114.271
40
0.999999
50
-270
51
-180
0
ARC
8
BLACK
10
234.816
20
-126.271
40
0.999999
50
-180
51
-89.9999
0
ARC
8
BLACK
10
246.816
20
-114.271
40
1
50
-0
51
90
0
ARC
8
BLACK
10
246.816
20
-126.271
40
1
50
-90
51
-0
0
LINE
8
BLACK
6
CONTINUOUS
10
140.951
20
-107.222
11
140.951
21
-95.2225
0
LINE
8
BLACK
6
CONTINUOUS
10
141.951
20
-94.2225
11
153.951
21
-94.2225
0
LINE
8
BLACK
6
CONTINUOUS
10
153.951
20
-108.222
11
141.951
21
-108.222
0
LINE
8
BLACK
6
CONTINUOUS
10
154.951
20
-95.2225
11
154.951
21
-107.222
0
ARC
8
BLACK
10
141.951
20
-95.2225
40
0.999999
50
-270
51
-180
0
ARC
8
BLACK
10
141.951
20
-107.223
40
0.999999
50
-180
51
-89.9999
0
ARC
8
BLACK
10
153.951
20
-95.2225
40
1
50
-0
51
90
0
ARC
8
BLACK
10
153.951
20
-107.222
40
1
50
-90
51
-0
0
LINE
8
BLACK
6
CONTINUOUS
10
29.0325
20
-88.1725
11
29.0325
21
-76.1725
0
LINE
8
BLACK
6
CONTINUOUS
10
30.0325
20
-75.1725
11
42.0325
21
-75.1725
0
LINE
8
BLACK
6
CONTINUOUS
10
42.0325
20
-89.1725
11
30.0325
21
-89.1725
0
LINE
8
BLACK
6
CONTINUOUS
10
43.0325
20
-76.1725
11
43.0325
21
-88.1725
0
ARC
8
BLACK
10
30.0325
20
-76.1725
40
0.999999
50
-270
51
-180
0
ARC
8
BLACK
10
30.0325
20
-88.1725
40
0.999999
50
-180
51
-89.9999
0
ARC
8
BLACK
10
42.0325
20
-76.1725
40
1
50
-0
51
90
0
ARC
8
BLACK
10
42.0325
20
-88.1725
40
1
50
-90
51
-0
0
LINE
8
BLACK
6
CONTINUOUS
10
126.664
20
-69.1225
11
126.664
21
-57.1225
0
LINE
8
BLACK
6
CONTINUOUS
10
127.664
20
-56.1225
11
139.664
21
-56.1225
0
LINE
8
BLACK
6
CONTINUOUS
10
139.664
20
-70.1225
11
127.664
21
-70.1225
0
LINE
8
BLACK
6
CONTINUOUS
10
140.664
20
-57.1225
11
140.664
21
-69.1225
0
ARC
8
BLACK
10
127.664
20
-57.1225
40
0.999999
50
-270
51
-180
0
ARC
8
BLACK
10
127.664
20
-69.1225
40
0.999999
50
-180
51
-89.9999
0
ARC
8
BLACK
10
139.664
20
-57.1225
40
1
50
-0
51
90
0
ARC
8
BLACK
10
139.664
20
-69.1225
40
1
50
-90
51
-0
0
LINE
8
BLACK
6
CONTINUOUS
10
160.001
20
-107.222
11
160.001
21
-95.2225
0
LINE
8
BLACK
6
CONTINUOUS
10
161.001
20
-94.2225
11
173.001
21
-94.2225
0
LINE
8
BLACK
6
CONTINUOUS
10
173.001
20
-108.222
11
161.001
21
-108.222
0
LINE
8
BLACK
6
CONTINUOUS
10
174.001
20
-95.2225
11
174.001
21
-107.222
0
ARC
8
BLACK
10
161.001
20
-95.2225
40
0.999999
50
-270
51
-180
0
ARC
8
BLACK
10
161.001
20
-107.223
40
0.999999
50
-180
51
-89.9999
0
ARC
8
BLACK
10
173.001
20
-95.2225
40
1
50
-0
51
90
0
ARC
8
BLACK
10
173.001
20
-107.222
40
1
50
-90
51
-0
0
LINE
8
BLACK
6
CONTINUOUS
10
150.476
20
-88.1725
11
150.476
21
-76.1725
0
LINE
8
BLACK
6
CONTINUOUS
10
151.476
20
-75.1725
11
163.476
21
-75.1725
0
LINE
8
BLACK
6
CONTINUOUS
10
163.476
20
-89.1725
11
151.476
21
-89.1725
0
LINE
8
BLACK
6
CONTINUOUS
10
164.476
20
-76.1725
11
164.476
21
-88.1725
0
ARC
8
BLACK
10
151.476
20
-76.1725
40
0.999999
50
-270
51
-180
0
ARC
8
BLACK
10
151.476
20
-88.1725
40
0.999999
50
-180
51
-89.9999
0
ARC
8
BLACK
10
163.476
20
-76.1725
40
1
50
-0
51
90
0
ARC
8
BLACK
10
163.476
20
-88.1725
40
1
50
-90
51
-0
0
LINE
8
BLACK
6
CONTINUOUS
10
217.151
20
-107.222
11
217.151
21
-95.2225
0
LINE
8
BLACK
6
CONTINUOUS
10
218.151
20
-94.2225
11
230.151
21
-94.2225
0
LINE
8
BLACK
6
CONTINUOUS
10
230.151
20
-108.222
11
218.151
21
-108.222
0
LINE
8
BLACK
6
CONTINUOUS
10
231.151
20
-95.2225
11
231.151
21
-107.222
0
ARC
8
BLACK
10
218.151
20
-95.2225
40
0.999999
50
-270
51
-180
0
ARC
8
BLACK
10
218.151
20
-107.223
40
0.999999
50
-180
51
-89.9999
0
ARC
8
BLACK
10
230.151
20
-95.2225
40
1
50
-0
51
90
0
ARC
8
BLACK
10
230.151
20
-107.222
40
1
50
-90
51
-0
0
LINE
8
BLACK
6
CONTINUOUS
10
169.714
20
-126.272
11
169.714
21
-114.272
0
LINE
8
BLACK
6
CONTINUOUS
10
170.714
20
-113.272
11
182.714
21
-113.272
0
LINE
8
BLACK
6
CONTINUOUS
10
182.714
20
-127.272
11
170.714
21
-127.272
0
LINE
8
BLACK
6
CONTINUOUS
10
183.714
20
-114.272
11
183.714
21
-126.272
0
ARC
8
BLACK
10
170.714
20
-114.272
40
0.999999
50
-270
51
-180
0
ARC
8
BLACK
10
170.714
20
-126.273
40
0.999999
50
-180
51
-89.9999
0
ARC
8
BLACK
10
182.714
20
-114.272
40
1
50
-0
51
90
0
ARC
8
BLACK
10
182.714
20
-126.272
40
1
50
-90
51
-0
0
LINE
8
BLACK
6
CONTINUOUS
10
252.87
20
-88.1725
11
252.87
21
-76.1725
0
LINE
8
BLACK
6
CONTINUOUS
10
253.87
20
-75.1725
11
265.87
21
-75.1725
0
LINE
8
BLACK
6
CONTINUOUS
10
265.87
20
-89.1725
11
253.87
21
-89.1725
0
LINE
8
BLACK
6
CONTINUOUS
10
266.87
20
-76.1725
11
266.87
21
-88.1725
0
ARC
8
BLACK
10
253.87
20
-76.1725
40
0.999999
50
-270
51
-180
0
ARC
8
BLACK
10
253.87
20
-88.1725
40
0.999999
50
-180
51
-89.9999
0
ARC
8
BLACK
10
265.87
20
-76.1725
40
1
50
-0
51
90
0
ARC
8
BLACK
10
265.87
20
-88.1725
40
1
50
-90
51
-0
0
LINE
8
BLACK
6
CONTINUOUS
10
64.7512
20
-107.222
11
64.7512
21
-95.2225
0
LINE
8
BLACK
6
CONTINUOUS
10
65.7512
20
-94.2225
11
77.7512
21
-94.2225
0
LINE
8
BLACK
6
CONTINUOUS
10
77.7512
20
-108.222
11
65.7512
21
-108.222
0
LINE
8
BLACK
6
CONTINUOUS
10
78.7512
20
-95.2225
11
78.7512
21
-107.222
0
ARC
8
BLACK
10
65.7512
20
-95.2225
40
0.999999
50
-270
51
-180
0
ARC
8
BLACK
10
65.7512
20
-107.223
40
0.999999
50
-180
51
-89.9999
0
ARC
8
BLACK
10
77.7512
20
-95.2225
40
1
50
-0
51
90
0
ARC
8
BLACK
10
77.7512
20
-107.222
40
1
50
-90
51
-0
0
LINE
8
BLACK
6
CONTINUOUS
10
271.632
20
-114.272
11
271.632
21
-126.272
0
LINE
8
BLACK
6
CONTINUOUS
10
270.632
20
-127.272
11
258.632
21
-127.272
0
LINE
8
BLACK
6
CONTINUOUS
10
258.632
20
-113.272
11
270.632
21
-113.272
0
LINE
8
BLACK
6
CONTINUOUS
10
257.632
20
-126.272
11
257.632
21
-114.272
0
ARC
8
BLACK
10
270.633
20
-126.273
40
0.999999
50
-90.0001
51
5.72958e-05
0
ARC
8
BLACK
10
270.633
20
-114.272
40
0.999999
50
-5.72958e-05
51
90.0001
0
ARC
8
BLACK
10
258.632
20
-126.272
40
1
50
-180
51
-90
0
ARC
8
BLACK
10
258.632
20
-114.272
40
1
50
90
51
180
0
LINE
8
BLACK
6
CONTINUOUS
10
210.007
20
-126.272
11
210.007
21
-114.272
0
LINE
8
BLACK
6
CONTINUOUS
10
211.007
20
-113.272
11
223.007
21
-113.272
0
LINE
8
BLACK
6
CONTINUOUS
10
223.007
20
-127.272
11
211.007
21
-127.272
0
LINE
8
BLACK
6
CONTINUOUS
10
224.007
20
-114.272
11
224.007
21
-126.272
0
ARC
8
BLACK
10
211.007
20
-114.272
40
0.999999
50
-270
51
-180
0
ARC
8
BLACK
10
211.007
20
-126.273
40
0.999999
50
-180
51
-89.9999
0
ARC
8
BLACK
10
223.007
20
-114.272
40
1
50
-0
51
90
0
ARC
8
BLACK
10
223.007
20
-126.272
40
1
50
-90
51
-0
0
LINE
8
BLACK
6
CONTINUOUS
10
183.814
20
-69.1225
11
183.814
21
-57.1225
0
LINE
8
BLACK
6
CONTINUOUS
10
184.814
20
-56.1225
11
196.814
21
-56.1225
0
LINE
8
BLACK
6
CONTINUOUS
10
196.814
20
-70.1225
11
184.814
21
-70.1225
0
LINE
8
BLACK
6
CONTINUOUS
10
197.814
20
-57.1225
11
197.814
21
-69.1225
0
ARC
8
BLACK
10
184.814
20
-57.1225
40
0.999999
50
-270
51
-180
0
ARC
8
BLACK
10
184.814
20
-69.1225
40
0.999999
50
-180
51
-89.9999
0
ARC
8
BLACK
10
196.814
20
-57.1225
40
1
50
-0
51
90
0
ARC
8
BLACK
10
196.814
20
-69.1225
40
1
50
-90
51
-0
0
LINE
8
BLACK
6
CONTINUOUS
10
50.4637
20
-69.1225
11
50.4637
21
-57.1225
0
LINE
8
BLACK
6
CONTINUOUS
10
51.4637
20
-56.1225
11
63.4637
21
-56.1225
0
LINE
8
BLACK
6
CONTINUOUS
10
63.4637
20
-70.1225
11
51.4637
21
-70.1225
0
LINE
8
BLACK
6
CONTINUOUS
10
64.4637
20
-57.1225
11
64.4637
21
-69.1225
0
ARC
8
BLACK
10
51.4637
20
-57.1225
40
0.999999
50
-270
51
-180
0
ARC
8
BLACK
10
51.4637
20
-69.1225
40
0.999999
50
-180
51
-89.9999
0
ARC
8
BLACK
10
63.4637
20
-57.1225
40
1
50
-0
51
90
0
ARC
8
BLACK
10
63.4637
20
-69.1225
40
1
50
-90
51
-0
0
LINE
8
BLACK
6
CONTINUOUS
10
26.6512
20
-69.1225
11
26.6512
21
-57.1225
0
LINE
8
BLACK
6
CONTINUOUS
10
27.6512
20
-56.1225
11
39.6512
21
-56.1225
0
LINE
8
BLACK
6
CONTINUOUS
10
39.6512
20
-70.1225
11
27.6512
21
-70.1225
0
LINE
8
BLACK
6
CONTINUOUS
10
40.6512
20
-57.1225
11
40.6512
21
-69.1225
0
ARC
8
BLACK
10
27.6512
20
-57.1225
40
0.999999
50
-270
51
-180
0
ARC
8
BLACK
10
27.6512
20
-69.1225
40
0.999999
50
-180
51
-89.9999
0
ARC
8
BLACK
10
39.6512
20
-57.1225
40
1
50
-0
51
90
0
ARC
8
BLACK
10
39.6512
20
-69.1225
40
1
50
-90
51
-0
0
LINE
8
BLACK
6
CONTINUOUS
10
179.051
20
-107.222
11
179.051
21
-95.2225
0
LINE
8
BLACK
6
CONTINUOUS
10
180.051
20
-94.2225
11
192.051
21
-94.2225
0
LINE
8
BLACK
6
CONTINUOUS
10
192.051
20
-108.222
11
180.051
21
-108.222
0
LINE
8
BLACK
6
CONTINUOUS
10
193.051
20
-95.2225
11
193.051
21
-107.222
0
ARC
8
BLACK
10
180.051
20
-95.2225
40
0.999999
50
-270
51
-180
0
ARC
8
BLACK
10
180.051
20
-107.223
40
0.999999
50
-180
51
-89.9999
0
ARC
8
BLACK
10
192.051
20
-95.2225
40
1
50
-0
51
90
0
ARC
8
BLACK
10
192.051
20
-107.222
40
1
50
-90
51
-0
0
LINE
8
BLACK
6
CONTINUOUS
10
274.014
20
-57.1225
11
274.014
21
-69.1225
0
LINE
8
BLACK
6
CONTINUOUS
10
273.014
20
-70.1225
11
261.014
21
-70.1225
0
LINE
8
BLACK
6
CONTINUOUS
10
261.014
20
-56.1225
11
273.014
21
-56.1225
0
LINE
8
BLACK
6
CONTINUOUS
10
260.014
20
-69.1225
11
260.014
21
-57.1225
0
ARC
8
BLACK
10
273.014
20
-69.1225
40
0.999999
50
-90.0001
51
5.72958e-05
0
ARC
8
BLACK
10
273.014
20
-57.1225
40
0.999999
50
-5.72958e-05
51
90.0001
0
ARC
8
BLACK
10
261.014
20
-69.1225
40
1
50
-180
51
-90
0
ARC
8
BLACK
10
261.014
20
-57.1225
40
1
50
90
51
180
0
LINE
8
BLACK
6
CONTINUOUS
10
207.626
20
-88.1725
11
207.626
21
-76.1725
0
LINE
8
BLACK
6
CONTINUOUS
10
208.626
20
-75.1725
11
220.626
21
-75.1725
0
LINE
8
BLACK
6
CONTINUOUS
10
220.626
20
-89.1725
11
208.626
21
-89.1725
0
LINE
8
BLACK
6
CONTINUOUS
10
221.626
20
-76.1725
11
221.626
21
-88.1725
0
ARC
8
BLACK
10
208.626
20
-76.1725
40
0.999999
50
-270
51
-180
0
ARC
8
BLACK
10
208.626
20
-88.1725
40
0.999999
50
-180
51
-89.9999
0
ARC
8
BLACK
10
220.626
20
-76.1725
40
1
50
-0
51
90
0
ARC
8
BLACK
10
220.626
20
-88.1725
40
1
50
-90
51
-0
0
LINE
8
BLACK
6
CONTINUOUS
10
164.764
20
-69.1225
11
164.764
21
-57.1225
0
LINE
8
BLACK
6
CONTINUOUS
10
165.764
20
-56.1225
11
177.764
21
-56.1225
0
LINE
8
BLACK
6
CONTINUOUS
10
177.764
20
-70.1225
11
165.764
21
-70.1225
0
LINE
8
BLACK
6
CONTINUOUS
10
178.764
20
-57.1225
11
178.764
21
-69.1225
0
ARC
8
BLACK
10
165.764
20
-57.1225
40
0.999999
50
-270
51
-180
0
ARC
8
BLACK
10
165.764
20
-69.1225
40
0.999999
50
-180
51
-89.9999
0
ARC
8
BLACK
10
177.764
20
-57.1225
40
1
50
-0
51
90
0
ARC
8
BLACK
10
177.764
20
-69.1225
40
1
50
-90
51
-0
0
LINE
8
BLACK
6
CONTINUOUS
10
33.795
20
-107.222
11
33.795
21
-95.2225
0
LINE
8
BLACK
6
CONTINUOUS
10
34.795
20
-94.2225
11
46.795
21
-94.2225
0
LINE
8
BLACK
6
CONTINUOUS
10
46.795
20
-108.222
11
34.795
21
-108.222
0
LINE
8
BLACK
6
CONTINUOUS
10
47.795
20
-95.2225
11
47.795
21
-107.222
0
ARC
8
BLACK
10
34.795
20
-95.2225
40
0.999999
50
-270
51
-180
0
ARC
8
BLACK
10
34.795
20
-107.223
40
0.999999
50
-180
51
-89.9999
0
ARC
8
BLACK
10
46.795
20
-95.2225
40
1
50
-0
51
90
0
ARC
8
BLACK
10
46.795
20
-107.222
40
1
50
-90
51
-0
0
LINE
8
BLACK
6
CONTINUOUS
10
169.526
20
-88.1725
11
169.526
21
-76.1725
0
LINE
8
BLACK
6
CONTINUOUS
10
170.526
20
-75.1725
11
182.526
21
-75.1725
0
LINE
8
BLACK
6
CONTINUOUS
10
182.526
20
-89.1725
11
170.526
21
-89.1725
0
LINE
8
BLACK
6
CONTINUOUS
10
183.526
20
-76.1725
11
183.526
21
-88.1725
0
ARC
8
BLACK
10
170.526
20
-76.1725
40
0.999999
50
-270
51
-180
0
ARC
8
BLACK
10
170.526
20
-88.1725
40
0.999999
50
-180
51
-89.9999
0
ARC
8
BLACK
10
182.526
20
-76.1725
40
1
50
-0
51
90
0
ARC
8
BLACK
10
182.526
20
-88.1725
40
1
50
-90
51
-0
0
LINE
8
BLACK
6
CONTINUOUS
10
226.676
20
-88.1725
11
226.676
21
-76.1725
0
LINE
8
BLACK
6
CONTINUOUS
10
227.676
20
-75.1725
11
239.676
21
-75.1725
0
LINE
8
BLACK
6
CONTINUOUS
10
239.676
20
-89.1725
11
227.676
21
-89.1725
0
LINE
8
BLACK
6
CONTINUOUS
10
240.676
20
-76.1725
11
240.676
21
-88.1725
0
ARC
8
BLACK
10
227.676
20
-76.1725
40
0.999999
50
-270
51
-180
0
ARC
8
BLACK
10
227.676
20
-88.1725
40
0.999999
50
-180
51
-89.9999
0
ARC
8
BLACK
10
239.676
20
-76.1725
40
1
50
-0
51
90
0
ARC
8
BLACK
10
239.676
20
-88.1725
40
1
50
-90
51
-0
0
LINE
8
BLACK
6
CONTINUOUS
10
79.038
20
-126.272
11
79.038
21
-114.272
0
LINE
8
BLACK
6
CONTINUOUS
10
80.038
20
-113.272
11
92.038
21
-113.272
0
LINE
8
BLACK
6
CONTINUOUS
10
92.038
20
-127.272
11
80.038
21
-127.272
0
LINE
8
BLACK
6
CONTINUOUS
10
93.038
20
-114.272
11
93.038
21
-126.272
0
ARC
8
BLACK
10
80.038
20
-114.272
40
0.999999
50
-270
51
-180
0
ARC
8
BLACK
10
80.038
20
-126.273
40
0.999999
50
-180
51
-89.9999
0
ARC
8
BLACK
10
92.038
20
-114.272
40
1
50
-0
51
90
0
ARC
8
BLACK
10
92.038
20
-126.272
40
1
50
-90
51
-0
  0
ENDSEC
  0
EOF
