G04 #@! TF.GenerationSoftware,KiCad,Pcbnew,7.0.7-7.0.7~ubuntu23.04.1*
G04 #@! TF.CreationDate,2023-09-10T23:10:07+00:00*
G04 #@! TF.ProjectId,plate,706c6174-652e-46b6-9963-61645f706362,rev?*
G04 #@! TF.SameCoordinates,Original*
G04 #@! TF.FileFunction,Legend,Top*
G04 #@! TF.FilePolarity,Positive*
%FSLAX46Y46*%
G04 Gerber Fmt 4.6, Leading zero omitted, Abs format (unit mm)*
G04 Created by KiCad (PCBNEW 7.0.7-7.0.7~ubuntu23.04.1) date 2023-09-10 23:10:07*
%MOMM*%
%LPD*%
G01*
G04 APERTURE LIST*
%ADD10C,0.100000*%
%ADD11C,2.200000*%
G04 APERTURE END LIST*
D10*
X39461406Y-101180069D02*
X39128073Y-100703878D01*
X38889978Y-101180069D02*
X38889978Y-100180069D01*
X38889978Y-100180069D02*
X39270930Y-100180069D01*
X39270930Y-100180069D02*
X39366168Y-100227688D01*
X39366168Y-100227688D02*
X39413787Y-100275307D01*
X39413787Y-100275307D02*
X39461406Y-100370545D01*
X39461406Y-100370545D02*
X39461406Y-100513402D01*
X39461406Y-100513402D02*
X39413787Y-100608640D01*
X39413787Y-100608640D02*
X39366168Y-100656259D01*
X39366168Y-100656259D02*
X39270930Y-100703878D01*
X39270930Y-100703878D02*
X38889978Y-100703878D01*
X39889978Y-100656259D02*
X40223311Y-100656259D01*
X40366168Y-101180069D02*
X39889978Y-101180069D01*
X39889978Y-101180069D02*
X39889978Y-100180069D01*
X39889978Y-100180069D02*
X40366168Y-100180069D01*
X41128073Y-100656259D02*
X40794740Y-100656259D01*
X40794740Y-101180069D02*
X40794740Y-100180069D01*
X40794740Y-100180069D02*
X41270930Y-100180069D01*
X41794740Y-100180069D02*
X41794740Y-100418164D01*
X41556645Y-100322926D02*
X41794740Y-100418164D01*
X41794740Y-100418164D02*
X42032835Y-100322926D01*
X41651883Y-100608640D02*
X41794740Y-100418164D01*
X41794740Y-100418164D02*
X41937597Y-100608640D01*
X42556645Y-100180069D02*
X42556645Y-100418164D01*
X42318550Y-100322926D02*
X42556645Y-100418164D01*
X42556645Y-100418164D02*
X42794740Y-100322926D01*
X42413788Y-100608640D02*
X42556645Y-100418164D01*
X42556645Y-100418164D02*
X42699502Y-100608640D01*
X168047406Y-120229999D02*
X167714073Y-119753808D01*
X167475978Y-120229999D02*
X167475978Y-119229999D01*
X167475978Y-119229999D02*
X167856930Y-119229999D01*
X167856930Y-119229999D02*
X167952168Y-119277618D01*
X167952168Y-119277618D02*
X167999787Y-119325237D01*
X167999787Y-119325237D02*
X168047406Y-119420475D01*
X168047406Y-119420475D02*
X168047406Y-119563332D01*
X168047406Y-119563332D02*
X167999787Y-119658570D01*
X167999787Y-119658570D02*
X167952168Y-119706189D01*
X167952168Y-119706189D02*
X167856930Y-119753808D01*
X167856930Y-119753808D02*
X167475978Y-119753808D01*
X168475978Y-119706189D02*
X168809311Y-119706189D01*
X168952168Y-120229999D02*
X168475978Y-120229999D01*
X168475978Y-120229999D02*
X168475978Y-119229999D01*
X168475978Y-119229999D02*
X168952168Y-119229999D01*
X169714073Y-119706189D02*
X169380740Y-119706189D01*
X169380740Y-120229999D02*
X169380740Y-119229999D01*
X169380740Y-119229999D02*
X169856930Y-119229999D01*
X170380740Y-119229999D02*
X170380740Y-119468094D01*
X170142645Y-119372856D02*
X170380740Y-119468094D01*
X170380740Y-119468094D02*
X170618835Y-119372856D01*
X170237883Y-119658570D02*
X170380740Y-119468094D01*
X170380740Y-119468094D02*
X170523597Y-119658570D01*
X171142645Y-119229999D02*
X171142645Y-119468094D01*
X170904550Y-119372856D02*
X171142645Y-119468094D01*
X171142645Y-119468094D02*
X171380740Y-119372856D01*
X170999788Y-119658570D02*
X171142645Y-119468094D01*
X171142645Y-119468094D02*
X171285502Y-119658570D01*
X120422506Y-120230069D02*
X120089173Y-119753878D01*
X119851078Y-120230069D02*
X119851078Y-119230069D01*
X119851078Y-119230069D02*
X120232030Y-119230069D01*
X120232030Y-119230069D02*
X120327268Y-119277688D01*
X120327268Y-119277688D02*
X120374887Y-119325307D01*
X120374887Y-119325307D02*
X120422506Y-119420545D01*
X120422506Y-119420545D02*
X120422506Y-119563402D01*
X120422506Y-119563402D02*
X120374887Y-119658640D01*
X120374887Y-119658640D02*
X120327268Y-119706259D01*
X120327268Y-119706259D02*
X120232030Y-119753878D01*
X120232030Y-119753878D02*
X119851078Y-119753878D01*
X120851078Y-119706259D02*
X121184411Y-119706259D01*
X121327268Y-120230069D02*
X120851078Y-120230069D01*
X120851078Y-120230069D02*
X120851078Y-119230069D01*
X120851078Y-119230069D02*
X121327268Y-119230069D01*
X122089173Y-119706259D02*
X121755840Y-119706259D01*
X121755840Y-120230069D02*
X121755840Y-119230069D01*
X121755840Y-119230069D02*
X122232030Y-119230069D01*
X122755840Y-119230069D02*
X122755840Y-119468164D01*
X122517745Y-119372926D02*
X122755840Y-119468164D01*
X122755840Y-119468164D02*
X122993935Y-119372926D01*
X122612983Y-119658640D02*
X122755840Y-119468164D01*
X122755840Y-119468164D02*
X122898697Y-119658640D01*
X123517745Y-119230069D02*
X123517745Y-119468164D01*
X123279650Y-119372926D02*
X123517745Y-119468164D01*
X123517745Y-119468164D02*
X123755840Y-119372926D01*
X123374888Y-119658640D02*
X123517745Y-119468164D01*
X123517745Y-119468164D02*
X123660602Y-119658640D01*
%LPC*%
D11*
X21745000Y-120272500D03*
X269395000Y-82172500D03*
X162238750Y-63122500D03*
X187430500Y-120272500D03*
X90801250Y-82172500D03*
X157476250Y-101222500D03*
X224151250Y-82172500D03*
X226531704Y-120272500D03*
X200338750Y-63122500D03*
X233676250Y-101222500D03*
X186051250Y-82172500D03*
X145758625Y-120272149D03*
X21670000Y-101222500D03*
X274157500Y-120272500D03*
X48745000Y-82172500D03*
X251535625Y-120272500D03*
X45557500Y-63122500D03*
X86038750Y-63122500D03*
X62226250Y-101222500D03*
X24126250Y-63122500D03*
X69370000Y-120272500D03*
X44366875Y-120272500D03*
X238438750Y-63122500D03*
X147976250Y-82172500D03*
X119376250Y-101222500D03*
X124138750Y-63122500D03*
X274157500Y-101222500D03*
%LPD*%
M02*
