  0
SECTION
  2
HEADER
  9
$ANGBASE
  50
0.0
  9
$ANGDIR
  70
1
  9
$MEASUREMENT
  70
1
  0
ENDSEC
  0
SECTION
  2
TABLES
  0
TABLE
  2
LTYPE
  70
4
  0
LTYPE
  5
40F
  2
CONTINUOUS
  70
0
  3
Solid line
  72
65
  73
0
  40
0.0
  0
LTYPE
  5
410
  2
DASHDOT
 70
0
  3
Dash Dot ____ _ ____ _
 72
65
 73
4
 40
2.0
 49
1.25
 49
-0.25
 49
0.25
 49
-0.25
  0
LTYPE
  5
411
  2
DASHED
 70
0
  3
Dashed __ __ __ __ __
 72
65
 73
2
 40
0.75
 49
0.5
 49
-0.25
  0
LTYPE
  5
43B
  2
DOTTED
 70
0
  3
Dotted .  .  .  .
 72
65
 73
2
 40
0.2
 49
0.0
 49
-0.2
  0
ENDTAB
  0
TABLE
  2
STYLE
  70
4
  0
STYLE
  2
KICAD
  70
0
  40
0
  41
1
  42
1
  50
0
  71
0
  3
isocp.shx
  0
STYLE
  2
KICADB
  70
0
  40
0
  41
1
  42
1
  50
0
  71
0
  3
isocp.shx
  0
STYLE
  2
KICADI
  70
0
  40
0
  41
1
  42
1
  50
15
  71
0
  3
isocp.shx
  0
STYLE
  2
KICADBI
  70
0
  40
0
  41
1
  42
1
  50
15
  71
0
  3
isocp.shx
  0
ENDTAB
  0
TABLE
  2
LAYER
  70
1
  0
LAYER
  2
BLACK
  70
0
  62
7
  6
CONTINUOUS
  0
ENDTAB
  0
ENDSEC
  0
SECTION
  2
ENTITIES
0
ARC
8
BLACK
10
21.3637
20
-55.5975
40
2
50
90
51
180
0
LINE
8
BLACK
6
CONTINUOUS
10
19.3637
20
-127.797
11
19.3637
21
-55.5975
0
LINE
8
BLACK
6
CONTINUOUS
10
276.539
20
-55.5975
11
276.539
21
-127.797
0
ARC
8
BLACK
10
274.539
20
-127.797
40
1.99995
50
-90.0014
51
-0
0
ARC
8
BLACK
10
21.3637
20
-127.797
40
2
50
-180
51
-90
0
LINE
8
BLACK
6
CONTINUOUS
10
274.539
20
-53.5975
11
21.3638
21
-53.5975
0
LINE
8
BLACK
6
CONTINUOUS
10
21.3637
20
-129.797
11
274.539
21
-129.797
0
ARC
8
BLACK
10
274.539
20
-55.5975
40
2
50
-0
51
90.0014
0
LINE
8
BLACK
6
CONTINUOUS
10
105.756
20
-125.448
11
105.756
21
-114.298
0
LINE
8
BLACK
6
CONTINUOUS
10
105.756
20
-125.448
11
108.756
21
-127.248
0
LINE
8
BLACK
6
CONTINUOUS
10
106.756
20
-113.298
11
136.756
21
-113.298
0
LINE
8
BLACK
6
CONTINUOUS
10
134.756
20
-127.248
11
108.756
21
-127.248
0
LINE
8
BLACK
6
CONTINUOUS
10
137.756
20
-114.298
11
137.756
21
-125.448
0
LINE
8
BLACK
6
CONTINUOUS
10
137.756
20
-125.448
11
134.756
21
-127.248
0
ARC
8
BLACK
10
106.756
20
-114.298
40
0.999999
50
-270
51
-180
0
ARC
8
BLACK
10
136.756
20
-114.298
40
1
50
-0
51
90
0
LINE
8
BLACK
6
CONTINUOUS
10
145.413
20
-57.1225
11
145.413
21
-69.1225
0
LINE
8
BLACK
6
CONTINUOUS
10
145.413
20
-57.1225
11
146.413
21
-56.1225
0
LINE
8
BLACK
6
CONTINUOUS
10
146.413
20
-70.1225
11
145.413
21
-69.1225
0
LINE
8
BLACK
6
CONTINUOUS
10
146.413
20
-70.1225
11
159.013
21
-70.1225
0
LINE
8
BLACK
6
CONTINUOUS
10
159.013
20
-56.1225
11
146.413
21
-56.1225
0
LINE
8
BLACK
6
CONTINUOUS
10
159.013
20
-70.1225
11
160.013
21
-69.1225
0
LINE
8
BLACK
6
CONTINUOUS
10
160.013
20
-57.1225
11
159.013
21
-56.1225
0
LINE
8
BLACK
6
CONTINUOUS
10
160.013
20
-69.1225
11
160.013
21
-57.1225
0
LINE
8
BLACK
6
CONTINUOUS
10
228.756
20
-114.273
11
228.756
21
-126.273
0
LINE
8
BLACK
6
CONTINUOUS
10
228.756
20
-114.273
11
229.756
21
-113.273
0
LINE
8
BLACK
6
CONTINUOUS
10
229.756
20
-127.273
11
228.756
21
-126.273
0
LINE
8
BLACK
6
CONTINUOUS
10
229.756
20
-127.273
11
247.118
21
-127.273
0
LINE
8
BLACK
6
CONTINUOUS
10
247.118
20
-113.273
11
229.756
21
-113.273
0
LINE
8
BLACK
6
CONTINUOUS
10
247.118
20
-127.273
11
248.118
21
-126.273
0
LINE
8
BLACK
6
CONTINUOUS
10
248.118
20
-114.273
11
247.118
21
-113.273
0
LINE
8
BLACK
6
CONTINUOUS
10
248.118
20
-126.273
11
248.118
21
-114.273
0
CIRCLE
8
BLACK
10
21.745
20
-120.272
40
1.1
0
LINE
8
BLACK
6
CONTINUOUS
10
67.1446
20
-126.273
11
67.1446
21
-114.273
0
LINE
8
BLACK
6
CONTINUOUS
10
67.1446
20
-126.273
11
66.1446
21
-127.273
0
LINE
8
BLACK
6
CONTINUOUS
10
66.1446
20
-113.273
11
67.1446
21
-114.273
0
LINE
8
BLACK
6
CONTINUOUS
10
66.1446
20
-113.273
11
48.7821
21
-113.273
0
LINE
8
BLACK
6
CONTINUOUS
10
48.7821
20
-127.273
11
66.1446
21
-127.273
0
LINE
8
BLACK
6
CONTINUOUS
10
48.7821
20
-113.273
11
47.7821
21
-114.273
0
LINE
8
BLACK
6
CONTINUOUS
10
47.7821
20
-126.273
11
48.7821
21
-127.273
0
LINE
8
BLACK
6
CONTINUOUS
10
47.7821
20
-114.273
11
47.7821
21
-126.273
0
LINE
8
BLACK
6
CONTINUOUS
10
252.57
20
-76.1725
11
252.57
21
-88.1725
0
LINE
8
BLACK
6
CONTINUOUS
10
252.57
20
-76.1725
11
253.57
21
-75.1725
0
LINE
8
BLACK
6
CONTINUOUS
10
253.57
20
-89.1725
11
252.57
21
-88.1725
0
LINE
8
BLACK
6
CONTINUOUS
10
253.57
20
-89.1725
11
266.17
21
-89.1725
0
LINE
8
BLACK
6
CONTINUOUS
10
266.17
20
-75.1725
11
253.57
21
-75.1725
0
LINE
8
BLACK
6
CONTINUOUS
10
266.17
20
-89.1725
11
267.17
21
-88.1725
0
LINE
8
BLACK
6
CONTINUOUS
10
267.17
20
-76.1725
11
266.17
21
-75.1725
0
LINE
8
BLACK
6
CONTINUOUS
10
267.17
20
-88.1725
11
267.17
21
-76.1725
0
LINE
8
BLACK
6
CONTINUOUS
10
121.601
20
-95.2227
11
121.601
21
-107.223
0
LINE
8
BLACK
6
CONTINUOUS
10
121.601
20
-95.2227
11
122.601
21
-94.2227
0
LINE
8
BLACK
6
CONTINUOUS
10
122.601
20
-108.223
11
121.601
21
-107.223
0
LINE
8
BLACK
6
CONTINUOUS
10
122.601
20
-108.223
11
135.201
21
-108.223
0
LINE
8
BLACK
6
CONTINUOUS
10
135.201
20
-94.2227
11
122.601
21
-94.2227
0
LINE
8
BLACK
6
CONTINUOUS
10
135.201
20
-108.223
11
136.201
21
-107.223
0
LINE
8
BLACK
6
CONTINUOUS
10
136.201
20
-95.2227
11
135.201
21
-94.2227
0
LINE
8
BLACK
6
CONTINUOUS
10
136.201
20
-107.223
11
136.201
21
-95.2227
0
CIRCLE
8
BLACK
10
269.395
20
-82.1725
40
1.1
0
CIRCLE
8
BLACK
10
162.239
20
-63.1225
40
1.1
0
LINE
8
BLACK
6
CONTINUOUS
10
93.3384
20
-126.273
11
93.3384
21
-114.273
0
LINE
8
BLACK
6
CONTINUOUS
10
93.3384
20
-126.273
11
92.3384
21
-127.273
0
LINE
8
BLACK
6
CONTINUOUS
10
92.3384
20
-127.273
11
72.5946
21
-127.273
0
LINE
8
BLACK
6
CONTINUOUS
10
92.3384
20
-113.273
11
93.3384
21
-114.273
0
LINE
8
BLACK
6
CONTINUOUS
10
72.5946
20
-113.273
11
92.3384
21
-113.273
0
LINE
8
BLACK
6
CONTINUOUS
10
72.5946
20
-113.273
11
71.5946
21
-114.273
0
LINE
8
BLACK
6
CONTINUOUS
10
71.5946
20
-126.273
11
72.5946
21
-127.273
0
LINE
8
BLACK
6
CONTINUOUS
10
71.5946
20
-114.273
11
71.5946
21
-126.273
0
LINE
8
BLACK
6
CONTINUOUS
10
64.4509
20
-95.2227
11
64.4509
21
-107.223
0
LINE
8
BLACK
6
CONTINUOUS
10
64.4509
20
-95.2227
11
65.4509
21
-94.2227
0
LINE
8
BLACK
6
CONTINUOUS
10
65.4509
20
-108.223
11
64.4509
21
-107.223
0
LINE
8
BLACK
6
CONTINUOUS
10
65.4509
20
-108.223
11
78.0509
21
-108.223
0
LINE
8
BLACK
6
CONTINUOUS
10
78.0509
20
-94.2227
11
65.4509
21
-94.2227
0
LINE
8
BLACK
6
CONTINUOUS
10
78.0509
20
-108.223
11
79.0509
21
-107.223
0
LINE
8
BLACK
6
CONTINUOUS
10
79.0509
20
-95.2227
11
78.0509
21
-94.2227
0
LINE
8
BLACK
6
CONTINUOUS
10
79.0509
20
-107.223
11
79.0509
21
-95.2227
0
LINE
8
BLACK
6
CONTINUOUS
10
257.331
20
-95.2227
11
257.331
21
-107.223
0
LINE
8
BLACK
6
CONTINUOUS
10
257.331
20
-95.2227
11
258.331
21
-94.2227
0
LINE
8
BLACK
6
CONTINUOUS
10
258.331
20
-108.223
11
257.331
21
-107.223
0
LINE
8
BLACK
6
CONTINUOUS
10
258.331
20
-108.223
11
270.931
21
-108.223
0
LINE
8
BLACK
6
CONTINUOUS
10
270.931
20
-94.2227
11
258.331
21
-94.2227
0
LINE
8
BLACK
6
CONTINUOUS
10
270.931
20
-108.223
11
271.931
21
-107.223
0
LINE
8
BLACK
6
CONTINUOUS
10
271.931
20
-95.2227
11
270.931
21
-94.2227
0
LINE
8
BLACK
6
CONTINUOUS
10
271.931
20
-107.223
11
271.931
21
-95.2227
0
LINE
8
BLACK
6
CONTINUOUS
10
216.851
20
-95.2227
11
216.851
21
-107.223
0
LINE
8
BLACK
6
CONTINUOUS
10
216.851
20
-95.2227
11
217.851
21
-94.2227
0
LINE
8
BLACK
6
CONTINUOUS
10
217.851
20
-108.223
11
216.851
21
-107.223
0
LINE
8
BLACK
6
CONTINUOUS
10
217.851
20
-108.223
11
230.451
21
-108.223
0
LINE
8
BLACK
6
CONTINUOUS
10
230.451
20
-94.2227
11
217.851
21
-94.2227
0
LINE
8
BLACK
6
CONTINUOUS
10
230.451
20
-108.223
11
231.451
21
-107.223
0
LINE
8
BLACK
6
CONTINUOUS
10
231.451
20
-95.2227
11
230.451
21
-94.2227
0
LINE
8
BLACK
6
CONTINUOUS
10
231.451
20
-107.223
11
231.451
21
-95.2227
0
LINE
8
BLACK
6
CONTINUOUS
10
150.176
20
-76.1725
11
150.176
21
-88.1725
0
LINE
8
BLACK
6
CONTINUOUS
10
150.176
20
-76.1725
11
151.176
21
-75.1725
0
LINE
8
BLACK
6
CONTINUOUS
10
151.176
20
-89.1725
11
150.176
21
-88.1725
0
LINE
8
BLACK
6
CONTINUOUS
10
151.176
20
-89.1725
11
163.776
21
-89.1725
0
LINE
8
BLACK
6
CONTINUOUS
10
163.776
20
-75.1725
11
151.176
21
-75.1725
0
LINE
8
BLACK
6
CONTINUOUS
10
163.776
20
-89.1725
11
164.776
21
-88.1725
0
LINE
8
BLACK
6
CONTINUOUS
10
164.776
20
-76.1725
11
163.776
21
-75.1725
0
LINE
8
BLACK
6
CONTINUOUS
10
164.776
20
-88.1725
11
164.776
21
-76.1725
0
LINE
8
BLACK
6
CONTINUOUS
10
254.951
20
-114.273
11
254.951
21
-126.273
0
LINE
8
BLACK
6
CONTINUOUS
10
254.951
20
-114.273
11
255.951
21
-113.273
0
LINE
8
BLACK
6
CONTINUOUS
10
255.951
20
-113.273
11
270.932
21
-113.273
0
LINE
8
BLACK
6
CONTINUOUS
10
255.951
20
-127.273
11
254.951
21
-126.273
0
LINE
8
BLACK
6
CONTINUOUS
10
270.932
20
-127.273
11
255.951
21
-127.273
0
LINE
8
BLACK
6
CONTINUOUS
10
270.932
20
-127.273
11
271.932
21
-126.273
0
LINE
8
BLACK
6
CONTINUOUS
10
271.932
20
-114.273
11
270.932
21
-113.273
0
LINE
8
BLACK
6
CONTINUOUS
10
271.932
20
-126.273
11
271.932
21
-114.273
0
LINE
8
BLACK
6
CONTINUOUS
10
24.7947
20
-106.398
11
24.7947
21
-95.2476
0
LINE
8
BLACK
6
CONTINUOUS
10
24.7947
20
-106.398
11
27.7947
21
-108.198
0
LINE
8
BLACK
6
CONTINUOUS
10
25.7947
20
-94.2476
11
55.7947
21
-94.2476
0
LINE
8
BLACK
6
CONTINUOUS
10
53.7947
20
-108.198
11
27.7947
21
-108.198
0
LINE
8
BLACK
6
CONTINUOUS
10
56.7947
20
-95.2476
11
56.7947
21
-106.398
0
LINE
8
BLACK
6
CONTINUOUS
10
56.7947
20
-106.398
11
53.7947
21
-108.198
0
ARC
8
BLACK
10
25.7947
20
-95.2476
40
0.999999
50
-270
51
-180
0
ARC
8
BLACK
10
55.7947
20
-95.2476
40
1
50
-0
51
90
0
CIRCLE
8
BLACK
10
90.8012
20
-82.1725
40
1.1
0
LINE
8
BLACK
6
CONTINUOUS
10
131.126
20
-76.1725
11
131.126
21
-88.1725
0
LINE
8
BLACK
6
CONTINUOUS
10
131.126
20
-76.1725
11
132.126
21
-75.1725
0
LINE
8
BLACK
6
CONTINUOUS
10
132.126
20
-89.1725
11
131.126
21
-88.1725
0
LINE
8
BLACK
6
CONTINUOUS
10
132.126
20
-89.1725
11
144.726
21
-89.1725
0
LINE
8
BLACK
6
CONTINUOUS
10
144.726
20
-75.1725
11
132.126
21
-75.1725
0
LINE
8
BLACK
6
CONTINUOUS
10
144.726
20
-89.1725
11
145.726
21
-88.1725
0
LINE
8
BLACK
6
CONTINUOUS
10
145.726
20
-76.1725
11
144.726
21
-75.1725
0
LINE
8
BLACK
6
CONTINUOUS
10
145.726
20
-88.1725
11
145.726
21
-76.1725
0
LINE
8
BLACK
6
CONTINUOUS
10
226.376
20
-76.1725
11
226.376
21
-88.1725
0
LINE
8
BLACK
6
CONTINUOUS
10
226.376
20
-76.1725
11
227.376
21
-75.1725
0
LINE
8
BLACK
6
CONTINUOUS
10
227.376
20
-89.1725
11
226.376
21
-88.1725
0
LINE
8
BLACK
6
CONTINUOUS
10
227.376
20
-89.1725
11
239.976
21
-89.1725
0
LINE
8
BLACK
6
CONTINUOUS
10
239.976
20
-75.1725
11
227.376
21
-75.1725
0
LINE
8
BLACK
6
CONTINUOUS
10
239.976
20
-89.1725
11
240.976
21
-88.1725
0
LINE
8
BLACK
6
CONTINUOUS
10
240.976
20
-76.1725
11
239.976
21
-75.1725
0
LINE
8
BLACK
6
CONTINUOUS
10
240.976
20
-88.1725
11
240.976
21
-76.1725
0
CIRCLE
8
BLACK
10
157.476
20
-101.222
40
1.1
0
LINE
8
BLACK
6
CONTINUOUS
10
126.363
20
-57.1225
11
126.363
21
-69.1225
0
LINE
8
BLACK
6
CONTINUOUS
10
126.363
20
-57.1225
11
127.363
21
-56.1225
0
LINE
8
BLACK
6
CONTINUOUS
10
127.363
20
-70.1225
11
126.363
21
-69.1225
0
LINE
8
BLACK
6
CONTINUOUS
10
127.363
20
-70.1225
11
139.963
21
-70.1225
0
LINE
8
BLACK
6
CONTINUOUS
10
139.963
20
-56.1225
11
127.363
21
-56.1225
0
LINE
8
BLACK
6
CONTINUOUS
10
139.963
20
-70.1225
11
140.963
21
-69.1225
0
LINE
8
BLACK
6
CONTINUOUS
10
140.963
20
-57.1225
11
139.963
21
-56.1225
0
LINE
8
BLACK
6
CONTINUOUS
10
140.963
20
-69.1225
11
140.963
21
-57.1225
0
LINE
8
BLACK
6
CONTINUOUS
10
26.3513
20
-57.1225
11
26.3513
21
-69.1225
0
LINE
8
BLACK
6
CONTINUOUS
10
26.3513
20
-57.1225
11
27.3513
21
-56.1225
0
LINE
8
BLACK
6
CONTINUOUS
10
27.3513
20
-70.1225
11
26.3513
21
-69.1225
0
LINE
8
BLACK
6
CONTINUOUS
10
27.3513
20
-70.1225
11
39.9513
21
-70.1225
0
LINE
8
BLACK
6
CONTINUOUS
10
39.9513
20
-56.1225
11
27.3513
21
-56.1225
0
LINE
8
BLACK
6
CONTINUOUS
10
39.9513
20
-70.1225
11
40.9512
21
-69.1225
0
LINE
8
BLACK
6
CONTINUOUS
10
40.9512
20
-57.1225
11
39.9513
21
-56.1225
0
LINE
8
BLACK
6
CONTINUOUS
10
40.9512
20
-69.1225
11
40.9512
21
-57.1225
0
LINE
8
BLACK
6
CONTINUOUS
10
83.5009
20
-95.2227
11
83.5009
21
-107.223
0
LINE
8
BLACK
6
CONTINUOUS
10
83.5009
20
-95.2227
11
84.5009
21
-94.2227
0
LINE
8
BLACK
6
CONTINUOUS
10
84.5009
20
-108.223
11
83.5009
21
-107.223
0
LINE
8
BLACK
6
CONTINUOUS
10
84.5009
20
-108.223
11
97.1009
21
-108.223
0
LINE
8
BLACK
6
CONTINUOUS
10
97.1009
20
-94.2227
11
84.5009
21
-94.2227
0
LINE
8
BLACK
6
CONTINUOUS
10
97.1009
20
-108.223
11
98.1009
21
-107.223
0
LINE
8
BLACK
6
CONTINUOUS
10
98.1009
20
-95.2227
11
97.1009
21
-94.2227
0
LINE
8
BLACK
6
CONTINUOUS
10
98.1009
20
-107.223
11
98.1009
21
-95.2227
0
LINE
8
BLACK
6
CONTINUOUS
10
207.326
20
-76.1725
11
207.326
21
-88.1725
0
LINE
8
BLACK
6
CONTINUOUS
10
207.326
20
-76.1725
11
208.326
21
-75.1725
0
LINE
8
BLACK
6
CONTINUOUS
10
208.326
20
-89.1725
11
207.326
21
-88.1725
0
LINE
8
BLACK
6
CONTINUOUS
10
208.326
20
-89.1725
11
220.926
21
-89.1725
0
LINE
8
BLACK
6
CONTINUOUS
10
220.926
20
-75.1725
11
208.326
21
-75.1725
0
LINE
8
BLACK
6
CONTINUOUS
10
220.926
20
-89.1725
11
221.926
21
-88.1725
0
LINE
8
BLACK
6
CONTINUOUS
10
221.926
20
-76.1725
11
220.926
21
-75.1725
0
LINE
8
BLACK
6
CONTINUOUS
10
221.926
20
-88.1725
11
221.926
21
-76.1725
0
LINE
8
BLACK
6
CONTINUOUS
10
178.751
20
-95.2227
11
178.751
21
-107.223
0
LINE
8
BLACK
6
CONTINUOUS
10
178.751
20
-95.2227
11
179.751
21
-94.2227
0
LINE
8
BLACK
6
CONTINUOUS
10
179.751
20
-108.223
11
178.751
21
-107.223
0
LINE
8
BLACK
6
CONTINUOUS
10
179.751
20
-108.223
11
192.351
21
-108.223
0
LINE
8
BLACK
6
CONTINUOUS
10
192.351
20
-94.2227
11
179.751
21
-94.2227
0
LINE
8
BLACK
6
CONTINUOUS
10
192.351
20
-108.223
11
193.351
21
-107.223
0
LINE
8
BLACK
6
CONTINUOUS
10
193.351
20
-95.2227
11
192.351
21
-94.2227
0
LINE
8
BLACK
6
CONTINUOUS
10
193.351
20
-107.223
11
193.351
21
-95.2227
0
LINE
8
BLACK
6
CONTINUOUS
10
50.1634
20
-57.1225
11
50.1634
21
-69.1225
0
LINE
8
BLACK
6
CONTINUOUS
10
50.1634
20
-57.1225
11
51.1634
21
-56.1225
0
LINE
8
BLACK
6
CONTINUOUS
10
51.1634
20
-70.1225
11
50.1634
21
-69.1225
0
LINE
8
BLACK
6
CONTINUOUS
10
51.1634
20
-70.1225
11
63.7634
21
-70.1225
0
LINE
8
BLACK
6
CONTINUOUS
10
63.7634
20
-56.1225
11
51.1634
21
-56.1225
0
LINE
8
BLACK
6
CONTINUOUS
10
63.7634
20
-70.1225
11
64.7634
21
-69.1225
0
LINE
8
BLACK
6
CONTINUOUS
10
64.7634
20
-57.1225
11
63.7634
21
-56.1225
0
LINE
8
BLACK
6
CONTINUOUS
10
64.7634
20
-69.1225
11
64.7634
21
-57.1225
0
CIRCLE
8
BLACK
10
224.151
20
-82.1725
40
1.1
0
LINE
8
BLACK
6
CONTINUOUS
10
164.463
20
-57.1225
11
164.463
21
-69.1225
0
LINE
8
BLACK
6
CONTINUOUS
10
164.463
20
-57.1225
11
165.463
21
-56.1225
0
LINE
8
BLACK
6
CONTINUOUS
10
165.463
20
-70.1225
11
164.463
21
-69.1225
0
LINE
8
BLACK
6
CONTINUOUS
10
165.463
20
-70.1225
11
178.063
21
-70.1225
0
LINE
8
BLACK
6
CONTINUOUS
10
178.063
20
-56.1225
11
165.463
21
-56.1225
0
LINE
8
BLACK
6
CONTINUOUS
10
178.063
20
-70.1225
11
179.063
21
-69.1225
0
LINE
8
BLACK
6
CONTINUOUS
10
179.063
20
-57.1225
11
178.063
21
-56.1225
0
LINE
8
BLACK
6
CONTINUOUS
10
179.063
20
-69.1225
11
179.063
21
-57.1225
0
LINE
8
BLACK
6
CONTINUOUS
10
202.564
20
-114.273
11
202.564
21
-126.273
0
LINE
8
BLACK
6
CONTINUOUS
10
202.564
20
-114.273
11
203.564
21
-113.273
0
LINE
8
BLACK
6
CONTINUOUS
10
203.564
20
-113.273
11
223.307
21
-113.273
0
LINE
8
BLACK
6
CONTINUOUS
10
203.564
20
-127.273
11
202.564
21
-126.273
0
LINE
8
BLACK
6
CONTINUOUS
10
223.307
20
-127.273
11
203.564
21
-127.273
0
LINE
8
BLACK
6
CONTINUOUS
10
223.307
20
-127.273
11
224.307
21
-126.273
0
LINE
8
BLACK
6
CONTINUOUS
10
224.307
20
-114.273
11
223.307
21
-113.273
0
LINE
8
BLACK
6
CONTINUOUS
10
224.307
20
-126.273
11
224.307
21
-114.273
0
CIRCLE
8
BLACK
10
226.532
20
-120.272
40
1.1
0
CIRCLE
8
BLACK
10
200.339
20
-63.1225
40
1.1
0
LINE
8
BLACK
6
CONTINUOUS
10
202.563
20
-57.1225
11
202.563
21
-69.1225
0
LINE
8
BLACK
6
CONTINUOUS
10
202.563
20
-57.1225
11
203.563
21
-56.1225
0
LINE
8
BLACK
6
CONTINUOUS
10
203.563
20
-70.1225
11
202.563
21
-69.1225
0
LINE
8
BLACK
6
CONTINUOUS
10
203.563
20
-70.1225
11
216.163
21
-70.1225
0
LINE
8
BLACK
6
CONTINUOUS
10
216.163
20
-56.1225
11
203.563
21
-56.1225
0
LINE
8
BLACK
6
CONTINUOUS
10
216.163
20
-70.1225
11
217.163
21
-69.1225
0
LINE
8
BLACK
6
CONTINUOUS
10
217.163
20
-57.1225
11
216.163
21
-56.1225
0
LINE
8
BLACK
6
CONTINUOUS
10
217.163
20
-69.1225
11
217.163
21
-57.1225
0
CIRCLE
8
BLACK
10
233.676
20
-101.222
40
1.1
0
CIRCLE
8
BLACK
10
186.051
20
-82.1725
40
1.1
0
LINE
8
BLACK
6
CONTINUOUS
10
140.651
20
-95.2227
11
140.651
21
-107.223
0
LINE
8
BLACK
6
CONTINUOUS
10
140.651
20
-95.2227
11
141.651
21
-94.2227
0
LINE
8
BLACK
6
CONTINUOUS
10
141.651
20
-108.223
11
140.651
21
-107.223
0
LINE
8
BLACK
6
CONTINUOUS
10
141.651
20
-108.223
11
154.251
21
-108.223
0
LINE
8
BLACK
6
CONTINUOUS
10
154.251
20
-94.2227
11
141.651
21
-94.2227
0
LINE
8
BLACK
6
CONTINUOUS
10
154.251
20
-108.223
11
155.251
21
-107.223
0
LINE
8
BLACK
6
CONTINUOUS
10
155.251
20
-95.2227
11
154.251
21
-94.2227
0
LINE
8
BLACK
6
CONTINUOUS
10
155.251
20
-107.223
11
155.251
21
-95.2227
0
LINE
8
BLACK
6
CONTINUOUS
10
183.513
20
-57.1225
11
183.513
21
-69.1225
0
LINE
8
BLACK
6
CONTINUOUS
10
183.513
20
-57.1225
11
184.513
21
-56.1225
0
LINE
8
BLACK
6
CONTINUOUS
10
184.513
20
-70.1225
11
183.513
21
-69.1225
0
LINE
8
BLACK
6
CONTINUOUS
10
184.513
20
-70.1225
11
197.113
21
-70.1225
0
LINE
8
BLACK
6
CONTINUOUS
10
197.113
20
-56.1225
11
184.513
21
-56.1225
0
LINE
8
BLACK
6
CONTINUOUS
10
197.113
20
-70.1225
11
198.113
21
-69.1225
0
LINE
8
BLACK
6
CONTINUOUS
10
198.113
20
-57.1225
11
197.113
21
-56.1225
0
LINE
8
BLACK
6
CONTINUOUS
10
198.113
20
-69.1225
11
198.113
21
-57.1225
0
LINE
8
BLACK
6
CONTINUOUS
10
73.9759
20
-76.1725
11
73.9759
21
-88.1725
0
LINE
8
BLACK
6
CONTINUOUS
10
73.9759
20
-76.1725
11
74.9759
21
-75.1725
0
LINE
8
BLACK
6
CONTINUOUS
10
74.9759
20
-89.1725
11
73.9759
21
-88.1725
0
LINE
8
BLACK
6
CONTINUOUS
10
74.9759
20
-89.1725
11
87.5759
21
-89.1725
0
LINE
8
BLACK
6
CONTINUOUS
10
87.5759
20
-75.1725
11
74.9759
21
-75.1725
0
LINE
8
BLACK
6
CONTINUOUS
10
87.5759
20
-89.1725
11
88.5759
21
-88.1725
0
LINE
8
BLACK
6
CONTINUOUS
10
88.5759
20
-76.1725
11
87.5759
21
-75.1725
0
LINE
8
BLACK
6
CONTINUOUS
10
88.5759
20
-88.1725
11
88.5759
21
-76.1725
0
LINE
8
BLACK
6
CONTINUOUS
10
197.801
20
-95.2227
11
197.801
21
-107.223
0
LINE
8
BLACK
6
CONTINUOUS
10
197.801
20
-95.2227
11
198.801
21
-94.2227
0
LINE
8
BLACK
6
CONTINUOUS
10
198.801
20
-108.223
11
197.801
21
-107.223
0
LINE
8
BLACK
6
CONTINUOUS
10
198.801
20
-108.223
11
211.401
21
-108.223
0
LINE
8
BLACK
6
CONTINUOUS
10
211.401
20
-94.2227
11
198.801
21
-94.2227
0
LINE
8
BLACK
6
CONTINUOUS
10
211.401
20
-108.223
11
212.401
21
-107.223
0
LINE
8
BLACK
6
CONTINUOUS
10
212.401
20
-95.2227
11
211.401
21
-94.2227
0
LINE
8
BLACK
6
CONTINUOUS
10
212.401
20
-107.223
11
212.401
21
-95.2227
0
CIRCLE
8
BLACK
10
145.759
20
-120.272
40
1.1
0
CIRCLE
8
BLACK
10
21.67
20
-101.222
40
1.1
0
LINE
8
BLACK
6
CONTINUOUS
10
259.713
20
-57.1225
11
259.713
21
-69.1225
0
LINE
8
BLACK
6
CONTINUOUS
10
259.713
20
-57.1225
11
260.713
21
-56.1225
0
LINE
8
BLACK
6
CONTINUOUS
10
260.713
20
-70.1225
11
259.713
21
-69.1225
0
LINE
8
BLACK
6
CONTINUOUS
10
260.713
20
-70.1225
11
273.313
21
-70.1225
0
LINE
8
BLACK
6
CONTINUOUS
10
273.313
20
-56.1225
11
260.713
21
-56.1225
0
LINE
8
BLACK
6
CONTINUOUS
10
273.313
20
-70.1225
11
274.313
21
-69.1225
0
LINE
8
BLACK
6
CONTINUOUS
10
274.313
20
-57.1225
11
273.313
21
-56.1225
0
LINE
8
BLACK
6
CONTINUOUS
10
274.313
20
-69.1225
11
274.313
21
-57.1225
0
LINE
8
BLACK
6
CONTINUOUS
10
235.901
20
-95.2227
11
235.901
21
-107.223
0
LINE
8
BLACK
6
CONTINUOUS
10
235.901
20
-95.2227
11
236.901
21
-94.2227
0
LINE
8
BLACK
6
CONTINUOUS
10
236.901
20
-108.223
11
235.901
21
-107.223
0
LINE
8
BLACK
6
CONTINUOUS
10
236.901
20
-108.223
11
249.501
21
-108.223
0
LINE
8
BLACK
6
CONTINUOUS
10
249.501
20
-94.2227
11
236.901
21
-94.2227
0
LINE
8
BLACK
6
CONTINUOUS
10
249.501
20
-108.223
11
250.501
21
-107.223
0
LINE
8
BLACK
6
CONTINUOUS
10
250.501
20
-95.2227
11
249.501
21
-94.2227
0
LINE
8
BLACK
6
CONTINUOUS
10
250.501
20
-107.223
11
250.501
21
-95.2227
0
CIRCLE
8
BLACK
10
274.157
20
-120.272
40
1.1
0
LINE
8
BLACK
6
CONTINUOUS
10
221.613
20
-57.1225
11
221.613
21
-69.1225
0
LINE
8
BLACK
6
CONTINUOUS
10
221.613
20
-57.1225
11
222.613
21
-56.1225
0
LINE
8
BLACK
6
CONTINUOUS
10
222.613
20
-70.1225
11
221.613
21
-69.1225
0
LINE
8
BLACK
6
CONTINUOUS
10
222.613
20
-70.1225
11
235.213
21
-70.1225
0
LINE
8
BLACK
6
CONTINUOUS
10
235.213
20
-56.1225
11
222.613
21
-56.1225
0
LINE
8
BLACK
6
CONTINUOUS
10
235.213
20
-70.1225
11
236.213
21
-69.1225
0
LINE
8
BLACK
6
CONTINUOUS
10
236.213
20
-57.1225
11
235.213
21
-56.1225
0
LINE
8
BLACK
6
CONTINUOUS
10
236.213
20
-69.1225
11
236.213
21
-57.1225
0
CIRCLE
8
BLACK
10
48.745
20
-82.1725
40
1.1
0
CIRCLE
8
BLACK
10
251.536
20
-120.272
40
1.1
0
CIRCLE
8
BLACK
10
45.5575
20
-63.1225
40
1.1
0
LINE
8
BLACK
6
CONTINUOUS
10
240.663
20
-57.1225
11
240.663
21
-69.1225
0
LINE
8
BLACK
6
CONTINUOUS
10
240.663
20
-57.1225
11
241.663
21
-56.1225
0
LINE
8
BLACK
6
CONTINUOUS
10
241.663
20
-70.1225
11
240.663
21
-69.1225
0
LINE
8
BLACK
6
CONTINUOUS
10
241.663
20
-70.1225
11
254.263
21
-70.1225
0
LINE
8
BLACK
6
CONTINUOUS
10
254.263
20
-56.1225
11
241.663
21
-56.1225
0
LINE
8
BLACK
6
CONTINUOUS
10
254.263
20
-70.1225
11
255.263
21
-69.1225
0
LINE
8
BLACK
6
CONTINUOUS
10
255.263
20
-57.1225
11
254.263
21
-56.1225
0
LINE
8
BLACK
6
CONTINUOUS
10
255.263
20
-69.1225
11
255.263
21
-57.1225
0
LINE
8
BLACK
6
CONTINUOUS
10
88.2634
20
-57.1225
11
88.2634
21
-69.1225
0
LINE
8
BLACK
6
CONTINUOUS
10
88.2634
20
-57.1225
11
89.2634
21
-56.1225
0
LINE
8
BLACK
6
CONTINUOUS
10
89.2634
20
-70.1225
11
88.2634
21
-69.1225
0
LINE
8
BLACK
6
CONTINUOUS
10
89.2634
20
-70.1225
11
101.863
21
-70.1225
0
LINE
8
BLACK
6
CONTINUOUS
10
101.863
20
-56.1225
11
89.2634
21
-56.1225
0
LINE
8
BLACK
6
CONTINUOUS
10
101.863
20
-70.1225
11
102.863
21
-69.1225
0
LINE
8
BLACK
6
CONTINUOUS
10
102.863
20
-57.1225
11
101.863
21
-56.1225
0
LINE
8
BLACK
6
CONTINUOUS
10
102.863
20
-69.1225
11
102.863
21
-57.1225
0
CIRCLE
8
BLACK
10
86.0387
20
-63.1225
40
1.1
0
LINE
8
BLACK
6
CONTINUOUS
10
102.551
20
-95.2227
11
102.551
21
-107.223
0
LINE
8
BLACK
6
CONTINUOUS
10
102.551
20
-95.2227
11
103.551
21
-94.2227
0
LINE
8
BLACK
6
CONTINUOUS
10
103.551
20
-108.223
11
102.551
21
-107.223
0
LINE
8
BLACK
6
CONTINUOUS
10
103.551
20
-108.223
11
116.151
21
-108.223
0
LINE
8
BLACK
6
CONTINUOUS
10
116.151
20
-94.2227
11
103.551
21
-94.2227
0
LINE
8
BLACK
6
CONTINUOUS
10
116.151
20
-108.223
11
117.151
21
-107.223
0
LINE
8
BLACK
6
CONTINUOUS
10
117.151
20
-95.2227
11
116.151
21
-94.2227
0
LINE
8
BLACK
6
CONTINUOUS
10
117.151
20
-107.223
11
117.151
21
-95.2227
0
LINE
8
BLACK
6
CONTINUOUS
10
159.701
20
-95.2227
11
159.701
21
-107.223
0
LINE
8
BLACK
6
CONTINUOUS
10
159.701
20
-95.2227
11
160.701
21
-94.2227
0
LINE
8
BLACK
6
CONTINUOUS
10
160.701
20
-108.223
11
159.701
21
-107.223
0
LINE
8
BLACK
6
CONTINUOUS
10
160.701
20
-108.223
11
173.301
21
-108.223
0
LINE
8
BLACK
6
CONTINUOUS
10
173.301
20
-94.2227
11
160.701
21
-94.2227
0
LINE
8
BLACK
6
CONTINUOUS
10
173.301
20
-108.223
11
174.301
21
-107.223
0
LINE
8
BLACK
6
CONTINUOUS
10
174.301
20
-95.2227
11
173.301
21
-94.2227
0
LINE
8
BLACK
6
CONTINUOUS
10
174.301
20
-107.223
11
174.301
21
-95.2227
0
LINE
8
BLACK
6
CONTINUOUS
10
23.97
20
-76.173
11
23.97
21
-88.173
0
LINE
8
BLACK
6
CONTINUOUS
10
23.97
20
-76.173
11
24.97
21
-75.173
0
LINE
8
BLACK
6
CONTINUOUS
10
24.97
20
-89.173
11
23.97
21
-88.173
0
LINE
8
BLACK
6
CONTINUOUS
10
24.97
20
-89.173
11
42.3325
21
-89.173
0
LINE
8
BLACK
6
CONTINUOUS
10
42.3325
20
-75.173
11
24.97
21
-75.173
0
LINE
8
BLACK
6
CONTINUOUS
10
42.3325
20
-89.173
11
43.3325
21
-88.173
0
LINE
8
BLACK
6
CONTINUOUS
10
43.3325
20
-76.173
11
42.3325
21
-75.173
0
LINE
8
BLACK
6
CONTINUOUS
10
43.3325
20
-88.173
11
43.3325
21
-76.173
0
LINE
8
BLACK
6
CONTINUOUS
10
188.276
20
-76.1725
11
188.276
21
-88.1725
0
LINE
8
BLACK
6
CONTINUOUS
10
188.276
20
-76.1725
11
189.276
21
-75.1725
0
LINE
8
BLACK
6
CONTINUOUS
10
189.276
20
-89.1725
11
188.276
21
-88.1725
0
LINE
8
BLACK
6
CONTINUOUS
10
189.276
20
-89.1725
11
201.876
21
-89.1725
0
LINE
8
BLACK
6
CONTINUOUS
10
201.876
20
-75.1725
11
189.276
21
-75.1725
0
LINE
8
BLACK
6
CONTINUOUS
10
201.876
20
-89.1725
11
202.876
21
-88.1725
0
LINE
8
BLACK
6
CONTINUOUS
10
202.876
20
-76.1725
11
201.876
21
-75.1725
0
LINE
8
BLACK
6
CONTINUOUS
10
202.876
20
-88.1725
11
202.876
21
-76.1725
0
CIRCLE
8
BLACK
10
62.2263
20
-101.222
40
1.1
0
CIRCLE
8
BLACK
10
24.1262
20
-63.1225
40
1.1
0
CIRCLE
8
BLACK
10
69.37
20
-120.272
40
1.1
0
CIRCLE
8
BLACK
10
44.3669
20
-120.272
40
1.1
0
CIRCLE
8
BLACK
10
238.439
20
-63.1225
40
1.1
0
LINE
8
BLACK
6
CONTINUOUS
10
54.9259
20
-76.1725
11
54.9259
21
-88.1725
0
LINE
8
BLACK
6
CONTINUOUS
10
54.9259
20
-76.1725
11
55.9259
21
-75.1725
0
LINE
8
BLACK
6
CONTINUOUS
10
55.9259
20
-89.1725
11
54.9259
21
-88.1725
0
LINE
8
BLACK
6
CONTINUOUS
10
55.9259
20
-89.1725
11
68.5259
21
-89.1725
0
LINE
8
BLACK
6
CONTINUOUS
10
68.5259
20
-75.1725
11
55.9259
21
-75.1725
0
LINE
8
BLACK
6
CONTINUOUS
10
68.5259
20
-89.1725
11
69.5259
21
-88.1725
0
LINE
8
BLACK
6
CONTINUOUS
10
69.5259
20
-76.1725
11
68.5259
21
-75.1725
0
LINE
8
BLACK
6
CONTINUOUS
10
69.5259
20
-88.1725
11
69.5259
21
-76.1725
0
LINE
8
BLACK
6
CONTINUOUS
10
107.313
20
-57.1225
11
107.313
21
-69.1225
0
LINE
8
BLACK
6
CONTINUOUS
10
107.313
20
-57.1225
11
108.313
21
-56.1225
0
LINE
8
BLACK
6
CONTINUOUS
10
108.313
20
-70.1225
11
107.313
21
-69.1225
0
LINE
8
BLACK
6
CONTINUOUS
10
108.313
20
-70.1225
11
120.913
21
-70.1225
0
LINE
8
BLACK
6
CONTINUOUS
10
120.913
20
-56.1225
11
108.313
21
-56.1225
0
LINE
8
BLACK
6
CONTINUOUS
10
120.913
20
-70.1225
11
121.913
21
-69.1225
0
LINE
8
BLACK
6
CONTINUOUS
10
121.913
20
-57.1225
11
120.913
21
-56.1225
0
LINE
8
BLACK
6
CONTINUOUS
10
121.913
20
-69.1225
11
121.913
21
-57.1225
0
CIRCLE
8
BLACK
10
147.976
20
-82.1725
40
1.1
0
LINE
8
BLACK
6
CONTINUOUS
10
69.2134
20
-57.1225
11
69.2134
21
-69.1225
0
LINE
8
BLACK
6
CONTINUOUS
10
69.2134
20
-57.1225
11
70.2134
21
-56.1225
0
LINE
8
BLACK
6
CONTINUOUS
10
70.2134
20
-70.1225
11
69.2134
21
-69.1225
0
LINE
8
BLACK
6
CONTINUOUS
10
70.2134
20
-70.1225
11
82.8134
21
-70.1225
0
LINE
8
BLACK
6
CONTINUOUS
10
82.8134
20
-56.1225
11
70.2134
21
-56.1225
0
LINE
8
BLACK
6
CONTINUOUS
10
82.8134
20
-70.1225
11
83.8134
21
-69.1225
0
LINE
8
BLACK
6
CONTINUOUS
10
83.8134
20
-57.1225
11
82.8134
21
-56.1225
0
LINE
8
BLACK
6
CONTINUOUS
10
83.8134
20
-69.1225
11
83.8134
21
-57.1225
0
CIRCLE
8
BLACK
10
119.376
20
-101.222
40
1.1
0
CIRCLE
8
BLACK
10
124.139
20
-63.1225
40
1.1
0
LINE
8
BLACK
6
CONTINUOUS
10
153.381
20
-125.448
11
153.381
21
-114.298
0
LINE
8
BLACK
6
CONTINUOUS
10
153.381
20
-125.448
11
156.381
21
-127.248
0
LINE
8
BLACK
6
CONTINUOUS
10
154.381
20
-113.298
11
184.381
21
-113.298
0
LINE
8
BLACK
6
CONTINUOUS
10
182.381
20
-127.248
11
156.381
21
-127.248
0
LINE
8
BLACK
6
CONTINUOUS
10
185.381
20
-114.298
11
185.381
21
-125.448
0
LINE
8
BLACK
6
CONTINUOUS
10
185.381
20
-125.448
11
182.381
21
-127.248
0
ARC
8
BLACK
10
154.381
20
-114.298
40
0.999999
50
-270
51
-180
0
ARC
8
BLACK
10
184.381
20
-114.298
40
1
50
-0
51
90
0
LINE
8
BLACK
6
CONTINUOUS
10
40.9509
20
-126.273
11
40.9509
21
-114.273
0
LINE
8
BLACK
6
CONTINUOUS
10
40.9509
20
-126.273
11
39.9509
21
-127.273
0
LINE
8
BLACK
6
CONTINUOUS
10
39.9509
20
-127.273
11
24.9696
21
-127.273
0
LINE
8
BLACK
6
CONTINUOUS
10
39.9509
20
-113.273
11
40.9509
21
-114.273
0
LINE
8
BLACK
6
CONTINUOUS
10
24.9696
20
-113.273
11
39.9509
21
-113.273
0
LINE
8
BLACK
6
CONTINUOUS
10
24.9696
20
-113.273
11
23.9696
21
-114.273
0
LINE
8
BLACK
6
CONTINUOUS
10
23.9696
20
-126.273
11
24.9696
21
-127.273
0
LINE
8
BLACK
6
CONTINUOUS
10
23.9696
20
-114.273
11
23.9696
21
-126.273
0
LINE
8
BLACK
6
CONTINUOUS
10
169.226
20
-76.1725
11
169.226
21
-88.1725
0
LINE
8
BLACK
6
CONTINUOUS
10
169.226
20
-76.1725
11
170.226
21
-75.1725
0
LINE
8
BLACK
6
CONTINUOUS
10
170.226
20
-89.1725
11
169.226
21
-88.1725
0
LINE
8
BLACK
6
CONTINUOUS
10
170.226
20
-89.1725
11
182.826
21
-89.1725
0
LINE
8
BLACK
6
CONTINUOUS
10
182.826
20
-75.1725
11
170.226
21
-75.1725
0
LINE
8
BLACK
6
CONTINUOUS
10
182.826
20
-89.1725
11
183.826
21
-88.1725
0
LINE
8
BLACK
6
CONTINUOUS
10
183.826
20
-76.1725
11
182.826
21
-75.1725
0
LINE
8
BLACK
6
CONTINUOUS
10
183.826
20
-88.1725
11
183.826
21
-76.1725
0
LINE
8
BLACK
6
CONTINUOUS
10
93.0259
20
-76.1725
11
93.0259
21
-88.1725
0
LINE
8
BLACK
6
CONTINUOUS
10
93.0259
20
-76.1725
11
94.0259
21
-75.1725
0
LINE
8
BLACK
6
CONTINUOUS
10
94.0259
20
-89.1725
11
93.0259
21
-88.1725
0
LINE
8
BLACK
6
CONTINUOUS
10
94.0259
20
-89.1725
11
106.626
21
-89.1725
0
LINE
8
BLACK
6
CONTINUOUS
10
106.626
20
-75.1725
11
94.0259
21
-75.1725
0
LINE
8
BLACK
6
CONTINUOUS
10
106.626
20
-89.1725
11
107.626
21
-88.1725
0
LINE
8
BLACK
6
CONTINUOUS
10
107.626
20
-76.1725
11
106.626
21
-75.1725
0
LINE
8
BLACK
6
CONTINUOUS
10
107.626
20
-88.1725
11
107.626
21
-76.1725
0
CIRCLE
8
BLACK
10
274.157
20
-101.222
40
1.1
0
LINE
8
BLACK
6
CONTINUOUS
10
112.076
20
-76.1725
11
112.076
21
-88.1725
0
LINE
8
BLACK
6
CONTINUOUS
10
112.076
20
-76.1725
11
113.076
21
-75.1725
0
LINE
8
BLACK
6
CONTINUOUS
10
113.076
20
-89.1725
11
112.076
21
-88.1725
0
LINE
8
BLACK
6
CONTINUOUS
10
113.076
20
-89.1725
11
125.676
21
-89.1725
0
LINE
8
BLACK
6
CONTINUOUS
10
125.676
20
-75.1725
11
113.076
21
-75.1725
0
LINE
8
BLACK
6
CONTINUOUS
10
125.676
20
-89.1725
11
126.676
21
-88.1725
0
LINE
8
BLACK
6
CONTINUOUS
10
126.676
20
-76.1725
11
125.676
21
-75.1725
0
LINE
8
BLACK
6
CONTINUOUS
10
126.676
20
-88.1725
11
126.676
21
-76.1725
  0
ENDSEC
  0
EOF
