  0
SECTION
  2
HEADER
  9
$ANGBASE
  50
0.0
  9
$ANGDIR
  70
1
  9
$MEASUREMENT
  70
1
  0
ENDSEC
  0
SECTION
  2
TABLES
  0
TABLE
  2
LTYPE
  70
4
  0
LTYPE
  5
40F
  2
CONTINUOUS
  70
0
  3
Solid line
  72
65
  73
0
  40
0.0
  0
LTYPE
  5
410
  2
DASHDOT
 70
0
  3
Dash Dot ____ _ ____ _
 72
65
 73
4
 40
2.0
 49
1.25
 49
-0.25
 49
0.25
 49
-0.25
  0
LTYPE
  5
411
  2
DASHED
 70
0
  3
Dashed __ __ __ __ __
 72
65
 73
2
 40
0.75
 49
0.5
 49
-0.25
  0
LTYPE
  5
43B
  2
DOTTED
 70
0
  3
Dotted .  .  .  .
 72
65
 73
2
 40
0.2
 49
0.0
 49
-0.2
  0
ENDTAB
  0
TABLE
  2
STYLE
  70
4
  0
STYLE
  2
KICAD
  70
0
  40
0
  41
1
  42
1
  50
0
  71
0
  3
isocp.shx
  0
STYLE
  2
KICADB
  70
0
  40
0
  41
1
  42
1
  50
0
  71
0
  3
isocp.shx
  0
STYLE
  2
KICADI
  70
0
  40
0
  41
1
  42
1
  50
15
  71
0
  3
isocp.shx
  0
STYLE
  2
KICADBI
  70
0
  40
0
  41
1
  42
1
  50
15
  71
0
  3
isocp.shx
  0
ENDTAB
  0
TABLE
  2
LAYER
  70
1
  0
LAYER
  2
BLACK
  70
0
  62
7
  6
CONTINUOUS
  0
ENDTAB
  0
ENDSEC
  0
SECTION
  2
ENTITIES
0
ARC
8
BLACK
10
21.3637
20
-55.5975
40
2
50
90
51
180
0
LINE
8
BLACK
6
CONTINUOUS
10
19.3637
20
-127.797
11
19.3637
21
-55.5975
0
LINE
8
BLACK
6
CONTINUOUS
10
276.539
20
-55.5975
11
276.539
21
-127.797
0
ARC
8
BLACK
10
274.539
20
-127.797
40
1.99995
50
-90.0014
51
-0
0
ARC
8
BLACK
10
21.3637
20
-127.797
40
2
50
-180
51
-90
0
LINE
8
BLACK
6
CONTINUOUS
10
274.539
20
-53.5975
11
21.3638
21
-53.5975
0
LINE
8
BLACK
6
CONTINUOUS
10
21.3637
20
-129.797
11
274.539
21
-129.797
0
ARC
8
BLACK
10
274.539
20
-55.5975
40
2
50
-0
51
90.0014
0
LINE
8
BLACK
6
CONTINUOUS
10
105.706
20
-113.223
11
137.806
21
-113.223
0
LINE
8
BLACK
6
CONTINUOUS
10
105.706
20
-126.323
11
105.706
21
-113.223
0
LINE
8
BLACK
6
CONTINUOUS
10
136.806
20
-127.323
11
106.706
21
-127.323
0
LINE
8
BLACK
6
CONTINUOUS
10
137.806
20
-113.223
11
137.806
21
-126.323
0
ARC
8
BLACK
10
106.706
20
-126.323
40
0.999999
50
-180
51
-89.9999
0
ARC
8
BLACK
10
136.806
20
-126.323
40
1
50
-90
51
-0
0
LINE
8
BLACK
6
CONTINUOUS
10
145.363
20
-69.1725
11
145.363
21
-57.0725
0
LINE
8
BLACK
6
CONTINUOUS
10
146.363
20
-56.0725
11
159.063
21
-56.0725
0
LINE
8
BLACK
6
CONTINUOUS
10
159.063
20
-70.1725
11
146.363
21
-70.1725
0
LINE
8
BLACK
6
CONTINUOUS
10
160.063
20
-57.0725
11
160.063
21
-69.1725
0
ARC
8
BLACK
10
146.363
20
-57.0725
40
0.999999
50
-270
51
-180
0
ARC
8
BLACK
10
146.363
20
-69.1725
40
0.999999
50
-180
51
-89.9999
0
ARC
8
BLACK
10
159.063
20
-57.0725
40
1
50
-0
51
90
0
ARC
8
BLACK
10
159.063
20
-69.1725
40
1
50
-90
51
-0
0
LINE
8
BLACK
6
CONTINUOUS
10
228.706
20
-126.323
11
228.706
21
-114.223
0
LINE
8
BLACK
6
CONTINUOUS
10
229.706
20
-113.223
11
242.406
21
-113.223
0
LINE
8
BLACK
6
CONTINUOUS
10
242.406
20
-127.323
11
229.706
21
-127.323
0
LINE
8
BLACK
6
CONTINUOUS
10
243.406
20
-114.223
11
243.406
21
-126.323
0
ARC
8
BLACK
10
229.706
20
-114.223
40
0.999999
50
-270
51
-180
0
ARC
8
BLACK
10
229.706
20
-126.323
40
0.999999
50
-180
51
-89.9999
0
ARC
8
BLACK
10
242.406
20
-114.223
40
1
50
-0
51
90
0
ARC
8
BLACK
10
242.406
20
-126.323
40
1
50
-90
51
-0
0
LINE
8
BLACK
6
CONTINUOUS
10
52.4946
20
-126.323
11
52.4946
21
-114.223
0
LINE
8
BLACK
6
CONTINUOUS
10
53.4946
20
-113.223
11
66.1946
21
-113.223
0
LINE
8
BLACK
6
CONTINUOUS
10
66.1946
20
-127.323
11
53.4946
21
-127.323
0
LINE
8
BLACK
6
CONTINUOUS
10
67.1946
20
-114.223
11
67.1946
21
-126.323
0
ARC
8
BLACK
10
53.4946
20
-114.223
40
0.999999
50
-270
51
-180
0
ARC
8
BLACK
10
53.4946
20
-126.323
40
0.999999
50
-180
51
-89.9999
0
ARC
8
BLACK
10
66.1946
20
-114.223
40
1
50
-0
51
90
0
ARC
8
BLACK
10
66.1946
20
-126.323
40
1
50
-90
51
-0
0
LINE
8
BLACK
6
CONTINUOUS
10
252.52
20
-88.2225
11
252.52
21
-76.1225
0
LINE
8
BLACK
6
CONTINUOUS
10
253.52
20
-75.1225
11
266.22
21
-75.1225
0
LINE
8
BLACK
6
CONTINUOUS
10
266.22
20
-89.2225
11
253.52
21
-89.2225
0
LINE
8
BLACK
6
CONTINUOUS
10
267.22
20
-76.1225
11
267.22
21
-88.2225
0
ARC
8
BLACK
10
253.52
20
-76.1225
40
0.999999
50
-270
51
-180
0
ARC
8
BLACK
10
253.52
20
-88.2225
40
0.999999
50
-180
51
-89.9999
0
ARC
8
BLACK
10
266.22
20
-76.1225
40
1
50
-0
51
90
0
ARC
8
BLACK
10
266.22
20
-88.2225
40
1
50
-90
51
-0
0
LINE
8
BLACK
6
CONTINUOUS
10
23.9196
20
-88.2225
11
23.9196
21
-76.1225
0
LINE
8
BLACK
6
CONTINUOUS
10
24.9196
20
-75.1225
11
37.6197
21
-75.1225
0
LINE
8
BLACK
6
CONTINUOUS
10
37.6197
20
-89.2225
11
24.9196
21
-89.2225
0
LINE
8
BLACK
6
CONTINUOUS
10
38.6197
20
-76.1225
11
38.6197
21
-88.2225
0
ARC
8
BLACK
10
24.9196
20
-76.1225
40
0.999999
50
-270
51
-180
0
ARC
8
BLACK
10
24.9196
20
-88.2225
40
0.999999
50
-180
51
-89.9999
0
ARC
8
BLACK
10
37.6197
20
-76.1225
40
1
50
-0
51
90
0
ARC
8
BLACK
10
37.6197
20
-88.2225
40
1
50
-90
51
-0
0
LINE
8
BLACK
6
CONTINUOUS
10
121.551
20
-107.273
11
121.551
21
-95.1726
0
LINE
8
BLACK
6
CONTINUOUS
10
122.551
20
-94.1726
11
135.251
21
-94.1726
0
LINE
8
BLACK
6
CONTINUOUS
10
135.251
20
-108.273
11
122.551
21
-108.273
0
LINE
8
BLACK
6
CONTINUOUS
10
136.251
20
-95.1726
11
136.251
21
-107.273
0
ARC
8
BLACK
10
122.551
20
-95.1726
40
0.999999
50
-270
51
-180
0
ARC
8
BLACK
10
122.551
20
-107.273
40
0.999999
50
-180
51
-89.9999
0
ARC
8
BLACK
10
135.251
20
-95.1726
40
1
50
-0
51
90
0
ARC
8
BLACK
10
135.251
20
-107.273
40
1
50
-90
51
-0
0
LINE
8
BLACK
6
CONTINUOUS
10
78.6884
20
-126.323
11
78.6884
21
-114.223
0
LINE
8
BLACK
6
CONTINUOUS
10
79.6884
20
-113.223
11
92.3884
21
-113.223
0
LINE
8
BLACK
6
CONTINUOUS
10
92.3884
20
-127.323
11
79.6884
21
-127.323
0
LINE
8
BLACK
6
CONTINUOUS
10
93.3884
20
-114.223
11
93.3884
21
-126.323
0
ARC
8
BLACK
10
79.6884
20
-114.223
40
0.999999
50
-270
51
-180
0
ARC
8
BLACK
10
79.6884
20
-126.323
40
0.999999
50
-180
51
-89.9999
0
ARC
8
BLACK
10
92.3884
20
-114.223
40
1
50
-0
51
90
0
ARC
8
BLACK
10
92.3884
20
-126.323
40
1
50
-90
51
-0
0
LINE
8
BLACK
6
CONTINUOUS
10
64.4009
20
-107.273
11
64.4009
21
-95.1726
0
LINE
8
BLACK
6
CONTINUOUS
10
65.4009
20
-94.1726
11
78.1009
21
-94.1726
0
LINE
8
BLACK
6
CONTINUOUS
10
78.1009
20
-108.273
11
65.4009
21
-108.273
0
LINE
8
BLACK
6
CONTINUOUS
10
79.1009
20
-95.1726
11
79.1009
21
-107.273
0
ARC
8
BLACK
10
65.4009
20
-95.1726
40
0.999999
50
-270
51
-180
0
ARC
8
BLACK
10
65.4009
20
-107.273
40
0.999999
50
-180
51
-89.9999
0
ARC
8
BLACK
10
78.1009
20
-95.1726
40
1
50
-0
51
90
0
ARC
8
BLACK
10
78.1009
20
-107.273
40
1
50
-90
51
-0
0
LINE
8
BLACK
6
CONTINUOUS
10
257.281
20
-107.273
11
257.281
21
-95.1726
0
LINE
8
BLACK
6
CONTINUOUS
10
258.281
20
-94.1726
11
270.981
21
-94.1726
0
LINE
8
BLACK
6
CONTINUOUS
10
270.981
20
-108.273
11
258.281
21
-108.273
0
LINE
8
BLACK
6
CONTINUOUS
10
271.981
20
-95.1726
11
271.981
21
-107.273
0
ARC
8
BLACK
10
258.281
20
-95.1726
40
0.999999
50
-270
51
-180
0
ARC
8
BLACK
10
258.281
20
-107.273
40
0.999999
50
-180
51
-89.9999
0
ARC
8
BLACK
10
270.981
20
-95.1726
40
1
50
-0
51
90
0
ARC
8
BLACK
10
270.981
20
-107.273
40
1
50
-90
51
-0
0
LINE
8
BLACK
6
CONTINUOUS
10
216.801
20
-107.273
11
216.801
21
-95.1726
0
LINE
8
BLACK
6
CONTINUOUS
10
217.801
20
-94.1726
11
230.501
21
-94.1726
0
LINE
8
BLACK
6
CONTINUOUS
10
230.501
20
-108.273
11
217.801
21
-108.273
0
LINE
8
BLACK
6
CONTINUOUS
10
231.501
20
-95.1726
11
231.501
21
-107.273
0
ARC
8
BLACK
10
217.801
20
-95.1726
40
0.999999
50
-270
51
-180
0
ARC
8
BLACK
10
217.801
20
-107.273
40
0.999999
50
-180
51
-89.9999
0
ARC
8
BLACK
10
230.501
20
-95.1726
40
1
50
-0
51
90
0
ARC
8
BLACK
10
230.501
20
-107.273
40
1
50
-90
51
-0
0
LINE
8
BLACK
6
CONTINUOUS
10
150.126
20
-88.2225
11
150.126
21
-76.1225
0
LINE
8
BLACK
6
CONTINUOUS
10
151.126
20
-75.1225
11
163.826
21
-75.1225
0
LINE
8
BLACK
6
CONTINUOUS
10
163.826
20
-89.2225
11
151.126
21
-89.2225
0
LINE
8
BLACK
6
CONTINUOUS
10
164.826
20
-76.1225
11
164.826
21
-88.2225
0
ARC
8
BLACK
10
151.126
20
-76.1225
40
0.999999
50
-270
51
-180
0
ARC
8
BLACK
10
151.126
20
-88.2225
40
0.999999
50
-180
51
-89.9999
0
ARC
8
BLACK
10
163.826
20
-76.1225
40
1
50
-0
51
90
0
ARC
8
BLACK
10
163.826
20
-88.2225
40
1
50
-90
51
-0
0
LINE
8
BLACK
6
CONTINUOUS
10
254.901
20
-126.323
11
254.901
21
-114.223
0
LINE
8
BLACK
6
CONTINUOUS
10
255.901
20
-113.223
11
268.601
21
-113.223
0
LINE
8
BLACK
6
CONTINUOUS
10
268.601
20
-127.323
11
255.901
21
-127.323
0
LINE
8
BLACK
6
CONTINUOUS
10
269.601
20
-114.223
11
269.601
21
-126.323
0
ARC
8
BLACK
10
255.901
20
-114.223
40
0.999999
50
-270
51
-180
0
ARC
8
BLACK
10
255.901
20
-126.323
40
0.999999
50
-180
51
-89.9999
0
ARC
8
BLACK
10
268.601
20
-114.223
40
1
50
-0
51
90
0
ARC
8
BLACK
10
268.601
20
-126.323
40
1
50
-90
51
-0
0
LINE
8
BLACK
6
CONTINUOUS
10
24.7447
20
-94.1726
11
56.8447
21
-94.1726
0
LINE
8
BLACK
6
CONTINUOUS
10
24.7447
20
-107.273
11
24.7447
21
-94.1726
0
LINE
8
BLACK
6
CONTINUOUS
10
55.8447
20
-108.273
11
25.7447
21
-108.273
0
LINE
8
BLACK
6
CONTINUOUS
10
56.8447
20
-94.1726
11
56.8447
21
-107.273
0
ARC
8
BLACK
10
25.7447
20
-107.273
40
0.999999
50
-180
51
-89.9999
0
ARC
8
BLACK
10
55.8447
20
-107.273
40
1
50
-90
51
-0
0
LINE
8
BLACK
6
CONTINUOUS
10
131.076
20
-88.2225
11
131.076
21
-76.1225
0
LINE
8
BLACK
6
CONTINUOUS
10
132.076
20
-75.1225
11
144.776
21
-75.1225
0
LINE
8
BLACK
6
CONTINUOUS
10
144.776
20
-89.2225
11
132.076
21
-89.2225
0
LINE
8
BLACK
6
CONTINUOUS
10
145.776
20
-76.1225
11
145.776
21
-88.2225
0
ARC
8
BLACK
10
132.076
20
-76.1225
40
0.999999
50
-270
51
-180
0
ARC
8
BLACK
10
132.076
20
-88.2225
40
0.999999
50
-180
51
-89.9999
0
ARC
8
BLACK
10
144.776
20
-76.1225
40
1
50
-0
51
90
0
ARC
8
BLACK
10
144.776
20
-88.2225
40
1
50
-90
51
-0
0
LINE
8
BLACK
6
CONTINUOUS
10
226.326
20
-88.2225
11
226.326
21
-76.1225
0
LINE
8
BLACK
6
CONTINUOUS
10
227.326
20
-75.1225
11
240.026
21
-75.1225
0
LINE
8
BLACK
6
CONTINUOUS
10
240.026
20
-89.2225
11
227.326
21
-89.2225
0
LINE
8
BLACK
6
CONTINUOUS
10
241.026
20
-76.1225
11
241.026
21
-88.2225
0
ARC
8
BLACK
10
227.326
20
-76.1225
40
0.999999
50
-270
51
-180
0
ARC
8
BLACK
10
227.326
20
-88.2225
40
0.999999
50
-180
51
-89.9999
0
ARC
8
BLACK
10
240.026
20
-76.1225
40
1
50
-0
51
90
0
ARC
8
BLACK
10
240.026
20
-88.2225
40
1
50
-90
51
-0
0
LINE
8
BLACK
6
CONTINUOUS
10
126.313
20
-69.1725
11
126.313
21
-57.0725
0
LINE
8
BLACK
6
CONTINUOUS
10
127.313
20
-56.0725
11
140.013
21
-56.0725
0
LINE
8
BLACK
6
CONTINUOUS
10
140.013
20
-70.1725
11
127.313
21
-70.1725
0
LINE
8
BLACK
6
CONTINUOUS
10
141.013
20
-57.0725
11
141.013
21
-69.1725
0
ARC
8
BLACK
10
127.313
20
-57.0725
40
0.999999
50
-270
51
-180
0
ARC
8
BLACK
10
127.313
20
-69.1725
40
0.999999
50
-180
51
-89.9999
0
ARC
8
BLACK
10
140.013
20
-57.0725
40
1
50
-0
51
90
0
ARC
8
BLACK
10
140.013
20
-69.1725
40
1
50
-90
51
-0
0
LINE
8
BLACK
6
CONTINUOUS
10
26.3012
20
-69.1725
11
26.3012
21
-57.0725
0
LINE
8
BLACK
6
CONTINUOUS
10
27.3012
20
-56.0725
11
40.0012
21
-56.0725
0
LINE
8
BLACK
6
CONTINUOUS
10
40.0012
20
-70.1725
11
27.3012
21
-70.1725
0
LINE
8
BLACK
6
CONTINUOUS
10
41.0012
20
-57.0725
11
41.0012
21
-69.1725
0
ARC
8
BLACK
10
27.3012
20
-57.0725
40
0.999999
50
-270
51
-180
0
ARC
8
BLACK
10
27.3012
20
-69.1725
40
0.999999
50
-180
51
-89.9999
0
ARC
8
BLACK
10
40.0012
20
-57.0725
40
1
50
-0
51
90
0
ARC
8
BLACK
10
40.0012
20
-69.1725
40
1
50
-90
51
-0
0
LINE
8
BLACK
6
CONTINUOUS
10
83.4509
20
-107.273
11
83.4509
21
-95.1726
0
LINE
8
BLACK
6
CONTINUOUS
10
84.4509
20
-94.1726
11
97.1509
21
-94.1726
0
LINE
8
BLACK
6
CONTINUOUS
10
97.1509
20
-108.273
11
84.4509
21
-108.273
0
LINE
8
BLACK
6
CONTINUOUS
10
98.1509
20
-95.1726
11
98.1509
21
-107.273
0
ARC
8
BLACK
10
84.4509
20
-95.1726
40
0.999999
50
-270
51
-180
0
ARC
8
BLACK
10
84.4509
20
-107.273
40
0.999999
50
-180
51
-89.9999
0
ARC
8
BLACK
10
97.1509
20
-95.1726
40
1
50
-0
51
90
0
ARC
8
BLACK
10
97.1509
20
-107.273
40
1
50
-90
51
-0
0
LINE
8
BLACK
6
CONTINUOUS
10
207.276
20
-88.2225
11
207.276
21
-76.1225
0
LINE
8
BLACK
6
CONTINUOUS
10
208.276
20
-75.1225
11
220.976
21
-75.1225
0
LINE
8
BLACK
6
CONTINUOUS
10
220.976
20
-89.2225
11
208.276
21
-89.2225
0
LINE
8
BLACK
6
CONTINUOUS
10
221.976
20
-76.1225
11
221.976
21
-88.2225
0
ARC
8
BLACK
10
208.276
20
-76.1225
40
0.999999
50
-270
51
-180
0
ARC
8
BLACK
10
208.276
20
-88.2225
40
0.999999
50
-180
51
-89.9999
0
ARC
8
BLACK
10
220.976
20
-76.1225
40
1
50
-0
51
90
0
ARC
8
BLACK
10
220.976
20
-88.2225
40
1
50
-90
51
-0
0
LINE
8
BLACK
6
CONTINUOUS
10
178.701
20
-107.273
11
178.701
21
-95.1726
0
LINE
8
BLACK
6
CONTINUOUS
10
179.701
20
-94.1726
11
192.401
21
-94.1726
0
LINE
8
BLACK
6
CONTINUOUS
10
192.401
20
-108.273
11
179.701
21
-108.273
0
LINE
8
BLACK
6
CONTINUOUS
10
193.401
20
-95.1726
11
193.401
21
-107.273
0
ARC
8
BLACK
10
179.701
20
-95.1726
40
0.999999
50
-270
51
-180
0
ARC
8
BLACK
10
179.701
20
-107.273
40
0.999999
50
-180
51
-89.9999
0
ARC
8
BLACK
10
192.401
20
-95.1726
40
1
50
-0
51
90
0
ARC
8
BLACK
10
192.401
20
-107.273
40
1
50
-90
51
-0
0
LINE
8
BLACK
6
CONTINUOUS
10
50.1134
20
-69.1725
11
50.1134
21
-57.0725
0
LINE
8
BLACK
6
CONTINUOUS
10
51.1134
20
-56.0725
11
63.8134
21
-56.0725
0
LINE
8
BLACK
6
CONTINUOUS
10
63.8134
20
-70.1725
11
51.1134
21
-70.1725
0
LINE
8
BLACK
6
CONTINUOUS
10
64.8134
20
-57.0725
11
64.8134
21
-69.1725
0
ARC
8
BLACK
10
51.1134
20
-57.0725
40
0.999999
50
-270
51
-180
0
ARC
8
BLACK
10
51.1134
20
-69.1725
40
0.999999
50
-180
51
-89.9999
0
ARC
8
BLACK
10
63.8134
20
-57.0725
40
1
50
-0
51
90
0
ARC
8
BLACK
10
63.8134
20
-69.1725
40
1
50
-90
51
-0
0
LINE
8
BLACK
6
CONTINUOUS
10
164.413
20
-69.1725
11
164.413
21
-57.0725
0
LINE
8
BLACK
6
CONTINUOUS
10
165.413
20
-56.0725
11
178.113
21
-56.0725
0
LINE
8
BLACK
6
CONTINUOUS
10
178.113
20
-70.1725
11
165.413
21
-70.1725
0
LINE
8
BLACK
6
CONTINUOUS
10
179.113
20
-57.0725
11
179.113
21
-69.1725
0
ARC
8
BLACK
10
165.413
20
-57.0725
40
0.999999
50
-270
51
-180
0
ARC
8
BLACK
10
165.413
20
-69.1725
40
0.999999
50
-180
51
-89.9999
0
ARC
8
BLACK
10
178.113
20
-57.0725
40
1
50
-0
51
90
0
ARC
8
BLACK
10
178.113
20
-69.1725
40
1
50
-90
51
-0
0
LINE
8
BLACK
6
CONTINUOUS
10
202.514
20
-126.323
11
202.514
21
-114.223
0
LINE
8
BLACK
6
CONTINUOUS
10
203.514
20
-113.223
11
216.214
21
-113.223
0
LINE
8
BLACK
6
CONTINUOUS
10
216.214
20
-127.323
11
203.514
21
-127.323
0
LINE
8
BLACK
6
CONTINUOUS
10
217.214
20
-114.223
11
217.214
21
-126.323
0
ARC
8
BLACK
10
203.514
20
-114.223
40
0.999999
50
-270
51
-180
0
ARC
8
BLACK
10
203.514
20
-126.323
40
0.999999
50
-180
51
-89.9999
0
ARC
8
BLACK
10
216.214
20
-114.223
40
1
50
-0
51
90
0
ARC
8
BLACK
10
216.214
20
-126.323
40
1
50
-90
51
-0
0
LINE
8
BLACK
6
CONTINUOUS
10
202.513
20
-69.1725
11
202.513
21
-57.0725
0
LINE
8
BLACK
6
CONTINUOUS
10
203.513
20
-56.0725
11
216.213
21
-56.0725
0
LINE
8
BLACK
6
CONTINUOUS
10
216.213
20
-70.1725
11
203.513
21
-70.1725
0
LINE
8
BLACK
6
CONTINUOUS
10
217.213
20
-57.0725
11
217.213
21
-69.1725
0
ARC
8
BLACK
10
203.513
20
-57.0725
40
0.999999
50
-270
51
-180
0
ARC
8
BLACK
10
203.513
20
-69.1725
40
0.999999
50
-180
51
-89.9999
0
ARC
8
BLACK
10
216.213
20
-57.0725
40
1
50
-0
51
90
0
ARC
8
BLACK
10
216.213
20
-69.1725
40
1
50
-90
51
-0
0
LINE
8
BLACK
6
CONTINUOUS
10
140.601
20
-107.273
11
140.601
21
-95.1726
0
LINE
8
BLACK
6
CONTINUOUS
10
141.601
20
-94.1726
11
154.301
21
-94.1726
0
LINE
8
BLACK
6
CONTINUOUS
10
154.301
20
-108.273
11
141.601
21
-108.273
0
LINE
8
BLACK
6
CONTINUOUS
10
155.301
20
-95.1726
11
155.301
21
-107.273
0
ARC
8
BLACK
10
141.601
20
-95.1726
40
0.999999
50
-270
51
-180
0
ARC
8
BLACK
10
141.601
20
-107.273
40
0.999999
50
-180
51
-89.9999
0
ARC
8
BLACK
10
154.301
20
-95.1726
40
1
50
-0
51
90
0
ARC
8
BLACK
10
154.301
20
-107.273
40
1
50
-90
51
-0
0
LINE
8
BLACK
6
CONTINUOUS
10
183.463
20
-69.1725
11
183.463
21
-57.0725
0
LINE
8
BLACK
6
CONTINUOUS
10
184.463
20
-56.0725
11
197.163
21
-56.0725
0
LINE
8
BLACK
6
CONTINUOUS
10
197.163
20
-70.1725
11
184.463
21
-70.1725
0
LINE
8
BLACK
6
CONTINUOUS
10
198.163
20
-57.0725
11
198.163
21
-69.1725
0
ARC
8
BLACK
10
184.463
20
-57.0725
40
0.999999
50
-270
51
-180
0
ARC
8
BLACK
10
184.463
20
-69.1725
40
0.999999
50
-180
51
-89.9999
0
ARC
8
BLACK
10
197.163
20
-57.0725
40
1
50
-0
51
90
0
ARC
8
BLACK
10
197.163
20
-69.1725
40
1
50
-90
51
-0
0
LINE
8
BLACK
6
CONTINUOUS
10
73.9259
20
-88.2225
11
73.9259
21
-76.1225
0
LINE
8
BLACK
6
CONTINUOUS
10
74.9259
20
-75.1225
11
87.6259
21
-75.1225
0
LINE
8
BLACK
6
CONTINUOUS
10
87.6259
20
-89.2225
11
74.9259
21
-89.2225
0
LINE
8
BLACK
6
CONTINUOUS
10
88.6259
20
-76.1225
11
88.6259
21
-88.2225
0
ARC
8
BLACK
10
74.9259
20
-76.1225
40
0.999999
50
-270
51
-180
0
ARC
8
BLACK
10
74.9259
20
-88.2225
40
0.999999
50
-180
51
-89.9999
0
ARC
8
BLACK
10
87.6259
20
-76.1225
40
1
50
-0
51
90
0
ARC
8
BLACK
10
87.6259
20
-88.2225
40
1
50
-90
51
-0
0
LINE
8
BLACK
6
CONTINUOUS
10
197.751
20
-107.273
11
197.751
21
-95.1726
0
LINE
8
BLACK
6
CONTINUOUS
10
198.751
20
-94.1726
11
211.451
21
-94.1726
0
LINE
8
BLACK
6
CONTINUOUS
10
211.451
20
-108.273
11
198.751
21
-108.273
0
LINE
8
BLACK
6
CONTINUOUS
10
212.451
20
-95.1726
11
212.451
21
-107.273
0
ARC
8
BLACK
10
198.751
20
-95.1726
40
0.999999
50
-270
51
-180
0
ARC
8
BLACK
10
198.751
20
-107.273
40
0.999999
50
-180
51
-89.9999
0
ARC
8
BLACK
10
211.451
20
-95.1726
40
1
50
-0
51
90
0
ARC
8
BLACK
10
211.451
20
-107.273
40
1
50
-90
51
-0
0
LINE
8
BLACK
6
CONTINUOUS
10
259.663
20
-69.1725
11
259.663
21
-57.0725
0
LINE
8
BLACK
6
CONTINUOUS
10
260.663
20
-56.0725
11
273.363
21
-56.0725
0
LINE
8
BLACK
6
CONTINUOUS
10
273.363
20
-70.1725
11
260.663
21
-70.1725
0
LINE
8
BLACK
6
CONTINUOUS
10
274.363
20
-57.0725
11
274.363
21
-69.1725
0
ARC
8
BLACK
10
260.663
20
-57.0725
40
0.999999
50
-270
51
-180
0
ARC
8
BLACK
10
260.663
20
-69.1725
40
0.999999
50
-180
51
-89.9999
0
ARC
8
BLACK
10
273.363
20
-57.0725
40
1
50
-0
51
90
0
ARC
8
BLACK
10
273.363
20
-69.1725
40
1
50
-90
51
-0
0
LINE
8
BLACK
6
CONTINUOUS
10
235.851
20
-107.273
11
235.851
21
-95.1726
0
LINE
8
BLACK
6
CONTINUOUS
10
236.851
20
-94.1726
11
249.551
21
-94.1726
0
LINE
8
BLACK
6
CONTINUOUS
10
249.551
20
-108.273
11
236.851
21
-108.273
0
LINE
8
BLACK
6
CONTINUOUS
10
250.551
20
-95.1726
11
250.551
21
-107.273
0
ARC
8
BLACK
10
236.851
20
-95.1726
40
0.999999
50
-270
51
-180
0
ARC
8
BLACK
10
236.851
20
-107.273
40
0.999999
50
-180
51
-89.9999
0
ARC
8
BLACK
10
249.551
20
-95.1726
40
1
50
-0
51
90
0
ARC
8
BLACK
10
249.551
20
-107.273
40
1
50
-90
51
-0
0
LINE
8
BLACK
6
CONTINUOUS
10
221.563
20
-69.1725
11
221.563
21
-57.0725
0
LINE
8
BLACK
6
CONTINUOUS
10
222.563
20
-56.0725
11
235.263
21
-56.0725
0
LINE
8
BLACK
6
CONTINUOUS
10
235.263
20
-70.1725
11
222.563
21
-70.1725
0
LINE
8
BLACK
6
CONTINUOUS
10
236.263
20
-57.0725
11
236.263
21
-69.1725
0
ARC
8
BLACK
10
222.563
20
-57.0725
40
0.999999
50
-270
51
-180
0
ARC
8
BLACK
10
222.563
20
-69.1725
40
0.999999
50
-180
51
-89.9999
0
ARC
8
BLACK
10
235.263
20
-57.0725
40
1
50
-0
51
90
0
ARC
8
BLACK
10
235.263
20
-69.1725
40
1
50
-90
51
-0
0
LINE
8
BLACK
6
CONTINUOUS
10
240.613
20
-69.1725
11
240.613
21
-57.0725
0
LINE
8
BLACK
6
CONTINUOUS
10
241.613
20
-56.0725
11
254.313
21
-56.0725
0
LINE
8
BLACK
6
CONTINUOUS
10
254.313
20
-70.1725
11
241.613
21
-70.1725
0
LINE
8
BLACK
6
CONTINUOUS
10
255.313
20
-57.0725
11
255.313
21
-69.1725
0
ARC
8
BLACK
10
241.613
20
-57.0725
40
0.999999
50
-270
51
-180
0
ARC
8
BLACK
10
241.613
20
-69.1725
40
0.999999
50
-180
51
-89.9999
0
ARC
8
BLACK
10
254.313
20
-57.0725
40
1
50
-0
51
90
0
ARC
8
BLACK
10
254.313
20
-69.1725
40
1
50
-90
51
-0
0
LINE
8
BLACK
6
CONTINUOUS
10
88.2134
20
-69.1725
11
88.2134
21
-57.0725
0
LINE
8
BLACK
6
CONTINUOUS
10
89.2134
20
-56.0725
11
101.913
21
-56.0725
0
LINE
8
BLACK
6
CONTINUOUS
10
101.913
20
-70.1725
11
89.2134
21
-70.1725
0
LINE
8
BLACK
6
CONTINUOUS
10
102.913
20
-57.0725
11
102.913
21
-69.1725
0
ARC
8
BLACK
10
89.2134
20
-57.0725
40
0.999999
50
-270
51
-180
0
ARC
8
BLACK
10
89.2134
20
-69.1725
40
0.999999
50
-180
51
-89.9999
0
ARC
8
BLACK
10
101.913
20
-57.0725
40
1
50
-0
51
90
0
ARC
8
BLACK
10
101.913
20
-69.1725
40
1
50
-90
51
-0
0
LINE
8
BLACK
6
CONTINUOUS
10
102.501
20
-107.273
11
102.501
21
-95.1726
0
LINE
8
BLACK
6
CONTINUOUS
10
103.501
20
-94.1726
11
116.201
21
-94.1726
0
LINE
8
BLACK
6
CONTINUOUS
10
116.201
20
-108.273
11
103.501
21
-108.273
0
LINE
8
BLACK
6
CONTINUOUS
10
117.201
20
-95.1726
11
117.201
21
-107.273
0
ARC
8
BLACK
10
103.501
20
-95.1726
40
0.999999
50
-270
51
-180
0
ARC
8
BLACK
10
103.501
20
-107.273
40
0.999999
50
-180
51
-89.9999
0
ARC
8
BLACK
10
116.201
20
-95.1726
40
1
50
-0
51
90
0
ARC
8
BLACK
10
116.201
20
-107.273
40
1
50
-90
51
-0
0
LINE
8
BLACK
6
CONTINUOUS
10
159.651
20
-107.273
11
159.651
21
-95.1726
0
LINE
8
BLACK
6
CONTINUOUS
10
160.651
20
-94.1726
11
173.351
21
-94.1726
0
LINE
8
BLACK
6
CONTINUOUS
10
173.351
20
-108.273
11
160.651
21
-108.273
0
LINE
8
BLACK
6
CONTINUOUS
10
174.351
20
-95.1726
11
174.351
21
-107.273
0
ARC
8
BLACK
10
160.651
20
-95.1726
40
0.999999
50
-270
51
-180
0
ARC
8
BLACK
10
160.651
20
-107.273
40
0.999999
50
-180
51
-89.9999
0
ARC
8
BLACK
10
173.351
20
-95.1726
40
1
50
-0
51
90
0
ARC
8
BLACK
10
173.351
20
-107.273
40
1
50
-90
51
-0
0
LINE
8
BLACK
6
CONTINUOUS
10
188.226
20
-88.2225
11
188.226
21
-76.1225
0
LINE
8
BLACK
6
CONTINUOUS
10
189.226
20
-75.1225
11
201.926
21
-75.1225
0
LINE
8
BLACK
6
CONTINUOUS
10
201.926
20
-89.2225
11
189.226
21
-89.2225
0
LINE
8
BLACK
6
CONTINUOUS
10
202.926
20
-76.1225
11
202.926
21
-88.2225
0
ARC
8
BLACK
10
189.226
20
-76.1225
40
0.999999
50
-270
51
-180
0
ARC
8
BLACK
10
189.226
20
-88.2225
40
0.999999
50
-180
51
-89.9999
0
ARC
8
BLACK
10
201.926
20
-76.1225
40
1
50
-0
51
90
0
ARC
8
BLACK
10
201.926
20
-88.2225
40
1
50
-90
51
-0
0
LINE
8
BLACK
6
CONTINUOUS
10
54.8759
20
-88.2225
11
54.8759
21
-76.1225
0
LINE
8
BLACK
6
CONTINUOUS
10
55.8759
20
-75.1225
11
68.5759
21
-75.1225
0
LINE
8
BLACK
6
CONTINUOUS
10
68.5759
20
-89.2225
11
55.8759
21
-89.2225
0
LINE
8
BLACK
6
CONTINUOUS
10
69.5759
20
-76.1225
11
69.5759
21
-88.2225
0
ARC
8
BLACK
10
55.8759
20
-76.1225
40
0.999999
50
-270
51
-180
0
ARC
8
BLACK
10
55.8759
20
-88.2225
40
0.999999
50
-180
51
-89.9999
0
ARC
8
BLACK
10
68.5759
20
-76.1225
40
1
50
-0
51
90
0
ARC
8
BLACK
10
68.5759
20
-88.2225
40
1
50
-90
51
-0
0
LINE
8
BLACK
6
CONTINUOUS
10
107.263
20
-69.1725
11
107.263
21
-57.0725
0
LINE
8
BLACK
6
CONTINUOUS
10
108.263
20
-56.0725
11
120.963
21
-56.0725
0
LINE
8
BLACK
6
CONTINUOUS
10
120.963
20
-70.1725
11
108.263
21
-70.1725
0
LINE
8
BLACK
6
CONTINUOUS
10
121.963
20
-57.0725
11
121.963
21
-69.1725
0
ARC
8
BLACK
10
108.263
20
-57.0725
40
0.999999
50
-270
51
-180
0
ARC
8
BLACK
10
108.263
20
-69.1725
40
0.999999
50
-180
51
-89.9999
0
ARC
8
BLACK
10
120.963
20
-57.0725
40
1
50
-0
51
90
0
ARC
8
BLACK
10
120.963
20
-69.1725
40
1
50
-90
51
-0
0
LINE
8
BLACK
6
CONTINUOUS
10
69.1634
20
-69.1725
11
69.1634
21
-57.0725
0
LINE
8
BLACK
6
CONTINUOUS
10
70.1634
20
-56.0725
11
82.8634
21
-56.0725
0
LINE
8
BLACK
6
CONTINUOUS
10
82.8634
20
-70.1725
11
70.1634
21
-70.1725
0
LINE
8
BLACK
6
CONTINUOUS
10
83.8634
20
-57.0725
11
83.8634
21
-69.1725
0
ARC
8
BLACK
10
70.1634
20
-57.0725
40
0.999999
50
-270
51
-180
0
ARC
8
BLACK
10
70.1634
20
-69.1725
40
0.999999
50
-180
51
-89.9999
0
ARC
8
BLACK
10
82.8634
20
-57.0725
40
1
50
-0
51
90
0
ARC
8
BLACK
10
82.8634
20
-69.1725
40
1
50
-90
51
-0
0
LINE
8
BLACK
6
CONTINUOUS
10
153.331
20
-113.223
11
185.431
21
-113.223
0
LINE
8
BLACK
6
CONTINUOUS
10
153.331
20
-126.323
11
153.331
21
-113.223
0
LINE
8
BLACK
6
CONTINUOUS
10
184.431
20
-127.323
11
154.331
21
-127.323
0
LINE
8
BLACK
6
CONTINUOUS
10
185.431
20
-113.223
11
185.431
21
-126.323
0
ARC
8
BLACK
10
154.331
20
-126.323
40
0.999999
50
-180
51
-89.9999
0
ARC
8
BLACK
10
184.431
20
-126.323
40
1
50
-90
51
-0
0
LINE
8
BLACK
6
CONTINUOUS
10
26.3009
20
-126.323
11
26.3009
21
-114.223
0
LINE
8
BLACK
6
CONTINUOUS
10
27.3009
20
-113.223
11
40.0009
21
-113.223
0
LINE
8
BLACK
6
CONTINUOUS
10
40.0009
20
-127.323
11
27.3009
21
-127.323
0
LINE
8
BLACK
6
CONTINUOUS
10
41.0009
20
-114.223
11
41.0009
21
-126.323
0
ARC
8
BLACK
10
27.3009
20
-114.223
40
0.999999
50
-270
51
-180
0
ARC
8
BLACK
10
27.3009
20
-126.323
40
0.999999
50
-180
51
-89.9999
0
ARC
8
BLACK
10
40.0009
20
-114.223
40
1
50
-0
51
90
0
ARC
8
BLACK
10
40.0009
20
-126.323
40
1
50
-90
51
-0
0
LINE
8
BLACK
6
CONTINUOUS
10
169.176
20
-88.2225
11
169.176
21
-76.1225
0
LINE
8
BLACK
6
CONTINUOUS
10
170.176
20
-75.1225
11
182.876
21
-75.1225
0
LINE
8
BLACK
6
CONTINUOUS
10
182.876
20
-89.2225
11
170.176
21
-89.2225
0
LINE
8
BLACK
6
CONTINUOUS
10
183.876
20
-76.1225
11
183.876
21
-88.2225
0
ARC
8
BLACK
10
170.176
20
-76.1225
40
0.999999
50
-270
51
-180
0
ARC
8
BLACK
10
170.176
20
-88.2225
40
0.999999
50
-180
51
-89.9999
0
ARC
8
BLACK
10
182.876
20
-76.1225
40
1
50
-0
51
90
0
ARC
8
BLACK
10
182.876
20
-88.2225
40
1
50
-90
51
-0
0
LINE
8
BLACK
6
CONTINUOUS
10
92.9759
20
-88.2225
11
92.9759
21
-76.1225
0
LINE
8
BLACK
6
CONTINUOUS
10
93.9759
20
-75.1225
11
106.676
21
-75.1225
0
LINE
8
BLACK
6
CONTINUOUS
10
106.676
20
-89.2225
11
93.9759
21
-89.2225
0
LINE
8
BLACK
6
CONTINUOUS
10
107.676
20
-76.1225
11
107.676
21
-88.2225
0
ARC
8
BLACK
10
93.9759
20
-76.1225
40
0.999999
50
-270
51
-180
0
ARC
8
BLACK
10
93.9759
20
-88.2225
40
0.999999
50
-180
51
-89.9999
0
ARC
8
BLACK
10
106.676
20
-76.1225
40
1
50
-0
51
90
0
ARC
8
BLACK
10
106.676
20
-88.2225
40
1
50
-90
51
-0
0
LINE
8
BLACK
6
CONTINUOUS
10
112.026
20
-88.2225
11
112.026
21
-76.1225
0
LINE
8
BLACK
6
CONTINUOUS
10
113.026
20
-75.1225
11
125.726
21
-75.1225
0
LINE
8
BLACK
6
CONTINUOUS
10
125.726
20
-89.2225
11
113.026
21
-89.2225
0
LINE
8
BLACK
6
CONTINUOUS
10
126.726
20
-76.1225
11
126.726
21
-88.2225
0
ARC
8
BLACK
10
113.026
20
-76.1225
40
0.999999
50
-270
51
-180
0
ARC
8
BLACK
10
113.026
20
-88.2225
40
0.999999
50
-180
51
-89.9999
0
ARC
8
BLACK
10
125.726
20
-76.1225
40
1
50
-0
51
90
0
ARC
8
BLACK
10
125.726
20
-88.2225
40
1
50
-90
51
-0
  0
ENDSEC
  0
EOF
