G04 #@! TF.GenerationSoftware,KiCad,Pcbnew,7.0.7-7.0.7~ubuntu23.04.1*
G04 #@! TF.CreationDate,2023-08-23T01:15:58+00:00*
G04 #@! TF.ProjectId,plate,706c6174-652e-46b6-9963-61645f706362,rev?*
G04 #@! TF.SameCoordinates,Original*
G04 #@! TF.FileFunction,Profile,NP*
%FSLAX46Y46*%
G04 Gerber Fmt 4.6, Leading zero omitted, Abs format (unit mm)*
G04 Created by KiCad (PCBNEW 7.0.7-7.0.7~ubuntu23.04.1) date 2023-08-23 01:15:58*
%MOMM*%
%LPD*%
G01*
G04 APERTURE LIST*
G04 #@! TA.AperFunction,Profile*
%ADD10C,0.100000*%
G04 #@! TD*
G04 #@! TA.AperFunction,Profile*
%ADD11C,0.200000*%
G04 #@! TD*
G04 #@! TA.AperFunction,Profile*
%ADD12C,0.050000*%
G04 #@! TD*
G04 APERTURE END LIST*
D10*
X21363751Y-53597501D02*
G75*
G03*
X19363751Y-55597500I-1J-1999999D01*
G01*
X19363750Y-127797500D02*
X19363750Y-55597500D01*
X276538750Y-55597500D02*
X276538750Y-127797500D01*
X274538750Y-129797450D02*
G75*
G03*
X276538750Y-127797500I50J1999950D01*
G01*
X19363750Y-127797500D02*
G75*
G03*
X21363749Y-129797500I2000000J0D01*
G01*
X274538752Y-53597500D02*
X21363751Y-53597500D01*
X21363749Y-129797500D02*
X274538750Y-129797500D01*
X276538800Y-55597500D02*
G75*
G03*
X274538752Y-53597500I-2000000J0D01*
G01*
D11*
X105705840Y-113222580D02*
X137805840Y-113222580D01*
X105705840Y-126322580D02*
X105705840Y-113222580D01*
X136805840Y-127322580D02*
X106705840Y-127322580D01*
X137805840Y-113222580D02*
X137805840Y-126322580D01*
X105705840Y-126322580D02*
G75*
G03*
X106705840Y-127322580I999999J-1D01*
G01*
X136805840Y-127322580D02*
G75*
G03*
X137805840Y-126322580I0J1000000D01*
G01*
X145363440Y-69172500D02*
X145363440Y-57072500D01*
X146363440Y-56072500D02*
X159063440Y-56072500D01*
X159063440Y-70172500D02*
X146363440Y-70172500D01*
X160063440Y-57072500D02*
X160063440Y-69172500D01*
X146363440Y-56072500D02*
G75*
G03*
X145363440Y-57072500I-1J-999999D01*
G01*
X145363440Y-69172500D02*
G75*
G03*
X146363440Y-70172500I999999J-1D01*
G01*
X160063440Y-57072500D02*
G75*
G03*
X159063440Y-56072500I-1000000J0D01*
G01*
X159063440Y-70172500D02*
G75*
G03*
X160063440Y-69172500I0J1000000D01*
G01*
X228705740Y-126322580D02*
X228705740Y-114222580D01*
X229705740Y-113222580D02*
X242405740Y-113222580D01*
X242405740Y-127322580D02*
X229705740Y-127322580D01*
X243405740Y-114222580D02*
X243405740Y-126322580D01*
X229705740Y-113222580D02*
G75*
G03*
X228705740Y-114222580I-1J-999999D01*
G01*
X228705740Y-126322580D02*
G75*
G03*
X229705740Y-127322580I999999J-1D01*
G01*
X243405740Y-114222580D02*
G75*
G03*
X242405740Y-113222580I-1000000J0D01*
G01*
X242405740Y-127322580D02*
G75*
G03*
X243405740Y-126322580I0J1000000D01*
G01*
D12*
X23345000Y-120272500D02*
G75*
G03*
X23345000Y-120272500I-1600000J0D01*
G01*
D11*
X52494640Y-126322580D02*
X52494640Y-114222580D01*
X53494640Y-113222580D02*
X66194640Y-113222580D01*
X66194640Y-127322580D02*
X53494640Y-127322580D01*
X67194640Y-114222580D02*
X67194640Y-126322580D01*
X53494640Y-113222580D02*
G75*
G03*
X52494640Y-114222580I-1J-999999D01*
G01*
X52494640Y-126322580D02*
G75*
G03*
X53494640Y-127322580I999999J-1D01*
G01*
X67194640Y-114222580D02*
G75*
G03*
X66194640Y-113222580I-1000000J0D01*
G01*
X66194640Y-127322580D02*
G75*
G03*
X67194640Y-126322580I0J1000000D01*
G01*
X252519740Y-88222500D02*
X252519740Y-76122500D01*
X253519740Y-75122500D02*
X266219740Y-75122500D01*
X266219740Y-89222500D02*
X253519740Y-89222500D01*
X267219740Y-76122500D02*
X267219740Y-88222500D01*
X253519740Y-75122500D02*
G75*
G03*
X252519740Y-76122500I-1J-999999D01*
G01*
X252519740Y-88222500D02*
G75*
G03*
X253519740Y-89222500I999999J-1D01*
G01*
X267219740Y-76122500D02*
G75*
G03*
X266219740Y-75122500I-1000000J0D01*
G01*
X266219740Y-89222500D02*
G75*
G03*
X267219740Y-88222500I0J1000000D01*
G01*
X23919650Y-88222500D02*
X23919650Y-76122500D01*
X24919650Y-75122500D02*
X37619650Y-75122500D01*
X37619650Y-89222500D02*
X24919650Y-89222500D01*
X38619650Y-76122500D02*
X38619650Y-88222500D01*
X24919650Y-75122500D02*
G75*
G03*
X23919650Y-76122500I-1J-999999D01*
G01*
X23919650Y-88222500D02*
G75*
G03*
X24919650Y-89222500I999999J-1D01*
G01*
X38619650Y-76122500D02*
G75*
G03*
X37619650Y-75122500I-1000000J0D01*
G01*
X37619650Y-89222500D02*
G75*
G03*
X38619650Y-88222500I0J1000000D01*
G01*
X121550940Y-107272650D02*
X121550940Y-95172650D01*
X122550940Y-94172650D02*
X135250940Y-94172650D01*
X135250940Y-108272650D02*
X122550940Y-108272650D01*
X136250940Y-95172650D02*
X136250940Y-107272650D01*
X122550940Y-94172650D02*
G75*
G03*
X121550940Y-95172650I-1J-999999D01*
G01*
X121550940Y-107272650D02*
G75*
G03*
X122550940Y-108272650I999999J-1D01*
G01*
X136250940Y-95172650D02*
G75*
G03*
X135250940Y-94172650I-1000000J0D01*
G01*
X135250940Y-108272650D02*
G75*
G03*
X136250940Y-107272650I0J1000000D01*
G01*
D12*
X270995000Y-82172500D02*
G75*
G03*
X270995000Y-82172500I-1600000J0D01*
G01*
X163838750Y-63122500D02*
G75*
G03*
X163838750Y-63122500I-1600000J0D01*
G01*
D11*
X78688440Y-126322580D02*
X78688440Y-114222580D01*
X79688440Y-113222580D02*
X92388440Y-113222580D01*
X92388440Y-127322580D02*
X79688440Y-127322580D01*
X93388440Y-114222580D02*
X93388440Y-126322580D01*
X79688440Y-113222580D02*
G75*
G03*
X78688440Y-114222580I-1J-999999D01*
G01*
X78688440Y-126322580D02*
G75*
G03*
X79688440Y-127322580I999999J-1D01*
G01*
X93388440Y-114222580D02*
G75*
G03*
X92388440Y-113222580I-1000000J0D01*
G01*
X92388440Y-127322580D02*
G75*
G03*
X93388440Y-126322580I0J1000000D01*
G01*
X64400940Y-107272650D02*
X64400940Y-95172650D01*
X65400940Y-94172650D02*
X78100940Y-94172650D01*
X78100940Y-108272650D02*
X65400940Y-108272650D01*
X79100940Y-95172650D02*
X79100940Y-107272650D01*
X65400940Y-94172650D02*
G75*
G03*
X64400940Y-95172650I-1J-999999D01*
G01*
X64400940Y-107272650D02*
G75*
G03*
X65400940Y-108272650I999999J-1D01*
G01*
X79100940Y-95172650D02*
G75*
G03*
X78100940Y-94172650I-1000000J0D01*
G01*
X78100940Y-108272650D02*
G75*
G03*
X79100940Y-107272650I0J1000000D01*
G01*
X257280740Y-107272650D02*
X257280740Y-95172650D01*
X258280740Y-94172650D02*
X270980740Y-94172650D01*
X270980740Y-108272650D02*
X258280740Y-108272650D01*
X271980740Y-95172650D02*
X271980740Y-107272650D01*
X258280740Y-94172650D02*
G75*
G03*
X257280740Y-95172650I-1J-999999D01*
G01*
X257280740Y-107272650D02*
G75*
G03*
X258280740Y-108272650I999999J-1D01*
G01*
X271980740Y-95172650D02*
G75*
G03*
X270980740Y-94172650I-1000000J0D01*
G01*
X270980740Y-108272650D02*
G75*
G03*
X271980740Y-107272650I0J1000000D01*
G01*
X216800940Y-107272650D02*
X216800940Y-95172650D01*
X217800940Y-94172650D02*
X230500940Y-94172650D01*
X230500940Y-108272650D02*
X217800940Y-108272650D01*
X231500940Y-95172650D02*
X231500940Y-107272650D01*
X217800940Y-94172650D02*
G75*
G03*
X216800940Y-95172650I-1J-999999D01*
G01*
X216800940Y-107272650D02*
G75*
G03*
X217800940Y-108272650I999999J-1D01*
G01*
X231500940Y-95172650D02*
G75*
G03*
X230500940Y-94172650I-1000000J0D01*
G01*
X230500940Y-108272650D02*
G75*
G03*
X231500940Y-107272650I0J1000000D01*
G01*
X150125940Y-88222500D02*
X150125940Y-76122500D01*
X151125940Y-75122500D02*
X163825940Y-75122500D01*
X163825940Y-89222500D02*
X151125940Y-89222500D01*
X164825940Y-76122500D02*
X164825940Y-88222500D01*
X151125940Y-75122500D02*
G75*
G03*
X150125940Y-76122500I-1J-999999D01*
G01*
X150125940Y-88222500D02*
G75*
G03*
X151125940Y-89222500I999999J-1D01*
G01*
X164825940Y-76122500D02*
G75*
G03*
X163825940Y-75122500I-1000000J0D01*
G01*
X163825940Y-89222500D02*
G75*
G03*
X164825940Y-88222500I0J1000000D01*
G01*
X254900740Y-126322580D02*
X254900740Y-114222580D01*
X255900740Y-113222580D02*
X268600740Y-113222580D01*
X268600740Y-127322580D02*
X255900740Y-127322580D01*
X269600740Y-114222580D02*
X269600740Y-126322580D01*
X255900740Y-113222580D02*
G75*
G03*
X254900740Y-114222580I-1J-999999D01*
G01*
X254900740Y-126322580D02*
G75*
G03*
X255900740Y-127322580I999999J-1D01*
G01*
X269600740Y-114222580D02*
G75*
G03*
X268600740Y-113222580I-1000000J0D01*
G01*
X268600740Y-127322580D02*
G75*
G03*
X269600740Y-126322580I0J1000000D01*
G01*
X24744740Y-94172650D02*
X56844740Y-94172650D01*
X24744740Y-107272650D02*
X24744740Y-94172650D01*
X55844740Y-108272650D02*
X25744740Y-108272650D01*
X56844740Y-94172650D02*
X56844740Y-107272650D01*
X24744740Y-107272650D02*
G75*
G03*
X25744740Y-108272650I999999J-1D01*
G01*
X55844740Y-108272650D02*
G75*
G03*
X56844740Y-107272650I0J1000000D01*
G01*
D12*
X189030500Y-120272500D02*
G75*
G03*
X189030500Y-120272500I-1600000J0D01*
G01*
X92401250Y-82172500D02*
G75*
G03*
X92401250Y-82172500I-1600000J0D01*
G01*
D11*
X131075940Y-88222500D02*
X131075940Y-76122500D01*
X132075940Y-75122500D02*
X144775940Y-75122500D01*
X144775940Y-89222500D02*
X132075940Y-89222500D01*
X145775940Y-76122500D02*
X145775940Y-88222500D01*
X132075940Y-75122500D02*
G75*
G03*
X131075940Y-76122500I-1J-999999D01*
G01*
X131075940Y-88222500D02*
G75*
G03*
X132075940Y-89222500I999999J-1D01*
G01*
X145775940Y-76122500D02*
G75*
G03*
X144775940Y-75122500I-1000000J0D01*
G01*
X144775940Y-89222500D02*
G75*
G03*
X145775940Y-88222500I0J1000000D01*
G01*
X226325940Y-88222500D02*
X226325940Y-76122500D01*
X227325940Y-75122500D02*
X240025940Y-75122500D01*
X240025940Y-89222500D02*
X227325940Y-89222500D01*
X241025940Y-76122500D02*
X241025940Y-88222500D01*
X227325940Y-75122500D02*
G75*
G03*
X226325940Y-76122500I-1J-999999D01*
G01*
X226325940Y-88222500D02*
G75*
G03*
X227325940Y-89222500I999999J-1D01*
G01*
X241025940Y-76122500D02*
G75*
G03*
X240025940Y-75122500I-1000000J0D01*
G01*
X240025940Y-89222500D02*
G75*
G03*
X241025940Y-88222500I0J1000000D01*
G01*
D12*
X159076250Y-101222500D02*
G75*
G03*
X159076250Y-101222500I-1600000J0D01*
G01*
D11*
X126313440Y-69172500D02*
X126313440Y-57072500D01*
X127313440Y-56072500D02*
X140013440Y-56072500D01*
X140013440Y-70172500D02*
X127313440Y-70172500D01*
X141013440Y-57072500D02*
X141013440Y-69172500D01*
X127313440Y-56072500D02*
G75*
G03*
X126313440Y-57072500I-1J-999999D01*
G01*
X126313440Y-69172500D02*
G75*
G03*
X127313440Y-70172500I999999J-1D01*
G01*
X141013440Y-57072500D02*
G75*
G03*
X140013440Y-56072500I-1000000J0D01*
G01*
X140013440Y-70172500D02*
G75*
G03*
X141013440Y-69172500I0J1000000D01*
G01*
X26301250Y-69172500D02*
X26301250Y-57072500D01*
X27301250Y-56072500D02*
X40001250Y-56072500D01*
X40001250Y-70172500D02*
X27301250Y-70172500D01*
X41001250Y-57072500D02*
X41001250Y-69172500D01*
X27301250Y-56072500D02*
G75*
G03*
X26301250Y-57072500I-1J-999999D01*
G01*
X26301250Y-69172500D02*
G75*
G03*
X27301250Y-70172500I999999J-1D01*
G01*
X41001250Y-57072500D02*
G75*
G03*
X40001250Y-56072500I-1000000J0D01*
G01*
X40001250Y-70172500D02*
G75*
G03*
X41001250Y-69172500I0J1000000D01*
G01*
X83450940Y-107272650D02*
X83450940Y-95172650D01*
X84450940Y-94172650D02*
X97150940Y-94172650D01*
X97150940Y-108272650D02*
X84450940Y-108272650D01*
X98150940Y-95172650D02*
X98150940Y-107272650D01*
X84450940Y-94172650D02*
G75*
G03*
X83450940Y-95172650I-1J-999999D01*
G01*
X83450940Y-107272650D02*
G75*
G03*
X84450940Y-108272650I999999J-1D01*
G01*
X98150940Y-95172650D02*
G75*
G03*
X97150940Y-94172650I-1000000J0D01*
G01*
X97150940Y-108272650D02*
G75*
G03*
X98150940Y-107272650I0J1000000D01*
G01*
X207275940Y-88222500D02*
X207275940Y-76122500D01*
X208275940Y-75122500D02*
X220975940Y-75122500D01*
X220975940Y-89222500D02*
X208275940Y-89222500D01*
X221975940Y-76122500D02*
X221975940Y-88222500D01*
X208275940Y-75122500D02*
G75*
G03*
X207275940Y-76122500I-1J-999999D01*
G01*
X207275940Y-88222500D02*
G75*
G03*
X208275940Y-89222500I999999J-1D01*
G01*
X221975940Y-76122500D02*
G75*
G03*
X220975940Y-75122500I-1000000J0D01*
G01*
X220975940Y-89222500D02*
G75*
G03*
X221975940Y-88222500I0J1000000D01*
G01*
X178700940Y-107272650D02*
X178700940Y-95172650D01*
X179700940Y-94172650D02*
X192400940Y-94172650D01*
X192400940Y-108272650D02*
X179700940Y-108272650D01*
X193400940Y-95172650D02*
X193400940Y-107272650D01*
X179700940Y-94172650D02*
G75*
G03*
X178700940Y-95172650I-1J-999999D01*
G01*
X178700940Y-107272650D02*
G75*
G03*
X179700940Y-108272650I999999J-1D01*
G01*
X193400940Y-95172650D02*
G75*
G03*
X192400940Y-94172650I-1000000J0D01*
G01*
X192400940Y-108272650D02*
G75*
G03*
X193400940Y-107272650I0J1000000D01*
G01*
X50113440Y-69172500D02*
X50113440Y-57072500D01*
X51113440Y-56072500D02*
X63813440Y-56072500D01*
X63813440Y-70172500D02*
X51113440Y-70172500D01*
X64813440Y-57072500D02*
X64813440Y-69172500D01*
X51113440Y-56072500D02*
G75*
G03*
X50113440Y-57072500I-1J-999999D01*
G01*
X50113440Y-69172500D02*
G75*
G03*
X51113440Y-70172500I999999J-1D01*
G01*
X64813440Y-57072500D02*
G75*
G03*
X63813440Y-56072500I-1000000J0D01*
G01*
X63813440Y-70172500D02*
G75*
G03*
X64813440Y-69172500I0J1000000D01*
G01*
D12*
X225751250Y-82172500D02*
G75*
G03*
X225751250Y-82172500I-1600000J0D01*
G01*
D11*
X164413440Y-69172500D02*
X164413440Y-57072500D01*
X165413440Y-56072500D02*
X178113440Y-56072500D01*
X178113440Y-70172500D02*
X165413440Y-70172500D01*
X179113440Y-57072500D02*
X179113440Y-69172500D01*
X165413440Y-56072500D02*
G75*
G03*
X164413440Y-57072500I-1J-999999D01*
G01*
X164413440Y-69172500D02*
G75*
G03*
X165413440Y-70172500I999999J-1D01*
G01*
X179113440Y-57072500D02*
G75*
G03*
X178113440Y-56072500I-1000000J0D01*
G01*
X178113440Y-70172500D02*
G75*
G03*
X179113440Y-69172500I0J1000000D01*
G01*
X202513740Y-126322580D02*
X202513740Y-114222580D01*
X203513740Y-113222580D02*
X216213740Y-113222580D01*
X216213740Y-127322580D02*
X203513740Y-127322580D01*
X217213740Y-114222580D02*
X217213740Y-126322580D01*
X203513740Y-113222580D02*
G75*
G03*
X202513740Y-114222580I-1J-999999D01*
G01*
X202513740Y-126322580D02*
G75*
G03*
X203513740Y-127322580I999999J-1D01*
G01*
X217213740Y-114222580D02*
G75*
G03*
X216213740Y-113222580I-1000000J0D01*
G01*
X216213740Y-127322580D02*
G75*
G03*
X217213740Y-126322580I0J1000000D01*
G01*
D12*
X228131704Y-120272500D02*
G75*
G03*
X228131704Y-120272500I-1600000J0D01*
G01*
X201938750Y-63122500D02*
G75*
G03*
X201938750Y-63122500I-1600000J0D01*
G01*
D11*
X202513440Y-69172500D02*
X202513440Y-57072500D01*
X203513440Y-56072500D02*
X216213440Y-56072500D01*
X216213440Y-70172500D02*
X203513440Y-70172500D01*
X217213440Y-57072500D02*
X217213440Y-69172500D01*
X203513440Y-56072500D02*
G75*
G03*
X202513440Y-57072500I-1J-999999D01*
G01*
X202513440Y-69172500D02*
G75*
G03*
X203513440Y-70172500I999999J-1D01*
G01*
X217213440Y-57072500D02*
G75*
G03*
X216213440Y-56072500I-1000000J0D01*
G01*
X216213440Y-70172500D02*
G75*
G03*
X217213440Y-69172500I0J1000000D01*
G01*
D12*
X235276250Y-101222500D02*
G75*
G03*
X235276250Y-101222500I-1600000J0D01*
G01*
X187651250Y-82172500D02*
G75*
G03*
X187651250Y-82172500I-1600000J0D01*
G01*
D11*
X140600940Y-107272650D02*
X140600940Y-95172650D01*
X141600940Y-94172650D02*
X154300940Y-94172650D01*
X154300940Y-108272650D02*
X141600940Y-108272650D01*
X155300940Y-95172650D02*
X155300940Y-107272650D01*
X141600940Y-94172650D02*
G75*
G03*
X140600940Y-95172650I-1J-999999D01*
G01*
X140600940Y-107272650D02*
G75*
G03*
X141600940Y-108272650I999999J-1D01*
G01*
X155300940Y-95172650D02*
G75*
G03*
X154300940Y-94172650I-1000000J0D01*
G01*
X154300940Y-108272650D02*
G75*
G03*
X155300940Y-107272650I0J1000000D01*
G01*
X183463440Y-69172500D02*
X183463440Y-57072500D01*
X184463440Y-56072500D02*
X197163440Y-56072500D01*
X197163440Y-70172500D02*
X184463440Y-70172500D01*
X198163440Y-57072500D02*
X198163440Y-69172500D01*
X184463440Y-56072500D02*
G75*
G03*
X183463440Y-57072500I-1J-999999D01*
G01*
X183463440Y-69172500D02*
G75*
G03*
X184463440Y-70172500I999999J-1D01*
G01*
X198163440Y-57072500D02*
G75*
G03*
X197163440Y-56072500I-1000000J0D01*
G01*
X197163440Y-70172500D02*
G75*
G03*
X198163440Y-69172500I0J1000000D01*
G01*
X73925940Y-88222500D02*
X73925940Y-76122500D01*
X74925940Y-75122500D02*
X87625940Y-75122500D01*
X87625940Y-89222500D02*
X74925940Y-89222500D01*
X88625940Y-76122500D02*
X88625940Y-88222500D01*
X74925940Y-75122500D02*
G75*
G03*
X73925940Y-76122500I-1J-999999D01*
G01*
X73925940Y-88222500D02*
G75*
G03*
X74925940Y-89222500I999999J-1D01*
G01*
X88625940Y-76122500D02*
G75*
G03*
X87625940Y-75122500I-1000000J0D01*
G01*
X87625940Y-89222500D02*
G75*
G03*
X88625940Y-88222500I0J1000000D01*
G01*
X197750940Y-107272650D02*
X197750940Y-95172650D01*
X198750940Y-94172650D02*
X211450940Y-94172650D01*
X211450940Y-108272650D02*
X198750940Y-108272650D01*
X212450940Y-95172650D02*
X212450940Y-107272650D01*
X198750940Y-94172650D02*
G75*
G03*
X197750940Y-95172650I-1J-999999D01*
G01*
X197750940Y-107272650D02*
G75*
G03*
X198750940Y-108272650I999999J-1D01*
G01*
X212450940Y-95172650D02*
G75*
G03*
X211450940Y-94172650I-1000000J0D01*
G01*
X211450940Y-108272650D02*
G75*
G03*
X212450940Y-107272650I0J1000000D01*
G01*
D12*
X147358625Y-120272149D02*
G75*
G03*
X147358625Y-120272149I-1600000J0D01*
G01*
X23270000Y-101222500D02*
G75*
G03*
X23270000Y-101222500I-1600000J0D01*
G01*
D11*
X259663440Y-69172500D02*
X259663440Y-57072500D01*
X260663440Y-56072500D02*
X273363440Y-56072500D01*
X273363440Y-70172500D02*
X260663440Y-70172500D01*
X274363440Y-57072500D02*
X274363440Y-69172500D01*
X260663440Y-56072500D02*
G75*
G03*
X259663440Y-57072500I-1J-999999D01*
G01*
X259663440Y-69172500D02*
G75*
G03*
X260663440Y-70172500I999999J-1D01*
G01*
X274363440Y-57072500D02*
G75*
G03*
X273363440Y-56072500I-1000000J0D01*
G01*
X273363440Y-70172500D02*
G75*
G03*
X274363440Y-69172500I0J1000000D01*
G01*
X235850940Y-107272650D02*
X235850940Y-95172650D01*
X236850940Y-94172650D02*
X249550940Y-94172650D01*
X249550940Y-108272650D02*
X236850940Y-108272650D01*
X250550940Y-95172650D02*
X250550940Y-107272650D01*
X236850940Y-94172650D02*
G75*
G03*
X235850940Y-95172650I-1J-999999D01*
G01*
X235850940Y-107272650D02*
G75*
G03*
X236850940Y-108272650I999999J-1D01*
G01*
X250550940Y-95172650D02*
G75*
G03*
X249550940Y-94172650I-1000000J0D01*
G01*
X249550940Y-108272650D02*
G75*
G03*
X250550940Y-107272650I0J1000000D01*
G01*
D12*
X275757500Y-120272500D02*
G75*
G03*
X275757500Y-120272500I-1600000J0D01*
G01*
D11*
X221563440Y-69172500D02*
X221563440Y-57072500D01*
X222563440Y-56072500D02*
X235263440Y-56072500D01*
X235263440Y-70172500D02*
X222563440Y-70172500D01*
X236263440Y-57072500D02*
X236263440Y-69172500D01*
X222563440Y-56072500D02*
G75*
G03*
X221563440Y-57072500I-1J-999999D01*
G01*
X221563440Y-69172500D02*
G75*
G03*
X222563440Y-70172500I999999J-1D01*
G01*
X236263440Y-57072500D02*
G75*
G03*
X235263440Y-56072500I-1000000J0D01*
G01*
X235263440Y-70172500D02*
G75*
G03*
X236263440Y-69172500I0J1000000D01*
G01*
D12*
X50345000Y-82172500D02*
G75*
G03*
X50345000Y-82172500I-1600000J0D01*
G01*
X253135625Y-120272500D02*
G75*
G03*
X253135625Y-120272500I-1600000J0D01*
G01*
X47157500Y-63122500D02*
G75*
G03*
X47157500Y-63122500I-1600000J0D01*
G01*
D11*
X240613440Y-69172500D02*
X240613440Y-57072500D01*
X241613440Y-56072500D02*
X254313440Y-56072500D01*
X254313440Y-70172500D02*
X241613440Y-70172500D01*
X255313440Y-57072500D02*
X255313440Y-69172500D01*
X241613440Y-56072500D02*
G75*
G03*
X240613440Y-57072500I-1J-999999D01*
G01*
X240613440Y-69172500D02*
G75*
G03*
X241613440Y-70172500I999999J-1D01*
G01*
X255313440Y-57072500D02*
G75*
G03*
X254313440Y-56072500I-1000000J0D01*
G01*
X254313440Y-70172500D02*
G75*
G03*
X255313440Y-69172500I0J1000000D01*
G01*
X88213440Y-69172500D02*
X88213440Y-57072500D01*
X89213440Y-56072500D02*
X101913440Y-56072500D01*
X101913440Y-70172500D02*
X89213440Y-70172500D01*
X102913440Y-57072500D02*
X102913440Y-69172500D01*
X89213440Y-56072500D02*
G75*
G03*
X88213440Y-57072500I-1J-999999D01*
G01*
X88213440Y-69172500D02*
G75*
G03*
X89213440Y-70172500I999999J-1D01*
G01*
X102913440Y-57072500D02*
G75*
G03*
X101913440Y-56072500I-1000000J0D01*
G01*
X101913440Y-70172500D02*
G75*
G03*
X102913440Y-69172500I0J1000000D01*
G01*
D12*
X87638750Y-63122500D02*
G75*
G03*
X87638750Y-63122500I-1600000J0D01*
G01*
D11*
X102500940Y-107272650D02*
X102500940Y-95172650D01*
X103500940Y-94172650D02*
X116200940Y-94172650D01*
X116200940Y-108272650D02*
X103500940Y-108272650D01*
X117200940Y-95172650D02*
X117200940Y-107272650D01*
X103500940Y-94172650D02*
G75*
G03*
X102500940Y-95172650I-1J-999999D01*
G01*
X102500940Y-107272650D02*
G75*
G03*
X103500940Y-108272650I999999J-1D01*
G01*
X117200940Y-95172650D02*
G75*
G03*
X116200940Y-94172650I-1000000J0D01*
G01*
X116200940Y-108272650D02*
G75*
G03*
X117200940Y-107272650I0J1000000D01*
G01*
X159650940Y-107272650D02*
X159650940Y-95172650D01*
X160650940Y-94172650D02*
X173350940Y-94172650D01*
X173350940Y-108272650D02*
X160650940Y-108272650D01*
X174350940Y-95172650D02*
X174350940Y-107272650D01*
X160650940Y-94172650D02*
G75*
G03*
X159650940Y-95172650I-1J-999999D01*
G01*
X159650940Y-107272650D02*
G75*
G03*
X160650940Y-108272650I999999J-1D01*
G01*
X174350940Y-95172650D02*
G75*
G03*
X173350940Y-94172650I-1000000J0D01*
G01*
X173350940Y-108272650D02*
G75*
G03*
X174350940Y-107272650I0J1000000D01*
G01*
X188225940Y-88222500D02*
X188225940Y-76122500D01*
X189225940Y-75122500D02*
X201925940Y-75122500D01*
X201925940Y-89222500D02*
X189225940Y-89222500D01*
X202925940Y-76122500D02*
X202925940Y-88222500D01*
X189225940Y-75122500D02*
G75*
G03*
X188225940Y-76122500I-1J-999999D01*
G01*
X188225940Y-88222500D02*
G75*
G03*
X189225940Y-89222500I999999J-1D01*
G01*
X202925940Y-76122500D02*
G75*
G03*
X201925940Y-75122500I-1000000J0D01*
G01*
X201925940Y-89222500D02*
G75*
G03*
X202925940Y-88222500I0J1000000D01*
G01*
D12*
X63826250Y-101222500D02*
G75*
G03*
X63826250Y-101222500I-1600000J0D01*
G01*
X25726250Y-63122500D02*
G75*
G03*
X25726250Y-63122500I-1600000J0D01*
G01*
X70970000Y-120272500D02*
G75*
G03*
X70970000Y-120272500I-1600000J0D01*
G01*
X45966875Y-120272500D02*
G75*
G03*
X45966875Y-120272500I-1600000J0D01*
G01*
X240038750Y-63122500D02*
G75*
G03*
X240038750Y-63122500I-1600000J0D01*
G01*
D11*
X54875940Y-88222500D02*
X54875940Y-76122500D01*
X55875940Y-75122500D02*
X68575940Y-75122500D01*
X68575940Y-89222500D02*
X55875940Y-89222500D01*
X69575940Y-76122500D02*
X69575940Y-88222500D01*
X55875940Y-75122500D02*
G75*
G03*
X54875940Y-76122500I-1J-999999D01*
G01*
X54875940Y-88222500D02*
G75*
G03*
X55875940Y-89222500I999999J-1D01*
G01*
X69575940Y-76122500D02*
G75*
G03*
X68575940Y-75122500I-1000000J0D01*
G01*
X68575940Y-89222500D02*
G75*
G03*
X69575940Y-88222500I0J1000000D01*
G01*
X107263440Y-69172500D02*
X107263440Y-57072500D01*
X108263440Y-56072500D02*
X120963440Y-56072500D01*
X120963440Y-70172500D02*
X108263440Y-70172500D01*
X121963440Y-57072500D02*
X121963440Y-69172500D01*
X108263440Y-56072500D02*
G75*
G03*
X107263440Y-57072500I-1J-999999D01*
G01*
X107263440Y-69172500D02*
G75*
G03*
X108263440Y-70172500I999999J-1D01*
G01*
X121963440Y-57072500D02*
G75*
G03*
X120963440Y-56072500I-1000000J0D01*
G01*
X120963440Y-70172500D02*
G75*
G03*
X121963440Y-69172500I0J1000000D01*
G01*
D12*
X149576250Y-82172500D02*
G75*
G03*
X149576250Y-82172500I-1600000J0D01*
G01*
D11*
X69163440Y-69172500D02*
X69163440Y-57072500D01*
X70163440Y-56072500D02*
X82863440Y-56072500D01*
X82863440Y-70172500D02*
X70163440Y-70172500D01*
X83863440Y-57072500D02*
X83863440Y-69172500D01*
X70163440Y-56072500D02*
G75*
G03*
X69163440Y-57072500I-1J-999999D01*
G01*
X69163440Y-69172500D02*
G75*
G03*
X70163440Y-70172500I999999J-1D01*
G01*
X83863440Y-57072500D02*
G75*
G03*
X82863440Y-56072500I-1000000J0D01*
G01*
X82863440Y-70172500D02*
G75*
G03*
X83863440Y-69172500I0J1000000D01*
G01*
D12*
X120976250Y-101222500D02*
G75*
G03*
X120976250Y-101222500I-1600000J0D01*
G01*
X125738750Y-63122500D02*
G75*
G03*
X125738750Y-63122500I-1600000J0D01*
G01*
D11*
X153330740Y-113222580D02*
X185430740Y-113222580D01*
X153330740Y-126322580D02*
X153330740Y-113222580D01*
X184430740Y-127322580D02*
X154330740Y-127322580D01*
X185430740Y-113222580D02*
X185430740Y-126322580D01*
X153330740Y-126322580D02*
G75*
G03*
X154330740Y-127322580I999999J-1D01*
G01*
X184430740Y-127322580D02*
G75*
G03*
X185430740Y-126322580I0J1000000D01*
G01*
X26300900Y-126322580D02*
X26300900Y-114222580D01*
X27300900Y-113222580D02*
X40000900Y-113222580D01*
X40000900Y-127322580D02*
X27300900Y-127322580D01*
X41000900Y-114222580D02*
X41000900Y-126322580D01*
X27300900Y-113222580D02*
G75*
G03*
X26300900Y-114222580I-1J-999999D01*
G01*
X26300900Y-126322580D02*
G75*
G03*
X27300900Y-127322580I999999J-1D01*
G01*
X41000900Y-114222580D02*
G75*
G03*
X40000900Y-113222580I-1000000J0D01*
G01*
X40000900Y-127322580D02*
G75*
G03*
X41000900Y-126322580I0J1000000D01*
G01*
X169175940Y-88222500D02*
X169175940Y-76122500D01*
X170175940Y-75122500D02*
X182875940Y-75122500D01*
X182875940Y-89222500D02*
X170175940Y-89222500D01*
X183875940Y-76122500D02*
X183875940Y-88222500D01*
X170175940Y-75122500D02*
G75*
G03*
X169175940Y-76122500I-1J-999999D01*
G01*
X169175940Y-88222500D02*
G75*
G03*
X170175940Y-89222500I999999J-1D01*
G01*
X183875940Y-76122500D02*
G75*
G03*
X182875940Y-75122500I-1000000J0D01*
G01*
X182875940Y-89222500D02*
G75*
G03*
X183875940Y-88222500I0J1000000D01*
G01*
X92975940Y-88222500D02*
X92975940Y-76122500D01*
X93975940Y-75122500D02*
X106675940Y-75122500D01*
X106675940Y-89222500D02*
X93975940Y-89222500D01*
X107675940Y-76122500D02*
X107675940Y-88222500D01*
X93975940Y-75122500D02*
G75*
G03*
X92975940Y-76122500I-1J-999999D01*
G01*
X92975940Y-88222500D02*
G75*
G03*
X93975940Y-89222500I999999J-1D01*
G01*
X107675940Y-76122500D02*
G75*
G03*
X106675940Y-75122500I-1000000J0D01*
G01*
X106675940Y-89222500D02*
G75*
G03*
X107675940Y-88222500I0J1000000D01*
G01*
D12*
X275757500Y-101222500D02*
G75*
G03*
X275757500Y-101222500I-1600000J0D01*
G01*
D11*
X112025940Y-88222500D02*
X112025940Y-76122500D01*
X113025940Y-75122500D02*
X125725940Y-75122500D01*
X125725940Y-89222500D02*
X113025940Y-89222500D01*
X126725940Y-76122500D02*
X126725940Y-88222500D01*
X113025940Y-75122500D02*
G75*
G03*
X112025940Y-76122500I-1J-999999D01*
G01*
X112025940Y-88222500D02*
G75*
G03*
X113025940Y-89222500I999999J-1D01*
G01*
X126725940Y-76122500D02*
G75*
G03*
X125725940Y-75122500I-1000000J0D01*
G01*
X125725940Y-89222500D02*
G75*
G03*
X126725940Y-88222500I0J1000000D01*
G01*
M02*
