G04 #@! TF.GenerationSoftware,KiCad,Pcbnew,7.0.8-7.0.8~ubuntu23.04.1*
G04 #@! TF.CreationDate,2023-10-19T23:28:56+00:00*
G04 #@! TF.ProjectId,plate,706c6174-652e-46b6-9963-61645f706362,rev?*
G04 #@! TF.SameCoordinates,Original*
G04 #@! TF.FileFunction,Legend,Bot*
G04 #@! TF.FilePolarity,Positive*
%FSLAX46Y46*%
G04 Gerber Fmt 4.6, Leading zero omitted, Abs format (unit mm)*
G04 Created by KiCad (PCBNEW 7.0.8-7.0.8~ubuntu23.04.1) date 2023-10-19 23:28:56*
%MOMM*%
%LPD*%
G01*
G04 APERTURE LIST*
%ADD10C,0.150000*%
%ADD11C,2.200000*%
G04 APERTURE END LIST*
D10*
X268133518Y-128216795D02*
X268133518Y-128788223D01*
X268133518Y-128788223D02*
X268171613Y-128902509D01*
X268171613Y-128902509D02*
X268247804Y-128978700D01*
X268247804Y-128978700D02*
X268362089Y-129016795D01*
X268362089Y-129016795D02*
X268438280Y-129016795D01*
X267371613Y-129016795D02*
X267752565Y-129016795D01*
X267752565Y-129016795D02*
X267752565Y-128216795D01*
X266647803Y-128940604D02*
X266685899Y-128978700D01*
X266685899Y-128978700D02*
X266800184Y-129016795D01*
X266800184Y-129016795D02*
X266876375Y-129016795D01*
X266876375Y-129016795D02*
X266990661Y-128978700D01*
X266990661Y-128978700D02*
X267066851Y-128902509D01*
X267066851Y-128902509D02*
X267104946Y-128826319D01*
X267104946Y-128826319D02*
X267143042Y-128673938D01*
X267143042Y-128673938D02*
X267143042Y-128559652D01*
X267143042Y-128559652D02*
X267104946Y-128407271D01*
X267104946Y-128407271D02*
X267066851Y-128331080D01*
X267066851Y-128331080D02*
X266990661Y-128254890D01*
X266990661Y-128254890D02*
X266876375Y-128216795D01*
X266876375Y-128216795D02*
X266800184Y-128216795D01*
X266800184Y-128216795D02*
X266685899Y-128254890D01*
X266685899Y-128254890D02*
X266647803Y-128292985D01*
X266076375Y-128216795D02*
X266076375Y-128788223D01*
X266076375Y-128788223D02*
X266114470Y-128902509D01*
X266114470Y-128902509D02*
X266190661Y-128978700D01*
X266190661Y-128978700D02*
X266304946Y-129016795D01*
X266304946Y-129016795D02*
X266381137Y-129016795D01*
X265314470Y-129016795D02*
X265695422Y-129016795D01*
X265695422Y-129016795D02*
X265695422Y-128216795D01*
X264590660Y-128940604D02*
X264628756Y-128978700D01*
X264628756Y-128978700D02*
X264743041Y-129016795D01*
X264743041Y-129016795D02*
X264819232Y-129016795D01*
X264819232Y-129016795D02*
X264933518Y-128978700D01*
X264933518Y-128978700D02*
X265009708Y-128902509D01*
X265009708Y-128902509D02*
X265047803Y-128826319D01*
X265047803Y-128826319D02*
X265085899Y-128673938D01*
X265085899Y-128673938D02*
X265085899Y-128559652D01*
X265085899Y-128559652D02*
X265047803Y-128407271D01*
X265047803Y-128407271D02*
X265009708Y-128331080D01*
X265009708Y-128331080D02*
X264933518Y-128254890D01*
X264933518Y-128254890D02*
X264819232Y-128216795D01*
X264819232Y-128216795D02*
X264743041Y-128216795D01*
X264743041Y-128216795D02*
X264628756Y-128254890D01*
X264628756Y-128254890D02*
X264590660Y-128292985D01*
X264019232Y-128216795D02*
X264019232Y-128788223D01*
X264019232Y-128788223D02*
X264057327Y-128902509D01*
X264057327Y-128902509D02*
X264133518Y-128978700D01*
X264133518Y-128978700D02*
X264247803Y-129016795D01*
X264247803Y-129016795D02*
X264323994Y-129016795D01*
X263257327Y-129016795D02*
X263638279Y-129016795D01*
X263638279Y-129016795D02*
X263638279Y-128216795D01*
X262533517Y-128940604D02*
X262571613Y-128978700D01*
X262571613Y-128978700D02*
X262685898Y-129016795D01*
X262685898Y-129016795D02*
X262762089Y-129016795D01*
X262762089Y-129016795D02*
X262876375Y-128978700D01*
X262876375Y-128978700D02*
X262952565Y-128902509D01*
X262952565Y-128902509D02*
X262990660Y-128826319D01*
X262990660Y-128826319D02*
X263028756Y-128673938D01*
X263028756Y-128673938D02*
X263028756Y-128559652D01*
X263028756Y-128559652D02*
X262990660Y-128407271D01*
X262990660Y-128407271D02*
X262952565Y-128331080D01*
X262952565Y-128331080D02*
X262876375Y-128254890D01*
X262876375Y-128254890D02*
X262762089Y-128216795D01*
X262762089Y-128216795D02*
X262685898Y-128216795D01*
X262685898Y-128216795D02*
X262571613Y-128254890D01*
X262571613Y-128254890D02*
X262533517Y-128292985D01*
X261962089Y-128216795D02*
X261962089Y-128788223D01*
X261962089Y-128788223D02*
X262000184Y-128902509D01*
X262000184Y-128902509D02*
X262076375Y-128978700D01*
X262076375Y-128978700D02*
X262190660Y-129016795D01*
X262190660Y-129016795D02*
X262266851Y-129016795D01*
X261200184Y-129016795D02*
X261581136Y-129016795D01*
X261581136Y-129016795D02*
X261581136Y-128216795D01*
X260476374Y-128940604D02*
X260514470Y-128978700D01*
X260514470Y-128978700D02*
X260628755Y-129016795D01*
X260628755Y-129016795D02*
X260704946Y-129016795D01*
X260704946Y-129016795D02*
X260819232Y-128978700D01*
X260819232Y-128978700D02*
X260895422Y-128902509D01*
X260895422Y-128902509D02*
X260933517Y-128826319D01*
X260933517Y-128826319D02*
X260971613Y-128673938D01*
X260971613Y-128673938D02*
X260971613Y-128559652D01*
X260971613Y-128559652D02*
X260933517Y-128407271D01*
X260933517Y-128407271D02*
X260895422Y-128331080D01*
X260895422Y-128331080D02*
X260819232Y-128254890D01*
X260819232Y-128254890D02*
X260704946Y-128216795D01*
X260704946Y-128216795D02*
X260628755Y-128216795D01*
X260628755Y-128216795D02*
X260514470Y-128254890D01*
X260514470Y-128254890D02*
X260476374Y-128292985D01*
%LPC*%
D11*
X21745000Y-120272500D03*
X269395000Y-82172500D03*
X162238750Y-63122500D03*
X90801250Y-82172500D03*
X157476250Y-101222500D03*
X224151250Y-82172500D03*
X226531704Y-120272500D03*
X200338750Y-63122500D03*
X233676250Y-101222500D03*
X186051250Y-82172500D03*
X145758625Y-120272149D03*
X21670000Y-101222500D03*
X274157500Y-120272500D03*
X48745000Y-82172500D03*
X251535625Y-120272500D03*
X45557500Y-63122500D03*
X86038750Y-63122500D03*
X62226250Y-101222500D03*
X24126250Y-63122500D03*
X69370000Y-120272500D03*
X44366875Y-120272500D03*
X238438750Y-63122500D03*
X147976250Y-82172500D03*
X119376250Y-101222500D03*
X124138750Y-63122500D03*
X274157500Y-101222500D03*
%LPD*%
M02*
