M48
; DRILL file {KiCad 7.0.7-7.0.7~ubuntu23.04.1} date Sun Sep 10 23:09:06 2023
; FORMAT={-:-/ absolute / metric / decimal}
; #@! TF.CreationDate,2023-09-10T23:09:06+00:00
; #@! TF.GenerationSoftware,Kicad,Pcbnew,7.0.7-7.0.7~ubuntu23.04.1
; #@! TF.FileFunction,NonPlated,1,2,NPTH
FMAT,2
METRIC
; #@! TA.AperFunction,NonPlated,NPTH,ComponentDrill
T1C2.200
%
G90
G05
T1
X21.67Y-101.222
X21.745Y-120.272
X24.126Y-63.122
X44.367Y-120.272
X45.557Y-63.122
X48.745Y-82.172
X62.226Y-101.222
X69.37Y-120.272
X86.039Y-63.122
X90.801Y-82.172
X119.376Y-101.222
X124.139Y-63.122
X145.759Y-120.272
X147.976Y-82.172
X157.476Y-101.222
X162.239Y-63.122
X186.051Y-82.172
X200.339Y-63.122
X224.151Y-82.172
X226.532Y-120.272
X233.676Y-101.222
X238.439Y-63.122
X251.536Y-120.272
X269.395Y-82.172
X274.157Y-101.222
X274.157Y-120.272
T0
M30
