%TF.GenerationSoftware,KiCad,Pcbnew,7.0.7-7.0.7~ubuntu23.04.1*%
%TF.CreationDate,Date%
%TF.ProjectId,plate,706c6174-652e-46b6-9963-61645f706362,rev?*%
%TF.SameCoordinates,Original*%
%TF.FileFunction,Drillmap*%
%TF.FilePolarity,Positive*%
%FSLAX45Y45*%
G04 Gerber Fmt 4.5, Leading zero omitted, Abs format (unit mm)*
G04 Created by KiCad*
%MOMM*%
%LPD*%
G01*
G04 APERTURE LIST*
%ADD10C,0.100000*%
%ADD11C,0.200000*%
G04 APERTURE END LIST*
D10*
X2136375Y-5359750D02*
G75*
G03*
X1936375Y-5559750I0J-200000D01*
G01*
X1936375Y-12779750D02*
X1936375Y-5559750D01*
X27653875Y-5559750D02*
X27653875Y-12779750D01*
X27453875Y-12979745D02*
G75*
G03*
X27653875Y-12779750I5J199995D01*
G01*
X1936375Y-12779750D02*
G75*
G03*
X2136375Y-12979750I200000J0D01*
G01*
X27453875Y-5359750D02*
X2136375Y-5359750D01*
X2136375Y-12979750D02*
X27453875Y-12979750D01*
X27653880Y-5559750D02*
G75*
G03*
X27453875Y-5359750I-200000J0D01*
G01*
D11*
X2192152Y-13296234D02*
X2192152Y-13096234D01*
X2192152Y-13096234D02*
X2239771Y-13096234D01*
X2239771Y-13096234D02*
X2268342Y-13105758D01*
X2268342Y-13105758D02*
X2287390Y-13124805D01*
X2287390Y-13124805D02*
X2296914Y-13143853D01*
X2296914Y-13143853D02*
X2306438Y-13181948D01*
X2306438Y-13181948D02*
X2306438Y-13210519D01*
X2306438Y-13210519D02*
X2296914Y-13248615D01*
X2296914Y-13248615D02*
X2287390Y-13267662D01*
X2287390Y-13267662D02*
X2268342Y-13286710D01*
X2268342Y-13286710D02*
X2239771Y-13296234D01*
X2239771Y-13296234D02*
X2192152Y-13296234D01*
X2392152Y-13296234D02*
X2392152Y-13162900D01*
X2392152Y-13200996D02*
X2401676Y-13181948D01*
X2401676Y-13181948D02*
X2411199Y-13172424D01*
X2411199Y-13172424D02*
X2430247Y-13162900D01*
X2430247Y-13162900D02*
X2449295Y-13162900D01*
X2515961Y-13296234D02*
X2515961Y-13162900D01*
X2515961Y-13096234D02*
X2506438Y-13105758D01*
X2506438Y-13105758D02*
X2515961Y-13115281D01*
X2515961Y-13115281D02*
X2525485Y-13105758D01*
X2525485Y-13105758D02*
X2515961Y-13096234D01*
X2515961Y-13096234D02*
X2515961Y-13115281D01*
X2639771Y-13296234D02*
X2620723Y-13286710D01*
X2620723Y-13286710D02*
X2611199Y-13267662D01*
X2611199Y-13267662D02*
X2611199Y-13096234D01*
X2744533Y-13296234D02*
X2725485Y-13286710D01*
X2725485Y-13286710D02*
X2715961Y-13267662D01*
X2715961Y-13267662D02*
X2715961Y-13096234D01*
X2973104Y-13296234D02*
X2973104Y-13096234D01*
X2973104Y-13096234D02*
X3039771Y-13239091D01*
X3039771Y-13239091D02*
X3106437Y-13096234D01*
X3106437Y-13096234D02*
X3106437Y-13296234D01*
X3287390Y-13296234D02*
X3287390Y-13191472D01*
X3287390Y-13191472D02*
X3277866Y-13172424D01*
X3277866Y-13172424D02*
X3258818Y-13162900D01*
X3258818Y-13162900D02*
X3220723Y-13162900D01*
X3220723Y-13162900D02*
X3201676Y-13172424D01*
X3287390Y-13286710D02*
X3268342Y-13296234D01*
X3268342Y-13296234D02*
X3220723Y-13296234D01*
X3220723Y-13296234D02*
X3201676Y-13286710D01*
X3201676Y-13286710D02*
X3192152Y-13267662D01*
X3192152Y-13267662D02*
X3192152Y-13248615D01*
X3192152Y-13248615D02*
X3201676Y-13229567D01*
X3201676Y-13229567D02*
X3220723Y-13220043D01*
X3220723Y-13220043D02*
X3268342Y-13220043D01*
X3268342Y-13220043D02*
X3287390Y-13210519D01*
X3382628Y-13162900D02*
X3382628Y-13362900D01*
X3382628Y-13172424D02*
X3401676Y-13162900D01*
X3401676Y-13162900D02*
X3439771Y-13162900D01*
X3439771Y-13162900D02*
X3458818Y-13172424D01*
X3458818Y-13172424D02*
X3468342Y-13181948D01*
X3468342Y-13181948D02*
X3477866Y-13200996D01*
X3477866Y-13200996D02*
X3477866Y-13258138D01*
X3477866Y-13258138D02*
X3468342Y-13277186D01*
X3468342Y-13277186D02*
X3458818Y-13286710D01*
X3458818Y-13286710D02*
X3439771Y-13296234D01*
X3439771Y-13296234D02*
X3401676Y-13296234D01*
X3401676Y-13296234D02*
X3382628Y-13286710D01*
X3563580Y-13277186D02*
X3573104Y-13286710D01*
X3573104Y-13286710D02*
X3563580Y-13296234D01*
X3563580Y-13296234D02*
X3554057Y-13286710D01*
X3554057Y-13286710D02*
X3563580Y-13277186D01*
X3563580Y-13277186D02*
X3563580Y-13296234D01*
X3563580Y-13172424D02*
X3573104Y-13181948D01*
X3573104Y-13181948D02*
X3563580Y-13191472D01*
X3563580Y-13191472D02*
X3554057Y-13181948D01*
X3554057Y-13181948D02*
X3563580Y-13172424D01*
X3563580Y-13172424D02*
X3563580Y-13191472D01*
M02*
