G04 #@! TF.GenerationSoftware,KiCad,Pcbnew,7.0.7-7.0.7~ubuntu23.04.1*
G04 #@! TF.CreationDate,2023-09-10T23:09:06+00:00*
G04 #@! TF.ProjectId,plate,706c6174-652e-46b6-9963-61645f706362,rev?*
G04 #@! TF.SameCoordinates,Original*
G04 #@! TF.FileFunction,Profile,NP*
%FSLAX46Y46*%
G04 Gerber Fmt 4.6, Leading zero omitted, Abs format (unit mm)*
G04 Created by KiCad (PCBNEW 7.0.7-7.0.7~ubuntu23.04.1) date 2023-09-10 23:09:06*
%MOMM*%
%LPD*%
G01*
G04 APERTURE LIST*
G04 #@! TA.AperFunction,Profile*
%ADD10C,0.100000*%
G04 #@! TD*
G04 #@! TA.AperFunction,Profile*
%ADD11C,0.050000*%
G04 #@! TD*
G04 APERTURE END LIST*
D10*
X21363751Y-53597501D02*
G75*
G03*
X19363751Y-55597500I-1J-1999999D01*
G01*
X19363750Y-127797500D02*
X19363750Y-55597500D01*
X276538750Y-55597500D02*
X276538750Y-127797500D01*
X274538750Y-129797450D02*
G75*
G03*
X276538750Y-127797500I50J1999950D01*
G01*
X19363750Y-127797500D02*
G75*
G03*
X21363749Y-129797500I2000000J0D01*
G01*
X274538752Y-53597500D02*
X21363751Y-53597500D01*
X21363749Y-129797500D02*
X274538750Y-129797500D01*
X276538800Y-55597500D02*
G75*
G03*
X274538752Y-53597500I-2000000J0D01*
G01*
D11*
X105755840Y-114322650D02*
X105755840Y-126222650D01*
X105755840Y-114322650D02*
X106755840Y-113322650D01*
X106755840Y-127222650D02*
X105755840Y-126222650D01*
X106755840Y-127222650D02*
X136755840Y-127222650D01*
X136755840Y-113322650D02*
X106755840Y-113322650D01*
X136755840Y-127222650D02*
X137755840Y-126222650D01*
X137755840Y-114322650D02*
X136755840Y-113322650D01*
X137755840Y-126222650D02*
X137755840Y-114322650D01*
X145413440Y-57122500D02*
X145413440Y-69122500D01*
X145413440Y-57122500D02*
X146413440Y-56122500D01*
X146413440Y-70122500D02*
X145413440Y-69122500D01*
X146413440Y-70122500D02*
X159013440Y-70122500D01*
X159013440Y-56122500D02*
X146413440Y-56122500D01*
X159013440Y-70122500D02*
X160013440Y-69122500D01*
X160013440Y-57122500D02*
X159013440Y-56122500D01*
X160013440Y-69122500D02*
X160013440Y-57122500D01*
X228755740Y-114272580D02*
X228755740Y-126272580D01*
X228755740Y-114272580D02*
X229755740Y-113272580D01*
X229755740Y-127272580D02*
X228755740Y-126272580D01*
X229755740Y-127272580D02*
X247118240Y-127272580D01*
X247118240Y-113272580D02*
X229755740Y-113272580D01*
X247118240Y-127272580D02*
X248118240Y-126272580D01*
X248118240Y-114272580D02*
X247118240Y-113272580D01*
X248118240Y-126272580D02*
X248118240Y-114272580D01*
X22845000Y-120272500D02*
G75*
G03*
X22845000Y-120272500I-1100000J0D01*
G01*
X67144640Y-126272580D02*
X67144640Y-114272580D01*
X67144640Y-126272580D02*
X66144640Y-127272580D01*
X66144640Y-113272580D02*
X67144640Y-114272580D01*
X66144640Y-113272580D02*
X48782140Y-113272580D01*
X48782140Y-127272580D02*
X66144640Y-127272580D01*
X48782140Y-113272580D02*
X47782140Y-114272580D01*
X47782140Y-126272580D02*
X48782140Y-127272580D01*
X47782140Y-114272580D02*
X47782140Y-126272580D01*
X252569740Y-76172500D02*
X252569740Y-88172500D01*
X252569740Y-76172500D02*
X253569740Y-75172500D01*
X253569740Y-89172500D02*
X252569740Y-88172500D01*
X253569740Y-89172500D02*
X266169740Y-89172500D01*
X266169740Y-75172500D02*
X253569740Y-75172500D01*
X266169740Y-89172500D02*
X267169740Y-88172500D01*
X267169740Y-76172500D02*
X266169740Y-75172500D01*
X267169740Y-88172500D02*
X267169740Y-76172500D01*
X121600940Y-95222650D02*
X121600940Y-107222650D01*
X121600940Y-95222650D02*
X122600940Y-94222650D01*
X122600940Y-108222650D02*
X121600940Y-107222650D01*
X122600940Y-108222650D02*
X135200940Y-108222650D01*
X135200940Y-94222650D02*
X122600940Y-94222650D01*
X135200940Y-108222650D02*
X136200940Y-107222650D01*
X136200940Y-95222650D02*
X135200940Y-94222650D01*
X136200940Y-107222650D02*
X136200940Y-95222650D01*
X270495000Y-82172500D02*
G75*
G03*
X270495000Y-82172500I-1100000J0D01*
G01*
X163338750Y-63122500D02*
G75*
G03*
X163338750Y-63122500I-1100000J0D01*
G01*
X93338390Y-126272580D02*
X93338390Y-114272580D01*
X93338390Y-126272580D02*
X92338390Y-127272580D01*
X92338390Y-127272580D02*
X72594640Y-127272580D01*
X92338390Y-113272580D02*
X93338390Y-114272580D01*
X72594640Y-113272580D02*
X92338390Y-113272580D01*
X72594640Y-113272580D02*
X71594640Y-114272580D01*
X71594640Y-126272580D02*
X72594640Y-127272580D01*
X71594640Y-114272580D02*
X71594640Y-126272580D01*
X64450940Y-95222650D02*
X64450940Y-107222650D01*
X64450940Y-95222650D02*
X65450940Y-94222650D01*
X65450940Y-108222650D02*
X64450940Y-107222650D01*
X65450940Y-108222650D02*
X78050940Y-108222650D01*
X78050940Y-94222650D02*
X65450940Y-94222650D01*
X78050940Y-108222650D02*
X79050940Y-107222650D01*
X79050940Y-95222650D02*
X78050940Y-94222650D01*
X79050940Y-107222650D02*
X79050940Y-95222650D01*
X257330740Y-95222650D02*
X257330740Y-107222650D01*
X257330740Y-95222650D02*
X258330740Y-94222650D01*
X258330740Y-108222650D02*
X257330740Y-107222650D01*
X258330740Y-108222650D02*
X270930740Y-108222650D01*
X270930740Y-94222650D02*
X258330740Y-94222650D01*
X270930740Y-108222650D02*
X271930740Y-107222650D01*
X271930740Y-95222650D02*
X270930740Y-94222650D01*
X271930740Y-107222650D02*
X271930740Y-95222650D01*
X216850940Y-95222650D02*
X216850940Y-107222650D01*
X216850940Y-95222650D02*
X217850940Y-94222650D01*
X217850940Y-108222650D02*
X216850940Y-107222650D01*
X217850940Y-108222650D02*
X230450940Y-108222650D01*
X230450940Y-94222650D02*
X217850940Y-94222650D01*
X230450940Y-108222650D02*
X231450940Y-107222650D01*
X231450940Y-95222650D02*
X230450940Y-94222650D01*
X231450940Y-107222650D02*
X231450940Y-95222650D01*
X150175940Y-76172500D02*
X150175940Y-88172500D01*
X150175940Y-76172500D02*
X151175940Y-75172500D01*
X151175940Y-89172500D02*
X150175940Y-88172500D01*
X151175940Y-89172500D02*
X163775940Y-89172500D01*
X163775940Y-75172500D02*
X151175940Y-75172500D01*
X163775940Y-89172500D02*
X164775940Y-88172500D01*
X164775940Y-76172500D02*
X163775940Y-75172500D01*
X164775940Y-88172500D02*
X164775940Y-76172500D01*
X254950740Y-114272580D02*
X254950740Y-126272580D01*
X254950740Y-114272580D02*
X255950740Y-113272580D01*
X255950740Y-113272580D02*
X270931990Y-113272580D01*
X255950740Y-127272580D02*
X254950740Y-126272580D01*
X270931990Y-127272580D02*
X255950740Y-127272580D01*
X270931990Y-127272580D02*
X271931990Y-126272580D01*
X271931990Y-114272580D02*
X270931990Y-113272580D01*
X271931990Y-126272580D02*
X271931990Y-114272580D01*
X24794740Y-95272650D02*
X24794740Y-107172650D01*
X24794740Y-95272650D02*
X25794740Y-94272650D01*
X25794740Y-108172650D02*
X24794740Y-107172650D01*
X25794740Y-108172650D02*
X55794740Y-108172650D01*
X55794740Y-94272650D02*
X25794740Y-94272650D01*
X55794740Y-108172650D02*
X56794740Y-107172650D01*
X56794740Y-95272650D02*
X55794740Y-94272650D01*
X56794740Y-107172650D02*
X56794740Y-95272650D01*
X91901250Y-82172500D02*
G75*
G03*
X91901250Y-82172500I-1100000J0D01*
G01*
X131125940Y-76172500D02*
X131125940Y-88172500D01*
X131125940Y-76172500D02*
X132125940Y-75172500D01*
X132125940Y-89172500D02*
X131125940Y-88172500D01*
X132125940Y-89172500D02*
X144725940Y-89172500D01*
X144725940Y-75172500D02*
X132125940Y-75172500D01*
X144725940Y-89172500D02*
X145725940Y-88172500D01*
X145725940Y-76172500D02*
X144725940Y-75172500D01*
X145725940Y-88172500D02*
X145725940Y-76172500D01*
X226375940Y-76172500D02*
X226375940Y-88172500D01*
X226375940Y-76172500D02*
X227375940Y-75172500D01*
X227375940Y-89172500D02*
X226375940Y-88172500D01*
X227375940Y-89172500D02*
X239975940Y-89172500D01*
X239975940Y-75172500D02*
X227375940Y-75172500D01*
X239975940Y-89172500D02*
X240975940Y-88172500D01*
X240975940Y-76172500D02*
X239975940Y-75172500D01*
X240975940Y-88172500D02*
X240975940Y-76172500D01*
X158576250Y-101222500D02*
G75*
G03*
X158576250Y-101222500I-1100000J0D01*
G01*
X126363440Y-57122500D02*
X126363440Y-69122500D01*
X126363440Y-57122500D02*
X127363440Y-56122500D01*
X127363440Y-70122500D02*
X126363440Y-69122500D01*
X127363440Y-70122500D02*
X139963440Y-70122500D01*
X139963440Y-56122500D02*
X127363440Y-56122500D01*
X139963440Y-70122500D02*
X140963440Y-69122500D01*
X140963440Y-57122500D02*
X139963440Y-56122500D01*
X140963440Y-69122500D02*
X140963440Y-57122500D01*
X26351250Y-57122500D02*
X26351250Y-69122500D01*
X26351250Y-57122500D02*
X27351250Y-56122500D01*
X27351250Y-70122500D02*
X26351250Y-69122500D01*
X27351250Y-70122500D02*
X39951250Y-70122500D01*
X39951250Y-56122500D02*
X27351250Y-56122500D01*
X39951250Y-70122500D02*
X40951250Y-69122500D01*
X40951250Y-57122500D02*
X39951250Y-56122500D01*
X40951250Y-69122500D02*
X40951250Y-57122500D01*
X83500940Y-95222650D02*
X83500940Y-107222650D01*
X83500940Y-95222650D02*
X84500940Y-94222650D01*
X84500940Y-108222650D02*
X83500940Y-107222650D01*
X84500940Y-108222650D02*
X97100940Y-108222650D01*
X97100940Y-94222650D02*
X84500940Y-94222650D01*
X97100940Y-108222650D02*
X98100940Y-107222650D01*
X98100940Y-95222650D02*
X97100940Y-94222650D01*
X98100940Y-107222650D02*
X98100940Y-95222650D01*
X207325940Y-76172500D02*
X207325940Y-88172500D01*
X207325940Y-76172500D02*
X208325940Y-75172500D01*
X208325940Y-89172500D02*
X207325940Y-88172500D01*
X208325940Y-89172500D02*
X220925940Y-89172500D01*
X220925940Y-75172500D02*
X208325940Y-75172500D01*
X220925940Y-89172500D02*
X221925940Y-88172500D01*
X221925940Y-76172500D02*
X220925940Y-75172500D01*
X221925940Y-88172500D02*
X221925940Y-76172500D01*
X178750940Y-95222650D02*
X178750940Y-107222650D01*
X178750940Y-95222650D02*
X179750940Y-94222650D01*
X179750940Y-108222650D02*
X178750940Y-107222650D01*
X179750940Y-108222650D02*
X192350940Y-108222650D01*
X192350940Y-94222650D02*
X179750940Y-94222650D01*
X192350940Y-108222650D02*
X193350940Y-107222650D01*
X193350940Y-95222650D02*
X192350940Y-94222650D01*
X193350940Y-107222650D02*
X193350940Y-95222650D01*
X50163440Y-57122500D02*
X50163440Y-69122500D01*
X50163440Y-57122500D02*
X51163440Y-56122500D01*
X51163440Y-70122500D02*
X50163440Y-69122500D01*
X51163440Y-70122500D02*
X63763440Y-70122500D01*
X63763440Y-56122500D02*
X51163440Y-56122500D01*
X63763440Y-70122500D02*
X64763440Y-69122500D01*
X64763440Y-57122500D02*
X63763440Y-56122500D01*
X64763440Y-69122500D02*
X64763440Y-57122500D01*
X225251250Y-82172500D02*
G75*
G03*
X225251250Y-82172500I-1100000J0D01*
G01*
X164463440Y-57122500D02*
X164463440Y-69122500D01*
X164463440Y-57122500D02*
X165463440Y-56122500D01*
X165463440Y-70122500D02*
X164463440Y-69122500D01*
X165463440Y-70122500D02*
X178063440Y-70122500D01*
X178063440Y-56122500D02*
X165463440Y-56122500D01*
X178063440Y-70122500D02*
X179063440Y-69122500D01*
X179063440Y-57122500D02*
X178063440Y-56122500D01*
X179063440Y-69122500D02*
X179063440Y-57122500D01*
X202563740Y-114272580D02*
X202563740Y-126272580D01*
X202563740Y-114272580D02*
X203563740Y-113272580D01*
X203563740Y-113272580D02*
X223307490Y-113272580D01*
X203563740Y-127272580D02*
X202563740Y-126272580D01*
X223307490Y-127272580D02*
X203563740Y-127272580D01*
X223307490Y-127272580D02*
X224307490Y-126272580D01*
X224307490Y-114272580D02*
X223307490Y-113272580D01*
X224307490Y-126272580D02*
X224307490Y-114272580D01*
X227631704Y-120272500D02*
G75*
G03*
X227631704Y-120272500I-1100000J0D01*
G01*
X201438750Y-63122500D02*
G75*
G03*
X201438750Y-63122500I-1100000J0D01*
G01*
X202563440Y-57122500D02*
X202563440Y-69122500D01*
X202563440Y-57122500D02*
X203563440Y-56122500D01*
X203563440Y-70122500D02*
X202563440Y-69122500D01*
X203563440Y-70122500D02*
X216163440Y-70122500D01*
X216163440Y-56122500D02*
X203563440Y-56122500D01*
X216163440Y-70122500D02*
X217163440Y-69122500D01*
X217163440Y-57122500D02*
X216163440Y-56122500D01*
X217163440Y-69122500D02*
X217163440Y-57122500D01*
X234776250Y-101222500D02*
G75*
G03*
X234776250Y-101222500I-1100000J0D01*
G01*
X187151250Y-82172500D02*
G75*
G03*
X187151250Y-82172500I-1100000J0D01*
G01*
X140650940Y-95222650D02*
X140650940Y-107222650D01*
X140650940Y-95222650D02*
X141650940Y-94222650D01*
X141650940Y-108222650D02*
X140650940Y-107222650D01*
X141650940Y-108222650D02*
X154250940Y-108222650D01*
X154250940Y-94222650D02*
X141650940Y-94222650D01*
X154250940Y-108222650D02*
X155250940Y-107222650D01*
X155250940Y-95222650D02*
X154250940Y-94222650D01*
X155250940Y-107222650D02*
X155250940Y-95222650D01*
X183513440Y-57122500D02*
X183513440Y-69122500D01*
X183513440Y-57122500D02*
X184513440Y-56122500D01*
X184513440Y-70122500D02*
X183513440Y-69122500D01*
X184513440Y-70122500D02*
X197113440Y-70122500D01*
X197113440Y-56122500D02*
X184513440Y-56122500D01*
X197113440Y-70122500D02*
X198113440Y-69122500D01*
X198113440Y-57122500D02*
X197113440Y-56122500D01*
X198113440Y-69122500D02*
X198113440Y-57122500D01*
X73975940Y-76172500D02*
X73975940Y-88172500D01*
X73975940Y-76172500D02*
X74975940Y-75172500D01*
X74975940Y-89172500D02*
X73975940Y-88172500D01*
X74975940Y-89172500D02*
X87575940Y-89172500D01*
X87575940Y-75172500D02*
X74975940Y-75172500D01*
X87575940Y-89172500D02*
X88575940Y-88172500D01*
X88575940Y-76172500D02*
X87575940Y-75172500D01*
X88575940Y-88172500D02*
X88575940Y-76172500D01*
X197800940Y-95222650D02*
X197800940Y-107222650D01*
X197800940Y-95222650D02*
X198800940Y-94222650D01*
X198800940Y-108222650D02*
X197800940Y-107222650D01*
X198800940Y-108222650D02*
X211400940Y-108222650D01*
X211400940Y-94222650D02*
X198800940Y-94222650D01*
X211400940Y-108222650D02*
X212400940Y-107222650D01*
X212400940Y-95222650D02*
X211400940Y-94222650D01*
X212400940Y-107222650D02*
X212400940Y-95222650D01*
X146858625Y-120272149D02*
G75*
G03*
X146858625Y-120272149I-1100000J0D01*
G01*
X22770000Y-101222500D02*
G75*
G03*
X22770000Y-101222500I-1100000J0D01*
G01*
X259713440Y-57122500D02*
X259713440Y-69122500D01*
X259713440Y-57122500D02*
X260713440Y-56122500D01*
X260713440Y-70122500D02*
X259713440Y-69122500D01*
X260713440Y-70122500D02*
X273313440Y-70122500D01*
X273313440Y-56122500D02*
X260713440Y-56122500D01*
X273313440Y-70122500D02*
X274313440Y-69122500D01*
X274313440Y-57122500D02*
X273313440Y-56122500D01*
X274313440Y-69122500D02*
X274313440Y-57122500D01*
X235900940Y-95222650D02*
X235900940Y-107222650D01*
X235900940Y-95222650D02*
X236900940Y-94222650D01*
X236900940Y-108222650D02*
X235900940Y-107222650D01*
X236900940Y-108222650D02*
X249500940Y-108222650D01*
X249500940Y-94222650D02*
X236900940Y-94222650D01*
X249500940Y-108222650D02*
X250500940Y-107222650D01*
X250500940Y-95222650D02*
X249500940Y-94222650D01*
X250500940Y-107222650D02*
X250500940Y-95222650D01*
X275257500Y-120272500D02*
G75*
G03*
X275257500Y-120272500I-1100000J0D01*
G01*
X221613440Y-57122500D02*
X221613440Y-69122500D01*
X221613440Y-57122500D02*
X222613440Y-56122500D01*
X222613440Y-70122500D02*
X221613440Y-69122500D01*
X222613440Y-70122500D02*
X235213440Y-70122500D01*
X235213440Y-56122500D02*
X222613440Y-56122500D01*
X235213440Y-70122500D02*
X236213440Y-69122500D01*
X236213440Y-57122500D02*
X235213440Y-56122500D01*
X236213440Y-69122500D02*
X236213440Y-57122500D01*
X49845000Y-82172500D02*
G75*
G03*
X49845000Y-82172500I-1100000J0D01*
G01*
X252635625Y-120272500D02*
G75*
G03*
X252635625Y-120272500I-1100000J0D01*
G01*
X46657500Y-63122500D02*
G75*
G03*
X46657500Y-63122500I-1100000J0D01*
G01*
X240663440Y-57122500D02*
X240663440Y-69122500D01*
X240663440Y-57122500D02*
X241663440Y-56122500D01*
X241663440Y-70122500D02*
X240663440Y-69122500D01*
X241663440Y-70122500D02*
X254263440Y-70122500D01*
X254263440Y-56122500D02*
X241663440Y-56122500D01*
X254263440Y-70122500D02*
X255263440Y-69122500D01*
X255263440Y-57122500D02*
X254263440Y-56122500D01*
X255263440Y-69122500D02*
X255263440Y-57122500D01*
X88263440Y-57122500D02*
X88263440Y-69122500D01*
X88263440Y-57122500D02*
X89263440Y-56122500D01*
X89263440Y-70122500D02*
X88263440Y-69122500D01*
X89263440Y-70122500D02*
X101863440Y-70122500D01*
X101863440Y-56122500D02*
X89263440Y-56122500D01*
X101863440Y-70122500D02*
X102863440Y-69122500D01*
X102863440Y-57122500D02*
X101863440Y-56122500D01*
X102863440Y-69122500D02*
X102863440Y-57122500D01*
X87138750Y-63122500D02*
G75*
G03*
X87138750Y-63122500I-1100000J0D01*
G01*
X102550940Y-95222650D02*
X102550940Y-107222650D01*
X102550940Y-95222650D02*
X103550940Y-94222650D01*
X103550940Y-108222650D02*
X102550940Y-107222650D01*
X103550940Y-108222650D02*
X116150940Y-108222650D01*
X116150940Y-94222650D02*
X103550940Y-94222650D01*
X116150940Y-108222650D02*
X117150940Y-107222650D01*
X117150940Y-95222650D02*
X116150940Y-94222650D01*
X117150940Y-107222650D02*
X117150940Y-95222650D01*
X159700940Y-95222650D02*
X159700940Y-107222650D01*
X159700940Y-95222650D02*
X160700940Y-94222650D01*
X160700940Y-108222650D02*
X159700940Y-107222650D01*
X160700940Y-108222650D02*
X173300940Y-108222650D01*
X173300940Y-94222650D02*
X160700940Y-94222650D01*
X173300940Y-108222650D02*
X174300940Y-107222650D01*
X174300940Y-95222650D02*
X173300940Y-94222650D01*
X174300940Y-107222650D02*
X174300940Y-95222650D01*
X23969975Y-76173000D02*
X23969975Y-88173000D01*
X23969975Y-76173000D02*
X24969975Y-75173000D01*
X24969975Y-89173000D02*
X23969975Y-88173000D01*
X24969975Y-89173000D02*
X42332475Y-89173000D01*
X42332475Y-75173000D02*
X24969975Y-75173000D01*
X42332475Y-89173000D02*
X43332475Y-88173000D01*
X43332475Y-76173000D02*
X42332475Y-75173000D01*
X43332475Y-88173000D02*
X43332475Y-76173000D01*
X188275940Y-76172500D02*
X188275940Y-88172500D01*
X188275940Y-76172500D02*
X189275940Y-75172500D01*
X189275940Y-89172500D02*
X188275940Y-88172500D01*
X189275940Y-89172500D02*
X201875940Y-89172500D01*
X201875940Y-75172500D02*
X189275940Y-75172500D01*
X201875940Y-89172500D02*
X202875940Y-88172500D01*
X202875940Y-76172500D02*
X201875940Y-75172500D01*
X202875940Y-88172500D02*
X202875940Y-76172500D01*
X63326250Y-101222500D02*
G75*
G03*
X63326250Y-101222500I-1100000J0D01*
G01*
X25226250Y-63122500D02*
G75*
G03*
X25226250Y-63122500I-1100000J0D01*
G01*
X70470000Y-120272500D02*
G75*
G03*
X70470000Y-120272500I-1100000J0D01*
G01*
X45466875Y-120272500D02*
G75*
G03*
X45466875Y-120272500I-1100000J0D01*
G01*
X239538750Y-63122500D02*
G75*
G03*
X239538750Y-63122500I-1100000J0D01*
G01*
X54925940Y-76172500D02*
X54925940Y-88172500D01*
X54925940Y-76172500D02*
X55925940Y-75172500D01*
X55925940Y-89172500D02*
X54925940Y-88172500D01*
X55925940Y-89172500D02*
X68525940Y-89172500D01*
X68525940Y-75172500D02*
X55925940Y-75172500D01*
X68525940Y-89172500D02*
X69525940Y-88172500D01*
X69525940Y-76172500D02*
X68525940Y-75172500D01*
X69525940Y-88172500D02*
X69525940Y-76172500D01*
X107313440Y-57122500D02*
X107313440Y-69122500D01*
X107313440Y-57122500D02*
X108313440Y-56122500D01*
X108313440Y-70122500D02*
X107313440Y-69122500D01*
X108313440Y-70122500D02*
X120913440Y-70122500D01*
X120913440Y-56122500D02*
X108313440Y-56122500D01*
X120913440Y-70122500D02*
X121913440Y-69122500D01*
X121913440Y-57122500D02*
X120913440Y-56122500D01*
X121913440Y-69122500D02*
X121913440Y-57122500D01*
X149076250Y-82172500D02*
G75*
G03*
X149076250Y-82172500I-1100000J0D01*
G01*
X69213440Y-57122500D02*
X69213440Y-69122500D01*
X69213440Y-57122500D02*
X70213440Y-56122500D01*
X70213440Y-70122500D02*
X69213440Y-69122500D01*
X70213440Y-70122500D02*
X82813440Y-70122500D01*
X82813440Y-56122500D02*
X70213440Y-56122500D01*
X82813440Y-70122500D02*
X83813440Y-69122500D01*
X83813440Y-57122500D02*
X82813440Y-56122500D01*
X83813440Y-69122500D02*
X83813440Y-57122500D01*
X120476250Y-101222500D02*
G75*
G03*
X120476250Y-101222500I-1100000J0D01*
G01*
X125238750Y-63122500D02*
G75*
G03*
X125238750Y-63122500I-1100000J0D01*
G01*
X153380740Y-114322580D02*
X153380740Y-126222580D01*
X153380740Y-114322580D02*
X154380740Y-113322580D01*
X154380740Y-127222580D02*
X153380740Y-126222580D01*
X154380740Y-127222580D02*
X184380740Y-127222580D01*
X184380740Y-113322580D02*
X154380740Y-113322580D01*
X184380740Y-127222580D02*
X185380740Y-126222580D01*
X185380740Y-114322580D02*
X184380740Y-113322580D01*
X185380740Y-126222580D02*
X185380740Y-114322580D01*
X40950900Y-126272580D02*
X40950900Y-114272580D01*
X40950900Y-126272580D02*
X39950900Y-127272580D01*
X39950900Y-127272580D02*
X24969650Y-127272580D01*
X39950900Y-113272580D02*
X40950900Y-114272580D01*
X24969650Y-113272580D02*
X39950900Y-113272580D01*
X24969650Y-113272580D02*
X23969650Y-114272580D01*
X23969650Y-126272580D02*
X24969650Y-127272580D01*
X23969650Y-114272580D02*
X23969650Y-126272580D01*
X169225940Y-76172500D02*
X169225940Y-88172500D01*
X169225940Y-76172500D02*
X170225940Y-75172500D01*
X170225940Y-89172500D02*
X169225940Y-88172500D01*
X170225940Y-89172500D02*
X182825940Y-89172500D01*
X182825940Y-75172500D02*
X170225940Y-75172500D01*
X182825940Y-89172500D02*
X183825940Y-88172500D01*
X183825940Y-76172500D02*
X182825940Y-75172500D01*
X183825940Y-88172500D02*
X183825940Y-76172500D01*
X93025940Y-76172500D02*
X93025940Y-88172500D01*
X93025940Y-76172500D02*
X94025940Y-75172500D01*
X94025940Y-89172500D02*
X93025940Y-88172500D01*
X94025940Y-89172500D02*
X106625940Y-89172500D01*
X106625940Y-75172500D02*
X94025940Y-75172500D01*
X106625940Y-89172500D02*
X107625940Y-88172500D01*
X107625940Y-76172500D02*
X106625940Y-75172500D01*
X107625940Y-88172500D02*
X107625940Y-76172500D01*
X275257500Y-101222500D02*
G75*
G03*
X275257500Y-101222500I-1100000J0D01*
G01*
X112075940Y-76172500D02*
X112075940Y-88172500D01*
X112075940Y-76172500D02*
X113075940Y-75172500D01*
X113075940Y-89172500D02*
X112075940Y-88172500D01*
X113075940Y-89172500D02*
X125675940Y-89172500D01*
X125675940Y-75172500D02*
X113075940Y-75172500D01*
X125675940Y-89172500D02*
X126675940Y-88172500D01*
X126675940Y-76172500D02*
X125675940Y-75172500D01*
X126675940Y-88172500D02*
X126675940Y-76172500D01*
M02*
