  0
SECTION
  2
HEADER
  9
$ANGBASE
  50
0.0
  9
$ANGDIR
  70
1
  9
$MEASUREMENT
  70
1
  0
ENDSEC
  0
SECTION
  2
TABLES
  0
TABLE
  2
LTYPE
  70
4
  0
LTYPE
  5
40F
  2
CONTINUOUS
  70
0
  3
Solid line
  72
65
  73
0
  40
0.0
  0
LTYPE
  5
410
  2
DASHDOT
 70
0
  3
Dash Dot ____ _ ____ _
 72
65
 73
4
 40
2.0
 49
1.25
 49
-0.25
 49
0.25
 49
-0.25
  0
LTYPE
  5
411
  2
DASHED
 70
0
  3
Dashed __ __ __ __ __
 72
65
 73
2
 40
0.75
 49
0.5
 49
-0.25
  0
LTYPE
  5
43B
  2
DOTTED
 70
0
  3
Dotted .  .  .  .
 72
65
 73
2
 40
0.2
 49
0.0
 49
-0.2
  0
ENDTAB
  0
TABLE
  2
STYLE
  70
4
  0
STYLE
  2
KICAD
  70
0
  40
0
  41
1
  42
1
  50
0
  71
0
  3
isocp.shx
  0
STYLE
  2
KICADB
  70
0
  40
0
  41
1
  42
1
  50
0
  71
0
  3
isocp.shx
  0
STYLE
  2
KICADI
  70
0
  40
0
  41
1
  42
1
  50
15
  71
0
  3
isocp.shx
  0
STYLE
  2
KICADBI
  70
0
  40
0
  41
1
  42
1
  50
15
  71
0
  3
isocp.shx
  0
ENDTAB
  0
TABLE
  2
LAYER
  70
1
  0
LAYER
  2
BLACK
  70
0
  62
7
  6
CONTINUOUS
  0
ENDTAB
  0
ENDSEC
  0
SECTION
  2
ENTITIES
0
LINE
8
BLACK
6
CONTINUOUS
10
52.4387
20
-53.5975
11
86.3012
21
-53.5975
0
ARC
8
BLACK
10
252.464
20
-131.797
40
1.99995
50
89.9986
51
180
0
ARC
8
BLACK
10
209.601
20
-131.797
40
1.99995
50
89.9986
51
180
0
ARC
8
BLACK
10
200.601
20
-51.5975
40
1.99995
50
-90.0014
51
-0
0
LINE
8
BLACK
6
CONTINUOUS
10
93.3012
20
-49.5975
11
93.3012
21
-51.5975
0
LINE
8
BLACK
6
CONTINUOUS
10
43.4388
20
-129.797
11
21.3637
21
-129.797
0
LINE
8
BLACK
6
CONTINUOUS
10
88.3012
20
-49.5975
11
88.3012
21
-51.5975
0
LINE
8
BLACK
6
CONTINUOUS
10
45.4387
20
-133.797
11
45.4388
21
-131.797
0
LINE
8
BLACK
6
CONTINUOUS
10
207.601
20
-49.5975
11
207.601
21
-51.5975
0
LINE
8
BLACK
6
CONTINUOUS
10
88.3012
20
-133.798
11
88.3012
21
-131.797
0
CIRCLE
8
BLACK
10
247.964
20
-133.797
40
1.5
0
ARC
8
BLACK
10
252.464
20
-51.5975
40
2
50
-180
51
-89.9986
0
LINE
8
BLACK
6
CONTINUOUS
10
50.4387
20
-49.5975
11
50.4387
21
-51.5975
0
ARC
8
BLACK
10
200.601
20
-131.797
40
2
50
-0
51
90.0014
0
ARC
8
BLACK
10
247.964
20
-49.5975
40
2.5
50
-0
51
180
0
ARC
8
BLACK
10
205.101
20
-49.5975
40
2.5
50
-0
51
180
0
LINE
8
BLACK
6
CONTINUOUS
10
19.3637
20
-127.797
11
19.3637
21
-55.5975
0
ARC
8
BLACK
10
43.4388
20
-51.5975
40
1.99995
50
-90.0014
51
-0
0
CIRCLE
8
BLACK
10
205.101
20
-133.798
40
1.5
0
ARC
8
BLACK
10
86.3013
20
-51.5975
40
1.99995
50
-90.0014
51
-0
0
CIRCLE
8
BLACK
10
90.8012
20
-133.798
40
1.5
0
CIRCLE
8
BLACK
10
205.101
20
-49.5975
40
1.5
0
LINE
8
BLACK
6
CONTINUOUS
10
276.539
20
-55.5975
11
276.539
21
-127.797
0
LINE
8
BLACK
6
CONTINUOUS
10
200.601
20
-129.797
11
95.3012
21
-129.797
0
CIRCLE
8
BLACK
10
90.8012
20
-49.5975
40
1.5
0
ARC
8
BLACK
10
47.9387
20
-49.5975
40
2.5
50
-0
51
180
0
LINE
8
BLACK
6
CONTINUOUS
10
250.464
20
-133.797
11
250.464
21
-131.797
0
LINE
8
BLACK
6
CONTINUOUS
10
274.539
20
-129.797
11
252.464
21
-129.797
0
ARC
8
BLACK
10
274.539
20
-55.5975
40
2
50
-0
51
90.0014
0
ARC
8
BLACK
10
243.464
20
-51.5975
40
1.99995
50
-90.0014
51
-0
0
ARC
8
BLACK
10
86.3013
20
-131.797
40
2
50
-0
51
90.0014
0
LINE
8
BLACK
6
CONTINUOUS
10
245.464
20
-49.5975
11
245.464
21
-51.5975
0
ARC
8
BLACK
10
274.539
20
-127.797
40
1.99995
50
-90.0014
51
-0
0
ARC
8
BLACK
10
209.601
20
-51.5975
40
2
50
-180
51
-89.9986
0
LINE
8
BLACK
6
CONTINUOUS
10
95.3012
20
-53.5975
11
200.601
21
-53.5975
0
ARC
8
BLACK
10
21.3637
20
-127.797
40
2
50
-180
51
-90
0
LINE
8
BLACK
6
CONTINUOUS
10
86.3012
20
-129.797
11
52.4388
21
-129.797
0
LINE
8
BLACK
6
CONTINUOUS
10
202.601
20
-49.5975
11
202.601
21
-51.5975
0
ARC
8
BLACK
10
90.8012
20
-49.5975
40
2.5
50
-0
51
180
0
LINE
8
BLACK
6
CONTINUOUS
10
243.464
20
-129.797
11
209.601
21
-129.797
0
CIRCLE
8
BLACK
10
47.9387
20
-133.797
40
1.5
0
ARC
8
BLACK
10
52.4387
20
-51.5975
40
2
50
-180
51
-89.9986
0
ARC
8
BLACK
10
47.9387
20
-133.797
40
2.5
50
-180
51
-0
0
LINE
8
BLACK
6
CONTINUOUS
10
250.464
20
-49.5975
11
250.464
21
-51.5975
0
LINE
8
BLACK
6
CONTINUOUS
10
252.464
20
-53.5975
11
274.539
21
-53.5975
0
ARC
8
BLACK
10
95.3012
20
-51.5975
40
2
50
-180
51
-89.9986
0
CIRCLE
8
BLACK
10
247.964
20
-49.5975
40
1.5
0
ARC
8
BLACK
10
43.4387
20
-131.797
40
2
50
-0
51
89.9985
0
ARC
8
BLACK
10
247.964
20
-133.797
40
2.5
50
-180
51
-0
0
ARC
8
BLACK
10
95.3012
20
-131.797
40
1.99995
50
89.9986
51
180
0
LINE
8
BLACK
6
CONTINUOUS
10
93.3012
20
-133.798
11
93.3012
21
-131.797
0
LINE
8
BLACK
6
CONTINUOUS
10
207.601
20
-133.798
11
207.601
21
-131.797
0
LINE
8
BLACK
6
CONTINUOUS
10
209.601
20
-53.5975
11
243.464
21
-53.5975
0
LINE
8
BLACK
6
CONTINUOUS
10
245.464
20
-133.797
11
245.464
21
-131.798
0
ARC
8
BLACK
10
21.3637
20
-55.5975
40
2
50
90
51
180
0
LINE
8
BLACK
6
CONTINUOUS
10
21.3637
20
-53.5975
11
43.4387
21
-53.5975
0
CIRCLE
8
BLACK
10
47.9387
20
-49.5975
40
1.5
0
LINE
8
BLACK
6
CONTINUOUS
10
202.601
20
-133.798
11
202.601
21
-131.797
0
LINE
8
BLACK
6
CONTINUOUS
10
45.4387
20
-49.5975
11
45.4387
21
-51.5975
0
LINE
8
BLACK
6
CONTINUOUS
10
50.4387
20
-133.797
11
50.4387
21
-131.798
0
ARC
8
BLACK
10
52.4387
20
-131.797
40
1.99995
50
-270.001
51
-180
0
ARC
8
BLACK
10
90.8012
20
-133.798
40
2.5
50
-180
51
-0
0
ARC
8
BLACK
10
243.464
20
-131.797
40
2
50
-2.86486e-05
51
90.0015
0
ARC
8
BLACK
10
205.101
20
-133.798
40
2.5
50
-180
51
-0
  0
ENDSEC
  0
EOF
